<?xml version="1.0" encoding="UTF-8" standalone="no"?>
<!-- Created with Inkscape (http://www.inkscape.org/) -->

<svg
   xmlns:dc="http://purl.org/dc/elements/1.1/"
   xmlns:cc="http://creativecommons.org/ns#"
   xmlns:rdf="http://www.w3.org/1999/02/22-rdf-syntax-ns#"
   xmlns:svg="http://www.w3.org/2000/svg"
   xmlns="http://www.w3.org/2000/svg"
   xmlns:sodipodi="http://sodipodi.sourceforge.net/DTD/sodipodi-0.dtd"
   xmlns:inkscape="http://www.inkscape.org/namespaces/inkscape"
   width="210mm"
   height="297mm"
   viewBox="0 0 744.09448819 1052.3622047"
   id="svg2"
   version="1.1"
   inkscape:version="0.91 r13725"
   sodipodi:docname="addition.svg"
   inkscape:export-filename="/home/edward/CryptodiraAias2/resources/addition.png"
   inkscape:export-xdpi="12.428864"
   inkscape:export-ydpi="12.428864">
  <defs
     id="defs4" />
  <sodipodi:namedview
     id="base"
     pagecolor="#ffffff"
     bordercolor="#666666"
     borderopacity="1.0"
     inkscape:pageopacity="0.0"
     inkscape:pageshadow="2"
     inkscape:zoom="1.4"
     inkscape:cx="372.84766"
     inkscape:cy="814.40743"
     inkscape:document-units="px"
     inkscape:current-layer="layer1"
     showgrid="false"
     inkscape:window-width="1855"
     inkscape:window-height="1056"
     inkscape:window-x="65"
     inkscape:window-y="24"
     inkscape:window-maximized="1" />
  <metadata
     id="metadata7">
    <rdf:RDF>
      <cc:Work
         rdf:about="">
        <dc:format>image/svg+xml</dc:format>
        <dc:type
           rdf:resource="http://purl.org/dc/dcmitype/StillImage" />
        <dc:title></dc:title>
      </cc:Work>
    </rdf:RDF>
  </metadata>
  <g
     inkscape:label="Layer 1"
     inkscape:groupmode="layer"
     id="layer1">
    <path
       style="fill:#000000"
       id="path3336"
       d="m 307.14491,130.21477 c 4.97367,-4.33139 10.09481,-8.52993 15.65001,-12.10323 1.58282,-1.01813 3.21729,-1.95364 4.82593,-2.93046 8.90274,-5.21713 18.07083,-10.66882 28.47098,-12.17607 4.35682,-0.63141 5.3649,-0.38081 9.73245,-0.18623 8.5763,0.75874 16.5647,3.99334 23.74835,8.65964 1.62282,1.05414 3.156,2.24026 4.734,3.36039 6.62976,5.38115 12.55531,11.74052 16.76481,19.22125 3.02336,5.37285 3.48004,7.41959 5.57733,13.24327 0.60156,2.43659 1.35181,4.84121 1.8047,7.30976 1.96921,10.73341 1.44847,21.93963 -0.66469,32.60472 -0.55104,2.78111 -1.33709,5.51046 -2.00563,8.26568 -3.18225,10.90559 -8.01445,21.31114 -14.8558,30.42126 -4.89292,6.51554 -6.83616,8.03567 -12.6218,13.8044 -6.76392,6.08652 -13.89667,11.85392 -21.7024,16.56997 -6.95452,4.20176 -14.06433,8.51579 -21.59108,11.71792 -2.06311,0.87772 -4.19767,1.577 -6.29651,2.3655 -8.24645,2.54243 -16.96105,3.74117 -25.50426,2.03707 -1.1958,-0.23853 -2.36107,-0.61051 -3.54161,-0.91576 -3.9366,-1.38339 -8.26777,-3.39221 -9.70531,-7.68292 -0.24837,-0.74133 -0.30118,-1.53438 -0.45176,-2.30156 -0.004,-4.7634 1.99393,-9.21515 5.01156,-12.85448 0.67422,-0.81313 1.45206,-1.53446 2.17809,-2.30169 6.35303,-5.07248 13.65418,-9.38015 21.64455,-11.16542 3.73484,-0.83446 5.03146,-0.85101 8.86396,-1.24399 8.03137,-0.53476 16.18044,-0.11087 24.12278,1.23217 1.60166,0.27084 3.18579,0.63675 4.77869,0.95513 8.83606,2.01317 17.51406,4.66688 25.91246,8.06842 4.67222,1.98754 9.15735,4.41952 13.51387,7.02308 1.99339,1.15599 3.73847,2.61274 5.39571,4.19133 0.666,0.75149 1.49541,0.9567 2.45397,1.00028 0.97223,0.0901 1.98878,-0.16999 2.91477,0.16442 0.93508,0.64554 1.13855,1.5969 1.25912,2.65895 -0.0107,0.406 0.0619,0.78205 0.18381,1.16399 0,0 -9.32711,5.13781 -9.32711,5.13781 l 0,0 c -0.15631,-0.45251 -0.33648,-0.90147 -0.2897,-1.39167 -0.0285,-0.49354 0.082,-1.38459 -0.56243,-1.48798 -0.95489,0.0165 -1.91485,0.0153 -2.86307,-0.11149 -1.10036,-0.23276 -2.04343,-0.72945 -2.78809,-1.59524 -1.54413,-1.55699 -3.23796,-2.93491 -5.11336,-4.08558 -4.22681,-2.62029 -8.58548,-5.06624 -13.13555,-7.07942 -8.28742,-3.44906 -16.88416,-6.08154 -25.65332,-8.00805 -9.52505,-1.81584 -19.06759,-2.82509 -28.76638,-1.91362 -4.339,0.52468 -8.55887,1.10476 -12.69163,2.61211 -1.15807,0.42239 -4.32595,2.27469 -3.39457,1.46719 1.64499,-1.42619 3.65242,-2.38622 5.593,-3.37321 0.96706,-0.49185 -1.77135,1.25331 -2.65702,1.87997 -0.73817,0.72248 -1.5267,1.39685 -2.2145,2.16743 -2.98509,3.34437 -5.03178,7.53167 -5.24883,12.03498 0.11115,0.68121 0.13026,1.38399 0.33345,2.04362 1.2304,3.99428 5.44971,5.77443 9.01493,7.07058 3.11989,0.79907 4.03909,1.16193 7.35614,1.45211 7.09907,0.62103 14.15236,-0.58114 20.90473,-2.74541 13.3846,-5.11858 -1.2889,0.68315 12.70229,-5.48552 0.34178,-0.15069 -1.22782,0.85089 -0.91404,0.64824 7.68225,-4.96138 15.21291,-10.14515 21.88488,-16.44876 5.83929,-5.74596 7.63324,-7.09113 12.56744,-13.58761 6.84387,-9.01078 11.72295,-19.29895 14.96112,-30.10985 0.6799,-2.73079 1.48305,-5.43383 2.03969,-8.19239 2.12385,-10.52516 2.64641,-21.60333 0.68187,-32.19761 -0.45123,-2.43337 -1.19077,-4.80434 -1.78616,-7.20651 -2.16181,-5.91872 -2.46824,-7.55162 -5.57924,-12.99096 -4.21059,-7.36188 -10.02754,-13.63805 -16.68771,-18.83639 -1.57458,-1.08946 -3.10464,-2.24626 -4.72375,-3.26838 -7.15039,-4.51391 -15.11226,-7.54152 -23.5773,-8.19207 -1.59498,-0.0393 -3.19063,-0.17884 -4.78493,-0.11803 -3.26083,0.12436 -6.46433,0.67379 -9.60314,1.55495 -1.67959,0.47151 -3.32983,1.0491 -4.95873,1.67363 -1.70833,0.655 -3.21587,2.19911 -5.04509,2.16193 -1.31866,-0.0268 2.19363,-1.46505 3.29044,-2.19758 -1.59717,0.95353 -3.21997,1.86538 -4.79151,2.8606 -5.36337,3.39652 -10.2797,7.4183 -15.01038,11.63722 0,0 -9.76349,4.04417 -9.76349,4.04417 z"
       inkscape:connector-curvature="0"
       inkscape:export-xdpi="12.428864"
       inkscape:export-ydpi="12.428864" />
    <path
       style="fill:#000000"
       id="path3340"
       d="m 195.35086,367.37832 c -0.84644,7.77396 -0.65014,15.61145 -0.57012,23.41656 0.18571,8.72851 0.15916,17.46428 0.48765,26.18906 0.13648,4.62897 0.73168,9.22424 1.23696,13.82237 0.1062,0.91122 0.18615,1.82537 0.33909,2.73032 0,0 -9.45023,4.94483 -9.45023,4.94483 l 0,0 c -0.0523,-0.94758 -0.0877,-1.89615 -0.16178,-2.84249 -0.34939,-4.67698 -0.86856,-9.34544 -0.95805,-14.03783 -0.20479,-8.77466 -0.0193,-17.55538 -0.24747,-26.33061 -0.136,-7.72873 -0.32271,-15.458 -0.12009,-23.18759 0,0 9.44404,-4.70462 9.44404,-4.70462 z"
       inkscape:connector-curvature="0"
       inkscape:export-xdpi="12.428864"
       inkscape:export-ydpi="12.428864" />
    <path
       style="fill:#000000"
       id="path3342"
       d="m 158.37159,413.24164 c 6.72313,-1.71274 13.56257,-2.90208 20.42703,-3.87843 12.54051,-1.43503 25.06043,-3.04828 37.6087,-4.41546 8.74393,-1.00022 17.49722,-1.92876 26.274,-2.5888 1.91231,0.0318 4.54271,-0.90952 6.069,0.66052 0.14047,0.2964 0.57548,1.14088 0.11936,1.40548 -9.17115,5.32031 -5.90694,4.95706 -9.86606,5.33821 0,0 8.4791,-6.453 8.4791,-6.453 l 0,0 c 3.51232,-1.34108 -0.50741,0.17573 -8.55787,4.97701 -0.0823,0.0491 0.19864,-0.0172 0.28666,0.0206 0.1767,0.0759 0.29562,0.25366 0.47887,0.32177 -1.16591,-0.75758 -4.0246,-0.007 -5.29015,-0.17258 -8.5816,0.45248 -17.13929,1.25138 -25.67918,2.20349 -12.60931,1.37145 -25.18992,3.00401 -37.77381,4.58713 -7.06419,1.10795 -14.12567,2.38977 -20.97981,4.46481 0,0 8.40416,-6.4708 8.40416,-6.4708 z"
       inkscape:connector-curvature="0"
       inkscape:export-xdpi="12.428864"
       inkscape:export-ydpi="12.428864" />
    <path
       style="fill:#000000"
       id="path3344"
       d="m 145.76345,500.68103 c 11.51214,0.70451 23.03602,0.6457 34.56331,0.55549 26.12241,-0.57966 52.24823,-0.87343 78.37608,-1.04075 33.78726,-0.20304 67.5774,0.31697 101.35148,1.23459 32.69486,1.04027 65.30296,3.78381 97.92412,6.10135 21.8866,1.82233 43.82797,2.64162 65.784,2.80144 7.40921,0.005 14.82081,-0.0272 22.2263,-0.28379 3.70362,-0.63811 9.33316,-4.41758 -7.53979,4.82118 -0.0802,0.0439 -0.0294,-0.18124 -0.0569,-0.26847 -0.0828,-0.26226 -0.1996,-0.4915 -0.31546,-0.73938 0,0 9.26394,-5.23776 9.26394,-5.23776 l 0,0 c 0.0624,0.13591 0.6616,1.34173 0.57922,1.40433 -6.80521,5.17176 -5.76062,6.04991 -10.3893,6.17985 -7.12415,-0.0987 -14.24849,-0.19236 -21.37122,-0.37157 -21.63807,-0.58125 -43.25751,-1.63494 -64.82292,-3.55482 -32.46908,-2.51375 -64.93399,-5.33768 -97.49416,-6.3646 -33.88971,-0.91468 -67.79691,-1.31507 -101.6985,-0.94833 -26.38124,0.2776 -52.76072,0.71245 -79.12957,1.59696 -5.0134,0.11468 -12.78099,0.3177 -17.94675,0.34635 -5.95418,0.033 -11.9115,-0.20199 -17.86428,-0.0126 0,0 8.5604,-6.21949 8.5604,-6.21949 z"
       inkscape:connector-curvature="0"
       inkscape:export-xdpi="12.428864"
       inkscape:export-ydpi="12.428864" />
    <path
       style="fill:#000000"
       id="path3336-3"
       d="m 300.40377,316.10726 c 4.97367,-4.33139 10.09481,-8.52993 15.65001,-12.10323 1.58282,-1.01813 3.21729,-1.95364 4.82593,-2.93046 8.90274,-5.21713 18.07083,-10.66882 28.47098,-12.17607 4.35682,-0.63141 5.3649,-0.38081 9.73245,-0.18623 8.5763,0.75874 16.5647,3.99334 23.74835,8.65964 1.62282,1.05414 3.156,2.24026 4.734,3.36039 6.62976,5.38115 12.55531,11.74052 16.76481,19.22125 3.02336,5.37285 3.48004,7.41959 5.57733,13.24327 0.60156,2.43659 1.35181,4.84121 1.8047,7.30976 1.96921,10.73341 1.44847,21.93963 -0.66469,32.60472 -0.55104,2.78111 -1.33709,5.51046 -2.00563,8.26568 -3.18225,10.90558 -8.01445,21.31113 -14.8558,30.42125 -4.89292,6.51554 -6.83616,8.03567 -12.6218,13.8044 -6.76392,6.08652 -13.89667,11.85392 -21.7024,16.56997 -6.95452,4.20176 -14.06433,8.51579 -21.59108,11.71792 -2.06311,0.87772 -4.19767,1.577 -6.29651,2.3655 -8.24645,2.54243 -16.96105,3.74117 -25.50426,2.03707 -1.1958,-0.23853 -2.36107,-0.61051 -3.54161,-0.91576 -3.9366,-1.38339 -8.26777,-3.39221 -9.70531,-7.68292 -0.24837,-0.74133 -0.30118,-1.53438 -0.45176,-2.30156 -0.004,-4.7634 1.99393,-9.21515 5.01156,-12.85448 0.67422,-0.81313 1.45206,-1.53446 2.17809,-2.30169 6.35303,-5.07248 13.65418,-9.38015 21.64455,-11.16542 3.73484,-0.83446 5.03146,-0.85101 8.86396,-1.24399 8.03137,-0.53476 16.18044,-0.11087 24.12278,1.23217 1.60166,0.27084 3.18579,0.63675 4.77869,0.95513 8.83606,2.01317 17.51406,4.66688 25.91246,8.06842 4.67222,1.98754 9.15735,4.41952 13.51387,7.02308 1.99339,1.15599 3.73847,2.61274 5.39571,4.19133 0.666,0.75149 1.49541,0.9567 2.45397,1.00028 0.97223,0.0901 1.98878,-0.16999 2.91477,0.16442 0.93508,0.64554 1.13855,1.5969 1.25912,2.65895 -0.0107,0.406 0.0619,0.78205 0.18381,1.16399 0,0 -9.32711,5.13781 -9.32711,5.13781 l 0,0 c -0.15631,-0.45251 -0.33648,-0.90147 -0.2897,-1.39167 -0.0285,-0.49354 0.082,-1.38459 -0.56243,-1.48798 -0.95489,0.0165 -1.91485,0.0153 -2.86307,-0.11149 -1.10036,-0.23276 -2.04343,-0.72945 -2.78809,-1.59524 -1.54413,-1.55699 -3.23796,-2.93491 -5.11336,-4.08558 -4.22681,-2.62029 -8.58548,-5.06624 -13.13555,-7.07942 -8.28742,-3.44906 -16.88416,-6.08154 -25.65332,-8.00805 -9.52505,-1.81584 -19.06759,-2.82509 -28.76638,-1.91362 -4.339,0.52468 -8.55887,1.10476 -12.69163,2.61211 -1.15807,0.42239 -4.32595,2.27469 -3.39457,1.46719 1.64499,-1.42619 3.65242,-2.38622 5.593,-3.37321 0.96706,-0.49185 -1.77135,1.25331 -2.65702,1.87997 -0.73817,0.72248 -1.5267,1.39685 -2.2145,2.16743 -2.98509,3.34437 -5.03178,7.53167 -5.24883,12.03498 0.11115,0.68121 0.13026,1.38399 0.33345,2.04362 1.2304,3.99428 5.44971,5.77443 9.01493,7.07058 3.11989,0.79907 4.03909,1.16193 7.35614,1.45211 7.09907,0.62103 14.15236,-0.58114 20.90473,-2.74541 13.3846,-5.11858 -1.2889,0.68315 12.70229,-5.48552 0.34178,-0.15069 -1.22782,0.85089 -0.91404,0.64824 7.68225,-4.96138 15.21291,-10.14515 21.88488,-16.44876 5.83929,-5.74596 7.63324,-7.09113 12.56744,-13.58761 6.84387,-9.01078 11.72295,-19.29895 14.96112,-30.10984 0.6799,-2.73079 1.48305,-5.43383 2.03969,-8.19239 2.12385,-10.52516 2.64641,-21.60333 0.68187,-32.19761 -0.45123,-2.43337 -1.19077,-4.80434 -1.78616,-7.20651 -2.16181,-5.91872 -2.46824,-7.55162 -5.57924,-12.99096 -4.21059,-7.36188 -10.02754,-13.63805 -16.68771,-18.83639 -1.57458,-1.08946 -3.10464,-2.24626 -4.72375,-3.26838 -7.15039,-4.51391 -15.11226,-7.54152 -23.5773,-8.19207 -1.59498,-0.0393 -3.19063,-0.17884 -4.78493,-0.11803 -3.26083,0.12436 -6.46433,0.67379 -9.60314,1.55495 -1.67959,0.47151 -3.32983,1.0491 -4.95873,1.67363 -1.70833,0.655 -3.21587,2.19911 -5.04509,2.16193 -1.31866,-0.0268 2.19363,-1.46505 3.29044,-2.19758 -1.59717,0.95353 -3.21997,1.86538 -4.79151,2.8606 -5.36337,3.39652 -10.2797,7.4183 -15.01038,11.63722 0,0 -9.76349,4.04417 -9.76349,4.04417 z"
       inkscape:connector-curvature="0"
       inkscape:export-xdpi="12.428864"
       inkscape:export-ydpi="12.428864" />
  </g>
</svg>
