<?xml version="1.0" encoding="UTF-8" standalone="no"?>
<!-- Created with Inkscape (http://www.inkscape.org/) -->

<svg
   xmlns:dc="http://purl.org/dc/elements/1.1/"
   xmlns:cc="http://creativecommons.org/ns#"
   xmlns:rdf="http://www.w3.org/1999/02/22-rdf-syntax-ns#"
   xmlns:svg="http://www.w3.org/2000/svg"
   xmlns="http://www.w3.org/2000/svg"
   xmlns:sodipodi="http://sodipodi.sourceforge.net/DTD/sodipodi-0.dtd"
   xmlns:inkscape="http://www.inkscape.org/namespaces/inkscape"
   width="210mm"
   height="297mm"
   viewBox="0 0 744.09448819 1052.3622047"
   id="svg2"
   version="1.1"
   inkscape:version="0.91 r13725"
   sodipodi:docname="addition2.svg">
  <defs
     id="defs4" />
  <sodipodi:namedview
     id="base"
     pagecolor="#ffffff"
     bordercolor="#666666"
     borderopacity="1.0"
     inkscape:pageopacity="0.0"
     inkscape:pageshadow="2"
     inkscape:zoom="1.4400881"
     inkscape:cx="308.99951"
     inkscape:cy="751.6046"
     inkscape:document-units="px"
     inkscape:current-layer="layer1"
     showgrid="false"
     inkscape:window-width="1855"
     inkscape:window-height="1056"
     inkscape:window-x="65"
     inkscape:window-y="24"
     inkscape:window-maximized="1" />
  <metadata
     id="metadata7">
    <rdf:RDF>
      <cc:Work
         rdf:about="">
        <dc:format>image/svg+xml</dc:format>
        <dc:type
           rdf:resource="http://purl.org/dc/dcmitype/StillImage" />
        <dc:title></dc:title>
      </cc:Work>
    </rdf:RDF>
  </metadata>
  <g
     inkscape:label="Layer 1"
     inkscape:groupmode="layer"
     id="layer1">
    <path
       style="fill:#000000;stroke-width:20;stroke-miterlimit:4;stroke-dasharray:none"
       id="path4158"
       d="m 297.36949,96.933366 c 5.33743,-2.909013 10.85746,-5.529857 16.60336,-7.541303 2.11495,-0.740369 4.27524,-1.344216 6.41285,-2.016323 10.59999,-2.921583 21.62976,-4.171524 32.62312,-3.78513 7.63258,0.268269 10.67957,0.999717 18.21903,2.210881 2.95667,0.71212 5.95471,1.270311 8.87001,2.13636 8.42239,2.50204 17.56415,6.579225 24.73569,11.690726 6.78237,4.834123 8.55773,7.383933 14.22288,13.490513 2.01432,2.89552 4.21798,5.66811 6.04295,8.68655 5.86125,9.69431 9.82226,20.44743 12.19325,31.49974 2.04124,9.51522 1.89954,12.39001 2.55393,21.97683 0.2337,13.53485 -2.28222,26.94297 -8.22985,39.16197 -3.47684,7.14292 -5.51057,9.43826 -10.0822,15.85504 -7.16182,9.13771 -15.91976,16.83698 -26.02011,22.58226 -32.88974,18.70836 -21.68529,14.11878 -40.49433,21.09796 -9.50417,3.07633 -19.36513,5.04104 -29.39173,4.82698 -5.98858,-0.12786 -7.02672,-0.55466 -12.76153,-1.62588 -6.78403,-1.83126 -13.11733,-5.05858 -17.2288,-10.96409 -2.28138,-3.27684 -2.49539,-4.74768 -3.74437,-8.43995 -0.20862,-1.43892 -0.57653,-2.86363 -0.62585,-4.31675 -0.15613,-4.60028 1.42505,-9.17619 4.35722,-12.73498 3.21186,-3.89825 5.43313,-4.90563 9.66284,-7.74272 10.97942,-6.01823 21.72773,-12.47876 32.93825,-18.05468 2.31945,-1.15366 4.97067,-1.47268 7.49466,-2.056 5.62459,-1.2999 10.65503,-2.06831 16.43352,-2.32174 7.14125,-0.3132 9.77485,0.1521 16.84183,0.77683 16.56502,2.40571 31.06973,10.12156 45.55818,18.01272 10.78551,6.00802 21.44418,12.34973 31.39825,19.67623 1.59449,1.1736 3.14285,2.40862 4.71428,3.61292 5.53228,4.39892 10.78256,9.14845 15.92832,13.99121 0.90732,0.91397 1.69946,1.92389 2.70104,2.73768 0,0 -29.42277,17.82372 -29.42277,17.82372 l 0,0 c -0.71309,-1.02082 -1.33421,-2.09536 -2.06491,-3.10411 -4.11895,-5.32802 -8.57613,-10.38708 -13.70642,-14.77904 -1.44448,-1.23062 -2.85647,-2.50043 -4.33345,-3.69185 -9.4065,-7.58788 -19.78886,-13.91526 -30.26888,-19.88362 -14.21488,-7.49817 -28.69309,-15.06872 -44.9008,-16.97134 -2.67954,-0.1988 -5.3524,-0.53618 -8.03864,-0.59639 -5.63526,-0.12631 -11.10473,0.29696 -16.65201,1.29535 -2.70404,0.48666 -5.38842,1.105 -8.02868,1.86511 -2.59044,0.74578 -9.77382,4.29583 -7.64175,2.64633 6.18009,-4.7813 13.33862,-8.14238 20.00793,-12.21356 -3.68362,2.13012 -6.17671,3.22662 -9.18921,6.1847 -2.82012,2.76919 -4.8744,6.5352 -5.11577,10.52545 -0.0768,1.26921 0.16976,2.53739 0.25464,3.80609 0.93538,3.33938 0.9584,4.44452 2.95551,7.38764 3.5867,5.28569 9.39047,7.97261 15.35882,9.60464 5.20105,0.94955 6.42592,1.39817 11.86696,1.42591 9.69041,0.0494 19.20718,-2.18353 28.32954,-5.28649 14.64245,-5.91387 7.94623,-3.6724 -11.10024,8.26773 -2.36959,1.48549 4.9056,-2.69723 7.25369,-4.21647 5.25999,-3.40328 9.14905,-6.51273 13.62079,-10.91157 2.13594,-2.10112 4.07088,-4.39726 6.10632,-6.59589 4.70956,-6.18411 6.80023,-8.41846 10.48903,-15.32237 6.43488,-12.04342 9.2798,-24.65374 9.45014,-38.26272 -0.36322,-9.44766 -0.0881,-12.228 -2.01284,-21.60191 -2.20393,-10.73372 -6.17786,-21.11369 -12.13484,-30.3386 -1.84715,-2.86048 -4.08029,-5.4524 -6.12044,-8.17859 -5.95863,-6.06891 -7.09799,-7.85755 -14.14232,-12.58668 -9.89004,-6.63955 -21.34164,-10.58052 -32.93813,-12.91056 -7.97308,-1.09067 -10.02172,-1.63599 -18.07614,-1.68372 -11.19125,-0.0663 -22.32371,1.70146 -32.9513,5.1885 -2.2343,0.83351 -4.49336,1.60343 -6.70289,2.50053 -6.55966,2.66331 -12.68811,6.16965 -18.85561,9.60978 0,0 26.77798,-21.419854 26.77798,-21.419854 z"
       inkscape:connector-curvature="0" />
    <path
       style="fill:#000000;stroke-width:20;stroke-miterlimit:4;stroke-dasharray:none"
       id="path4158-3"
       d="m 298.09711,325.78858 c 5.33743,-2.90901 10.85746,-5.52986 16.60336,-7.5413 2.11495,-0.74037 4.27524,-1.34422 6.41285,-2.01633 10.59999,-2.92158 21.62976,-4.17152 32.62312,-3.78513 7.63258,0.26827 10.67957,0.99972 18.21903,2.21088 2.95667,0.71212 5.95471,1.27032 8.87001,2.13636 8.42239,2.50204 17.56415,6.57923 24.73569,11.69073 6.78237,4.83412 8.55773,7.38393 14.22288,13.49051 2.01432,2.89552 4.21798,5.66811 6.04295,8.68655 5.86125,9.69431 9.82226,20.44743 12.19325,31.49974 2.04124,9.51522 1.89954,12.39001 2.55393,21.97683 0.2337,13.53485 -2.28222,26.94297 -8.22985,39.16197 -3.47684,7.14292 -5.51057,9.43826 -10.0822,15.85504 -7.16182,9.13771 -15.91976,16.83698 -26.02011,22.58226 -32.88974,18.70836 -21.68529,14.11878 -40.49433,21.09796 -9.50417,3.07633 -19.36513,5.04104 -29.39173,4.82698 -5.98858,-0.12786 -7.02672,-0.55466 -12.76153,-1.62588 -6.78403,-1.83126 -13.11733,-5.05858 -17.2288,-10.96409 -2.28138,-3.27684 -2.49539,-4.74768 -3.74437,-8.43995 -0.20862,-1.43892 -0.57653,-2.86363 -0.62585,-4.31675 -0.15613,-4.60028 1.42505,-9.17619 4.35722,-12.73498 3.21186,-3.89825 5.43313,-4.90563 9.66284,-7.74272 10.97942,-6.01823 21.72773,-12.47876 32.93825,-18.05468 2.31945,-1.15366 4.97067,-1.47268 7.49466,-2.056 5.62459,-1.2999 10.65503,-2.06831 16.43352,-2.32174 7.14125,-0.3132 9.77485,0.1521 16.84183,0.77683 16.56502,2.40571 31.06973,10.12156 45.55818,18.01272 10.78551,6.00802 21.44418,12.34973 31.39825,19.67623 1.59449,1.1736 3.14285,2.40862 4.71428,3.61292 5.53228,4.39892 10.78256,9.14845 15.92832,13.99121 0.90732,0.91397 1.69946,1.92389 2.70104,2.73768 0,0 -29.42277,17.82372 -29.42277,17.82372 l 0,0 c -0.71309,-1.02082 -1.33421,-2.09536 -2.06491,-3.10411 -4.11895,-5.32802 -8.57613,-10.38708 -13.70642,-14.77904 -1.44448,-1.23062 -2.85647,-2.50043 -4.33345,-3.69185 -9.4065,-7.58788 -19.78886,-13.91526 -30.26888,-19.88362 -14.21488,-7.49817 -28.69309,-15.06872 -44.9008,-16.97134 -2.67954,-0.1988 -5.3524,-0.53618 -8.03864,-0.59639 -5.63526,-0.12631 -11.10473,0.29696 -16.65201,1.29535 -2.70404,0.48666 -5.38842,1.105 -8.02868,1.86511 -2.59044,0.74578 -9.77382,4.29583 -7.64175,2.64633 6.18009,-4.7813 13.33862,-8.14238 20.00793,-12.21356 -3.68362,2.13012 -6.17671,3.22662 -9.18921,6.1847 -2.82012,2.76919 -4.8744,6.5352 -5.11577,10.52545 -0.0768,1.26921 0.16976,2.53739 0.25464,3.80609 0.93538,3.33938 0.9584,4.44452 2.95551,7.38764 3.5867,5.28569 9.39047,7.97261 15.35882,9.60464 5.20105,0.94955 6.42592,1.39817 11.86696,1.42591 9.69041,0.0494 19.20718,-2.18353 28.32954,-5.28649 14.64245,-5.91387 7.94623,-3.6724 -11.10024,8.26773 -2.36959,1.48549 4.9056,-2.69723 7.25369,-4.21647 5.25999,-3.40328 9.14905,-6.51273 13.62079,-10.91157 2.13594,-2.10112 4.07088,-4.39726 6.10632,-6.59589 4.70956,-6.18411 6.80023,-8.41846 10.48903,-15.32237 6.43488,-12.04342 9.2798,-24.65374 9.45014,-38.26272 -0.36322,-9.44766 -0.0881,-12.228 -2.01284,-21.60191 -2.20393,-10.73372 -6.17786,-21.11369 -12.13484,-30.3386 -1.84715,-2.86048 -4.08029,-5.4524 -6.12044,-8.17859 -5.95863,-6.06891 -7.09799,-7.85755 -14.14232,-12.58668 -9.89004,-6.63955 -21.34164,-10.58052 -32.93813,-12.91056 -7.97308,-1.09067 -10.02172,-1.63599 -18.07614,-1.68372 -11.19125,-0.0663 -22.32371,1.70146 -32.9513,5.1885 -2.2343,0.83351 -4.49336,1.60343 -6.70289,2.50053 -6.55966,2.66331 -12.68811,6.16965 -18.85561,9.60978 0,0 26.77798,-21.41985 26.77798,-21.41985 z"
       inkscape:connector-curvature="0" />
    <path
       style="fill:#000000;stroke-width:20;stroke-miterlimit:4;stroke-dasharray:none"
       id="path4175"
       d="m 165.1304,339.6982 c -1.48008,8.20743 -0.74788,16.62946 -0.0862,24.88293 1.57938,14.27247 2.74972,28.57743 3.92828,42.88667 0.95748,13.8493 2.08894,27.68688 3.56336,41.49115 0.59347,5.7297 1.42963,11.42868 2.16906,17.13975 0.15073,0.44654 0.0897,1.01316 0.32322,1.44458 0,0 -30.21251,16.63342 -30.21251,16.63342 l 0,0 c -0.25233,-0.85524 -0.41579,-1.66525 -0.22234,-2.56425 0.20749,-6.04375 0.16523,-12.08976 -0.0688,-18.13314 -0.48957,-14.04577 -1.11939,-28.08346 -2.30443,-42.09165 -1.25346,-14.12737 -2.8155,-28.21991 -5.08622,-42.22451 -1.00771,-8.05689 -1.95119,-16.11737 -2.44868,-24.22478 0,0 30.44527,-15.24017 30.44527,-15.24017 z"
       inkscape:connector-curvature="0" />
    <path
       style="fill:#000000;stroke-width:20;stroke-miterlimit:4;stroke-dasharray:none"
       id="path4177"
       d="m 115.41533,405.75646 c 5.84634,1.44349 11.87244,2.20083 17.88912,2.39648 2.40262,0.0781 4.8077,0.0297 7.21155,0.0446 18.44191,-0.19284 36.70912,-3.01288 55.00135,-5.06364 2.92917,-0.27811 5.85706,-0.57011 8.78751,-0.83432 5.51484,-0.49722 10.24804,-0.90915 15.75607,-1.168 5.88968,-0.27679 11.79354,-0.28276 17.68821,-0.33699 3.2047,-0.0232 6.40934,-0.0501 9.61398,-0.0794 1.28505,-0.0118 2.54094,0.1288 3.76466,-0.27695 4.65944,-10.95357 0.44149,-0.70359 -29.07872,16.12786 0,0 32.08221,-12.72394 32.08221,-12.72394 l 0,0 c -30.13043,17.27546 -19.1025,21.0582 -30.62833,16.88858 -3.81418,-0.81879 -7.78412,-0.78051 -11.64623,-1.20104 -13.35107,-0.68125 -26.71206,-0.30301 -40.00555,1.19273 -18.61252,1.95246 -37.1812,4.47042 -55.88825,5.36073 -5.97936,0.17716 -8.76266,0.34663 -14.59501,0.20675 -4.642558,-0.11135 -9.266249,-0.65674 -13.911535,-0.68904 0,0 27.958965,-19.84443 27.958965,-19.84443 z"
       inkscape:connector-curvature="0" />
    <path
       style="fill:#000000;stroke-width:20;stroke-miterlimit:4;stroke-dasharray:none"
       id="path4179"
       d="m 92.793458,539.97445 c 8.778942,2.07038 17.813272,2.91073 26.760942,3.93753 20.44043,2.63499 40.95646,4.57191 61.49065,6.29939 20.00241,1.31596 40.032,2.28972 60.07988,2.44033 13.31068,0.1 20.80775,-0.0602 34.17404,-0.22533 37.16838,-0.46076 74.32801,-1.39983 111.49651,-1.85885 32.39564,-0.58256 64.79522,-0.68867 97.19444,-0.86751 19.47504,0.0702 38.95072,0.085 58.42079,-0.40365 3.21704,-0.1096 5.36455,-0.17159 8.48586,-0.31448 2.11829,-0.097 4.26126,-0.13106 6.23642,-0.97804 0,0 -27.42993,20.66251 -27.42993,20.66251 l 0,0 c -4.21738,-0.40636 -8.44666,-0.69452 -12.67292,-0.9894 -18.21613,-1.10626 -36.45298,-1.84132 -54.69777,-2.267 -31.65473,-0.67274 -63.31481,-0.94123 -94.97664,-0.68413 -37.3276,0.40537 -74.64921,1.05334 -111.96206,2.21244 -32.10192,0.65283 -64.23177,0.90875 -96.30212,-0.99717 -21.53872,-1.05498 -43.04749,-2.54424 -64.546381,-4.22048 -9.873827,-0.7632 -19.75509,-1.43802 -29.632965,-2.13243 0,0 27.881254,-19.61373 27.881254,-19.61373 z"
       inkscape:connector-curvature="0" />
  </g>
</svg>
