<?xml version="1.0" encoding="UTF-8" standalone="no"?>
<!-- Created with Inkscape (http://www.inkscape.org/) -->

<svg
   xmlns:dc="http://purl.org/dc/elements/1.1/"
   xmlns:cc="http://creativecommons.org/ns#"
   xmlns:rdf="http://www.w3.org/1999/02/22-rdf-syntax-ns#"
   xmlns:svg="http://www.w3.org/2000/svg"
   xmlns="http://www.w3.org/2000/svg"
   xmlns:sodipodi="http://sodipodi.sourceforge.net/DTD/sodipodi-0.dtd"
   xmlns:inkscape="http://www.inkscape.org/namespaces/inkscape"
   width="210mm"
   height="297mm"
   viewBox="0 0 744.09448819 1052.3622047"
   id="svg2"
   version="1.1"
   inkscape:version="0.91 r13725"
   sodipodi:docname="connection.svg"
   inkscape:export-filename="/home/edward/CryptodiraAias2/resources/connection.png"
   inkscape:export-xdpi="10.292548"
   inkscape:export-ydpi="10.292548">
  <defs
     id="defs4" />
  <sodipodi:namedview
     id="base"
     pagecolor="#ffffff"
     bordercolor="#666666"
     borderopacity="1.0"
     inkscape:pageopacity="0.0"
     inkscape:pageshadow="2"
     inkscape:zoom="0.98994949"
     inkscape:cx="382.086"
     inkscape:cy="790.23759"
     inkscape:document-units="px"
     inkscape:current-layer="layer1"
     showgrid="false"
     inkscape:window-width="1855"
     inkscape:window-height="1056"
     inkscape:window-x="65"
     inkscape:window-y="24"
     inkscape:window-maximized="1" />
  <metadata
     id="metadata7">
    <rdf:RDF>
      <cc:Work
         rdf:about="">
        <dc:format>image/svg+xml</dc:format>
        <dc:type
           rdf:resource="http://purl.org/dc/dcmitype/StillImage" />
        <dc:title></dc:title>
      </cc:Work>
    </rdf:RDF>
  </metadata>
  <g
     inkscape:label="Layer 1"
     inkscape:groupmode="layer"
     id="layer1">
    <path
       style="fill:#000080;stroke-width:20;stroke-miterlimit:4;stroke-dasharray:none"
       id="path4166"
       d="m 312.08912,156.97003 c -4.89171,3.2895 -9.55367,7.05388 -12.84415,12.02096 -0.79847,1.2053 -1.43682,2.50933 -2.15522,3.764 -2.01534,4.79272 -3.66869,10.31262 -1.63324,15.41738 1.16193,2.91406 2.05576,3.34909 4.22831,5.48314 1.00738,0.61489 1.94155,1.37008 3.02214,1.84465 3.91968,1.72142 9.3453,1.8645 13.23025,-0.0489 0.91964,-0.45293 1.68243,-1.17173 2.52364,-1.7576 -13.08564,7.42605 -26.17128,14.8521 -39.25692,22.27814 0.77474,-0.64018 1.62513,-1.1985 2.32421,-1.92054 1.43292,-1.47997 2.56016,-3.31053 3.24635,-5.25208 0.88817,-2.51305 0.70615,-3.51017 0.78192,-6.15191 -0.53519,-5.99694 -3.69286,-11.15597 -8.5541,-14.6867 -0.96517,-0.70101 -2.03115,-1.25153 -3.04673,-1.8773 -3.50015,-1.47487 -7.45876,-3.2979 -11.38971,-2.9124 -1.56019,0.15301 -2.38163,0.7247 -3.71702,1.41038 -11.11437,13.73609 -1.01323,0.88754 39.45843,-22.15428 0.48957,-0.27873 -0.89747,0.71337 -1.20407,1.18598 -0.38032,0.58625 -0.65672,1.25037 -0.81766,1.93039 -0.46645,1.97094 -0.12306,3.18456 0.12194,5.174 1.0488,3.66827 2.8741,8.7571 7.19367,9.6018 0.6659,0.13022 1.35565,0.0608 2.03348,0.0912 2.21984,-0.32592 1.96205,-0.0845 3.92958,-1.17152 0.58518,-0.32332 2.26796,-1.4152 1.68515,-1.08764 -13.64295,7.71466 -27.28589,15.42933 -40.92884,23.14399 1.76599,-0.76388 0.99285,-0.28748 2.35651,-1.36715 0.94438,-0.89472 1.92519,-2.18317 2.04676,-3.52788 -0.0674,-0.16715 -0.1348,-0.33429 -0.2022,-0.50144 0,0 43.61754,-24.48937 43.61754,-24.48937 l 0,0 c 0.15263,0.34813 0.30525,0.69625 0.45788,1.04437 1.21875,3.11767 0.86194,4.80639 -0.2471,7.93286 -9.25961,16.89115 -16.562,12.07037 -45.94974,28.153 -1.81509,0.99332 -5.38924,0.0433 -7.21485,-0.33524 -0.91553,-0.39827 -1.88612,-0.68844 -2.74657,-1.19483 -4.8336,-2.84462 -7.32209,-8.27826 -9.01538,-13.35943 -0.7801,-3.16653 -1.52931,-6.28369 -1.1964,-9.58115 0.0871,-0.86294 -0.19019,-2.06759 0.53268,-2.54688 39.32642,-26.07498 26.81705,-23.6153 45.35781,-26.87592 6.03555,-0.075 11.50604,2.28911 16.55655,5.46146 7.44136,5.66578 12.23687,10.87042 13.96767,20.37496 0.31876,3.40212 0.62725,4.36473 0.0906,7.75171 -3.3026,20.84277 -37.5382,29.267 -48.44334,35.70156 -1.06652,0.25889 -2.11268,0.62441 -3.19955,0.77666 -5.08427,0.71223 -10.68968,-0.60318 -15.02677,-3.30146 -1.26158,-0.78489 -2.35614,-1.81084 -3.53421,-2.71627 -2.57639,-2.92553 -3.81988,-3.86709 -5.37117,-7.55346 -2.52939,-6.01061 -1.57022,-12.55037 0.30363,-18.56929 0.5782,-1.43751 1.05806,-2.91861 1.73461,-4.31254 2.44665,-5.04091 6.29345,-9.37177 10.60968,-12.88295 0,0 46.28398,-18.40646 46.28398,-18.40646 z"
       inkscape:connector-curvature="0" />
    <path
       style="fill:#000080;stroke-width:20;stroke-miterlimit:4;stroke-dasharray:none"
       id="path4168"
       d="m 435.54423,435.9626 c -1.13082,-2.22984 -2.80147,-5.54935 -5.23633,-6.61585 -0.45454,-0.19909 -0.98082,-0.15154 -1.47123,-0.22732 -0.55256,0.20322 -1.13965,0.3299 -1.65768,0.60966 -0.69115,0.37326 -2.62971,1.71446 -1.94223,1.33449 13.07939,-7.22914 25.96432,-14.81101 39.12717,-21.88705 1.2402,-0.6667 -2.31884,1.6255 -3.30541,2.63013 -3.03431,3.08987 -3.45668,4.69817 -5.43654,8.58497 -2.7735,7.67281 -4.17589,16.16429 -1.85434,24.16794 0.32842,1.13224 0.86693,2.19265 1.30039,3.28897 0.5866,0.84712 1.05528,1.78947 1.75981,2.54136 3.07585,3.2826 7.60575,3.46317 11.71956,2.45944 1.20855,-0.29487 2.35053,-0.81561 3.52579,-1.22342 18.44675,-10.24227 -23.09735,13.27995 -34.75046,19.73372 -1.10987,0.61467 2.12538,-1.39537 3.10353,-2.20338 2.77661,-2.29365 4.60634,-4.97307 6.40728,-8.03355 1.06511,-2.68891 3.48706,-7.74956 2.27744,-10.6763 -3.82995,-1.81483 -8.33838,-1.68379 -12.45586,-1.32409 -2.7579,0.36921 -5.5011,1.14102 -7.86584,2.66348 -0.72715,0.46816 -2.77642,2.0493 -2.02351,1.6238 38.44262,-21.72588 52.08872,-32.73256 38.43291,-21.84326 -0.22632,0.0327 -2.17388,2.61456 -2.31553,2.39657 -1.01971,-1.56924 2.49162,-2.28889 2.99574,-2.47426 0.97522,-0.39903 1.96582,-0.76237 2.92566,-1.19711 1.15763,-0.52432 2.30091,-1.08211 3.42314,-1.67844 1.20388,-0.63973 4.73433,-2.7062 3.55174,-2.02791 -68.33748,39.19565 -45.73846,27.66292 -32.62063,18.1956 1.54043,-1.2297 3.12455,-2.45278 4.35192,-4.01392 0.21809,-0.2774 0.39093,-0.58756 0.58672,-0.88113 0.073,-0.1094 0.24182,-0.1982 0.21951,-0.3278 -0.0169,-0.0981 -0.19266,-0.0505 -0.28899,-0.0758 -3.48085,-1.62437 -6.56021,-1.6967 -10.29964,-1.478 -0.54776,0.21319 -1.12361,0.36491 -1.64329,0.63956 -0.53781,0.28424 -2.0395,1.3239 -1.50891,1.0264 13.63223,-7.64345 27.21901,-15.3677 40.81952,-23.06745 0.56397,-0.31929 -1.16696,0.57156 -1.7096,0.92588 -1.12686,0.73578 -1.60863,1.32131 -2.53325,2.2603 0.0319,-0.23108 -1.31486,1.98838 -1.30897,1.77797 0.035,-1.24805 1.93657,-1.71372 2.71622,-2.04141 13.8207,-9.29276 33.24007,-18.37095 -33.86618,18.9809 -0.97057,0.54023 1.77363,-1.34044 2.614,-2.06683 1.74336,-1.50694 2.49046,-2.4087 4.01152,-4.06485 0.43441,-0.57475 0.88298,-1.13908 1.30324,-1.72426 0.59197,-0.82428 1.18343,-1.73666 1.66533,-2.63604 0.21333,-0.39815 0.52613,-1.44057 0.92851,-1.78051 -0.002,-0.0126 -0.004,-0.0252 -0.006,-0.0378 0,0 43.71725,-24.5288 43.71725,-24.5288 l 0,0 c 0.16862,0.39039 0.33724,0.78078 0.50586,1.17117 0.13518,0.50884 0.34213,1.00386 0.40555,1.52652 0.39427,3.2496 -1.91588,6.32537 -3.57148,8.85018 -12.30066,16.85034 -32.34013,22.93802 -50.75528,33.66853 -1.01665,0.5924 -2.11555,1.0502 -3.23503,1.41253 -1.01694,0.32915 -2.09327,0.43387 -3.13991,0.6508 -0.93263,-0.0471 -1.89444,0.0948 -2.79789,-0.14146 -2.54649,-0.66582 -4.54012,-2.90891 -5.04845,-5.46467 -0.27094,-1.36227 0.21096,-2.43057 0.58024,-3.69428 0.58023,-1.27847 2.21856,-4.58254 3.44763,-5.30324 10.69456,-6.27106 30.19421,-26.06426 48.40018,-25.2505 4.6844,0.46015 9.36057,1.66463 12.9335,4.8975 1.21723,1.73715 2.02186,2.39826 2.25821,4.58096 0.3589,3.31449 -2.34764,6.11316 -4.51887,8.14848 -15.33542,12.56692 -30.98323,19.11279 -50.13959,29.96203 -1.82984,1.03633 -5.82573,2.65745 -7.83846,3.24323 -1.22478,0.35645 -2.49536,0.53074 -3.74305,0.79611 -1.12455,-0.0334 -2.28042,0.16545 -3.37364,-0.10025 -2.85017,-0.69272 -5.28319,-3.25941 -5.1536,-6.29679 0.06,-1.40716 0.94021,-2.62161 1.59425,-3.77754 11.53853,-15.46086 1.39511,-2.3743 45.13877,-27.98599 3.03768,-1.77855 7.75026,-2.03458 11.16994,-2.19035 4.81718,0.17793 10.57472,0.46917 14.47652,3.72731 0.70227,0.58642 1.22238,1.36164 1.83358,2.04245 0.32121,0.73308 0.75159,1.42747 0.96363,2.19924 1.16913,4.25516 -0.99782,8.86804 -2.26247,12.7963 -1.57329,3.60008 -3.2983,6.93779 -5.90593,9.93203 -0.8877,1.01931 -1.72168,2.15823 -2.88043,2.85415 -42.0943,25.2805 -28.59452,20.90227 -48.59944,26.9234 -3.35815,0.40113 -4.92117,0.83821 -8.32628,0.21986 -5.71297,-1.03745 -9.89914,-4.74982 -12.45758,-9.8245 -0.46972,-1.36974 -1.04819,-2.7069 -1.40917,-4.10923 -2.28381,-8.87205 -1.17416,-18.22676 1.15835,-26.94524 1.34639,-3.97987 1.88753,-6.32429 4.02615,-9.90602 8.79643,-14.73213 46.67157,-28.76635 47.36029,-29.13849 0.91201,-0.49278 2.07548,-0.2735 3.10579,-0.15932 0.96695,0.10716 1.8685,0.54275 2.80275,0.81412 0.73231,0.46381 1.50514,0.86911 2.19694,1.39143 2.68593,2.02797 4.45537,4.93584 6.55831,7.49438 0,0 -43.1431,25.28054 -43.1431,25.28054 z"
       inkscape:connector-curvature="0" />
    <path
       style="fill:#000080;stroke-width:20;stroke-miterlimit:4;stroke-dasharray:none"
       id="path4172"
       d="m 291.07742,188.81378 c 6.47715,7.40856 12.30372,15.34484 18.09167,23.29305 12.41942,16.75853 22.64945,34.96045 33.35684,52.81965 8.71389,13.91604 17.20743,27.97805 26.08269,41.79287 3.58335,5.57767 10.17937,15.40056 13.85304,20.90118 13.08931,19.79288 26.06395,39.66411 38.65748,59.77674 7.90252,12.53092 15.48029,25.25697 22.89354,38.08149 2.61467,4.72955 5.37285,9.40501 7.6021,14.33464 0.69505,1.69982 1.02369,1.95833 -0.11024,-0.22413 0,0 -19.8061,15.57563 -19.8061,15.57563 l 0,0 c -0.97874,-1.10049 -1.53317,-1.79676 -1.79401,-3.24222 -1.69694,-5.0566 -4.2211,-9.80572 -6.53461,-14.59496 -6.7275,-13.15707 -13.80378,-26.12643 -21.41151,-38.7991 -12.21348,-20.30412 -25.05255,-40.22887 -38.14395,-59.97675 -4.57857,-6.82585 -9.45444,-14.02871 -13.91128,-20.93664 -8.91056,-13.81103 -17.41489,-27.8812 -26.26731,-41.72912 -10.84327,-17.70772 -21.30535,-35.7285 -34.28039,-52.00434 -6.08778,-7.68497 -12.10797,-15.60941 -19.59998,-22.00184 0,0 21.32202,-13.06615 21.32202,-13.06615 z"
       inkscape:connector-curvature="0" />
    <path
       style="fill:#000080;stroke-width:20;stroke-miterlimit:4;stroke-dasharray:none"
       id="path4174"
       d="m 283.84443,176.1169 c 7.96026,-4.5324 15.87287,-9.14954 23.88079,-13.59719 2.76405,-1.53517 5.72529,-2.68571 8.56076,-4.08458 6.08452,-3.00176 12.07044,-6.16778 18.03926,-9.39198 14.30789,-7.74011 28.96853,-14.76729 43.90059,-21.21072 14.42045,-5.98184 29.02077,-11.49703 43.42817,-17.51068 5.03219,-2.14652 9.97369,-4.52213 15.08027,-6.49381 3.14627,-1.21479 0.75367,-0.12116 3.26013,-1.32849 0.3076,-0.17242 0.6152,-0.34484 0.9228,-0.51725 0,0 -19.52446,15.55351 -19.52446,15.55351 l 0,0 c -0.30019,0.11637 -0.60038,0.23274 -0.90057,0.3491 -5.83189,2.05872 -11.49623,4.54412 -17.20763,6.90946 -14.30749,5.77905 -28.76794,11.17249 -42.97049,17.21006 -14.95031,6.55779 -29.63654,13.68579 -43.96787,21.51281 -6.15204,3.31774 -12.3281,6.56523 -18.57257,9.70592 -1.65165,0.8307 -3.31314,1.64179 -4.96332,2.4754 -1.34833,0.68113 -5.32838,2.84433 -4.03207,2.06875 6.01215,-3.59706 12.12406,-7.02472 18.18609,-10.53708 0,0 -23.11988,8.88677 -23.11988,8.88677 z"
       inkscape:connector-curvature="0" />
    <path
       style="fill:#000080;stroke-width:20;stroke-miterlimit:4;stroke-dasharray:none"
       id="path4176"
       d="m 267.69137,178.10321 c 0.5762,-10.10016 -0.009,-20.23876 -0.5341,-30.33022 -1.26883,-15.108 -2.01156,-30.23666 -1.9041,-45.39744 0.16318,-11.616832 0.85399,-23.216181 1.26735,-34.825296 -0.047,-3.389115 0.23668,-6.77432 0.29523,-10.157751 0,0 23.11997,-9.811181 23.11997,-9.811181 l 0,0 c -0.20029,-0.04827 -0.42959,-0.259311 -0.60087,-0.144823 -0.2488,0.166301 -0.55895,1.764728 -0.59774,2.05648 -0.31807,2.392066 -0.26235,4.837565 -0.63129,7.225586 -1.01705,11.728108 -2.17593,23.459519 -2.35529,35.239293 -0.20009,15.079262 0.67733,30.111792 2.07577,45.126212 0.68137,9.90002 1.27604,19.80628 2.08654,29.69673 0,0 -22.22147,11.32241 -22.22147,11.32241 z"
       inkscape:connector-curvature="0" />
    <path
       style="fill:#000080;stroke-width:20;stroke-miterlimit:4;stroke-dasharray:none"
       id="path4178"
       d="m 252.08739,185.57241 c -6.83981,-4.91841 -13.70608,-9.80127 -20.57172,-14.68535 -10.44847,-7.55156 -21.28215,-14.5706 -32.26587,-21.31578 -10.55159,-6.22922 -20.95495,-12.73262 -31.95132,-18.15762 -5.72101,-2.7543 -11.88343,-4.14551 -18.13427,-4.9868 0,0 20.05457,-14.04983 20.05457,-14.04983 l 0,0 c 6.18707,1.32723 12.3124,3.01166 17.93738,5.99689 10.81234,5.72769 21.10531,12.36882 31.64414,18.57649 11.06088,6.79367 22.01801,13.77563 32.64893,21.22775 7.09167,4.81552 14.09192,9.80047 21.58804,13.98027 0,0 -20.94988,13.41398 -20.94988,13.41398 z"
       inkscape:connector-curvature="0" />
    <path
       style="fill:#000080;stroke-width:20;stroke-miterlimit:4;stroke-dasharray:none"
       id="path4180"
       d="m 262.33195,199.78361 c -9.31066,8.48073 -17.6567,17.92285 -26.11111,27.23476 -12.38997,14.24355 -25.49642,27.83355 -38.28635,41.7122 -7.49833,7.88377 -14.27805,16.44325 -22.19755,23.92053 -0.45328,0.40409 -0.90655,0.80817 -1.35982,1.21226 0,0 -22.91305,9.2208 -22.91305,9.2208 l 0,0 c 0.53939,-0.40584 1.07878,-0.81167 1.61816,-1.2175 8.81575,-7.27488 16.09169,-16.11805 23.94203,-24.38047 12.84359,-13.80653 26.01035,-27.32469 38.26413,-41.66768 7.92562,-8.8912 15.70414,-17.91801 23.98565,-26.484 0,0 23.05791,-9.5509 23.05791,-9.5509 z"
       inkscape:connector-curvature="0" />
    <path
       style="fill:#000080;stroke-width:20;stroke-miterlimit:4;stroke-dasharray:none"
       id="path4182"
       d="m 465.77703,396.30457 c 9.31847,-1.13555 18.00008,-5.3236 26.39902,-9.278 -3.61718,2.8138 19.74256,-10.95222 14.97723,-7.92115 -3.58204,2.27843 -7.17617,4.58927 -11.03621,6.35628 -2.96808,1.35869 5.58392,-3.38324 8.34508,-5.12436 7.24519,-4.56864 8.9776,-5.83973 16.00516,-10.62925 10.90674,-7.6346 21.43625,-15.78398 31.46484,-24.53891 1.97188,-1.78589 3.93536,-3.58594 5.79587,-5.48907 0.30352,-0.31047 0.60364,-0.62469 0.89031,-0.95079 0.12322,-0.14015 0.22308,-0.59342 0.33793,-0.44634 0.47609,0.60972 0.64165,1.40783 0.96247,2.11174 36.73098,-20.26732 26.1767,-14.75541 18.90145,-9.353 0,0 -23.02833,9.16892 -23.02833,9.16892 l 0,0 c 7.97661,-6.14833 10.79658,-8.99241 25.04069,-13.90624 0.39935,0.73297 1.00086,1.38784 1.19805,2.19891 0.061,0.25105 -0.35633,0.37452 -0.52473,0.57046 -0.33859,0.39395 -0.63875,0.82142 -0.9958,1.19871 -1.9773,2.08936 -4.24235,3.9046 -6.33349,5.87186 -10.49493,8.98228 -21.48053,17.36504 -32.76005,25.33772 -21.52652,14.78799 -43.94655,28.31149 -67.34396,39.94553 -9.04764,4.186 -18.30578,8.4349 -28.29567,9.71472 0,0 20.00014,-14.83774 20.00014,-14.83774 z"
       inkscape:connector-curvature="0" />
    <path
       style="fill:#000080;stroke-width:20;stroke-miterlimit:4;stroke-dasharray:none"
       id="path4184"
       d="m 430.90471,399.84497 c -3.90734,-7.16967 -6.23138,-15.00185 -6.75724,-23.16179 -0.159,-2.46718 -0.0827,-4.9439 -0.12407,-7.41585 0.58541,-16.83755 3.95408,-33.4172 7.37045,-49.86607 2.1362,-9.62958 3.87345,-19.33137 5.59155,-29.04005 0.28742,-1.91285 0.71856,-3.7973 1.17416,-5.67527 0,0 22.42655,-10.62136 22.42655,-10.62136 l 0,0 c -0.65526,1.85216 -1.28136,3.71571 -1.62512,5.65749 -2.3307,9.89473 -4.56519,19.81326 -6.91052,29.7049 -3.67494,16.19985 -7.01418,32.61574 -7.41903,49.27625 0.0774,2.36448 0.0422,4.73534 0.23213,7.09346 0.61837,7.67839 2.8177,15.20516 7.43371,21.44751 0,0 -21.39257,12.60078 -21.39257,12.60078 z"
       inkscape:connector-curvature="0" />
    <path
       style="fill:#000080;stroke-width:20;stroke-miterlimit:4;stroke-dasharray:none"
       id="path4186"
       d="m 479.96681,429.88669 c 3.381,10.05782 5.60058,20.42526 7.64808,30.81925 3.08886,16.04435 4.27991,32.36104 5.07385,48.65445 0.21983,9.86021 0.54346,19.82245 -1.0391,29.59356 -2.6137,10.8709 -9.10948,9.18111 -24.12314,15.61029 -0.16788,0.0719 -1.65858,-2.17527 -1.79912,-2.38093 0,0 21.47193,-12.6808 21.47193,-12.6808 l 0,0 c 5.36896,6.9753 23.55711,-13.16047 -20.31938,12.61239 -0.30334,0.17818 0.73354,0.20997 1.0535,0.0637 0.7858,-0.35919 1.36756,-2.0125 1.63417,-2.57763 2.7456,-9.63473 2.68481,-19.76221 2.66328,-29.70587 -0.60226,-16.18142 -1.56899,-32.40649 -4.98885,-48.28116 -2.16615,-10.04196 -4.33358,-20.28179 -9.06229,-29.491 0,0 21.78707,-12.23626 21.78707,-12.23626 z"
       inkscape:connector-curvature="0" />
    <path
       style="fill:#000080;stroke-width:20;stroke-miterlimit:4;stroke-dasharray:none"
       id="path4188"
       d="m 418.06117,467.13126 c -9.14161,1.77601 -17.90615,4.94724 -26.59991,8.20826 -14.1367,5.02569 -28.28271,10.02335 -42.41027,15.07554 -11.18213,3.75968 -22.37071,7.53154 -33.83204,10.35552 -3.46735,0.7911 -1.85738,0.44065 -4.82701,1.06453 0,0 19.68511,-14.89433 19.68511,-14.89433 l 0,0 c 2.68623,-0.48778 1.22266,-0.20782 4.3875,-0.85651 11.09067,-2.57584 21.92461,-6.11748 32.69109,-9.7991 14.24804,-5.11046 28.52639,-10.1387 42.73116,-15.36755 9.17599,-3.42252 18.44304,-6.64777 28.0234,-8.76024 0,0 -19.84903,14.97388 -19.84903,14.97388 z"
       inkscape:connector-curvature="0" />
    <path
       style="fill:#000080;stroke-width:20;stroke-miterlimit:4;stroke-dasharray:none"
       id="path4190"
       d="m 482.87459,442.55494 c 7.66835,-0.89123 15.39454,-0.32695 23.06527,0.22026 12.08973,0.85285 24.19608,0.34601 36.25708,-0.64051 8.47568,-0.94216 16.93969,-1.96638 25.42895,-2.78017 1.83217,-0.15885 3.6669,-0.30339 5.50379,-0.39723 0.98233,-0.0502 1.78056,0.0418 2.67802,-0.3602 5.87698,-7.80252 -28.5159,15.56347 -20.02011,11.13883 0,0 23.37623,-9.09713 23.37623,-9.09713 l 0,0 c -7.08034,5.41467 -14.35679,13.19787 -23.3562,13.01906 -2.62008,-0.0961 -5.24236,0.11265 -7.85805,0.23608 -8.2615,0.53467 -16.48301,1.51033 -24.72819,2.23892 -12.18429,0.77467 -24.3946,1.16894 -36.59681,0.50202 -7.8645,-0.37078 -15.85925,-0.82724 -23.60005,0.94944 0,0 19.85007,-15.02937 19.85007,-15.02937 z"
       inkscape:connector-curvature="0" />
  </g>
</svg>
