<?xml version="1.0" encoding="UTF-8" standalone="no"?>
<!-- Created with Inkscape (http://www.inkscape.org/) -->

<svg
   xmlns:dc="http://purl.org/dc/elements/1.1/"
   xmlns:cc="http://creativecommons.org/ns#"
   xmlns:rdf="http://www.w3.org/1999/02/22-rdf-syntax-ns#"
   xmlns:svg="http://www.w3.org/2000/svg"
   xmlns="http://www.w3.org/2000/svg"
   xmlns:sodipodi="http://sodipodi.sourceforge.net/DTD/sodipodi-0.dtd"
   xmlns:inkscape="http://www.inkscape.org/namespaces/inkscape"
   width="210mm"
   height="297mm"
   viewBox="0 0 744.09448819 1052.3622047"
   id="svg2"
   version="1.1"
   inkscape:version="0.91 r13725"
   sodipodi:docname="connection2.svg"
   inkscape:export-filename="/home/edward/CryptodiraAias2/resources/connection3.png"
   inkscape:export-xdpi="7.503571"
   inkscape:export-ydpi="7.503571">
  <defs
     id="defs4" />
  <sodipodi:namedview
     id="base"
     pagecolor="#ffffff"
     bordercolor="#666666"
     borderopacity="1.0"
     inkscape:pageopacity="0.0"
     inkscape:pageshadow="2"
     inkscape:zoom="0.98994949"
     inkscape:cx="334.35772"
     inkscape:cy="614.4454"
     inkscape:document-units="px"
     inkscape:current-layer="layer1"
     showgrid="false"
     inkscape:window-width="1855"
     inkscape:window-height="1056"
     inkscape:window-x="0"
     inkscape:window-y="0"
     inkscape:window-maximized="1" />
  <metadata
     id="metadata7">
    <rdf:RDF>
      <cc:Work
         rdf:about="">
        <dc:format>image/svg+xml</dc:format>
        <dc:type
           rdf:resource="http://purl.org/dc/dcmitype/StillImage" />
        <dc:title />
      </cc:Work>
    </rdf:RDF>
  </metadata>
  <g
     inkscape:label="Layer 1"
     inkscape:groupmode="layer"
     id="layer1">
    <path
       style="fill:#000000;stroke-width:20;stroke-miterlimit:4;stroke-dasharray:none"
       id="path4136"
       d="m 331.55012,390.04511 c -3.22138,-2.9371 -7.12129,-5.55077 -11.36123,-6.75648 -1.14003,-0.32419 -2.32263,-0.47377 -3.48394,-0.71065 -8.43907,-1.0437 -16.94263,0.70201 -24.52943,4.51465 -2.22403,1.11766 -4.31264,2.48657 -6.46895,3.72985 50.10548,-27.77907 36.7633,-22.927 23.95092,-11.15201 -2.61183,2.40036 -5.09353,4.94591 -7.47078,7.57881 -4.60831,5.10388 -9.27586,11.22033 -12.97114,17.02373 -1.89925,2.98275 -3.53405,6.12585 -5.30108,9.18878 -6.14016,12.03622 -10.30131,25.00092 -11.47145,38.50235 -0.72371,8.35044 -0.25608,10.82054 0.27592,19.10143 1.43198,12.15038 4.13795,24.25131 9.15662,35.46144 2.99537,6.69073 4.5007,8.61178 8.36505,14.75455 7.97784,11.93568 18.73659,21.42148 31.7846,27.53374 2.81619,1.31923 5.78411,2.28675 8.67616,3.43012 12.49053,4.13457 25.71491,5.27786 38.73597,3.22257 8.9903,-1.41906 11.77773,-2.85918 20.37834,-5.90343 28.23908,-14.97312 -11.13605,7.38453 -17.23321,10.03067 -3.79725,1.64799 6.70515,-4.86993 9.85739,-7.55291 6.11431,-5.2041 11.9201,-11.2703 16.90273,-17.56631 2.3758,-3.00204 4.44407,-6.23513 6.66611,-9.3527 7.37113,-11.35399 12.58893,-23.92259 15.11768,-37.23688 1.42552,-7.50562 1.36466,-10.73533 1.80069,-18.32177 0.14819,-8.45422 -0.39118,-16.92158 -1.78921,-25.265 -0.84295,-5.03068 -1.79145,-9.48932 -3.71273,-14.22547 -0.87117,-2.14754 -2.05059,-4.15676 -3.07589,-6.23513 -6.84235,-11.15042 -16.9656,-19.67759 -28.68776,-25.39635 -2.41466,-1.17802 -4.95276,-2.08407 -7.42914,-3.12611 -9.70914,-3.4292 -19.84564,-4.30105 -29.95632,-2.24129 -5.71043,1.16334 -8.05033,2.34488 -13.42767,4.45147 -6.31997,3.08574 -5.7608,2.67612 -11.72025,6.10733 -1.66354,0.9578 -6.61152,3.90376 -4.94475,2.9516 64.14972,-36.64616 44.24844,-26.08497 30.75588,-17.32338 -15.23071,9.90245 -31.04197,18.93179 -47.16773,27.29736 0,0 38.72908,-31.15797 38.72908,-31.15797 l 0,0 c 16.89882,-9.41637 -56.62192,32.31648 -36.89384,21.45493 2.20155,-1.34139 4.33629,-2.7926 6.56345,-4.09103 14.90076,-8.68711 29.83263,-17.32095 44.78323,-25.92201 2.76199,-1.58896 7.451,-4.01332 10.26848,-5.27869 2.05466,-0.92277 4.16441,-1.71763 6.24661,-2.57644 5.91101,-1.83268 7.70701,-2.68225 13.91063,-3.4208 10.60285,-1.26228 21.13054,0.35373 30.97494,4.43179 2.52217,1.19536 5.10276,2.27452 7.56651,3.58607 12.4441,6.62448 23.24425,15.27446 30.67547,27.37945 1.11595,2.28954 2.41002,4.50054 3.34785,6.86863 2.00668,5.06697 2.92351,9.80777 3.71985,15.17881 1.28867,8.69163 1.7138,17.50222 1.56501,26.28029 -0.36399,7.80453 -0.28135,11.40187 -1.66009,19.14839 -2.49013,13.991 -7.79817,27.27991 -15.44702,39.23962 -6.09935,8.86916 -7.3331,11.29176 -14.65133,19.3542 -20.66311,22.76437 -48.67815,37.24043 -76.50882,49.60187 -9.45638,2.94534 -11.55345,4.08193 -21.33009,5.25581 -13.68491,1.64313 -27.30453,-0.0116 -40.26614,-4.64021 -3.07484,-1.2512 -6.23324,-2.31402 -9.22452,-3.75359 -8.16505,-3.92951 -16.08922,-9.49798 -22.56131,-15.84266 -5.09212,-4.99188 -6.64343,-7.7171 -10.73815,-13.48398 -3.70614,-6.17383 -5.6457,-8.9544 -8.53922,-15.62741 -5.05918,-11.66745 -7.84568,-24.26069 -9.4787,-36.81931 -0.57464,-8.50218 -1.06597,-11.41916 -0.44604,-19.99676 1.01346,-14.02265 4.89737,-27.58262 11.08518,-40.18403 1.71668,-3.18489 3.28996,-6.45135 5.15005,-9.55467 3.47679,-5.80056 8.28999,-12.40649 12.59934,-17.61303 2.22922,-2.69333 10.82961,-12.4338 14.03136,-14.50746 15.11513,-9.78948 30.85535,-18.57827 46.28302,-27.86741 2.45449,-1.229 4.84016,-2.60634 7.36348,-3.687 8.7155,-3.73259 18.2196,-4.90401 27.53241,-3.15308 1.35677,0.38325 2.73938,0.68466 4.07032,1.14976 4.83491,1.68956 9.018,4.74815 13.3725,7.35375 0,0 -42.3149,26.37959 -42.3149,26.37959 z"
       inkscape:connector-curvature="0"
       inkscape:export-xdpi="7.503571"
       inkscape:export-ydpi="7.503571" />
    <path
       style="fill:#ff0000;stroke-width:20;stroke-miterlimit:4;stroke-dasharray:none"
       id="path4138"
       d="m 340.83552,194.99709 c -14.32754,8.01766 -31.56529,17.76688 37.06519,-21.21601 0.80212,-0.45561 -1.57798,0.95835 -2.33487,1.48572 -2.24064,1.56118 -2.62462,2.02412 -4.68136,3.87221 -3.9651,3.95531 -7.43546,8.58365 -9.45793,13.85381 -0.50373,1.31264 -0.85461,2.67894 -1.28192,4.0184 -2.63762,10.15944 -2.45715,19.74706 -0.76118,30.00828 0.98431,4.82472 2.00512,10.74051 5.08067,14.78519 0.41307,0.54322 0.91648,1.0114 1.37471,1.5171 4.97902,4.0191 11.2722,3.86572 17.3211,3.41087 7.67399,-1.38848 15.07476,-4.19589 21.97051,-7.81668 2.0382,-1.07021 7.98976,-4.57776 5.9841,-3.44775 -11.25744,6.34253 -22.49311,12.72363 -33.73966,19.08544 8.77313,-6.29346 17.05167,-13.86188 22.01777,-23.6175 0.79865,-1.56893 1.39723,-3.23191 2.09585,-4.84787 2.46287,-7.18652 2.8208,-14.86991 0.0929,-22.04537 -0.46801,-1.23105 -1.1014,-2.3927 -1.6521,-3.58904 -4.4877,-7.23492 -9.25185,-9.83056 -17.30086,-11.75006 -6.26794,-1.29002 -12.62952,-0.17874 -18.88387,0.63314 -2.87773,0.44748 -5.79398,0.61375 -8.66606,1.08933 0,0 40.3523,-29.8483 40.3523,-29.8483 l 0,0 c 2.56721,0.0422 5.12433,-0.31174 7.68507,-0.4465 6.53604,-0.4411 13.13421,-0.75359 19.47497,1.27679 1.22119,0.43311 2.47232,0.78962 3.66358,1.29933 6.65306,2.84668 11.92455,7.87696 15.50553,14.11647 0.63403,1.38924 1.35885,2.74053 1.90208,4.16772 3.09307,8.12624 3.07119,16.93313 0.76111,25.2433 -1.82321,4.89168 -2.11906,6.36423 -4.87399,10.92081 -4.85108,8.02357 -11.75968,14.6429 -18.97192,20.5151 -15.21787,8.985 -30.3747,18.07419 -45.6536,26.95499 -7.41414,4.30945 -16.59239,8.02951 -25.02196,9.70009 -1.79629,0.35599 -3.62902,0.49368 -5.44352,0.74051 -1.55868,0.003 -3.11974,0.096 -4.67604,0.01 -5.98848,-0.33139 -11.78401,-2.20388 -16.07722,-6.51065 -1.46735,-1.93825 -2.0746,-2.52391 -3.10201,-4.78892 -2.05285,-4.52564 -2.68498,-9.61374 -3.42546,-14.46499 -1.38647,-10.49864 -2.04351,-21.04645 -0.32992,-31.5671 0.62477,-3.29512 0.82865,-5.14238 1.96494,-8.26458 1.55892,-4.28346 4.25253,-8.17309 7.09425,-11.68463 1.62643,-1.84412 4.13722,-5.00273 6.26261,-6.25676 9.20329,-5.43015 30.98352,-22.27801 48.33109,-26.87186 0,0 -39.66487,30.33005 -39.66487,30.33005 z"
       inkscape:connector-curvature="0"
       inkscape:export-xdpi="7.503571"
       inkscape:export-ydpi="7.503571" />
    <path
       style="fill:#0000ff;stroke-width:20;stroke-miterlimit:4;stroke-dasharray:none"
       id="path4140"
       d="m 517.71761,625.9444 c -3.5525,-0.92752 -7.25984,-1.0445 -10.88201,-0.40724 -2.36651,0.41635 -4.81874,1.3301 -7.08092,2.08251 -1.19106,0.61557 -2.41751,1.16704 -3.57319,1.84672 -1.23382,0.72565 -4.83419,3.0628 -3.5853,2.3634 12.47931,-6.98872 24.70678,-14.42788 37.28538,-21.23626 1.37376,-0.74357 -2.46851,1.92349 -3.59809,3.00245 -3.47722,3.32136 -3.59711,3.97076 -6.28163,7.96299 -4.40688,8.0631 -5.94358,17.14492 -3.59912,26.12703 0.47904,1.83527 1.25936,3.57838 1.88904,5.36758 4.44573,9.82855 11.903,17.24284 21.56821,22.05091 2.00438,0.9971 4.14626,1.68981 6.21938,2.53472 6.41336,2.04258 13.04047,2.82704 19.71845,1.67843 2.17311,-0.37378 4.32446,-0.93369 6.39507,-1.69176 2.06574,-0.7563 7.86479,-3.93414 5.96099,-2.83194 -11.3508,6.57151 -22.87847,12.83266 -34.31771,19.24898 1.75119,-1.43392 3.63656,-2.71809 5.25359,-4.30177 6.72103,-6.58244 10.97807,-15.31343 13.26661,-24.3425 0.5511,-2.17431 0.88194,-4.39858 1.3229,-6.59786 0.87824,-8.51143 1.15056,-17.65044 -2.47558,-25.63919 -0.54467,-1.19996 -1.27807,-2.30495 -1.9171,-3.45742 -4.30939,-6.03462 -10.87528,-8.88397 -17.7435,-10.97306 -4.60402,-1.39281 -9.20948,-2.74167 -13.99829,-3.29999 -1.62669,0.0614 -2.62653,-0.15531 -4.04318,-0.90766 0,0 41.61952,-28.01108 41.61952,-28.01108 l 0,0 c 1.08626,0.0426 2.11167,0.17967 3.15933,0.55172 4.54442,1.3296 9.00279,2.92822 13.46319,4.51243 7.78511,3.16597 14.58244,6.94788 19.21905,14.26885 1.84355,3.62369 2.68529,4.81139 3.73494,8.83435 2.01976,7.7411 1.56394,15.91632 0.80248,23.78027 -0.41093,2.34099 -0.72393,4.70129 -1.2328,7.02295 -2.09675,9.56629 -5.89315,18.95979 -12.13029,26.61571 -1.48104,1.81794 -3.24122,3.3894 -4.86183,5.0841 -11.24233,6.49484 -38.40561,28.21474 -59.05478,29.63226 -7.17479,0.49253 -14.17142,-0.88093 -20.8509,-3.43819 -2.17437,-1.02901 -4.41662,-1.92539 -6.52311,-3.08704 -6.236,-3.43889 -12.29331,-8.03358 -16.93125,-13.46733 -3.62355,-4.24531 -4.22927,-6.0977 -6.7417,-10.9721 -0.75223,-1.99762 -1.64844,-3.94681 -2.25671,-5.99287 -3.02822,-10.18624 -2.37732,-19.30658 1.72736,-29.02512 2.124,-4.17502 2.50038,-5.47871 5.43722,-9.09077 10.83665,-13.32817 47.28775,-29.78612 47.79682,-30.08643 1.30128,-0.76763 2.66533,-1.43252 4.0562,-2.02248 1.31124,-0.55619 2.68929,-0.93941 4.03394,-1.40911 1.33768,-0.3133 2.66082,-0.69689 4.01304,-0.93989 5.48122,-0.98501 11.00132,-0.48969 16.48567,0.15997 0,0 -40.74939,28.50073 -40.74939,28.50073 z"
       inkscape:connector-curvature="0"
       inkscape:export-xdpi="7.503571"
       inkscape:export-ydpi="7.503571" />
    <path
       style="fill:#ffff00;stroke-width:20;stroke-miterlimit:4;stroke-dasharray:none"
       id="path4142"
       d="m 106.009,314.97877 c 13.65661,-7.8976 27.31322,-15.79519 40.96983,-23.69278 -2.20845,1.28348 -2.92409,1.57115 -4.94897,3.34179 -3.33272,2.91428 -5.80737,6.38736 -8.29953,10.00631 -4.88353,7.96856 -7.87011,16.86944 -8.69512,26.18459 -0.16904,1.90869 -0.15926,3.82901 -0.2389,5.74351 -0.11309,9.34964 2.53241,17.29662 8.35963,24.62114 1.13808,1.43052 2.42256,2.73818 3.63384,4.10727 5.53601,5.44262 11.99087,9.95346 19.65778,11.79816 5.67543,1.36554 8.33488,0.9234 14.21103,0.82032 7.14058,-1.13311 9.49982,-1.16235 16.40335,-3.68406 2.73601,-0.99941 10.48286,-5.04673 7.98757,-3.54403 -67.52633,40.66542 -31.7394,19.05149 -23.68494,11.75709 2.42466,-2.19585 4.49356,-4.7551 6.74035,-7.13265 1.93013,-2.76872 4.05808,-5.40957 5.79041,-8.30616 6.46149,-10.80411 10.14568,-23.32788 10.92128,-35.86841 0.15567,-2.51687 0.0196,-5.04332 0.0294,-7.56499 -0.32169,-5.55303 -0.98933,-11.11108 -2.83396,-16.38688 -0.63149,-1.80615 -1.77598,-4.53188 -3.11183,-6.04155 -0.58497,-0.66108 -1.38741,-1.09177 -2.08112,-1.63766 -6.90182,-2.93251 -14.59186,-1.89928 -21.76328,-0.61823 -4.1719,0.91839 -8.12367,2.70761 -12.33137,3.45491 -13.8966,8.93731 -31.82392,20.44549 41.64353,-23.57463 0.41317,-0.24756 -0.70415,-0.83898 -1.18564,-0.82599 0,0 -44.64194,22.75085 -44.64194,22.75085 l 0,0 c -0.10616,-0.42955 -0.87628,-3.46089 -0.77516,-3.52426 39.55071,-24.78451 26.99131,-23.7757 44.61945,-24.98371 3.77256,-1.03431 7.61828,-1.84858 11.50991,-2.26892 6.77933,-0.50701 14.09858,-0.88425 20.49773,1.89992 1.3372,0.5818 2.52619,1.45764 3.78928,2.18646 0.91111,0.97305 1.9632,1.8311 2.73331,2.91916 4.6873,6.62258 4.57031,18.20783 4.9172,25.87665 -0.10196,2.73725 -0.0737,5.48246 -0.30589,8.21175 -1.11926,13.15421 -4.6284,26.35266 -10.78123,38.0695 -1.59715,3.04144 -3.56789,5.87156 -5.35183,8.80733 -2.08028,2.56726 -3.96666,5.30458 -6.24083,7.70177 -2.16821,2.28549 -4.36267,4.64714 -7.04373,6.30139 -18.4229,11.36717 -40.52469,27.99094 -63.81175,32.00795 -2.9163,0.50306 -5.8814,0.66393 -8.82209,0.9959 -2.76902,-0.0784 -5.55354,0.0678 -8.30706,-0.23512 -11.3771,-1.25166 -20.98789,-6.84539 -28.799821,-14.97375 -1.28841,-1.50219 -2.64689,-2.94703 -3.86524,-4.50659 -6.55854,-8.39528 -9.69505,-16.67527 -9.73245,-27.37746 0.13306,-4.86871 0.0861,-7.46725 0.69926,-12.32717 0.94804,-7.51469 3.19052,-14.78994 6.62018,-21.54232 1.75589,-3.23487 2.53935,-4.92836 4.63965,-7.87934 11.802421,-16.58279 32.702131,-22.74428 50.108201,-32.48114 0,0 -38.82849,31.41408 -38.82849,31.41408 z"
       inkscape:connector-curvature="0"
       inkscape:export-xdpi="7.503571"
       inkscape:export-ydpi="7.503571" />
    <path
       style="fill:#00ff00;stroke-width:20;stroke-miterlimit:4;stroke-dasharray:none"
       id="path4144"
       d="m 165.6669,709.04373 c 0.4987,-4.96624 0.64534,-10.01452 0.0919,-14.98077 -0.53855,-3.2905 -1.51815,-6.41521 -3.27415,-9.25054 -0.67224,-1.17741 -1.63981,-1.55915 -2.93687,-1.6635 -0.37509,-0.0302 -0.75802,-0.13323 -1.12727,-0.0607 -0.40867,0.0803 -0.76144,0.33767 -1.14217,0.50651 -13.45769,10.37574 -24.18463,13.95357 37.10787,-20.69622 0.86867,-0.49107 -1.67515,1.08942 -2.46124,1.70407 -2.12197,1.65921 -2.69136,2.4336 -4.53877,4.42034 -3.6714,4.37333 -5.83175,9.76788 -6.24214,15.47176 -0.0875,1.21594 -0.0285,2.438 -0.0427,3.657 0.62166,7.58108 5.09085,13.72875 11.04197,18.25576 1.77582,1.35086 3.71984,2.465 5.57976,3.6975 12.34599,6.78457 26.02689,11.11479 40.08528,12.39016 2.94338,0.26702 5.90648,0.22944 8.85972,0.34415 8.21998,-0.18152 16.42362,-1.32776 24.28008,-3.8084 14.20289,-4.48451 48.87236,-25.83835 -22.29646,14.17177 6.83081,-4.98866 11.25447,-11.92286 13.08022,-20.18685 1.2512,-5.66339 0.91323,-7.56166 0.87232,-13.3186 -1.027,-9.64609 -3.92287,-19.23812 -9.11182,-27.50253 -0.73385,-1.16878 -1.61061,-2.24149 -2.41591,-3.36223 -5.14484,-5.95215 -11.49504,-6.668 -18.91774,-6.57524 -5.7835,0.45428 -11.48079,1.57317 -17.22007,2.36825 -1.62121,0.30687 -3.26732,0.37633 -4.90944,0.47289 0,0 40.28398,-29.63876 40.28398,-29.63876 l 0,0 c 1.42225,-0.0875 2.83595,-0.26999 4.25806,-0.36339 5.58911,-0.56554 11.19358,-1.23376 16.82101,-1.08226 1.30616,0.12426 2.62151,0.17432 3.91847,0.37278 6.98141,1.06831 13.05929,4.43485 17.18582,10.23449 0.78857,1.32658 1.64792,2.61356 2.36573,3.97973 4.86043,9.25059 7.69683,19.57264 9.08933,29.8772 0.11929,2.41541 0.38298,4.82801 0.35789,7.24623 -0.0942,9.08311 -2.16201,18.30022 -7.6659,25.70515 -1.26552,1.70264 -2.84482,3.14786 -4.26722,4.72179 -4.40172,2.56349 -34.32705,22.981 -51.31047,28.78956 -10.0426,3.43472 -20.65336,4.59178 -31.22757,4.31934 -3.01581,-0.24521 -6.04515,-0.35935 -9.04743,-0.73563 -14.70782,-1.84336 -28.97427,-6.45014 -42.08794,-13.31884 -2.14317,-1.31549 -4.37847,-2.4915 -6.42951,-3.94646 -5.83494,-4.13919 -11.18626,-9.97929 -13.31214,-16.95175 -0.40941,-1.34278 -0.54184,-2.75483 -0.81275,-4.13224 -0.1834,-3.12251 -0.42126,-5.01342 -0.10171,-8.13757 0.50386,-4.926 2.09564,-9.75438 4.60314,-14.0092 13.51651,-18.06528 20.48462,-16.10767 50.33381,-33.03425 0.69768,-0.39563 1.53184,-0.506 2.32669,-0.61328 0.68971,-0.0931 1.39189,0.0116 2.08783,0.0175 3.60847,0.90037 6.2654,2.22841 8.1834,5.57933 1.87256,3.54102 2.98417,7.37332 3.61923,11.32431 0.58643,5.02749 0.37071,10.07131 0.90882,15.09687 0,0 -44.44294,22.64481 -44.44294,22.64481 z"
       inkscape:connector-curvature="0"
       inkscape:export-xdpi="7.503571"
       inkscape:export-ydpi="7.503571" />
    <path
       style="fill:#00ff00;stroke-width:20;stroke-miterlimit:4;stroke-dasharray:none"
       id="path4146"
       d="m 193.89843,670.24241 c 5.09315,-10.59965 11.27139,-20.84137 16.97449,-31.23588 7.23001,-13.05643 13.03632,-26.53767 17.25975,-40.40978 1.64381,-5.78714 2.55376,-11.68101 2.6997,-17.61029 0.002,-1.69191 0.0426,-3.38807 -0.32742,-5.05679 -0.0267,-0.25137 -0.0535,-0.50272 -0.0802,-0.75407 0,0 55.34265,-20.59675 55.34265,-20.59675 l 0,0 c -0.1499,0.002 -0.2998,0.004 -0.44972,0.005 -0.15657,0.0119 -0.39545,-0.0756 -0.46973,0.0358 -0.31641,0.47419 0.358,4.22044 -0.19372,4.74109 -0.97556,6.60072 -3.00491,13.06821 -5.05063,19.49708 -4.9239,14.10938 -11.13262,27.88599 -18.04946,41.44302 -3.24825,6.28986 -3.81916,7.31237 -6.86374,13.52219 -2.14059,4.36602 -4.50442,8.85983 -5.82936,13.45451 -0.18354,0.63648 -0.21138,1.2956 -0.31706,1.94339 0,0 -54.64549,21.0214 -54.64549,21.0214 z"
       inkscape:connector-curvature="0"
       inkscape:export-xdpi="7.503571"
       inkscape:export-ydpi="7.503571" />
    <path
       style="fill:#0000ff;stroke-width:20;stroke-miterlimit:4;stroke-dasharray:none"
       id="path4148"
       d="m 418.72867,526.42106 c 0.60829,0.62662 1.17642,1.30262 1.82487,1.87986 9.38536,8.35477 20.41256,14.76329 30.93018,21.21798 14.91911,9.40506 30.8082,16.72196 46.23944,25.02371 5.18768,2.93762 10.4042,5.86295 15.22798,9.48039 3.82021,2.86486 7.33109,6.1793 10.86424,9.43687 2.19389,2.4752 4.70571,4.58579 6.8651,7.0983 1.18275,1.37616 2.17883,2.91092 3.34948,4.29653 0.20196,0.20982 0.40392,0.41964 0.60589,0.62947 0,0 -49.98637,32.46547 -49.98637,32.46547 l 0,0 c -0.18612,-0.31019 -0.37224,-0.62038 -0.55837,-0.93056 -2.37531,-4.0917 -4.94041,-7.96396 -8.26748,-11.25999 -7.15208,-7.39966 -15.20555,-13.48064 -23.8725,-18.64364 -14.94472,-8.82978 -30.17299,-17.07821 -45.06509,-26.01615 -12.31854,-7.11255 -24.68363,-14.11857 -37.17958,-20.85702 0,0 49.02221,-33.82122 49.02221,-33.82122 z"
       inkscape:connector-curvature="0"
       inkscape:export-xdpi="7.503571"
       inkscape:export-ydpi="7.503571" />
    <path
       style="fill:#ff0000;stroke-width:20;stroke-miterlimit:4;stroke-dasharray:none"
       id="path4150"
       d="m 285.90019,383.04668 c 4.8971,-7.75357 8.31091,-15.89717 12.15293,-23.90162 7.55465,-15.2823 15.08605,-30.56484 22.003,-45.98046 5.29767,-11.86101 10.00026,-23.84124 13.41328,-36.00637 0.74152,-2.68394 1.20908,-5.38954 1.56142,-8.10526 -0.14754,-0.72761 0.27351,-1.56744 0.0296,-2.24748 0,0 52.19739,-19.09077 52.19739,-19.09077 l 0,0 c 0.77686,1.36842 1.00069,2.19462 0.83888,3.65978 -0.19983,3.28485 -2.08209,6.41012 -3.46975,9.52823 -5.84827,12.43077 -11.79648,24.84258 -17.18172,37.3666 -6.74083,15.07804 -13.56152,30.14204 -19.88867,45.2995 -3.01895,7.53246 -6.09102,15.0897 -8.06765,22.77672 0,0 -53.58862,16.70113 -53.58862,16.70113 z"
       inkscape:connector-curvature="0"
       inkscape:export-xdpi="7.503571"
       inkscape:export-ydpi="7.503571" />
    <path
       style="fill:#ffff00;stroke-width:20;stroke-miterlimit:4;stroke-dasharray:none"
       id="path4152"
       d="m 176.96328,365.26493 c 3.30596,5.92826 7.65422,11.09727 11.59696,16.54593 1.31805,1.82148 2.59553,3.67522 3.8933,5.51283 5.87841,8.07445 11.09874,16.64528 16.72813,24.90713 3.70922,5.44375 4.88802,6.94691 8.75071,12.19463 6.97693,9.23744 13.79013,18.61732 20.8515,27.78264 3.78239,4.4508 7.31643,9.20088 11.48153,13.27135 0.19629,0.14881 3.58543,3.64983 3.06888,1.47394 -0.0754,-0.31758 -0.21888,-0.61273 -0.32833,-0.91908 0,0 -31.58657,25.99269 -31.58657,25.99269 l 0,0 c -1.63933,-1.59698 -3.16699,-3.30905 -4.61482,-5.10087 -3.5909,-4.70098 -6.92749,-9.61914 -10.37495,-14.43597 -6.4589,-9.57835 -12.89231,-19.17514 -19.5167,-28.62869 -2.07957,-2.9702 -6.63676,-9.46283 -8.65079,-12.40679 -5.61347,-8.2054 -10.97128,-16.61852 -17.10734,-24.4122 -5.63082,-6.98674 -11.46803,-13.89002 -18.06503,-19.88403 0,0 33.87352,-21.89351 33.87352,-21.89351 z"
       inkscape:connector-curvature="0"
       inkscape:export-xdpi="7.503571"
       inkscape:export-ydpi="7.503571" />
    <path
       style="fill:#ffff00;stroke-width:20;stroke-miterlimit:4;stroke-dasharray:none"
       id="path4154"
       d="m 164.59456,278.9921 c 1.03888,-8.85952 2.28334,-17.69368 3.4501,-26.53766 1.95468,-13.66542 3.29333,-27.40453 4.69442,-41.13433 0.52338,-5.27653 0.83317,-10.568 0.92762,-15.86794 0.024,-1.0406 0.0306,-2.08347 -0.007,-3.12381 0,0 44.692,-22.75172 44.692,-22.75172 l 0,0 c -0.0457,1.21158 -0.0834,2.42154 -0.21248,3.62858 -0.71318,5.78193 -1.98155,11.48108 -2.96353,17.21939 -0.26417,1.53305 -1.85507,10.72863 -2.03597,11.93951 -1.45487,9.73838 -2.39656,19.55646 -3.34852,29.35276 -0.68776,9.65374 -0.31114,3.31394 -0.67694,12.24302 -0.16755,4.08988 -0.58939,8.25492 0.0478,12.32401 0,0 -44.56732,22.70819 -44.56732,22.70819 z"
       inkscape:connector-curvature="0"
       inkscape:export-xdpi="7.503571"
       inkscape:export-ydpi="7.503571" />
    <path
       style="fill:#ffff00;stroke-width:20;stroke-miterlimit:4;stroke-dasharray:none"
       id="path4156"
       d="m 96.518489,301.24917 c -5.01004,-2.90712 -10.51316,-4.97533 -15.90442,-7.08216 -5.631326,-2.57811 -11.430911,-4.74666 -17.119263,-7.18544 -3.321111,-1.36132 -6.408197,-3.28332 -9.793492,-4.47719 -1.393598,-0.41965 -0.730958,-0.23731 -1.985142,-0.55701 0,0 41.459487,-27.91422 41.459487,-27.91422 l 0,0 c 1.18552,0.59286 0.55158,0.27413 1.90118,0.95744 3.09888,1.62474 6.188991,3.26525 9.325841,4.8165 5.44356,2.52956 10.84646,5.16539 16.43494,7.36427 5.64147,2.2009 11.27935,4.48471 17.08628,6.20793 0,0 -41.405411,27.86988 -41.405411,27.86988 z"
       inkscape:connector-curvature="0"
       inkscape:export-xdpi="7.503571"
       inkscape:export-ydpi="7.503571" />
    <path
       style="fill:#ff0000;stroke-width:20;stroke-miterlimit:4;stroke-dasharray:none"
       id="path4158"
       d="m 409.33713,155.97481 c 8.23134,-9.33003 16.25153,-18.84267 24.44697,-28.2054 6.182,-7.04864 12.41747,-14.0564 18.39144,-21.28366 2.18462,-2.59266 4.25742,-5.27439 6.39665,-7.902711 0.27208,-0.391594 0.46694,-0.824263 0.66401,-1.255511 0,0 45.24698,-21.835978 45.24698,-21.835978 l 0,0 c -0.0951,0.829848 -0.23386,1.650661 -0.48186,2.451487 -1.19699,3.904504 -4.54467,6.584324 -7.10165,9.61954 -6.63761,7.462531 -13.42921,14.784973 -20.19127,22.135043 -7.68859,8.49316 -15.52427,16.97644 -21.68362,26.68364 0,0 -45.68765,19.59355 -45.68765,19.59355 z"
       inkscape:connector-curvature="0"
       inkscape:export-xdpi="7.503571"
       inkscape:export-ydpi="7.503571" />
    <path
       style="fill:#ff0000;stroke-width:20;stroke-miterlimit:4;stroke-dasharray:none"
       id="path4160"
       d="m 327.27012,90.887551 c 1.80892,8.888633 4.84932,17.448219 7.9805,25.938929 3.23008,8.1786 6.40229,16.40158 10.59653,24.14412 1.10489,1.66781 3.11818,6.02846 4.99405,6.97629 1.63234,0.71362 3.16393,1.6157 4.77225,2.38249 0,0 -41.26717,27.22665 -41.26717,27.22665 l 0,0 c -2.07021,-1.01814 -4.30132,-1.80464 -6.01186,-3.41101 -2.26978,-2.66093 -3.59448,-5.93567 -4.88315,-9.15795 -3.41509,-8.29894 -6.1036,-16.87614 -9.56579,-25.15881 -1.92979,-4.95131 -3.87198,-9.89875 -5.75939,-14.86644 -1.38347,-3.6413 -1.46217,-4.22282 -3.08269,-7.56665 -0.37155,-0.76667 -0.80982,-1.49918 -1.21473,-2.24877 0,0 43.44145,-24.258849 43.44145,-24.258849 z"
       inkscape:connector-curvature="0"
       inkscape:export-xdpi="7.503571"
       inkscape:export-ydpi="7.503571" />
    <path
       style="fill:#ff0000;stroke-width:20;stroke-miterlimit:4;stroke-dasharray:none"
       id="path4162"
       d="m 462.52226,227.90318 c 5.34285,6.63923 10.73475,13.2154 15.79325,20.07872 4.65519,6.6347 9.1593,13.38537 13.38348,20.30386 1.42952,2.17736 2.78831,4.39813 4.17058,6.6053 0,0 -43.44544,24.72428 -43.44544,24.72428 l 0,0 c -0.88758,-2.38888 -2.10209,-4.62018 -3.14168,-6.94361 -3.51324,-7.05929 -7.07331,-14.09935 -11.76055,-20.48128 -5.04407,-6.60781 -10.4621,-13.11468 -17.25784,-18.00287 0,0 42.2582,-26.2844 42.2582,-26.2844 z"
       inkscape:connector-curvature="0"
       inkscape:export-xdpi="7.503571"
       inkscape:export-ydpi="7.503571" />
    <path
       style="fill:#0000ff;stroke-width:20;stroke-miterlimit:4;stroke-dasharray:none"
       id="path4164"
       d="m 545.38627,630.20676 c 2.87224,-10.55622 7.17522,-20.62794 11.32413,-30.72478 5.98468,-14.03949 11.02329,-28.44812 16.47498,-42.69572 3.39062,-8.29802 6.4847,-16.72079 10.08606,-24.93149 0.92576,-2.78576 2.81661,-5.10219 4.01104,-7.74278 0.11038,-0.20141 0.22076,-0.40283 0.33114,-0.60424 0,0 46.67314,-18.38075 46.67314,-18.38075 l 0,0 c -0.21649,0.0271 -0.43299,0.0542 -0.64949,0.0813 -0.25662,0.0627 -0.54207,0.0543 -0.76985,0.18809 -0.28827,0.16931 -0.49122,0.45391 -0.7269,0.69103 -1.69775,1.70819 -3.16268,3.61981 -4.38013,5.7 -4.79927,8.12978 -8.3917,16.88864 -12.29742,25.46564 -6.02133,14.13522 -11.23531,28.58633 -16.93193,42.85355 -3.38444,9.07332 -7.38644,18.29602 -8.26418,28.02887 0,0 -44.88059,22.07133 -44.88059,22.07133 z"
       inkscape:connector-curvature="0"
       inkscape:export-xdpi="7.503571"
       inkscape:export-ydpi="7.503571" />
    <path
       style="fill:#0000ff;stroke-width:20;stroke-miterlimit:4;stroke-dasharray:none"
       id="path4166"
       d="m 603.96353,678.08666 c 2.20057,5.89661 4.71945,11.66998 7.00536,17.53825 2.75258,6.54531 4.78427,13.36304 7.48278,19.9271 1.27847,3.28913 2.84763,6.4854 3.48617,9.97536 0.0317,0.38671 0.0634,0.77342 0.0951,1.16014 0,0 -44.68411,22.36344 -44.68411,22.36344 l 0,0 c 0.0765,-0.23458 0.1531,-0.46916 0.22965,-0.70374 0.69574,-2.55583 -1.34845,-6.59064 -1.87116,-9.06996 -2.23872,-6.7178 -3.93346,-13.62166 -6.81876,-20.11231 -2.37577,-5.54646 -4.73581,-11.13954 -8.18969,-16.12507 0,0 43.26469,-24.95321 43.26469,-24.95321 z"
       inkscape:connector-curvature="0"
       inkscape:export-xdpi="7.503571"
       inkscape:export-ydpi="7.503571" />
    <path
       style="fill:#0000ff;stroke-width:20;stroke-miterlimit:4;stroke-dasharray:none"
       id="path4168"
       d="m 513.26705,697.05397 c -2.93931,2.85623 -6.06596,5.49282 -9.20228,8.12812 -4.3393,2.76398 -7.25836,7.04513 -10.0825,11.23368 -3.11453,5.02414 -6.14955,10.09996 -9.16094,15.18718 -2.06501,3.40781 -3.85559,6.96535 -5.52692,10.57903 -0.44617,1.4239 -1.24746,2.64906 -1.36579,4.15188 0,0 -46.11728,20.09023 -46.11728,20.09023 l 0,0 c 1.46908,-0.35755 1.44395,-2.50968 2.41374,-3.47929 1.52524,-4.00885 3.77738,-7.70354 5.8223,-11.46197 3.07792,-5.21518 6.44512,-10.24842 9.45915,-15.50213 2.62214,-4.34964 5.0236,-8.91128 8.60082,-12.57254 1.72165,-1.10637 3.27364,-2.36974 4.90579,-3.60234 0.55735,-0.42091 1.16191,-0.78348 1.68117,-1.25057 0.49222,-0.44277 0.89295,-0.9777 1.33942,-1.46655 0.3725,-0.31098 0.745,-0.62195 1.1175,-0.93293 0,0 46.11582,-19.1018 46.11582,-19.1018 z"
       inkscape:connector-curvature="0"
       inkscape:export-xdpi="7.503571"
       inkscape:export-ydpi="7.503571" />
    <path
       style="fill:#00ff00;stroke-width:20;stroke-miterlimit:4;stroke-dasharray:none"
       id="path4170"
       d="m 306.17775,711.65673 c 5.50974,9.14259 13.35815,16.57535 20.62781,24.29554 7.89331,8.22664 15.49996,16.71782 23.29668,25.03449 3.24164,3.25982 6.29987,6.80306 9.87729,9.70996 0.78898,0.72011 0.93969,0.64586 1.66534,0.12149 0,0 -41.35846,28.33621 -41.35846,28.33621 l 0,0 c -0.97537,-0.71454 -1.89819,-1.4836 -2.6671,-2.42668 -3.08146,-3.49034 -5.82016,-7.26919 -8.68352,-10.93608 -6.94388,-8.82113 -14.02606,-17.56627 -21.90282,-25.58094 -7.64884,-7.83049 -15.56707,-15.38957 -23.33002,-23.1042 0,0 42.4748,-25.44979 42.4748,-25.44979 z"
       inkscape:connector-curvature="0"
       inkscape:export-xdpi="7.503571"
       inkscape:export-ydpi="7.503571" />
    <path
       style="fill:#00ff00;stroke-width:20;stroke-miterlimit:4;stroke-dasharray:none"
       id="path4172"
       d="m 256.8289,686.82409 c 0.92831,-0.53225 1.85675,-1.06428 2.78493,-1.59676 15.03119,-8.6231 30.01023,-17.33773 45.09318,-25.86998 1.42611,-0.80674 2.94085,-1.44608 4.4244,-2.14155 5.96848,-2.79797 12.00948,-5.3224 18.14606,-7.72493 13.2568,-5.15849 26.85145,-9.30403 40.4781,-13.34605 8.15159,-2.06427 16.27577,-4.24819 24.53789,-5.83181 2.36087,-0.36474 4.71848,-0.78771 7.10186,-0.97893 0,0 -40.36918,29.80406 -40.36918,29.80406 l 0,0 c -1.94979,0.13934 -3.89751,0.32142 -5.8234,0.66877 -7.65537,1.31822 -15.21757,3.13226 -22.73967,5.05998 -13.42917,3.72512 -26.70396,7.97121 -39.59322,13.30461 -6.36505,2.7268 -12.63897,5.5346 -18.77813,8.7458 -1.64787,0.86194 -6.50785,3.60172 -4.90239,2.66315 40.75284,-23.82451 49.96599,-30.21336 36.00261,-20.643 0,0 -46.36304,17.88664 -46.36304,17.88664 z"
       inkscape:connector-curvature="0"
       inkscape:export-xdpi="7.503571"
       inkscape:export-ydpi="7.503571" />
    <path
       style="fill:#00ff00;stroke-width:20;stroke-miterlimit:4;stroke-dasharray:none"
       id="path4174"
       d="m 204.00279,729.72652 c -0.68151,0.483 -1.35731,0.97417 -2.04454,1.449 -3.63662,2.51268 -7.0284,5.10537 -10.18648,8.2325 -4.09239,4.05227 -6.12445,6.64178 -9.95424,11.1264 -11.76454,14.71409 -21.16572,31.12581 -30.12987,47.64269 -3.25674,6.24097 -6.35765,12.55711 -9.59917,18.80526 -0.16009,0.35186 -0.36326,0.68714 -0.48027,1.05556 -0.0971,0.30566 0.13275,0.81076 -0.15648,0.94929 -45.64298,21.86143 -40.45426,36.77519 -45.879462,19.50573 0,0 44.366432,-23.29213 44.366432,-23.29213 l 0,0 c -16.90677,-0.9996 -1.47319,-0.13106 -45.208625,21.95894 -0.289825,0.14639 0.623589,0.31299 0.941836,0.24859 0.393337,-0.0796 0.677769,-0.42991 1.016653,-0.64486 1.877927,-2.14389 0.611238,-0.58234 2.532405,-3.36577 3.704341,-5.36692 7.103851,-10.91132 10.460771,-16.50415 9.77051,-16.20428 19.46332,-32.47606 29.83831,-48.30034 5.0644,-6.72703 9.96046,-14.09427 16.60794,-19.42439 0.49368,-0.39585 1.06054,-0.69057 1.59082,-1.03586 0,0 46.28397,-18.40646 46.28397,-18.40646 z"
       inkscape:connector-curvature="0"
       inkscape:export-xdpi="7.503571"
       inkscape:export-ydpi="7.503571" />
    <path
       style="fill:#00ff00;stroke-width:20;stroke-miterlimit:4;stroke-dasharray:none"
       id="path4176"
       d="m 120.17096,593.72506 c 2.15101,6.38303 5.81376,12.11592 9.15471,17.92186 4.14691,7.524 9.08213,14.42373 14.79099,20.82914 7.84275,7.87857 15.86849,15.5753 23.92088,23.23853 4.12883,3.81068 8.059,7.872 12.44872,11.39318 1.36743,1.09688 2.8093,2.09769 4.20399,3.15971 1.63657,1.35893 3.3065,2.72484 5.39267,3.26798 0,0 -41.84631,27.44794 -41.84631,27.44794 l 0,0 c -1.89807,-1.41193 -3.59379,-3.05698 -5.26656,-4.72646 -5.23568,-5.14251 -10.29865,-10.4459 -15.44799,-15.67519 -7.8248,-7.99451 -15.77897,-15.85417 -24.03508,-23.4062 -3.2555,-3.35692 -3.947594,-3.89329 -6.768297,-7.45436 -3.45247,-4.35866 -6.233707,-9.2012 -9.114578,-13.94092 -3.549581,-5.90316 -6.961631,-11.90627 -10.838819,-17.60111 0,0 43.405674,-24.4541 43.405674,-24.4541 z"
       inkscape:connector-curvature="0"
       inkscape:export-xdpi="7.503571"
       inkscape:export-ydpi="7.503571" />
    <path
       style="fill:#ff00ff;stroke-width:20;stroke-miterlimit:4;stroke-dasharray:none"
       id="path4163"
       d="m 567.0025,379.00847 c -8.05598,1.42012 -15.36181,5.28234 -22.46453,9.15569 65.14247,-36.53382 34.91904,-21.73036 22.35992,-11.22754 -3.85555,3.22428 -6.95712,6.38159 -10.07509,10.31984 -1.39942,1.76759 -2.60874,3.6777 -3.91311,5.51655 -3.71671,6.19097 -7.08717,13.01515 -6.41962,20.46104 0.39225,4.3752 1.15038,5.13365 2.95623,9.16588 1.11208,1.54968 2.1151,3.18377 3.33624,4.64905 6.54359,7.85179 15.33581,14.12251 24.59817,18.35078 2.88577,1.31736 5.9182,2.28635 8.87729,3.42952 14.31267,4.1465 29.10732,3.64289 43.4416,-0.17791 10.04783,-2.67825 12.88425,-4.42309 22.33565,-8.68507 3.4927,-1.94399 13.98725,-7.74612 10.4781,-5.83198 -41.21068,22.47922 -31.82793,19.4169 -18.48426,8.15255 5.07231,-4.28191 10.25735,-9.47449 14.59838,-14.51076 1.99041,-2.30918 3.78767,-4.77805 5.68151,-7.16707 5.67693,-8.47506 12.19198,-17.73784 12.85889,-28.31816 0.086,-1.36384 -0.12764,-2.73011 -0.19145,-4.09516 -0.39423,-1.29595 -0.63056,-2.65088 -1.18267,-3.88784 -4.03762,-9.04599 -14.16687,-14.20535 -22.43117,-18.54846 -12.4553,-6.2991 -26.08127,-8.64897 -39.95675,-7.96878 -2.6897,0.13186 -5.36381,0.48686 -8.04572,0.73029 -7.10513,1.21023 -14.12742,3.09607 -20.62898,6.26967 -1.97603,0.96456 -7.65578,4.33016 -5.74129,3.24857 36.31744,-20.51758 45.1531,-27.61384 29.89317,-15.95157 -5.7176,4.9434 -10.30138,10.93364 -13.01987,17.98988 -0.0485,0.84323 -1.03079,2.4999 -0.82414,3.38569 0,0 -43.77456,24.23858 -43.77456,24.23858 l 0,0 c -1.08134,-2.90459 -0.84246,-3.9175 0.0636,-6.88823 2.90971,-8.11107 7.95944,-15.09331 14.01087,-21.19142 17.63965,-15.4351 5.21641,-5.08283 50.06773,-30.77101 8.13896,-4.66151 17.65026,-6.43706 26.83218,-7.48157 2.68695,-0.0961 5.37221,-0.30102 8.06084,-0.28823 14.44395,0.0687 28.65192,2.91177 41.61177,9.4118 9.71939,5.04642 20.59668,10.42873 25.72237,20.75219 0.78536,1.58176 1.20562,3.31986 1.80844,4.9798 0.12712,1.70574 0.44219,3.40784 0.38138,5.11724 -0.41675,11.71468 -7.79997,22.27718 -14.1469,31.55155 -1.99167,2.55281 -3.88911,5.18203 -5.97503,7.65843 -4.51078,5.35519 -9.75587,10.78055 -14.99213,15.41668 -19.63024,17.38045 -43.58759,28.93256 -66.74945,40.93016 -9.81582,4.0044 -12.61236,5.61113 -22.99511,7.98318 -15.24588,3.48308 -30.81827,3.4093 -45.83997,-1.09535 -3.18966,-1.21012 -6.45421,-2.23878 -9.56899,-3.63036 -9.84157,-4.3969 -19.88073,-11.10858 -27.10987,-19.17721 -1.4754,-1.64673 -2.70842,-3.49551 -4.06263,-5.24327 -2.53104,-4.81748 -3.47088,-5.54005 -4.19783,-10.8892 -1.14433,-8.42038 2.13012,-16.30995 6.15801,-23.49411 4.19169,-6.43145 7.92178,-11.88114 13.58593,-17.1913 16.29823,-15.27965 40.22106,-22.29355 57.08538,-35.30996 1.96189,-1.00629 3.8977,-2.06515 5.88567,-3.01886 6.27983,-3.0127 12.88974,-5.1017 19.49777,-7.23985 0,0 -39.39594,30.41562 -39.39594,30.41562 z"
       inkscape:connector-curvature="0" />
    <path
       style="fill:#ff00ff;stroke-width:20;stroke-miterlimit:4;stroke-dasharray:none"
       id="path4165"
       d="m 506.09426,441.02392 c -7.52995,0.34748 -14.92614,1.96399 -22.27298,3.55872 -9.78578,2.27674 -19.45266,5.0606 -29.30049,7.06442 -2.7914,0.3336 -5.6641,1.41333 -8.5172,1.26029 -0.77154,-0.0414 -1.68779,-0.36158 -2.42989,-0.58834 -0.93808,-0.62754 -1.63595,-1.46667 -2.30488,-2.35481 0,0 43.13817,-25.83228 43.13817,-25.83228 l 0,0 c -0.0818,-0.20403 0.0164,-0.35969 0.10778,-0.55637 2.90503,-0.26703 5.79793,-0.81956 8.69247,-1.19382 9.48605,-1.77165 18.85655,-4.07893 28.22104,-6.39933 8.16468,-1.8545 16.3656,-3.46863 24.66009,-4.6294 0,0 -39.99411,29.67092 -39.99411,29.67092 z"
       inkscape:connector-curvature="0" />
    <path
       style="fill:#ff00ff;stroke-width:20;stroke-miterlimit:4;stroke-dasharray:none"
       id="path4167"
       d="m 601.24477,351.49683 c 0.34232,-0.9867 0.71344,-1.96386 1.02696,-2.96008 1.77446,-5.63838 3.34513,-11.30568 5.33864,-16.87907 1.78064,-4.97825 4.15219,-10.94844 6.06569,-15.85273 5.31782,-13.22348 10.47228,-26.51264 15.05956,-40.00828 1.36152,-4.42619 2.78718,-8.89454 3.39798,-13.50243 0,0 44.76474,-21.88578 44.76474,-21.88578 l 0,0 c -1.02899,5.33366 -3.1631,10.33886 -5.14804,15.37547 -5.53779,13.6404 -11.57076,27.07856 -16.80816,40.84118 -3.95885,10.8195 -8.19614,21.81444 -8.93368,33.42803 0,0 -44.76369,21.44369 -44.76369,21.44369 z"
       inkscape:connector-curvature="0" />
    <path
       style="fill:#ff00ff;stroke-width:20;stroke-miterlimit:4;stroke-dasharray:none"
       id="path4169"
       d="m 678.79613,435.53985 c 1.37945,7.84892 3.97025,15.41475 6.6307,22.90453 3.53148,9.52854 6.89564,19.11785 10.34417,28.67672 2.83212,7.80936 5.64967,15.61874 9.27771,23.09982 1.90672,4.0187 5.01129,6.93557 8.4119,9.66412 0,0 -42.19338,26.06356 -42.19338,26.06356 l 0,0 c -3.38719,-3.64491 -6.65417,-7.17746 -8.51288,-11.91602 -3.14659,-7.8617 -5.87172,-15.86456 -8.68107,-23.85098 -3.30915,-9.58447 -6.53971,-19.20569 -10.25287,-28.64197 -2.85335,-7.38692 -5.38636,-14.92609 -8.69324,-22.12151 0,0 43.66896,-23.87827 43.66896,-23.87827 z"
       inkscape:connector-curvature="0" />
    <path
       style="fill:#ff00ff;stroke-width:20;stroke-miterlimit:4;stroke-dasharray:none"
       id="path4171"
       d="m 562.6145,289.67099 c 2.35983,7.30573 5.75606,14.25054 8.95029,21.22165 3.25022,7.18815 6.27276,14.4743 9.46846,21.68632 0.87739,1.98233 1.6658,3.9937 2.37176,6.04209 0,0 -43.951,23.65097 -43.951,23.65097 l 0,0 c -0.20819,-2.01541 -0.63601,-3.99477 -1.21184,-5.93834 -2.2608,-7.4805 -4.8299,-14.87203 -8.17366,-21.9476 -3.32515,-6.90355 -6.65721,-13.83562 -10.85313,-20.26469 0,0 43.39912,-24.4504 43.39912,-24.4504 z"
       inkscape:connector-curvature="0" />
  </g>
</svg>
