<?xml version="1.0" encoding="UTF-8" standalone="no"?>
<!-- Created with Inkscape (http://www.inkscape.org/) -->

<svg
   xmlns:dc="http://purl.org/dc/elements/1.1/"
   xmlns:cc="http://creativecommons.org/ns#"
   xmlns:rdf="http://www.w3.org/1999/02/22-rdf-syntax-ns#"
   xmlns:svg="http://www.w3.org/2000/svg"
   xmlns="http://www.w3.org/2000/svg"
   xmlns:sodipodi="http://sodipodi.sourceforge.net/DTD/sodipodi-0.dtd"
   xmlns:inkscape="http://www.inkscape.org/namespaces/inkscape"
   width="210mm"
   height="297mm"
   viewBox="0 0 744.09448819 1052.3622047"
   id="svg2"
   version="1.1"
   inkscape:version="0.91 r13725"
   sodipodi:docname="contradiction.svg">
  <defs
     id="defs4" />
  <sodipodi:namedview
     id="base"
     pagecolor="#ffffff"
     bordercolor="#666666"
     borderopacity="1.0"
     inkscape:pageopacity="0.0"
     inkscape:pageshadow="2"
     inkscape:zoom="0.98994949"
     inkscape:cx="394.13517"
     inkscape:cy="500.32607"
     inkscape:document-units="px"
     inkscape:current-layer="layer1"
     showgrid="false"
     inkscape:window-width="1314"
     inkscape:window-height="822"
     inkscape:window-x="263"
     inkscape:window-y="157"
     inkscape:window-maximized="0" />
  <metadata
     id="metadata7">
    <rdf:RDF>
      <cc:Work
         rdf:about="">
        <dc:format>image/svg+xml</dc:format>
        <dc:type
           rdf:resource="http://purl.org/dc/dcmitype/StillImage" />
        <dc:title></dc:title>
      </cc:Work>
    </rdf:RDF>
  </metadata>
  <g
     inkscape:label="Layer 1"
     inkscape:groupmode="layer"
     id="layer1">
    <path
       style="fill:#000000;stroke-width:20;stroke-miterlimit:4;stroke-dasharray:none"
       id="path4136"
       d="m 388.07483,407.10915 c -0.3165,0.57338 -0.60829,1.16111 -0.94949,1.72014 -1.94827,3.19211 -4.07792,6.2729 -5.99242,9.48891 -1.86674,3.13579 -3.82768,6.75295 -5.57998,9.92433 -8.48421,15.71172 -18.25882,30.66771 -27.70606,45.80394 -8.01806,13.03658 -15.60113,26.33618 -23.01024,39.72647 -2.62655,4.84716 -4.95413,9.83712 -7.70299,14.61654 -1.61422,2.88026 -4.06342,5.15653 -5.98205,7.81567 -0.76727,0.82952 -1.25893,2.18728 -2.27202,2.77314 -58.50669,33.83375 -56.10846,33.32991 -1.35729,-2.28314 -0.26158,-0.58092 -0.89077,-1.11454 -0.78476,-1.74276 0.059,-0.34971 0.7023,0.10735 1.04593,0.19507 0.68146,0.17395 1.3479,0.40256 2.02603,0.58909 3.8793,1.06704 7.77201,1.66645 11.74698,2.2819 16.10948,1.92136 32.35979,1.04536 48.51839,0.40212 12.87669,-0.59246 25.75633,-1.1064 38.63492,-1.6511 5.39865,-0.21341 10.78553,-0.63423 16.1796,-0.92242 1.4718,-0.10467 0.78498,-0.0501 2.0608,-0.15948 0,0 -40.27292,29.24767 -40.27292,29.24767 l 0,0 c -0.97788,-0.11577 -0.44368,-0.0583 -1.60333,-0.16567 -4.56032,-0.29622 -9.11213,-0.71734 -13.6836,-0.84202 -11.88204,-0.3656 -23.769,-0.50061 -35.65703,-0.42117 -16.96574,0.18765 -33.92513,1.03469 -50.88963,0.7185 -4.89171,-0.13138 -9.68597,-0.3733 -14.54888,-0.8916 -0.63362,-0.0675 -4.13198,-0.35125 -4.90118,-0.85692 -0.95698,-0.62912 -1.60682,-1.63235 -2.41023,-2.44853 54.52842,-36.13624 57.01185,-36.54732 -0.72664,-3.14571 -0.20697,0.11973 0.41265,-0.25229 0.64197,-0.32001 0.29752,-0.0879 0.62618,-0.0414 0.9199,-0.14121 0.3015,-0.10248 1.7765,-0.9778 1.98708,-1.09989 2.41245,-2.26614 4.23634,-5.13548 6.70652,-7.36629 3.83382,-5.21114 7.37622,-10.6289 11.06861,-15.94049 9.10068,-13.65546 18.29533,-27.25442 26.68534,-41.36795 8.71134,-14.27435 17.55969,-28.52214 24.32506,-43.85838 2.73415,-6.24423 5.66407,-12.41931 8.20107,-18.73623 0,0 45.28254,-20.94252 45.28254,-20.94252 z"
       inkscape:connector-curvature="0" />
    <path
       style="fill:#000000;stroke-width:20;stroke-miterlimit:4;stroke-dasharray:none"
       id="path4138"
       d="m 390.53941,419.86977 c 2.673,6.98497 7.08966,13.24218 11.36841,19.32712 8.2804,11.30443 16.19942,22.85198 23.57854,34.76434 6.05797,9.68337 11.27951,19.83796 16.78784,29.83162 1.73884,2.73832 3.28254,5.60439 5.00126,8.3537 0.97873,1.56559 2.09993,3.0366 3.07623,4.60651 1.12763,1.47313 1.60072,3.20557 2.01771,4.97366 0,0 -44.12179,23.11513 -44.12179,23.11513 l 0,0 c 0.0592,-1.31243 -0.0861,-2.58018 -0.55459,-3.82176 -1.78148,-4.84246 -3.88668,-9.56841 -5.63655,-14.42457 -4.26895,-10.45915 -8.89779,-20.78488 -14.5573,-30.57855 -7.14382,-11.8821 -14.66749,-23.57516 -24.16118,-33.75729 -5.17125,-5.68793 -9.9202,-11.86461 -15.74106,-16.90572 0,0 42.94248,-25.48419 42.94248,-25.48419 z"
       inkscape:connector-curvature="0" />
    <path
       style="fill:#000000;stroke-width:20;stroke-miterlimit:4;stroke-dasharray:none"
       id="path4162"
       d="m 343.62997,445.43205 c -0.22289,-4.81248 -1.62084,-9.54262 -4.03833,-13.71753 -0.64102,-1.10701 -1.41337,-2.13259 -2.12005,-3.19888 -6.67542,-8.94062 -16.49074,-14.63053 -25.65945,-20.65907 -11.13902,-7.67332 -21.7069,-16.16579 -32.11523,-24.79578 -7.17518,-6.06358 -14.30215,-12.19855 -21.72407,-17.961 -3.0466,-1.83639 -5.66273,-4.35347 -8.71202,-6.16991 -0.97703,-0.33245 -0.49163,-0.19061 -1.45479,-0.43029 0,0 41.55108,-27.2961 41.55108,-27.2961 l 0,0 c 1.11711,0.83167 0.53091,0.37675 1.75085,1.37465 2.50161,2.39649 4.79634,5.0054 7.15764,7.53813 6.29928,6.57091 12.47232,13.2698 19.19109,19.42639 9.91663,8.94611 20.36998,17.29136 31.7735,24.28946 5.34799,3.42324 10.74212,6.78767 15.96888,10.39584 3.5269,2.43471 6.01287,4.13562 9.09736,7.06647 1.16957,1.1113 2.20097,2.35951 3.30145,3.53926 0.89136,1.17535 1.84787,2.30402 2.67409,3.52603 2.77768,4.10829 4.46175,8.80221 6.96518,13.05595 0,0 -43.60718,24.01638 -43.60718,24.01638 z"
       inkscape:connector-curvature="0" />
    <path
       style="fill:#000000;stroke-width:20;stroke-miterlimit:4;stroke-dasharray:none"
       id="path4164"
       d="m 287.96614,352.90158 c -0.44461,0.63224 -0.93169,1.23666 -1.33382,1.89673 -1.51469,2.48624 -2.83749,5.08461 -4.28897,7.60828 -3.78722,6.58475 -7.58309,13.13576 -11.2148,19.80944 -8.72837,17.03213 -17.55113,34.04816 -25.42618,51.49913 -1.85322,4.10671 -3.58482,8.26724 -5.37723,12.40085 -11.52125,27.13511 -23.69238,53.9849 -35.84222,80.84201 -10.46027,24.38154 -21.81216,48.36043 -32.62828,72.58223 -6.69476,14.98395 -12.73372,30.24854 -18.14072,45.74152 -1.06153,2.99175 -2.09909,5.99126 -3.21746,8.96234 -0.45529,1.20952 -0.93832,2.34546 -1.15281,3.61975 0.0483,0.22677 0.0967,0.45355 0.14501,0.68032 0,0 -46.04454,19.76225 -46.04454,19.76225 l 0,0 c 0.22098,0.004 0.44195,0.007 0.66292,0.0105 1.07588,-1.31861 1.7528,-2.82575 2.62196,-4.28759 1.95209,-3.28324 4.19233,-6.39667 5.78218,-9.88947 8.47393,-15.85309 16.00643,-32.17373 23.74289,-48.39492 12.08182,-24.34229 23.95335,-48.79263 35.01538,-73.61947 4.16213,-9.02178 8.43064,-17.99508 12.4975,-27.06019 7.85366,-17.50597 15.05052,-35.30559 22.18858,-53.11135 3.73399,-9.37275 5.77155,-14.65782 9.70357,-23.87052 5.46577,-12.80628 11.30905,-25.45199 16.72378,-38.28098 3.53641,-8.37189 2.40317,-5.76133 5.75549,-13.44486 1.48598,-3.40587 3.51893,-7.4847 4.36047,-11.15669 0.13424,-0.58573 0.10018,-1.19763 0.15027,-1.79645 0,0 45.31703,-20.50285 45.31703,-20.50285 z"
       inkscape:connector-curvature="0" />
    <path
       style="fill:#000000;stroke-width:20;stroke-miterlimit:4;stroke-dasharray:none"
       id="path4168"
       d="m 157.78042,648.90934 c -3.1986,4.40706 -6.38748,8.81333 -9.72954,13.11469 -4.98028,5.97645 -8.31535,12.98689 -10.84012,20.28857 -1.15593,3.86651 -1.92459,7.84733 -1.91756,11.88811 -0.006,0.29443 -0.0115,0.58887 -0.0172,0.8833 0,0 -44.927705,21.31481 -44.927705,21.31481 l 0,0 c 0.147276,-0.23253 0.294552,-0.46505 0.441828,-0.69758 0.723687,-1.53684 0.883557,-3.12872 1.278124,-4.77833 0.705531,-2.9497 1.645389,-5.83669 2.621409,-8.70579 2.599849,-7.45537 5.498184,-14.87616 9.892094,-21.48666 2.74522,-3.71969 5.73848,-7.37933 7.63373,-11.62606 0,0 45.56495,-20.19506 45.56495,-20.19506 z"
       inkscape:connector-curvature="0" />
    <path
       style="fill:#000000;stroke-width:20;stroke-miterlimit:4;stroke-dasharray:none"
       id="path4170"
       d="m 136.52356,700.46259 c 3.28336,1.50288 6.71103,2.28633 10.26902,2.84249 6.91754,0.84266 13.90026,0.88871 20.85895,0.96915 9.15748,-0.24687 18.24767,0.93505 27.36663,1.54657 11.46739,0.58731 22.93773,1.12973 34.42056,0.86568 12.10898,-0.43521 24.15725,-1.68138 36.21264,-2.82558 10.10927,-0.83348 20.24686,-1.5002 30.39289,-1.25326 7.97057,0.24703 15.86442,1.29063 23.69375,2.75207 8.69486,1.98288 17.5364,3.00309 26.40612,3.78074 12.69312,1.0635 25.35924,-0.3386 38.00979,-1.22571 11.30242,-0.67611 22.62086,-1.03177 33.93879,-1.32343 9.10993,-0.0734 18.21782,-0.15359 27.32592,-0.3514 5.81893,-0.17774 11.63525,-0.38441 17.45737,-0.36209 6.46315,0.16422 12.92336,0.33147 19.3889,0.31973 1.24128,0.0643 2.48492,0.0931 3.72384,0.19304 2.65699,0.21437 5.29776,0.59782 7.95016,0.863 4.78689,0.47856 9.56974,0.77306 14.37387,1.00638 9.81143,0.20546 19.61618,0.24029 29.42337,0.59658 7.49315,0.26897 14.99632,0.29067 22.491,0.0728 2.39954,0.22637 4.86798,-0.58344 7.26216,-0.3633 2.2331,0.20533 0.39113,0.46949 1.98485,0.14792 3.2262,-18.02282 -31.51115,17.36697 -41.99142,23.59572 -0.24279,0.1443 0.52723,-0.24363 0.71506,-0.45455 0.32223,-0.36186 0.50615,-0.82693 0.78126,-1.22578 0.41732,-0.60502 0.86341,-1.18967 1.29511,-1.7845 6.59212,-7.78853 13.38155,-15.40458 19.82618,-23.32208 7.5465,-9.23458 13.96558,-19.29309 20.56706,-29.20257 6.40859,-9.56597 12.99303,-19.00457 18.74042,-28.98971 2.95827,-5.2062 5.43338,-10.64829 7.03208,-16.41929 0.37223,-1.56671 0.73043,-3.18262 0.68712,-4.80232 -0.004,-0.85412 0.0144,-0.44337 -0.0488,-1.23255 0,0 44.42689,-22.78875 44.42689,-22.78875 l 0,0 c -0.0172,0.89461 -0.019,0.43225 0.01,1.38704 -0.0358,2.28245 0.0133,4.51029 -0.86624,6.68527 -2.49625,6.55269 -6.18738,12.57446 -9.58241,18.68341 -6.13133,10.0431 -12.80942,19.72119 -19.33771,29.50722 -6.63431,9.97992 -12.94446,20.20492 -20.46555,29.55932 -5.47182,7.12385 -11.17448,14.07469 -16.35978,21.41459 -0.44838,0.75555 -1.05705,1.43836 -1.33819,2.27074 -0.1137,0.33662 0.16553,0.86821 -0.13529,1.0573 -30.66238,19.27375 -28.83447,34.32171 -44.43849,25.08724 -0.88814,-0.29572 -1.63629,-0.19237 -2.58346,-0.2613 -1.68147,-0.12235 -3.35393,-0.34021 -5.03898,-0.41881 -7.00858,-0.4859 -14.02421,-0.88884 -21.03987,-1.25147 -9.6677,-0.41773 -19.34651,-0.4497 -29.01332,-0.90578 -9.03723,-0.32555 -18.0667,-0.85936 -27.10663,-1.05566 -6.7581,-0.0125 -13.5113,0.16394 -20.26736,0.31595 -5.47915,0.016 -10.95136,-0.18561 -16.4264,-0.38759 -8.81494,-0.21441 -17.62973,-0.30523 -26.44765,-0.21232 -10.98135,-0.0141 -21.96599,0.12842 -32.92641,0.87137 -12.91749,0.75203 -25.84814,1.34024 -38.79251,1.0585 -9.44401,-0.47633 -18.86225,-1.44399 -28.17724,-3.10358 -7.45861,-1.17356 -14.89668,-2.62182 -22.4783,-2.71756 -9.75249,-0.0106 -19.50896,0.26201 -29.23825,0.95622 -12.05382,0.88497 -24.08212,2.24455 -36.17973,2.39649 -11.74333,-10e-4 -23.4983,0.018 -35.22521,-0.6816 -9.41519,-0.50058 -18.82564,-0.80694 -28.25566,-0.61697 -7.40605,-0.0519 -14.83624,-0.0406 -22.20794,-0.84146 -4.33423,-0.65992 -8.62093,-1.74184 -12.82847,-2.94122 0,0 41.76569,-27.48035 41.76569,-27.48035 z"
       inkscape:connector-curvature="0" />
    <path
       style="fill:#000000;stroke-width:20;stroke-miterlimit:4;stroke-dasharray:none"
       id="path4172"
       d="m 316.50326,535.19855 c -4.98118,3.84153 -8.07141,9.48643 -11.18643,14.82396 -5.5383,10.73298 -9.69359,22.11892 -14.35762,33.24978 -3.50537,8.15221 -6.73816,16.41661 -9.72265,24.77225 -0.92389,2.21656 -1.35021,4.79321 -2.7305,6.80302 -0.66515,0.85955 -0.76482,1.99396 -0.75809,3.04753 0.0128,0.17346 0.0913,0.35472 0.0383,0.52039 -0.0935,0.29231 -0.32304,-0.53127 -0.40401,-0.82729 -0.23753,-0.86838 0.25162,-0.85094 0.9723,-0.90249 3.49066,0.12126 6.98175,0.20878 10.47375,0.28676 5.7117,0.17234 11.42332,0.19309 17.13644,0.10294 4.31629,-0.14789 8.6321,-0.26642 12.951,-0.27302 0.62257,10e-4 1.24655,-0.0378 1.86773,0.004 2.00561,0.13476 2.10934,0.34065 4.13062,0.7554 2.54677,0.52257 5.11321,0.80253 7.69683,1.06071 5.85953,0.2692 11.70381,0.68006 17.56024,1.01221 5.74714,0.16294 11.44321,0.95935 17.17306,1.42043 8.11768,0.42319 16.25267,-0.18144 24.37026,-0.43274 8.12629,-0.21385 16.25655,-0.14439 24.38431,-0.073 9.93844,0.16138 19.86838,0.78518 29.79612,1.28261 9.34462,0.58828 18.65928,1.55562 28.00267,2.14512 8.28763,0.3684 16.58564,0.43064 24.88013,0.50755 9.12174,0.0869 18.25864,-0.26281 27.3724,-0.6814 10.34241,-0.55113 20.68528,-1.21672 31.00052,-2.15655 11.02299,-0.83366 22.0206,-2.04709 32.94528,-3.7362 7.63559,-1.4066 15.30134,-2.6368 22.96186,-3.89642 2.3324,-0.34247 4.66832,-0.69167 7.03012,-0.61438 1.55413,0.0386 1.06514,0.21542 1.7203,-1.03283 0,0 -39.43076,30.85631 -39.43076,30.85631 l 0,0 c -0.89115,-0.2081 -1.65829,-0.65272 -2.60594,-0.48992 -1.85114,0.0921 -3.70433,0.0641 -5.55563,0.1623 -6.93805,0.30043 -13.79967,1.38977 -20.67158,2.33335 -10.94285,1.27729 -21.90845,2.36272 -32.87301,3.43509 -10.46506,0.96708 -20.95836,1.58813 -31.44627,2.24926 -9.39997,0.50501 -18.81176,0.88515 -28.22563,0.96598 -8.20826,-0.0747 -16.4134,-0.29274 -24.59148,-1.06353 -9.23688,-0.71355 -18.47239,-1.43843 -27.69688,-2.2977 -10.0113,-0.66891 -20.04077,-0.97472 -30.07517,-0.73308 -8.24048,0.11896 -16.48055,0.24969 -24.71941,0.45502 -8.20854,0.18701 -16.42153,0.45397 -24.63099,0.19259 -6.05642,-0.10797 -12.11943,-0.33768 -18.15311,-0.8849 -5.7914,-0.55792 -11.59881,-0.81129 -17.40099,-1.23199 -4.74392,-0.42216 -9.47748,-1.07488 -14.2515,-0.86122 -4.06964,-0.006 -8.13601,-0.11563 -12.20282,-0.26688 -5.825,-0.0882 -11.64808,-0.0396 -17.4711,0.14646 -3.93315,0.095 -7.87926,0.295 -11.80934,0.0696 -0.43115,-0.0855 -0.87938,-0.10904 -1.29344,-0.25653 -1.79137,-0.63811 -3.45418,-2.69212 -3.39604,-4.61675 0.0134,-1.57546 -0.24348,-3.14502 -0.005,-4.71816 0.73172,-3.01063 3.38071,-5.11295 4.56657,-7.93832 4.58174,-8.50589 8.71954,-17.24815 12.71935,-26.03999 2.53052,-5.83901 5.03473,-11.6533 7.16434,-17.654 4.64882,-13.09919 -0.69694,1.66047 3.48923,-10.64387 0.49698,-1.46076 1.0713,-2.89406 1.60695,-4.3411 2.23802,-5.12133 4.8526,-10.04433 7.59015,-14.91576 0,0 46.06439,-19.0805 46.06439,-19.0805 z"
       inkscape:connector-curvature="0" />
    <path
       style="fill:#000000;stroke-width:20;stroke-miterlimit:4;stroke-dasharray:none"
       id="path4174"
       d="m 427.59663,524.01595 c 5.24434,-0.15254 10.47549,-0.73168 15.68553,-1.33848 7.6572,-1.02563 15.35407,-1.6161 23.05205,-2.24019 8.38723,-0.49078 16.7915,-1.10232 25.19559,-0.84398 7.95516,0.44571 15.91235,0.64924 23.87882,0.64892 5.61084,-0.0575 11.21988,-0.21516 16.83026,-0.30233 3.24703,-0.0814 6.49554,-0.15378 9.73867,-0.34156 0,0 -40.06726,29.11587 -40.06726,29.11587 l 0,0 c -2.93811,-0.19617 -5.88388,-0.24612 -8.82637,-0.33614 -5.26138,-0.10251 -10.51907,-0.31041 -15.7751,-0.5683 -7.88971,-0.31549 -15.77947,-0.62043 -23.67462,-0.77443 -8.2216,-7.2e-4 -16.44873,0.21546 -24.63346,1.04855 -7.84327,0.7938 -15.66368,1.76648 -23.48599,2.74229 -5.96039,0.76345 -11.98169,1.45385 -17.72011,3.32564 0,0 39.80199,-30.13586 39.80199,-30.13586 z"
       inkscape:connector-curvature="0" />
    <path
       style="fill:#000000;stroke-width:20;stroke-miterlimit:4;stroke-dasharray:none"
       id="path4176"
       d="m 494.5002,537.76822 c -2.02049,-3.94524 -5.69409,-6.7657 -8.71971,-9.92486 -5.29929,-5.57028 -9.23941,-12.19121 -13.17398,-18.74463 -5.85204,-9.87063 -11.87055,-19.6416 -17.49966,-29.64228 -6.3575,-11.88276 -12.13999,-24.0646 -18.04611,-36.17608 -5.56332,-11.74441 -12.62585,-22.6699 -19.591,-33.60997 -8.57732,-12.59908 -16.01136,-25.91435 -23.4994,-39.17417 -8.92294,-15.30738 -18.58707,-30.16131 -28.96371,-44.51879 -10.94355,-14.42015 -22.10206,-28.67679 -33.26236,-42.92967 -8.63667,-11.14041 -18.16493,-21.53059 -27.57984,-32.00637 -5.2562,-5.70189 -10.76217,-11.16891 -16.37571,-16.51633 -2.42757,-2.42411 -4.95844,-4.74423 -7.36453,-7.18885 -1.21298,-0.48326 -2.64603,-3.43188 -4.06704,-2.85332 2.56041,18.5312 27.98406,-14.16047 42.93405,-23.21543 0.17006,-0.103 -0.34105,-0.25042 -0.53984,-0.25364 -0.37963,-0.006 -0.27788,0.71605 -0.31879,1.09353 -0.55278,3.27057 -3.23598,5.56764 -5.34567,7.93785 -5.99248,7.44224 -12.19213,14.70915 -18.55019,21.84048 -10.12809,10.59377 -20.07013,21.35695 -29.97852,32.1557 -12.56134,13.31196 -23.62962,27.89198 -34.55246,42.5448 -11.28969,14.97631 -21.77515,30.50649 -31.99007,46.22554 -7.13766,11.11354 -14.55062,22.04788 -21.33827,33.38407 -4.18555,6.99037 -5.69025,9.87774 -9.61377,17.00709 -1.50407,2.8795 -3.03284,5.74625 -4.51223,8.63852 -2.93916,5.74617 -5.73758,11.5636 -8.67567,17.31032 -4.63881,9.07322 -9.47196,18.04857 -14.19563,27.07773 -8.72143,16.84204 -17.17522,33.82328 -26.28832,50.45857 -7.07345,12.35742 -14.715998,24.35542 -21.345673,36.96369 -5.044583,10.38269 -10.065877,20.77084 -15.887998,30.74421 -4.471508,7.73301 -9.289545,15.25396 -13.963423,22.86344 -1.309003,2.51637 -3.119985,4.71108 -4.67485,7.06283 -1.122893,0.93798 -1.1054,2.38744 -1.181748,3.74673 -0.09835,2.00287 0.07949,3.99937 0.115251,5.99996 0.182233,1.67331 0.127577,3.32317 -0.296147,4.95366 -0.937163,2.24908 -0.12332,4.29828 0.692515,6.50311 3.536846,8.55027 8.958381,16.13281 13.943599,23.87633 5.952137,9.7059 12.721153,18.79799 20.334573,27.25185 5.363306,5.41586 11.220111,10.32811 17.148791,15.11102 2.91888,2.48746 5.68797,5.14819 8.41527,7.84194 1.02989,0.46076 1.64944,2.79306 2.55227,3.25544 0.13841,0.0709 0.0831,-0.29971 0.12454,-0.4496 0,0 -42.357282,26.89404 -42.357282,26.89404 l 0,0 c -1.060943,-1.37144 -1.412943,-2.7969 -2.452997,-4.16148 -2.269756,-2.8017 -4.426478,-5.71894 -7.099443,-8.16531 C 62.293859,711.42602 57.236551,705.7717 52.156215,700.14065 44.820672,691.25773 38.431706,681.67637 31.829988,672.24621 26.429879,664.50398 20.70911,657.01072 15.016921,649.48345 c -1.764786,-2.57665 -3.933398,-5.47355 -3.700118,-8.76881 0.11581,-0.69583 0.264006,-1.48132 0.555978,-2.13084 0.06697,-0.14897 0.243886,-0.24061 0.284795,-0.39875 0.128385,-0.49627 -0.124496,-1.04321 0.05623,-1.5368 0.0085,-2.03361 0.134612,-4.0657 0.0086,-6.09923 -0.108073,-1.95269 -0.473556,-3.93812 -0.09028,-5.87889 0.232299,-0.48767 0.759575,-1.62978 1.031319,-2.0308 1.588269,-2.34384 3.831272,-4.17864 5.538247,-6.42495 3.51481,-4.66551 7.162953,-9.24732 10.376003,-14.13246 1.000085,-1.52054 1.912793,-3.09678 2.873718,-4.64236 0.986416,-1.58658 1.978864,-3.1694 2.968296,-4.7541 6.074621,-9.95801 11.313416,-20.35482 16.502074,-30.7965 2.956418,-5.39818 3.342433,-6.24043 6.585987,-11.58938 5.400841,-8.90652 11.402526,-17.42888 16.728174,-26.3818 9.897668,-16.61837 18.992713,-33.66683 27.729246,-50.9231 9.10261,-17.59528 18.03188,-35.2746 26.98698,-52.94495 9.42447,-17.28093 19.79301,-34.00887 30.50357,-50.52075 0.97492,-1.51704 9.18021,-14.29606 10.17763,-15.80425 5.1749,-7.82502 10.65136,-15.40575 16.17103,-22.98703 1.85884,-2.55312 3.69453,-5.12301 5.5418,-7.68452 10.67939,-14.4513 21.21553,-29.03934 33.24518,-42.42251 9.24404,-10.46193 18.37906,-21.02203 27.91805,-31.21928 5.60916,-6.53798 11.20211,-13.12198 15.89508,-20.36621 1.25734,-1.99497 2.53406,-4.10788 4.39345,-5.57812 0.3843,-0.46053 0.33415,-0.25822 0.21349,-1.07539 -0.0598,-0.40527 -0.59441,-0.98491 -0.24806,-1.2037 26.55593,-16.77597 31.67591,-37.4368 44.8562,-24.04216 1.47267,1.54446 3.04299,2.99342 4.47797,4.57463 2.19323,2.52252 4.0524,5.31569 6.13966,7.92574 4.86031,5.93427 9.43425,12.10481 14.08012,18.20659 8.48286,11.161 17.03978,22.26327 25.35282,33.55293 10.70718,14.59885 21.7212,28.96657 32.73778,43.33258 10.58343,14.40208 20.69788,29.14052 30.04661,44.37963 7.83605,12.96851 15.6906,25.95298 24.49087,38.29851 7.55861,10.83046 14.57705,22.0187 20.11908,34.03815 5.62421,12.09497 11.30347,24.18819 17.96747,35.75527 6.05905,9.6861 12.31421,19.24616 18.91007,28.57685 4.2989,5.9631 8.6426,11.97441 13.95936,17.08627 3.42549,3.09315 6.95641,6.1329 10.74932,8.75899 0,0 -42.65051,26.13627 -42.65051,26.13627 z"
       inkscape:connector-curvature="0" />
    <path
       style="fill:#000000;stroke-width:20;stroke-miterlimit:4;stroke-dasharray:none"
       id="path4178"
       d="m 329.90995,197.23977 c 5.94095,-0.15839 11.91655,0.38536 17.84942,0.78098 14.74537,1.50319 29.51425,2.59838 44.3354,2.84929 17.12555,0.29821 34.18144,-1.10489 51.21577,-2.65535 8.74527,-0.73577 17.46329,-1.74798 26.19363,-2.63074 0.50736,-0.15445 1.05413,-0.2138 1.52209,-0.46336 0.34383,-0.18335 0.60361,-0.50051 0.85054,-0.80194 0.1958,-0.23901 0.73213,-0.95581 0.46386,-0.80252 -43.76204,25.00615 -57.74417,28.30759 -41.51566,24.41901 0,0 46.03755,-19.3768 46.03755,-19.3768 l 0,0 c -6.75439,16.90933 -28.94722,28.84635 -46.61106,25.73679 -7.35278,-0.41859 -14.71602,-0.50533 -22.07797,-0.2048 -16.78732,0.59708 -33.56531,1.56322 -50.36852,1.60768 -15.64137,-0.24367 -31.27186,-1.06367 -46.91479,-0.9671 -4.72471,0.1589 -9.41463,0.338 -14.11327,0.88303 -9.37915,1.08795 2.11578,-0.19633 -5.53913,0.83747 -0.57205,0.0772 -1.15073,0.0929 -1.72609,0.1394 0,0 40.39823,-29.35104 40.39823,-29.35104 z"
       inkscape:connector-curvature="0" />
    <path
       style="fill:#000000;stroke-width:20;stroke-miterlimit:4;stroke-dasharray:none"
       id="path4182"
       d="m 476.30818,199.37279 c 0.90521,1.85155 1.03405,2.19913 2.26254,4.21522 0.7198,1.18127 1.4925,2.32949 2.23875,3.49424 0.95082,1.54007 1.91966,3.06917 2.85248,4.62022 2.9978,4.9846 3.90932,6.6945 6.84069,11.89786 8.72034,16.37415 18.02048,32.42395 27.10522,48.59605 8.68677,14.95629 16.05641,30.60885 24.23884,45.83222 7.53447,13.17274 14.83941,26.46676 22.11809,39.78135 6.37584,12.26948 12.71322,24.55458 19.54349,36.57901 7.22452,11.8811 12.79794,24.58097 17.76331,37.53445 4.09887,11.53498 7.32108,23.35637 10.87938,35.06374 2.10383,6.85317 4.14627,13.73091 6.48537,20.50804 2.26446,6.27184 4.34862,12.606 6.57466,18.89098 2.07399,6.00261 3.92184,12.07836 5.95015,18.09669 3.02776,8.42441 5.92603,16.8934 8.90755,25.33465 2.44194,7.16607 5.29286,14.18258 7.89659,21.28898 2.07082,5.78165 4.96786,11.20271 7.72961,16.67 1.2006,2.06809 2.00716,4.31998 2.92423,6.51953 0.74168,1.23155 1.30496,2.59627 1.62518,3.99967 0.0494,0.0801 0.0989,0.16024 0.14833,0.24036 0,0 -43.49307,24.69284 -43.49307,24.69284 l 0,0 c -0.10201,-0.23242 -0.20402,-0.46484 -0.30603,-0.69725 -0.51556,-1.2622 -0.51391,-2.65908 -1.24771,-3.86044 -1.06879,-2.32385 -1.20501,-4.85163 -1.85807,-7.30543 -1.8243,-5.95664 -4.4578,-11.62315 -6.60887,-17.46472 -2.65688,-7.18032 -5.39326,-14.32709 -7.65523,-21.64667 -2.46547,-8.50195 -4.98086,-17.02349 -8.86278,-25.01289 -2.64746,-5.82348 -5.49141,-11.64022 -6.93253,-17.90832 -1.83882,-6.3883 -3.64283,-12.7819 -6.2071,-18.9313 -1.57483,-4.35658 -3.00192,-8.77585 -3.89108,-13.33234 -0.25156,-1.28906 -0.40286,-2.59588 -0.63119,-3.88926 -0.26257,-1.48732 -0.56093,-2.9681 -0.8414,-4.45214 -2.15875,-12.0211 -5.0516,-23.90733 -8.93774,-35.4951 -1.68263,-4.57755 -3.03683,-8.50675 -5.03668,-12.96254 -3.69085,-8.22343 -8.44539,-15.91251 -12.71537,-23.83363 -6.60013,-12.18851 -12.91558,-24.53554 -18.95989,-37.00945 -6.94269,-13.5119 -14.64641,-26.59732 -21.59449,-40.10497 -2.91408,-5.70515 -4.54916,-8.80021 -7.29692,-14.6106 -5.05663,-10.69275 -9.76032,-21.56341 -15.43578,-31.95503 -8.97382,-16.14324 -18.53652,-32.00168 -29.12505,-47.14313 -5.36642,-7.47699 -10.9659,-15.29843 -18.95989,-20.18925 0,0 42.51241,-26.05164 42.51241,-26.05164 z"
       inkscape:connector-curvature="0" />
    <path
       style="fill:#000000;stroke-width:20;stroke-miterlimit:4;stroke-dasharray:none"
       id="path4184"
       d="m 109.6967,696.25513 c 2.85515,0.40187 5.75874,0.28396 8.63543,0.30066 4.16051,-0.32841 8.09221,0.9694 12.07737,1.93202 3.76417,0.6075 6.36035,1.01038 9.79868,2.75121 3.73168,1.15704 7.31713,2.77293 11.08727,3.80514 1.83826,0.36787 0.93917,0.22234 2.6955,0.4474 0,0 -40.50638,28.0002 -40.50638,28.0002 l 0,0 c -1.79676,-0.62355 -0.88571,-0.28699 -2.73138,-1.01446 -3.55644,-1.50578 -7.15707,-2.9025 -10.849703,-4.04487 -3.168124,-0.71131 -6.357672,-1.30347 -9.441547,-2.35185 -3.915291,-0.95826 -7.694373,-0.93602 -11.700397,-0.77508 -3.154661,0.018 -6.323694,-0.0653 -9.463079,0.30066 0,0 40.398236,-29.35103 40.398236,-29.35103 z"
       inkscape:connector-curvature="0" />
    <path
       style="fill:#000000;stroke-width:20;stroke-miterlimit:4;stroke-dasharray:none"
       id="path4186"
       d="m 315.28389,529.92781 c -0.86567,3.28902 -2.45337,6.27758 -3.77324,9.39138 -0.3798,0.81579 -0.56185,1.72543 -1.0756,2.47297 0,0 -44.61059,21.93425 -44.61059,21.93425 l 0,0 c 0.0337,-1.50863 0.29004,-2.72474 1.1767,-4.0019 0.49394,-1.09296 1.13239,-2.11772 1.6093,-3.21822 0.23713,-0.5472 0.32631,-1.1499 0.5529,-1.70155 0.42186,-1.02702 1.1839,-1.92113 1.19956,-3.0945 0,0 44.92097,-21.78243 44.92097,-21.78243 z"
       inkscape:connector-curvature="0" />
    <path
       style="fill:#000000;stroke-width:20;stroke-miterlimit:4;stroke-dasharray:none"
       id="path4188"
       d="m 267.51418,563.21395 c 1.72488,-2.54651 2.03566,-5.68239 2.2252,-8.67303 0.301,-2.37911 0.94166,-4.86243 1.67755,-7.14668 0.43267,-1.12019 0.2222,-0.56908 0.63184,-1.65316 0,0 44.76025,-21.34639 44.76025,-21.34639 l 0,0 c -0.26666,1.42472 -0.10002,0.72267 -0.49862,2.10646 -0.27005,0.6368 -0.68854,1.20675 -0.93057,1.85471 -0.15209,0.40716 -0.19085,0.84806 -0.28628,1.27209 -0.10931,0.40225 -0.18045,0.81687 -0.32792,1.20675 -0.12683,0.33529 -0.361,0.62279 -0.49055,0.95705 -0.15499,0.39989 -0.23948,0.82365 -0.35922,1.23548 -0.94583,2.95961 -0.85282,6.16798 -1.11915,9.2442 0,0 -45.28253,20.94252 -45.28253,20.94252 z"
       inkscape:connector-curvature="0" />
    <path
       style="fill:#999999;stroke-width:20;stroke-miterlimit:4;stroke-dasharray:none"
       d="m 95.741624,680.17746 c -2.863056,-2.62743 -7.605316,-7.73184 -10.538356,-11.34314 -6.73625,-8.29398 -21.563603,-30.83452 -25.77478,-39.18282 -3.051497,-6.04933 -3.178717,-6.7679 -2.662669,-15.03951 0.540838,-8.66897 0.556312,-8.7095 7.602334,-19.91111 10.225367,-16.25605 17.164415,-28.48797 24.661615,-43.47269 3.634722,-7.26474 11.495632,-21.61814 17.468702,-31.89644 5.97306,-10.27831 17.80848,-32.0976 26.30093,-48.48733 8.49246,-16.38972 20.97355,-40.48186 27.73575,-53.53808 6.76221,-13.05622 14.49337,-27.37513 17.18037,-31.81981 11.24694,-18.60404 42.55865,-64.94985 55.28749,-81.83339 16.91256,-22.43283 22.52536,-29.13836 41.67846,-49.79263 l 15.14034,-16.327 5.90886,5.79121 c 9.58736,9.39647 26.76895,28.97509 39.21163,44.68209 31.71698,40.03792 42.99642,56.27568 64.52126,92.8842 7.0395,11.97247 16.9717,28.35936 22.07154,36.41533 5.09986,8.05597 14.68364,25.55686 21.29729,38.89087 6.61366,13.33402 17.20627,32.88047 23.53913,43.43656 l 11.5143,19.1929 -5.63171,0.6338 c -15.36524,1.72922 -19.39396,1.73192 -20.03902,0.0134 -0.34218,-0.91157 -2.09979,-3.9793 -3.9058,-6.81719 -1.80602,-2.83789 -6.77986,-11.4747 -11.05297,-19.1929 -9.35619,-16.89934 -18.62476,-31.63518 -29.93915,-47.59939 -9.52079,-13.43351 -14.35261,-21.07231 -15.38349,-24.32033 -0.77181,-2.43176 -2.07029,-2.86213 -3.18645,-1.05613 -0.44515,0.72025 -1.42581,-0.21885 -2.58206,-2.47262 -1.83328,-3.57343 -1.82907,-3.6937 0.25282,-7.22224 2.19737,-3.72426 1.47855,-4.50565 -2.28967,-2.48896 -1.79717,0.96182 -2.66589,0.41295 -6.94465,-4.38772 -3.24088,-3.63618 -11.29965,-9.76486 -23.89089,-18.16897 -23.17723,-15.46981 -34.68425,-24.99435 -51.06584,-42.26792 l -12.55867,-13.24249 -20.11433,13.32767 c -11.06288,7.33022 -20.49174,13.68389 -20.953,14.11924 -0.46127,0.43537 1.24336,2.28679 3.78807,4.11425 2.5447,1.82747 4.62674,3.63881 4.62674,4.02519 0,0.38638 -3.36047,2.1677 -7.4677,3.95848 -6.28687,2.74113 -7.55754,3.70522 -8.03591,6.09704 -0.31252,1.56259 -6.76697,17.09146 -14.34324,34.50861 -7.57625,17.41715 -16.95628,39.6225 -20.84448,49.34522 -11.72887,29.32884 -19.55722,47.52769 -33.89281,78.7919 -22.06918,48.13023 -59.60448,125.05875 -65.72092,134.69489 -1.70723,2.68966 -2.91501,5.41707 -2.68394,6.06091 0.23107,0.64384 -0.36731,2.18392 -1.32973,3.42239 l -1.74984,2.25177 -5.205556,-4.77715 z"
       id="path4190"
       inkscape:connector-curvature="0" />
    <path
       style="fill:#000000;stroke-width:20;stroke-miterlimit:4;stroke-dasharray:none"
       d="m 343.38379,708.53716 c -2.22233,-0.20001 -11.08642,-1.59694 -19.69797,-3.10429 -18.70026,-3.27325 -41.33205,-3.69527 -66.67007,-1.24321 -19.29172,1.86695 -45.38735,1.92633 -82.01708,0.18665 -26.2241,-1.24549 -28.49883,-1.5078 -36.36549,-4.19352 -7.46526,-2.54868 -8.08493,-2.94376 -5.61366,-3.57915 2.30522,-0.59268 2.77792,-1.266 2.77792,-3.9569 0,-8.60497 5.34573,-20.36088 15.34552,-33.74667 3.87421,-5.18605 6.81828,-9.65493 6.54237,-9.93083 -0.27591,-0.27591 -1.44972,0.006 -2.60847,0.62588 -2.80908,1.50337 -2.72228,0.82618 1.31467,-10.25764 6.39392,-17.55507 11.88414,-30.55573 27.85621,-65.96257 24.70687,-54.77014 48.6114,-108.48294 56.19522,-126.26907 5.91006,-13.86069 29.79882,-63.07389 32.51226,-66.97844 0.69409,-0.99879 2.73066,0.19988 8.39832,4.94301 10.39476,8.69915 24.92417,19.59885 36.20673,27.16164 10.88666,7.29741 17.31446,12.92278 20.31657,17.7803 l 2.08255,3.36965 -3.21794,7.367 c -5.65691,12.95062 -11.03778,23.06876 -22.1789,41.70506 -14.72567,24.63237 -38.72624,60.70891 -41.3063,62.08972 -1.1541,0.61766 -2.09837,1.85926 -2.09837,2.75911 0,0.89985 -1.83741,3.38399 -4.08314,5.5203 -4.15737,3.95481 -4.39694,4.70936 -0.90121,2.83851 1.07464,-0.57513 1.9539,-0.65195 1.9539,-0.17069 0,0.48124 -1.13643,1.48318 -2.52539,2.22653 -2.7135,1.45223 -3.17785,2.98407 -1.43338,4.72855 0.78256,0.78256 0.5362,2.19946 -0.8694,5.00025 -1.07877,2.14955 -2.97352,7.09024 -4.21057,10.97933 -4.24103,13.33323 -16.32897,40.3914 -22.81239,51.06426 -3.98138,6.55405 -4.58239,11.79157 -1.65691,14.43909 1.60018,1.44815 4.8097,1.67267 23.99113,1.67839 12.17909,0.004 30.32605,0.67937 40.32656,1.50165 12.40032,1.01961 32.3926,1.49938 62.86541,1.50865 33.50938,0.0102 48.9178,0.42359 61.6193,1.65331 31.48965,3.04871 75.99554,1.6732 121.62411,-3.75898 9.64755,-1.14855 22.08668,-2.32742 27.64252,-2.6197 l 10.10152,-0.5314 5.92741,-4.59643 c 6.7933,-5.26792 6.94735,-4.50692 1.28161,6.33123 -3.57648,6.84152 -32.11711,49.74134 -38.43679,57.77486 l -4.12757,5.24691 -17.17259,0.0551 c -9.44492,0.0303 -26.26396,-0.65493 -37.37564,-1.52281 -17.34585,-1.35482 -26.48891,-1.42226 -64.64977,-0.4769 -24.44569,0.60559 -49.21968,1.5237 -55.05331,2.04024 -10.40584,0.92138 -21.7866,1.0451 -29.7995,0.32396 l 0,10e-6 z"
       id="path4192"
       inkscape:connector-curvature="0" />
  </g>
</svg>
