<?xml version="1.0" encoding="UTF-8" standalone="no"?>
<!-- Created with Inkscape (http://www.inkscape.org/) -->

<svg
   xmlns:dc="http://purl.org/dc/elements/1.1/"
   xmlns:cc="http://creativecommons.org/ns#"
   xmlns:rdf="http://www.w3.org/1999/02/22-rdf-syntax-ns#"
   xmlns:svg="http://www.w3.org/2000/svg"
   xmlns="http://www.w3.org/2000/svg"
   xmlns:sodipodi="http://sodipodi.sourceforge.net/DTD/sodipodi-0.dtd"
   xmlns:inkscape="http://www.inkscape.org/namespaces/inkscape"
   width="210mm"
   height="297mm"
   viewBox="0 0 744.09448819 1052.3622047"
   id="svg2"
   version="1.1"
   inkscape:version="0.91 r13725"
   sodipodi:docname="derivative.svg">
  <defs
     id="defs4" />
  <sodipodi:namedview
     id="base"
     pagecolor="#ffffff"
     bordercolor="#666666"
     borderopacity="1.0"
     inkscape:pageopacity="0.0"
     inkscape:pageshadow="2"
     inkscape:zoom="1.4"
     inkscape:cx="362.73329"
     inkscape:cy="723.01898"
     inkscape:document-units="px"
     inkscape:current-layer="layer1"
     showgrid="false"
     inkscape:window-width="1855"
     inkscape:window-height="1056"
     inkscape:window-x="65"
     inkscape:window-y="24"
     inkscape:window-maximized="1" />
  <metadata
     id="metadata7">
    <rdf:RDF>
      <cc:Work
         rdf:about="">
        <dc:format>image/svg+xml</dc:format>
        <dc:type
           rdf:resource="http://purl.org/dc/dcmitype/StillImage" />
        <dc:title></dc:title>
      </cc:Work>
    </rdf:RDF>
  </metadata>
  <g
     inkscape:label="Layer 1"
     inkscape:groupmode="layer"
     id="layer1">
    <path
       style="fill:#000000"
       id="path3344"
       d="m 399.0555,203.86059 c -4.48463,-4.00304 -10.11172,-6.15569 -15.73835,-7.99468 -9.94179,-2.8336 -20.08904,-4.9184 -30.22896,-6.90862 -6.58241,-1.07553 -13.28048,-2.48143 -19.98421,-1.64756 -4.35738,0.54202 -5.33886,1.14569 -9.4895,2.61178 -1.61651,0.84155 -3.40706,1.41083 -4.84954,2.52464 -0.94274,0.72794 3.89093,-2.37985 3.31314,-1.3383 -1.04454,1.88293 -3.33911,2.72565 -4.90353,4.20521 -3.3862,3.20253 -6.26822,6.53206 -9.0196,10.29514 -1.38484,1.89405 -2.60795,3.9012 -3.91192,5.8518 -4.78639,7.81268 -8.17486,16.35394 -10.04482,25.32248 -1.1101,5.32413 -1.11773,7.08783 -1.59742,12.42108 -0.25461,8.25481 0.71796,16.68381 4.60507,24.09897 0.63272,1.20699 1.42533,2.32315 2.138,3.48472 4.5696,6.09945 10.80044,10.07018 18.04422,12.32889 1.44343,0.45008 2.93418,0.7313 4.40127,1.09695 7.62198,1.41489 15.39397,0.87995 22.84952,-1.18198 1.63203,-0.45135 3.22583,-1.03101 4.83875,-1.54652 5.0771,-1.71272 9.81627,-4.17068 14.5203,-6.69531 1.25916,-0.67579 -4.51817,3.24381 -3.78192,2.01904 0.91272,-1.51833 2.95872,-1.95277 4.37878,-3.01192 1.46845,-1.09525 2.85374,-2.29778 4.28061,-3.44668 6.01408,-5.23676 11.24069,-11.3155 15.54472,-18.02924 2.75351,-4.29511 4.06742,-7.03812 6.44558,-11.5653 6.54915,-13.35813 10.97813,-27.57441 14.97684,-41.85973 2.43011,-8.88256 4.10575,-17.95295 5.04132,-27.11248 0.53776,-5.26489 0.61487,-7.72848 0.91108,-13.01525 0.46652,-13.10729 0.3047,-26.24514 -0.24212,-39.34805 -0.58061,-11.25662 -1.73756,-22.4706 -3.20368,-33.643218 -1.02244,-7.121576 -1.58242,-14.294166 -2.24592,-21.4544 -0.21311,-3.182996 -0.60723,-6.337978 -1.17692,-9.475182 -0.88486,-4.608797 -2.49134,-1.301767 9.26654,-6.090445 0.0391,-0.01591 0.28065,0.797571 0.55366,1.690252 1.16725,4.030982 2.72172,7.935588 4.03277,11.920925 2.28161,7.152189 3.37244,14.581019 3.9495,22.042642 0.47371,10.116026 -0.78873,20.201526 -1.92287,30.233926 -1.25966,10.29138 -1.72259,20.64902 -1.98626,31.00586 -0.16351,9.73082 -0.29815,19.46297 0.13729,29.18758 0.57958,9.42283 1.97527,18.771 3.24688,28.11903 1.29274,9.48813 1.75719,19.05458 2.09411,28.61533 0.0669,6.90134 0.28533,13.79086 1.09794,20.64778 0.3748,3.73386 1.26124,7.38226 2.45128,10.93319 0.91022,2.75738 1.91496,5.46882 2.59117,8.29597 0.4509,2.10262 0.60333,4.24715 0.70553,6.38952 0.0608,1.23422 0.0113,2.4682 0.001,3.70262 0,0 -9.40664,4.78844 -9.40664,4.78844 l 0,0 c -6.3e-4,-1.22077 -0.0261,-2.44069 -0.008,-3.66158 -0.0163,-2.09351 -0.12762,-4.19171 -0.52126,-6.25247 -0.61072,-2.81434 -1.63265,-5.48379 -2.51638,-8.21941 -1.21551,-3.64062 -2.03999,-7.40035 -2.35935,-11.23125 -0.72354,-6.92864 -0.92762,-13.87938 -0.89887,-20.8441 -0.21844,-9.54473 -0.65353,-19.09561 -1.96684,-28.56226 -1.28449,-9.36987 -2.73388,-18.73656 -3.32231,-28.18195 -0.42408,-9.75914 -0.26923,-19.52617 -0.086,-29.29059 0.26018,-10.3836 0.68842,-20.76998 1.95859,-31.08789 1.12613,-9.95218 2.39126,-19.96473 1.8803,-29.998611 -0.61464,-7.350968 -1.73741,-14.671146 -4.08432,-21.691004 -1.35876,-3.953801 -2.94561,-7.821014 -4.30862,-11.772294 -0.10588,-0.29264 -0.21191,-0.585225 -0.31763,-0.877921 -0.0538,-0.148976 -0.29537,-0.363292 -0.16096,-0.447095 3.00576,-1.874044 6.20494,-3.420551 9.25443,-5.222547 0.0652,-0.03852 -0.14841,-0.210134 -0.17842,-0.140611 -0.14124,0.327162 0.45033,0.742316 0.15666,1.057498 0.43741,3.220916 0.80013,6.444136 0.91845,9.696041 0.55227,7.200564 0.97563,14.414515 1.92106,21.578693 1.34199,11.249693 2.40391,22.533471 2.98179,33.850151 0.53389,13.13194 0.71525,26.2981 0.27437,39.43466 -0.28993,5.43759 -0.34241,7.65978 -0.8947,13.07648 -0.94107,9.2296 -2.65276,18.36176 -5.11185,27.3087 -4.00548,14.2973 -8.3805,28.53806 -14.77396,41.98159 -2.2563,4.38408 -3.72554,7.46515 -6.33177,11.64277 -4.22092,6.76584 -9.36359,12.91541 -15.3097,18.2293 -1.40854,1.16886 -2.77205,2.39421 -4.22562,3.50657 -5.2682,4.03158 -11.85981,7.5816 -17.33171,10.70359 -4.66459,2.66138 -9.6212,4.78318 -14.672,6.58704 -1.63794,0.50107 -3.25706,1.06839 -4.91382,1.5032 -7.58775,1.99137 -15.47066,2.41832 -23.17344,0.8361 -1.48446,-0.39899 -2.99351,-0.7157 -4.45337,-1.19696 -7.39276,-2.43715 -13.78881,-6.56763 -18.4644,-12.83908 -0.72464,-1.20504 -1.53139,-2.36437 -2.17392,-3.61512 -3.9138,-7.61871 -4.83091,-16.23841 -4.56495,-24.68142 0.49292,-5.31148 0.5345,-7.2964 1.62166,-12.59615 1.85862,-9.06055 5.19191,-17.71557 9.96565,-25.6426 3.29041,-5.03573 4.24453,-6.84536 8.14143,-11.42606 1.97592,-2.32264 6.82307,-7.4047 9.39997,-9.19573 9.67022,-6.72113 10.45641,-6.9019 18.29037,-10.76451 4.28797,-1.3978 5.22387,-1.96229 9.69623,-2.41464 6.73233,-0.68094 13.42813,0.7951 20.02288,1.90504 10.21703,2.02673 20.45109,4.08699 30.49232,6.87039 1.32125,0.42654 2.65815,0.80734 3.96375,1.27961 4.44974,1.6096 8.63923,3.87998 12.42408,6.71602 0,0 -8.92249,5.62151 -8.92249,5.62151 z"
       inkscape:connector-curvature="0" />
    <path
       style="fill:#000000"
       id="path3346"
       d="m 168.54472,357.21171 c 2.80909,-1.3796 5.61558,-2.81103 8.58781,-3.81863 2.38124,-0.80725 4.19285,-1.15948 6.66113,-1.7332 9.62625,-2.17612 19.54074,-2.34562 29.3506,-2.95199 13.99692,-0.92786 27.97271,-2.05856 41.98554,-2.73249 15.35189,-0.51532 30.70222,0.29633 46.03349,1.00318 16.83581,0.76267 33.68915,0.99259 50.53665,1.36082 16.27517,0.23892 32.5392,0.94862 48.79219,1.80344 16.15657,0.9207 32.33,1.4199 48.51133,1.1922 14.71849,-0.25122 29.42172,-1.09211 44.0994,-2.186 10.68673,-0.9616 21.37916,-1.85002 32.09892,-2.33755 6.35957,-0.24415 12.70182,0.29074 19.04199,0.69024 2.8023,0.17305 5.60793,0.29877 8.41566,0.32274 0.20128,-3.5e-4 0.40255,-7.1e-4 0.60382,-0.001 0,0 -8.59772,6.22026 -8.59772,6.22026 l 0,0 c -0.1931,-0.008 -0.3862,-0.0165 -0.5793,-0.0248 -2.74082,-0.12255 -5.47865,-0.30239 -8.21321,-0.52484 -6.23205,-0.48555 -12.47181,-1.00078 -18.73012,-0.77515 -10.59381,0.41458 -21.1661,1.17545 -31.7274,2.09998 -14.63592,1.01021 -29.29426,1.79601 -43.9653,2.01837 -16.17925,0.17593 -32.34637,-0.35324 -48.50018,-1.27467 -16.24531,-0.84446 -32.50332,-1.49352 -48.76855,-1.78703 -16.85999,-0.40714 -33.72589,-0.63061 -50.5765,-1.35763 -15.35903,-0.68436 -30.73879,-1.41072 -46.11507,-0.8356 -14.06381,0.67347 -28.09004,1.83598 -42.13141,2.85958 -9.89604,0.66945 -19.89476,0.99486 -29.57731,3.33812 -2.83693,0.7271 -3.97802,0.93908 -6.67121,1.92541 -3.04411,1.11485 -5.92011,2.62937 -8.80301,4.09575 0,0 8.23776,-6.58943 8.23776,-6.58943 z"
       inkscape:connector-curvature="0" />
    <path
       style="fill:#000000"
       id="path3344-3"
       d="m 311.51015,531.15704 c -4.48463,-4.00304 -10.11172,-6.15569 -15.73835,-7.99468 -9.94179,-2.8336 -20.08904,-4.9184 -30.22896,-6.90862 -6.58241,-1.07553 -13.28048,-2.48143 -19.98421,-1.64756 -4.35738,0.54202 -5.33886,1.14569 -9.4895,2.61178 -1.61651,0.84155 -3.40706,1.41083 -4.84954,2.52464 -0.94274,0.72794 3.89093,-2.37985 3.31314,-1.3383 -1.04454,1.88293 -3.33911,2.72565 -4.90353,4.20521 -3.3862,3.20253 -6.26822,6.53206 -9.0196,10.29514 -1.38484,1.89405 -2.60795,3.9012 -3.91192,5.8518 -4.78639,7.81268 -8.17486,16.35394 -10.04482,25.32248 -1.1101,5.32413 -1.11773,7.08783 -1.59742,12.42108 -0.25461,8.25481 0.71796,16.68381 4.60507,24.09897 0.63272,1.20699 1.42533,2.32315 2.138,3.48472 4.5696,6.09945 10.80044,10.07018 18.04422,12.32889 1.44343,0.45008 2.93418,0.7313 4.40127,1.09695 7.62198,1.41489 15.39397,0.87995 22.84952,-1.18198 1.63203,-0.45135 3.22583,-1.03101 4.83875,-1.54652 5.0771,-1.71272 9.81627,-4.17068 14.5203,-6.69531 1.25916,-0.67579 -4.51817,3.24381 -3.78192,2.01904 0.91272,-1.51833 2.95872,-1.95277 4.37878,-3.01192 1.46845,-1.09525 2.85374,-2.29778 4.28061,-3.44668 6.01408,-5.23676 11.24069,-11.3155 15.54472,-18.02924 2.75351,-4.29511 4.06742,-7.03812 6.44558,-11.5653 6.54915,-13.35813 10.97813,-27.57441 14.97684,-41.85973 2.43011,-8.88256 4.10575,-17.95295 5.04132,-27.11248 0.53776,-5.26489 0.61487,-7.72848 0.91108,-13.01525 0.46652,-13.10728 0.3047,-26.24513 -0.24212,-39.34804 -0.58061,-11.25662 -1.73756,-22.4706 -3.20368,-33.64322 -1.02244,-7.12158 -1.58242,-14.29417 -2.24592,-21.4544 -0.21311,-3.183 -0.60723,-6.33798 -1.17692,-9.47518 -0.88486,-4.6088 -2.49134,-1.30177 9.26654,-6.09045 0.0391,-0.0159 0.28065,0.79757 0.55366,1.69025 1.16725,4.03098 2.72172,7.93559 4.03277,11.92093 2.28161,7.15219 3.37244,14.58102 3.9495,22.04264 0.47371,10.11603 -0.78873,20.20153 -1.92287,30.23393 -1.25966,10.29138 -1.72259,20.64902 -1.98626,31.00586 -0.16351,9.73081 -0.29815,19.46296 0.13729,29.18757 0.57958,9.42283 1.97527,18.771 3.24688,28.11903 1.29274,9.48813 1.75719,19.05458 2.09411,28.61533 0.0669,6.90134 0.28533,13.79086 1.09794,20.64778 0.3748,3.73386 1.26124,7.38226 2.45128,10.93319 0.91022,2.75738 1.91496,5.46882 2.59117,8.29597 0.4509,2.10262 0.60333,4.24715 0.70553,6.38952 0.0608,1.23422 0.0113,2.4682 0.001,3.70262 0,0 -9.40664,4.78844 -9.40664,4.78844 l 0,0 c -6.3e-4,-1.22077 -0.0261,-2.44069 -0.008,-3.66158 -0.0163,-2.09351 -0.12762,-4.19171 -0.52126,-6.25247 -0.61072,-2.81434 -1.63265,-5.48379 -2.51638,-8.21941 -1.21551,-3.64062 -2.03999,-7.40035 -2.35935,-11.23125 -0.72354,-6.92864 -0.92762,-13.87938 -0.89887,-20.8441 -0.21844,-9.54473 -0.65353,-19.09561 -1.96684,-28.56226 -1.28449,-9.36987 -2.73388,-18.73656 -3.32231,-28.18195 -0.42408,-9.75914 -0.26923,-19.52617 -0.086,-29.29059 0.26018,-10.38359 0.68842,-20.76997 1.95859,-31.08788 1.12613,-9.95218 2.39126,-19.96473 1.8803,-29.99861 -0.61464,-7.35097 -1.73741,-14.67115 -4.08432,-21.69101 -1.35876,-3.9538 -2.94561,-7.82101 -4.30862,-11.77229 -0.10588,-0.29264 -0.21191,-0.58523 -0.31763,-0.87792 -0.0538,-0.14898 -0.29537,-0.3633 -0.16096,-0.4471 3.00576,-1.87404 6.20494,-3.42055 9.25443,-5.22255 0.0652,-0.0385 -0.14841,-0.21013 -0.17842,-0.14061 -0.14124,0.32716 0.45033,0.74232 0.15666,1.0575 0.43741,3.22092 0.80013,6.44414 0.91845,9.69604 0.55227,7.20057 0.97563,14.41452 1.92106,21.5787 1.34199,11.24969 2.40391,22.53347 2.98179,33.85015 0.53389,13.13194 0.71525,26.2981 0.27437,39.43465 -0.28993,5.43759 -0.34241,7.65978 -0.8947,13.07648 -0.94107,9.2296 -2.65276,18.36176 -5.11185,27.3087 -4.00548,14.2973 -8.3805,28.53806 -14.77396,41.98159 -2.2563,4.38408 -3.72554,7.46515 -6.33177,11.64277 -4.22092,6.76584 -9.36359,12.91541 -15.3097,18.2293 -1.40854,1.16886 -2.77205,2.39421 -4.22562,3.50657 -5.2682,4.03158 -11.85981,7.5816 -17.33171,10.70359 -4.66459,2.66138 -9.6212,4.78318 -14.672,6.58704 -1.63794,0.50107 -3.25706,1.06839 -4.91382,1.5032 -7.58775,1.99137 -15.47066,2.41832 -23.17344,0.8361 -1.48446,-0.39899 -2.99351,-0.7157 -4.45337,-1.19696 -7.39276,-2.43715 -13.78881,-6.56763 -18.4644,-12.83908 -0.72464,-1.20504 -1.53139,-2.36437 -2.17392,-3.61512 -3.9138,-7.61871 -4.83091,-16.23841 -4.56495,-24.68142 0.49292,-5.31148 0.5345,-7.2964 1.62166,-12.59615 1.85862,-9.06055 5.19191,-17.71557 9.96565,-25.6426 3.29041,-5.03573 4.24453,-6.84536 8.14143,-11.42606 1.97592,-2.32264 6.82307,-7.4047 9.39997,-9.19573 9.67022,-6.72113 10.45641,-6.9019 18.29037,-10.76451 4.28797,-1.3978 5.22387,-1.96229 9.69623,-2.41464 6.73233,-0.68094 13.42813,0.7951 20.02288,1.90504 10.21703,2.02673 20.45109,4.08699 30.49232,6.87039 1.32125,0.42654 2.65815,0.80734 3.96375,1.27961 4.44974,1.6096 8.63923,3.87998 12.42408,6.71602 0,0 -8.92249,5.62151 -8.92249,5.62151 z"
       inkscape:connector-curvature="0" />
    <path
       style="fill:#000000"
       id="path3367"
       d="m 400.6849,494.43271 c 3.65971,5.81026 7.87129,11.22134 12.13564,16.59323 7.71102,10.32916 16.01534,20.18433 24.42156,29.94815 8.09106,9.24006 16.41407,18.27461 24.88619,27.16566 5.95599,6.19731 11.9829,12.32497 17.97891,18.48351 2.37598,2.52089 4.93464,4.85317 7.38746,7.29645 0.62187,0.6213 0.33568,0.3348 0.85883,0.85924 0,0 -9.08132,5.52205 -9.08132,5.52205 l 0,0 c -0.47353,-0.54353 -0.21273,-0.24728 -0.7843,-0.88703 -2.32213,-2.5308 -4.78571,-4.92726 -7.06508,-7.49855 -5.83169,-6.27254 -11.70189,-12.50864 -17.60522,-18.71379 -8.42142,-8.94394 -16.69945,-18.02252 -24.75172,-27.30127 -8.40861,-9.7895 -16.75876,-19.62569 -24.64765,-29.84394 -4.39962,-5.2933 -8.66887,-10.68053 -12.82011,-16.168 0,0 9.08681,-5.45571 9.08681,-5.45571 z"
       inkscape:connector-curvature="0" />
    <path
       style="fill:#000000"
       id="path3369"
       d="m 399.78889,591.77812 c 5.65927,-8.42811 11.14079,-16.96739 16.48751,-25.59812 9.97566,-15.6365 19.73701,-31.41042 29.9604,-46.88729 6.16296,-9.22874 12.56582,-18.29299 18.74594,-27.51032 1.39616,-2.21905 3.08487,-4.36843 3.83131,-6.92142 0.12673,-0.82646 0.16138,-1.63255 0.4992,-2.40805 0,0 9.73495,-4.29995 9.73495,-4.29995 l 0,0 c -0.63696,0.72106 -0.64379,1.15681 -0.67964,2.11555 -0.53755,2.83154 -2.54472,5.12024 -4.08775,7.46007 -6.51805,9.30525 -13.24277,18.46581 -19.6123,27.87446 -10.31324,15.36336 -20.0785,31.08389 -29.84724,46.79695 -5.03948,8.40373 -10.24954,16.70473 -15.3552,25.0644 0,0 -9.67718,4.31372 -9.67718,4.31372 z"
       inkscape:connector-curvature="0" />
  </g>
</svg>
