<?xml version="1.0" encoding="UTF-8" standalone="no"?>
<!-- Created with Inkscape (http://www.inkscape.org/) -->

<svg
   xmlns:dc="http://purl.org/dc/elements/1.1/"
   xmlns:cc="http://creativecommons.org/ns#"
   xmlns:rdf="http://www.w3.org/1999/02/22-rdf-syntax-ns#"
   xmlns:svg="http://www.w3.org/2000/svg"
   xmlns="http://www.w3.org/2000/svg"
   xmlns:sodipodi="http://sodipodi.sourceforge.net/DTD/sodipodi-0.dtd"
   xmlns:inkscape="http://www.inkscape.org/namespaces/inkscape"
   width="210mm"
   height="297mm"
   viewBox="0 0 744.09448819 1052.3622047"
   id="svg2"
   version="1.1"
   inkscape:version="0.91 r13725"
   sodipodi:docname="derivative2.svg"
   inkscape:export-filename="/home/edward/CryptodiraAias2/resources/derivative2.png"
   inkscape:export-xdpi="10.069565"
   inkscape:export-ydpi="10.069565">
  <defs
     id="defs4" />
  <sodipodi:namedview
     id="base"
     pagecolor="#ffffff"
     bordercolor="#666666"
     borderopacity="1.0"
     inkscape:pageopacity="0.0"
     inkscape:pageshadow="2"
     inkscape:zoom="0.98994949"
     inkscape:cx="71.981923"
     inkscape:cy="547.55752"
     inkscape:document-units="px"
     inkscape:current-layer="layer1"
     showgrid="false"
     inkscape:window-width="1855"
     inkscape:window-height="1056"
     inkscape:window-x="65"
     inkscape:window-y="24"
     inkscape:window-maximized="1" />
  <metadata
     id="metadata7">
    <rdf:RDF>
      <cc:Work
         rdf:about="">
        <dc:format>image/svg+xml</dc:format>
        <dc:type
           rdf:resource="http://purl.org/dc/dcmitype/StillImage" />
        <dc:title />
      </cc:Work>
    </rdf:RDF>
  </metadata>
  <g
     inkscape:label="Layer 1"
     inkscape:groupmode="layer"
     id="layer1">
    <path
       style="fill:#000000;stroke-width:20;stroke-miterlimit:4;stroke-dasharray:none"
       id="path4150"
       d="m 364.74269,285.10571 c -2.26799,-5.12675 -5.62676,-9.66075 -9.41402,-13.7552 -4.0909,-3.97472 -9.15218,-6.17314 -14.87675,-6.30122 -1.30522,-0.0292 -2.60801,0.12688 -3.91201,0.19033 -4.62078,0.63509 -8.96581,2.33309 -13.0364,4.57548 -1.59327,0.8777 -6.23251,3.75219 -4.64433,2.86531 35.98327,-20.09411 46.09008,-28.51512 30.04293,-15.83394 -9.93387,8.83322 -18.0707,19.53814 -24.92945,30.88865 -1.42869,2.36432 -2.72695,4.80504 -4.09043,7.20755 -6.38056,12.17313 -11.74222,24.99309 -14.95549,38.38897 -0.61937,2.58213 -1.07747,5.2003 -1.6162,7.80045 -1.70777,11.16296 -2.52602,22.62684 -0.2643,33.78046 0.36012,1.77594 0.89467,3.51201 1.34201,5.26801 2.3453,7.71352 5.82291,15.17846 11.9044,20.67469 1.31686,1.19013 2.79111,2.19358 4.18667,3.29037 10.2306,6.09333 21.41551,7.97511 33.20937,7.21758 2.82291,-0.18132 5.62399,-0.61449 8.43598,-0.92173 12.60311,-1.98614 24.93929,-5.77247 36.45181,-11.29548 3.0768,-1.47606 11.99673,-6.50808 9.04481,-4.79589 -9.61184,5.57512 -19.35267,10.92483 -29.02901,16.38725 15.34074,-9.86886 28.09518,-22.9992 38.5786,-37.85686 2.01219,-2.85178 3.8335,-5.83357 5.75025,-8.75036 6.32156,-10.51271 11.56292,-21.77058 14.30864,-33.77931 1.48814,-6.50855 1.45514,-8.91952 1.99602,-15.49429 0.76525,-15.92663 -3.52645,-31.33233 -8.2865,-46.35524 -5.46788,-16.04199 -12.487,-31.49094 -19.7464,-46.7853 -7.04771,-13.95239 -12.31778,-28.69295 -17.38389,-43.45052 -3.14354,-9.33196 -5.64195,-18.86156 -8.54124,-28.26842 -1.174,-3.57605 -2.39733,-7.147 -3.17356,-10.83534 -5.14532,-19.12026 -27.90246,11.051 43.7209,-26.00482 0,0 -42.30667,26.92002 -42.30667,26.92002 l 0,0 c 14.58233,-7.96285 29.44397,-15.43426 43.74699,-23.88855 0.48714,-0.28793 -0.53312,-1.01835 -0.9345,-1.41723 -0.27789,-0.27616 0.31384,1.85223 -0.0633,1.17362 0.13569,3.69147 0.85525,7.31596 1.66456,10.91326 2.1573,9.68688 3.758,19.50333 6.58226,29.03717 4.52266,14.78933 9.55297,29.42756 16.38129,43.34121 7.26206,15.5022 14.39067,31.09632 20.10255,47.25085 5.13475,15.48562 9.79428,31.33807 9.34173,47.83519 -0.53425,6.93229 -0.50068,9.60128 -2.02136,16.48 -2.78439,12.59508 -8.27642,24.39695 -14.75351,35.4798 -1.92124,3.02215 -3.74735,6.10693 -5.76373,9.06646 -10.31671,15.14229 -22.72146,28.86485 -37.80668,39.37485 -4.48116,2.61286 -39.56046,24.5605 -56.50795,32.08821 -12.04408,5.34972 -24.85604,8.92124 -37.90213,10.71118 -2.95425,0.23409 -5.90073,0.60799 -8.86273,0.70229 -12.75489,0.40608 -25.26756,-2.05675 -36.15821,-8.90605 -4.13631,-3.14657 -5.40535,-3.70645 -8.63061,-7.64359 -4.5166,-5.51349 -7.10949,-12.3017 -9.08659,-19.05531 -0.45092,-1.92613 -0.99982,-3.83192 -1.35276,-5.77838 -2.14422,-11.8252 -1.13803,-23.90321 0.58943,-35.70425 1.34997,-7.13122 1.55074,-9.10831 3.57386,-16.10564 3.13809,-10.85372 7.61024,-21.30766 12.54858,-31.44751 7.63687,-14.02923 16.11551,-27.79739 27.42898,-39.20312 17.49446,-16.23558 4.18094,-4.50127 50.00945,-31.39578 6.06452,-3.55897 12.79769,-5.79789 19.85038,-5.96615 1.48122,0.0984 2.97295,0.0936 4.44367,0.29533 6.55934,0.8998 12.32171,4.14179 16.9377,8.80762 4.01973,4.35685 7.29274,9.2642 10.96002,13.90778 0,0 -43.08316,25.07554 -43.08316,25.07554 z"
       inkscape:connector-curvature="0"
       inkscape:export-xdpi="10.069565"
       inkscape:export-ydpi="10.069565" />
    <path
       style="fill:#000000;stroke-width:20;stroke-miterlimit:4;stroke-dasharray:none"
       id="path4152"
       d="m 152.83784,462.64141 c 10.79173,3.10757 22.04229,4.30802 33.16554,5.57717 25.58442,2.4775 51.2955,2.77852 76.97152,2.23805 33.67065,-0.79689 67.17432,-4.49803 100.61872,-8.22896 33.05318,-3.61802 65.96236,-8.39439 98.9608,-12.45357 23.45864,-3.06258 46.95802,-5.81927 70.46381,-8.4959 8.67049,-0.90588 17.33667,-1.8682 26.02557,-2.58301 0,0 -39.98518,29.24127 -39.98518,29.24127 l 0,0 c -7.57083,-0.24468 -15.14912,0.0533 -22.70742,0.49098 -22.50419,1.46559 -44.94518,3.7849 -67.34984,6.33428 -32.56261,3.7087 -65.07432,7.84783 -97.65043,11.44181 -34.03724,3.77523 -68.09487,7.76582 -102.34083,9.04771 -26.551,0.64357 -53.11612,0.56911 -79.64329,-0.90797 -12.56581,-0.82537 -25.13137,-1.8016 -37.63168,-3.35084 0,0 41.10271,-28.35102 41.10271,-28.35102 z"
       inkscape:connector-curvature="0"
       inkscape:export-xdpi="10.069565"
       inkscape:export-ydpi="10.069565" />
    <path
       style="fill:#000000;stroke-width:20;stroke-miterlimit:4;stroke-dasharray:none"
       id="path4150-3"
       d="m 217.67249,683.95851 c -2.26799,-5.12675 -5.62677,-9.66075 -9.41403,-13.7552 -4.0909,-3.97472 -9.15218,-6.17314 -14.87675,-6.30122 -1.30522,-0.0292 -2.60801,0.12688 -3.91201,0.19033 -4.62078,0.63509 -8.96581,2.33309 -13.0364,4.57548 -1.59327,0.8777 -6.23251,3.75219 -4.64433,2.86531 35.98327,-20.09411 46.09009,-28.51512 30.04293,-15.83394 -9.93387,8.83322 -18.0707,19.53814 -24.92945,30.88865 -1.42869,2.36432 -2.72695,4.80504 -4.09043,7.20755 -6.38056,12.17313 -11.74222,24.99309 -14.95549,38.38897 -0.61937,2.58213 -1.07747,5.2003 -1.6162,7.80045 -1.70777,11.16296 -2.52602,22.62684 -0.2643,33.78046 0.36012,1.77594 0.89467,3.51201 1.34201,5.26801 2.3453,7.71352 5.82291,15.17846 11.9044,20.67469 1.31686,1.19013 2.79111,2.19358 4.18667,3.29037 10.2306,6.09333 21.41551,7.97511 33.20937,7.21758 2.82291,-0.18132 5.62399,-0.61449 8.43599,-0.92173 12.60311,-1.98614 24.93929,-5.77247 36.45181,-11.29548 3.0768,-1.47606 11.99673,-6.50808 9.04481,-4.79589 -9.61184,5.57512 -19.35267,10.92483 -29.02901,16.38725 15.34074,-9.86886 28.09518,-22.9992 38.5786,-37.85686 2.01219,-2.85178 3.8335,-5.83357 5.75025,-8.75036 6.32156,-10.51271 11.56292,-21.77058 14.30864,-33.77931 1.48814,-6.50855 1.45514,-8.91952 1.99602,-15.49429 0.76525,-15.92663 -3.52645,-31.33233 -8.2865,-46.35524 -5.46788,-16.04199 -12.487,-31.49094 -19.7464,-46.7853 -7.04771,-13.95239 -12.31778,-28.69295 -17.38389,-43.45052 -3.14354,-9.33196 -5.64195,-18.86156 -8.54124,-28.26842 -1.174,-3.57605 -2.39733,-7.147 -3.17356,-10.83534 -5.14532,-19.12026 -27.90247,11.051 43.7209,-26.00482 0,0 -42.30667,26.92002 -42.30667,26.92002 l 0,0 c 14.58233,-7.96285 29.44397,-15.43426 43.74699,-23.88855 0.48714,-0.28793 -0.53312,-1.01835 -0.9345,-1.41723 -0.27789,-0.27616 0.31384,1.85223 -0.0633,1.17362 0.13569,3.69147 0.85525,7.31596 1.66456,10.91326 2.1573,9.68688 3.758,19.50333 6.58226,29.03717 4.52266,14.78933 9.55297,29.42756 16.38129,43.34121 7.26206,15.5022 14.39067,31.09632 20.10255,47.25085 5.13475,15.48562 9.79428,31.33807 9.34173,47.83519 -0.53425,6.93229 -0.50068,9.60128 -2.02136,16.48 -2.78439,12.59508 -8.27642,24.39695 -14.75351,35.4798 -1.92124,3.02215 -3.74735,6.10693 -5.76373,9.06646 -10.31671,15.14229 -22.72146,28.86485 -37.80668,39.37485 -4.48116,2.61286 -39.56046,24.5605 -56.50795,32.08821 -12.04409,5.34972 -24.85605,8.92124 -37.90214,10.71118 -2.95425,0.23409 -5.90073,0.60799 -8.86273,0.70229 -12.75489,0.40608 -25.26756,-2.05675 -36.15821,-8.90605 -4.13631,-3.14657 -5.40535,-3.70645 -8.63061,-7.64359 -4.5166,-5.51349 -7.10949,-12.3017 -9.08659,-19.05531 -0.45092,-1.92613 -0.99982,-3.83192 -1.35276,-5.77838 -2.14422,-11.8252 -1.13803,-23.90321 0.58943,-35.70425 1.34997,-7.13122 1.55074,-9.10831 3.57386,-16.10564 3.13809,-10.85372 7.61024,-21.30766 12.54858,-31.44751 7.63687,-14.02923 16.11551,-27.79739 27.42898,-39.20312 17.49446,-16.23558 4.18094,-4.50127 50.00945,-31.39578 6.06453,-3.55897 12.7977,-5.79789 19.85039,-5.96615 1.48122,0.0984 2.97295,0.0936 4.44367,0.29533 6.55934,0.8998 12.32171,4.14179 16.9377,8.80762 4.01973,4.35685 7.29274,9.2642 10.96002,13.90778 0,0 -43.08316,25.07554 -43.08316,25.07554 z"
       inkscape:connector-curvature="0"
       inkscape:export-xdpi="10.069565"
       inkscape:export-ydpi="10.069565" />
    <path
       style="fill:#000000;stroke-width:20;stroke-miterlimit:4;stroke-dasharray:none"
       id="path4169"
       d="m 542.21926,610.14715 c -7.76953,10.27506 -16.23367,20.01059 -24.29834,30.05968 -11.46774,14.68329 -23.11759,29.23107 -34.35075,44.09524 -10.30023,14.03774 -19.78511,28.64231 -29.04163,43.38077 -7.20465,11.81573 -14.04258,23.85467 -20.85427,35.90079 -3.86207,7.11325 -8.11691,13.99039 -12.71792,20.64558 -0.94257,1.31703 -1.89551,2.62275 -2.9133,3.8823 0,0 -46.07391,18.83593 -46.07391,18.83593 l 0,0 c 1.44435,-0.98762 2.85417,-1.98108 3.91731,-3.40867 5.63297,-6.45239 10.60158,-13.43711 14.88189,-20.86237 7.25831,-12.21226 14.42253,-24.48276 21.90442,-36.5604 9.46074,-14.853 19.09351,-29.59237 29.36101,-43.90607 11.03143,-14.92373 23.03159,-29.11302 34.02131,-44.0757 4.69164,-6.08962 9.35784,-12.18962 13.97025,-18.3389 1.57107,-2.09455 3.96541,-5.12322 5.49678,-7.40425 0.45685,-0.6805 0.84385,-1.40538 1.26577,-2.10807 0,0 45.43138,-20.13586 45.43138,-20.13586 z"
       inkscape:connector-curvature="0"
       inkscape:export-xdpi="10.069565"
       inkscape:export-ydpi="10.069565" />
    <path
       style="fill:#000000;stroke-width:20;stroke-miterlimit:4;stroke-dasharray:none"
       id="path4175"
       d="m 398.01793,619.25307 c 6.67917,8.33438 13.79693,16.30856 20.50752,24.62568 9.89641,12.65458 19.84449,25.26738 30.1985,37.55155 9.95048,11.81302 21.27817,22.31595 32.6525,32.72208 6.38162,5.82977 12.50122,11.9377 18.81434,17.83918 2.59939,2.05532 4.85007,4.55467 7.48812,6.56074 1.55951,1.04564 0.81174,0.49847 2.24656,1.63708 1.35074,0.95522 2.23267,2.4429 3.64135,3.32394 1.91971,1.9783 4.05028,3.74504 6.08007,5.61138 1.59028,1.9163 3.51421,3.50745 5.18696,5.33585 0.35005,0.22864 1.42974,1.99847 1.0424,0.51057 0,0 -42.07271,27.72381 -42.07271,27.72381 l 0,0 c -0.57639,-0.76402 -1.09011,-1.56986 -1.68385,-2.32049 -1.55622,-1.70247 -3.06197,-3.45252 -4.67165,-5.10474 -2.00618,-1.79157 -4.05873,-3.53583 -6.20951,-5.15207 -1.26095,-1.14456 -2.44266,-2.33873 -3.56054,-3.62231 -3.05874,-2.92228 -5.79558,-6.15489 -8.86804,-9.06681 -5.99064,-6.0561 -11.44934,-12.60953 -17.3407,-18.76143 -10.68459,-11.19105 -21.72343,-22.04997 -31.94849,-33.67169 -10.36902,-12.32405 -20.30597,-25.00657 -30.8376,-37.19616 -7.01366,-8.15128 -14.31893,-16.16093 -22.97263,-22.62015 0,0 42.3074,-25.92601 42.3074,-25.92601 z"
       inkscape:connector-curvature="0"
       inkscape:export-xdpi="10.069565"
       inkscape:export-ydpi="10.069565" />
    <path
       style="fill:#000000;stroke-width:20;stroke-miterlimit:4;stroke-dasharray:none"
       id="path4770"
       d="m 480.49635,288.47036 c -0.0308,7.29759 1.6543,14.47128 3.06489,21.58423 2.12152,11.21276 3.74516,22.51358 5.64645,33.76548 1.12751,6.38265 2.46426,12.72687 3.29708,19.15919 0.30374,2.12573 0.53777,4.26916 0.5648,6.41884 0.0534,1.48666 -0.007,2.97742 -0.0776,4.46271 -0.23107,3.40866 -0.23266,6.82878 -0.25374,10.24405 -0.0133,3.07834 0.0862,6.15238 0.20268,9.22731 0.0354,0.76058 -0.0144,0.4099 0.12501,1.05543 0,0 -41.76576,23.03349 -41.76576,23.03349 l 0,0 c -0.31269,-1.33697 -0.16697,-0.62096 -0.41997,-2.15161 0.11442,-3.14557 0.21466,-6.29025 0.2024,-9.43902 -0.0204,-3.33308 -0.0186,-6.67124 -0.24513,-9.99782 -0.0657,-1.47193 -0.1078,-2.95026 -0.0246,-4.42222 0.0487,-2.14026 0.2319,-4.27611 0.22784,-6.41875 -0.0784,-6.59211 -0.58707,-13.17022 -1.4576,-19.70287 -1.54376,-11.17557 -2.934,-22.39386 -5.66059,-33.3524 -1.87174,-7.00882 -3.56903,-14.05647 -5.2471,-21.11372 0,0 41.82099,-22.35232 41.82099,-22.35232 z"
       inkscape:connector-curvature="0" />
    <path
       style="fill:#000000;stroke-width:20;stroke-miterlimit:4;stroke-dasharray:none"
       id="path4772"
       d="m 334.34119,687.88771 c 1.82478,8.58171 2.91299,17.28619 3.91804,25.99425 1.19976,12.58704 2.09437,25.20141 2.69955,37.83054 0.30745,6.72766 0.80007,13.44253 1.32504,20.15543 0.14167,1.45495 0.16553,2.91166 0.22693,4.37023 0,0 -44.5605,22.67611 -44.5605,22.67611 l 0,0 c 0.0769,-1.53133 0.12042,-3.06137 0.26229,-4.58948 0.50922,-7.01109 0.85267,-14.0332 0.79181,-21.06633 -0.20098,-12.49785 -0.57459,-25.0273 -2.56101,-37.3941 -1.13596,-8.02634 -2.29623,-16.22353 -5.5436,-23.7178 0,0 43.44145,-24.25885 43.44145,-24.25885 z"
       inkscape:connector-curvature="0" />
  </g>
</svg>
