<?xml version="1.0" encoding="UTF-8" standalone="no"?>
<!-- Created with Inkscape (http://www.inkscape.org/) -->

<svg
   xmlns:dc="http://purl.org/dc/elements/1.1/"
   xmlns:cc="http://creativecommons.org/ns#"
   xmlns:rdf="http://www.w3.org/1999/02/22-rdf-syntax-ns#"
   xmlns:svg="http://www.w3.org/2000/svg"
   xmlns="http://www.w3.org/2000/svg"
   xmlns:sodipodi="http://sodipodi.sourceforge.net/DTD/sodipodi-0.dtd"
   xmlns:inkscape="http://www.inkscape.org/namespaces/inkscape"
   width="210mm"
   height="297mm"
   viewBox="0 0 744.09448819 1052.3622047"
   id="svg2"
   version="1.1"
   inkscape:version="0.91 r13725"
   sodipodi:docname="drawing-1.svg">
  <defs
     id="defs4" />
  <sodipodi:namedview
     id="base"
     pagecolor="#ffffff"
     bordercolor="#666666"
     borderopacity="1.0"
     inkscape:pageopacity="0.0"
     inkscape:pageshadow="2"
     inkscape:zoom="1.4"
     inkscape:cx="509.83124"
     inkscape:cy="585.34474"
     inkscape:document-units="px"
     inkscape:current-layer="layer1"
     showgrid="false"
     inkscape:window-width="1855"
     inkscape:window-height="1056"
     inkscape:window-x="65"
     inkscape:window-y="24"
     inkscape:window-maximized="1" />
  <metadata
     id="metadata7">
    <rdf:RDF>
      <cc:Work
         rdf:about="">
        <dc:format>image/svg+xml</dc:format>
        <dc:type
           rdf:resource="http://purl.org/dc/dcmitype/StillImage" />
        <dc:title></dc:title>
      </cc:Work>
    </rdf:RDF>
  </metadata>
  <g
     inkscape:label="Layer 1"
     inkscape:groupmode="layer"
     id="layer1">
    <path
       style="fill:#000000;fill-opacity:1;fill-rule:nonzero;stroke:none;stroke-width:1px;stroke-linecap:butt;stroke-linejoin:miter;stroke-opacity:1"
       id="path3346"
       d="m 219.62619,387.86237 c 0.63271,1.6185 1.43814,3.15973 2.49198,4.54226 2.41289,2.77386 5.21802,5.18135 7.89522,7.69382 5.70618,5.46558 12.1081,10.08807 18.69376,14.41945 8.02758,4.95016 16.43993,9.33855 25.25746,12.71405 2.02689,0.77593 4.09277,1.44585 6.13916,2.16878 11.12675,3.39612 22.67254,5.32974 34.28516,5.95513 2.47878,0.13349 4.96251,0.14865 7.44377,0.22298 12.63021,0.0601 25.27149,-1.02266 37.67087,-3.45837 2.44521,-0.48033 4.86741,-1.0712 7.30112,-1.6068 13.27351,-3.17013 25.97137,-8.16792 38.48829,-13.51863 6.85478,-2.92424 13.6115,-6.05958 20.23015,-9.48271 4.39822,-2.44192 -2.53162,1.49897 -3.82375,2.20143 -0.25361,0.13788 0.47391,-0.33035 0.70044,-0.50928 0.38167,-0.30147 0.68494,-0.6227 0.9492,-1.02561 0,0 6.84362,-3.09584 6.84362,-3.09584 l 0,0 c -0.31571,0.80678 -0.86556,1.51092 -1.62271,1.96941 -5.53632,3.35247 -5.2154,3.15819 -8.68127,4.97422 -6.47,3.24985 -13.07677,6.20955 -19.74335,9.03379 -12.47431,5.25786 -25.13612,10.14047 -38.34314,13.25433 -2.43507,0.52507 -4.85933,1.10309 -7.30522,1.57522 -12.43287,2.39986 -25.10318,3.4379 -37.75883,3.36684 -2.49673,-0.0759 -4.99607,-0.0907 -7.4902,-0.22763 -11.67863,-0.64096 -23.29555,-2.59664 -34.48347,-6.01884 -2.06442,-0.72425 -4.14739,-1.39763 -6.19325,-2.17274 -8.89874,-3.37148 -17.41776,-7.73075 -25.53528,-12.67902 -1.3643,-0.87563 -2.74588,-1.72491 -4.09291,-2.6269 -5.26887,-3.52813 -10.23679,-7.49579 -14.99324,-11.683 -2.77237,-2.50462 -5.68438,-4.88786 -8.19966,-7.65642 -1.10706,-1.44008 -1.90511,-3.04979 -2.66852,-4.69389 0,0 6.5446,-3.63603 6.5446,-3.63603 z"
       inkscape:connector-curvature="0" />
    <path
       style="fill:#000000;fill-opacity:1;fill-rule:nonzero;stroke:none;stroke-width:1px;stroke-linecap:butt;stroke-linejoin:miter;stroke-opacity:1"
       id="path3348"
       d="m 434.86851,409.01289 c 1.60421,2.89395 3.86513,5.33098 6.12165,7.72034 3.53479,3.47486 7.65063,6.36002 11.96741,8.78494 1.17551,0.66033 2.3901,1.24851 3.58516,1.87277 8.90568,4.41786 18.3421,7.61061 27.81781,10.54897 6.82657,1.96043 13.75529,3.60112 20.76788,4.74224 4.21107,0.68524 6.55549,0.93955 10.7947,1.47106 7.54135,0.81823 15.12735,1.31917 22.71654,1.23469 4.44258,-0.0494 6.36987,-0.22562 10.76107,-0.50116 6.44171,-0.43585 12.86276,-1.29601 19.12648,-2.88819 4.12914,-1.04959 5.15004,-1.48159 9.20372,-2.84987 4.04044,-1.58169 5.21372,-1.95147 9.12016,-3.83737 1.44089,-0.69561 2.82893,-1.4968 4.26485,-2.20261 0.63551,-0.31237 -2.42969,1.4458 -1.86253,1.02178 1.1394,-0.85183 2.40399,-1.5224 3.58769,-2.31153 1.0872,-0.72479 2.1494,-1.48641 3.2241,-2.22962 4.38867,-3.16169 8.60311,-6.57315 12.47385,-10.3542 1.25482,-1.29052 2.6322,-2.49909 3.51998,-4.0859 0.2058,-0.61236 0.49737,-1.20191 0.65225,-1.83033 0,0 6.77626,-3.27902 6.77626,-3.27902 l 0,0 c -0.12444,0.7101 -0.40433,1.3261 -0.60947,2.0116 -0.74948,1.79774 -2.28755,3.06156 -3.63118,4.41197 -3.93868,3.89399 -8.30483,7.33273 -12.7676,10.60295 -9.37245,6.50663 -19.26694,12.39661 -30.06336,16.21237 -4.09212,1.35639 -5.09779,1.77942 -9.26273,2.80753 -6.26724,1.54707 -12.68762,2.36695 -19.12515,2.7522 -4.2977,0.23416 -6.38861,0.39837 -10.73544,0.42555 -7.61062,0.0476 -15.21393,-0.49359 -22.77897,-1.28308 -4.25562,-0.53665 -6.60595,-0.79267 -10.83363,-1.48605 -7.03658,-1.15405 -13.97571,-2.84665 -20.82996,-4.80045 -9.53344,-2.98785 -19.04553,-6.16563 -28.05124,-10.53478 -1.22277,-0.62365 -2.46463,-1.2112 -3.66832,-1.87095 -4.41973,-2.42247 -8.6549,-5.30328 -12.28599,-8.80809 -2.33331,-2.40767 -4.60403,-4.88605 -6.43858,-7.70636 0,0 6.46259,-3.7614 6.46259,-3.7614 z"
       inkscape:connector-curvature="0" />
    <path
       style="fill:#000000;fill-opacity:1;fill-rule:nonzero;stroke:none;stroke-width:1px;stroke-linecap:butt;stroke-linejoin:miter;stroke-opacity:1"
       id="path3360"
       d="m 628.61305,414.87424 c -0.11902,4.27755 -0.55076,8.53473 -1.05563,12.78112 -1.5413,11.93768 -3.8917,23.74959 -6.3201,35.53224 -3.94032,18.6653 -8.93869,37.07454 -14.23303,55.39343 -5.11226,16.69402 -9.41069,33.62472 -14.37443,50.36093 -1.08438,3.65623 -2.24099,7.29066 -3.36149,10.93598 -4.67041,14.93868 -10.25121,29.58879 -16.79389,43.80852 -4.25172,9.24059 -5.48056,11.35529 -10.13058,20.32318 -8.71826,15.78947 -18.06659,31.34272 -29.28744,45.50607 -2.10997,2.66328 -4.35367,5.21783 -6.53051,7.82674 -10.2301,11.70822 -22.10585,21.86723 -35.22968,30.19884 -2.24809,1.42719 -4.57651,2.72373 -6.86476,4.0856 -7.62028,4.59837 -15.54662,8.58701 -23.96558,11.47384 -5.57817,1.91274 -11.29803,3.2002 -17.04784,4.45983 -9.37041,1.97552 -18.9303,2.59582 -28.48383,2.52629 -6.40872,-0.0309 -12.8001,-0.57589 -19.13091,-1.552 -2.27346,-0.41509 -4.49391,-1.06803 -6.77154,-1.4594 -0.43311,-0.0724 -0.87142,-0.0929 -1.30917,-0.11214 0,0 6.11211,-4.36641 6.11211,-4.36641 l 0,0 c 0.44474,0.0517 0.88973,0.10574 1.32676,0.20648 2.18527,0.49614 4.32641,1.16881 6.52775,1.59738 6.20454,1.04783 12.47557,1.63468 18.7719,1.6762 9.46193,0.0574 18.92609,-0.56777 28.20922,-2.50848 5.71245,-1.25463 11.37685,-2.56244 16.91439,-4.47701 7.14769,-2.47126 4.63388,-1.88012 11.84929,-4.90045 0.39106,-0.16369 0.81672,-0.22777 1.22507,-0.34165 2.32473,-1.36376 4.69024,-2.66027 6.9742,-4.09127 13.23067,-8.28955 25.20954,-18.4413 35.54498,-30.14548 2.19626,-2.60662 4.46074,-5.15724 6.58876,-7.81985 11.29262,-14.12953 20.67604,-29.68596 29.43964,-45.46923 1.73728,-3.31815 3.52988,-6.60793 5.21183,-9.95447 8.74235,-17.39454 16.04652,-35.49333 21.78621,-54.09745 1.10309,-3.63282 2.24343,-7.25453 3.30926,-10.89846 4.89012,-16.71861 9.08832,-33.63688 14.21511,-50.28833 5.25008,-18.23403 10.23356,-36.55479 13.90998,-55.18266 2.25935,-11.64669 4.42779,-23.3274 5.65356,-35.13681 0.37649,-4.15277 0.76782,-8.32506 0.66314,-12.49908 0,0 6.65725,-3.39204 6.65725,-3.39204 z"
       inkscape:connector-curvature="0" />
    <path
       style="fill:#000000;fill-opacity:1;fill-rule:nonzero;stroke:none;stroke-width:1px;stroke-linecap:butt;stroke-linejoin:miter;stroke-opacity:1"
       id="path3362"
       d="m 219.54133,393.69387 c 0.46167,5.82291 0.88945,11.64901 1.31016,17.47531 1.106,13.66643 3.0817,27.2468 4.98199,40.8204 2.57594,17.21745 5.17278,34.46584 8.86177,51.48876 0.81378,3.75519 1.73859,7.48546 2.60789,11.22819 3.95162,15.60764 8.6239,31.03571 13.97144,46.22162 3.51409,9.97931 4.99796,13.6361 8.78844,23.50581 5.88426,14.79908 12.09597,29.49024 18.9757,43.8582 4.17638,8.72215 5.21181,10.4926 9.66551,18.93937 7.32874,13.50365 15.07506,26.81161 23.85423,39.4335 1.54701,2.22417 3.17007,4.39446 4.75511,6.59169 7.02927,9.43574 14.82013,18.35042 23.99237,25.76964 1.51998,1.22948 3.12188,2.35408 4.68282,3.53111 7.29853,5.42126 15.53239,8.98265 24.00608,12.08609 5.22258,2.09265 10.68474,3.38333 16.14604,4.6575 2.24498,0.49805 4.49316,1.02488 6.78657,1.24075 0.86271,0.0126 1.57207,0.55445 2.17672,1.12117 0.75005,0.81955 1.11594,1.88485 1.54045,2.89065 0,0 -6.46274,3.6245 -6.46274,3.6245 l 0,0 c -0.37989,-0.90299 -0.72656,-1.86011 -1.45006,-2.55349 -0.56897,-0.46279 -1.16649,-0.73172 -1.90897,-0.76315 -2.22798,-0.3521 -4.40949,-0.93485 -6.59781,-1.47311 -5.41316,-1.35507 -10.83265,-2.7159 -16.00387,-4.8581 -8.39469,-3.21108 -16.58196,-7.00086 -23.78038,-12.47171 -1.54588,-1.20318 -3.133,-2.35515 -4.63763,-3.60953 -9.0799,-7.56971 -16.8614,-16.51562 -23.80134,-26.05621 -1.5706,-2.2137 -3.17934,-4.40082 -4.71178,-6.64109 -8.69103,-12.7054 -16.36648,-26.0768 -23.60223,-39.65237 -4.18139,-8.09284 -5.62658,-10.70772 -9.54271,-19.04242 -6.78227,-14.4347 -12.89082,-29.18761 -18.80652,-43.9934 -3.53861,-9.22306 -5.51342,-14.1972 -8.82077,-23.51088 -5.38998,-15.17847 -10.11983,-30.59738 -14.12797,-46.19802 -0.88987,-3.73814 -1.8364,-7.46325 -2.66961,-11.21442 -3.76958,-16.97101 -6.40948,-34.17738 -9.24719,-51.31977 -2.08776,-13.47241 -4.28844,-26.94302 -5.65771,-40.51186 -0.54735,-5.72979 -1.02491,-11.47502 -1.89053,-17.16753 0,0 6.61653,-3.4472 6.61653,-3.4472 z"
       inkscape:connector-curvature="0" />
    <path
       style="fill:#000000;fill-opacity:1;fill-rule:nonzero;stroke:none;stroke-width:1px;stroke-linecap:butt;stroke-linejoin:miter;stroke-opacity:1"
       id="path3364"
       d="m 424.10672,423.73016 c 0.21246,4.84579 0.13881,9.6993 0.2111,14.5486 0.32147,10.44057 0.68796,20.87948 1.02907,31.31938 0.39643,15.91467 -0.76056,31.80523 -1.94844,47.66283 -1.48699,18.45755 -2.25482,36.95748 -2.86757,55.461 -0.63195,19.5738 -1.04312,39.15467 -1.33781,58.73627 -0.39736,17.49552 0.59854,34.96772 1.85987,52.40775 0.94644,12.04273 1.63694,24.1044 2.0501,36.17694 0.16011,5.26302 0.2926,10.52691 0.40995,15.79105 0.0528,0.89915 0.0202,1.79818 -0.0942,2.69052 0,0 -6.83236,3.17341 -6.83236,3.17341 l 0,0 c 0.52871,-0.666 0.30193,-1.76439 0.39059,-2.53434 0.12492,-5.34219 0.16898,-10.68609 0.0971,-16.02955 -0.19904,-12.1493 -0.65675,-24.29187 -1.53015,-36.41323 -1.14333,-17.50538 -2.04012,-35.0379 -1.62086,-52.58856 0.36585,-19.58244 0.72678,-39.16599 1.33127,-58.74272 0.55613,-18.48781 1.29237,-36.97134 2.72206,-55.41558 1.126,-15.77647 2.19465,-31.59087 1.61925,-47.41688 -0.47769,-10.37329 -0.96832,-20.74579 -1.43912,-31.11937 -0.16888,-4.73562 -0.16703,-9.49314 -0.68539,-14.20707 0,0 6.63553,-3.50045 6.63553,-3.50045 z"
       inkscape:connector-curvature="0" />
    <path
       style="fill:#000000;fill-opacity:1;fill-rule:nonzero;stroke:none;stroke-width:1px;stroke-linecap:butt;stroke-linejoin:miter;stroke-opacity:1"
       id="path3366"
       d="m 271.14636,473.29518 c 0.79036,3.75714 1.38232,7.55064 2.05358,11.3301 1.23784,6.80638 2.63129,13.58106 4.30194,20.29433 2.85002,10.28459 5.94783,20.49965 8.98612,30.73 2.32528,8.05591 5.05989,15.9923 8.20057,23.76691 1.58987,3.93564 3.3275,7.84196 5.02588,11.73127 4.71811,10.87202 10.77801,21.05918 16.48763,31.41774 4.24016,7.61604 8.24805,15.35971 12.6618,22.87795 3.35011,5.50597 6.89982,10.8854 10.11136,16.47535 2.26932,4.02522 4.36128,8.14599 6.63832,12.16661 1.95123,3.17327 4.50817,5.90555 6.92185,8.72366 2.04933,2.24693 3.87314,4.67871 5.77239,7.0481 1.24222,1.41932 2.34971,2.94494 3.51463,4.42588 0.4242,0.54638 0.22646,0.29007 0.59377,0.76848 0,0 -6.45937,3.82037 -6.45937,3.82037 l 0,0 c -0.33287,-0.4846 -0.15206,-0.22577 -0.54438,-0.77512 -1.12463,-1.5023 -2.19679,-3.04377 -3.41872,-4.471 -1.8579,-2.38512 -3.65759,-4.81756 -5.67952,-7.07114 -2.43589,-2.85876 -5.02272,-5.6307 -6.97188,-8.85888 -2.24442,-4.03945 -4.26144,-8.19781 -6.50025,-12.24068 -3.16923,-5.61057 -6.67086,-11.01697 -9.97164,-16.54907 -4.35105,-7.56454 -8.27915,-15.35764 -12.43198,-23.03111 -5.63841,-10.42148 -11.62508,-20.67272 -16.37146,-31.55123 -1.46807,-3.38509 -3.64323,-8.34799 -5.02977,-11.75805 -3.16333,-7.77992 -5.90818,-15.72663 -8.27993,-23.78249 -3.09075,-10.20069 -6.27795,-20.37251 -9.29311,-30.59545 -1.73496,-6.68775 -3.23207,-13.42854 -4.55717,-20.20965 -0.7125,-3.70276 -1.31792,-7.4347 -2.31004,-11.07585 0,0 6.54938,-3.60703 6.54938,-3.60703 z"
       inkscape:connector-curvature="0" />
    <path
       style="fill:#000000;fill-opacity:1;fill-rule:nonzero;stroke:none;stroke-width:1px;stroke-linecap:butt;stroke-linejoin:miter;stroke-opacity:1"
       id="path3370"
       d="m 260.54206,472.6644 c 3.35619,-0.59142 6.76462,-0.43339 10.15021,-0.28878 9.71254,0.6295 19.42337,-0.0236 29.09839,-0.86816 13.64814,-1.34557 27.20614,-3.43993 40.76919,-5.44028 10.36086,-1.43141 20.7042,-3.00032 31.10555,-4.11366 3.33211,-0.18443 6.69231,-0.90076 10.03544,-0.55903 1.08892,0.21916 1.33963,0.96668 1.66903,1.89985 1.06623,3.16599 1.09224,6.58186 1.25786,9.88484 0.44819,9.55397 -0.49865,19.08294 -1.27942,28.59184 -1.3349,14.07331 -2.48529,28.15995 -3.40055,42.2665 -0.95739,14.16565 -1.40573,28.35783 -2.11124,42.53687 -0.69,13.0124 -1.71269,26.00425 -2.57835,39.00556 -0.68224,9.70598 -0.63585,19.44136 -0.5813,29.1649 0.0537,6.02127 -0.18578,12.03634 -0.43666,18.05048 -0.14184,1.76414 -0.0476,3.54451 -0.20194,5.3069 -0.0214,0.11992 -0.0428,0.23985 -0.0642,0.35977 0,0 -6.78722,3.2316 -6.78722,3.2316 l 0,0 c 0.0388,-0.0987 0.0776,-0.19741 0.11643,-0.29612 0.41041,-1.62 0.14124,-3.70394 0.46167,-5.35146 0.4703,-6.05609 0.83924,-12.11938 0.82287,-18.19727 0.0194,-9.78094 0.0354,-19.57435 0.80385,-29.3317 0.97593,-13.02093 2.07826,-26.03547 2.74973,-39.07675 0.71824,-14.19374 1.2015,-28.40005 2.17647,-42.57976 0.90244,-14.06799 2.00816,-28.11902 3.1837,-42.16675 0.67286,-9.39939 1.50978,-18.82939 0.82753,-28.25635 -0.23313,-3.18167 -0.34746,-6.48996 -1.509,-9.50047 -0.33117,-0.81382 -0.22544,-1.07504 -1.18979,-1.22127 -3.18023,-0.29175 -6.38545,0.2537 -9.55876,0.38768 -10.24321,0.94766 -20.43164,2.38118 -30.61973,3.78986 -13.60856,1.98492 -27.20731,4.09144 -40.8928,5.48659 -9.84656,0.89222 -19.72363,1.58235 -29.61727,1.14987 -3.45521,-0.0421 -6.96677,-0.1477 -10.34954,0.68428 0,0 5.94982,-4.54958 5.94982,-4.54958 z"
       inkscape:connector-curvature="0" />
  </g>
</svg>
