<?xml version="1.0" encoding="UTF-8" standalone="no"?>
<!-- Created with Inkscape (http://www.inkscape.org/) -->

<svg
   xmlns:dc="http://purl.org/dc/elements/1.1/"
   xmlns:cc="http://creativecommons.org/ns#"
   xmlns:rdf="http://www.w3.org/1999/02/22-rdf-syntax-ns#"
   xmlns:svg="http://www.w3.org/2000/svg"
   xmlns="http://www.w3.org/2000/svg"
   xmlns:sodipodi="http://sodipodi.sourceforge.net/DTD/sodipodi-0.dtd"
   xmlns:inkscape="http://www.inkscape.org/namespaces/inkscape"
   width="210mm"
   height="297mm"
   viewBox="0 0 744.09448819 1052.3622047"
   id="svg3361"
   version="1.1"
   inkscape:version="0.91 r13725"
   sodipodi:docname="grass.svg"
   inkscape:export-filename="/home/edward/RhoAiasGame/resources/grass.png"
   inkscape:export-xdpi="27.359392"
   inkscape:export-ydpi="27.359392">
  <defs
     id="defs3363" />
  <sodipodi:namedview
     id="base"
     pagecolor="#ffffff"
     bordercolor="#666666"
     borderopacity="1.0"
     inkscape:pageopacity="0.0"
     inkscape:pageshadow="2"
     inkscape:zoom="0.98994949"
     inkscape:cx="272.89599"
     inkscape:cy="545.96063"
     inkscape:document-units="px"
     inkscape:current-layer="layer1"
     showgrid="false"
     inkscape:window-width="1855"
     inkscape:window-height="1056"
     inkscape:window-x="65"
     inkscape:window-y="24"
     inkscape:window-maximized="1" />
  <metadata
     id="metadata3366">
    <rdf:RDF>
      <cc:Work
         rdf:about="">
        <dc:format>image/svg+xml</dc:format>
        <dc:type
           rdf:resource="http://purl.org/dc/dcmitype/StillImage" />
      </cc:Work>
    </rdf:RDF>
  </metadata>
  <g
     inkscape:label="Layer 1"
     inkscape:groupmode="layer"
     id="layer1">
    <path
       style="fill:#000000;fill-opacity:1;fill-rule:nonzero;stroke:none;stroke-width:1px;stroke-linecap:butt;stroke-linejoin:miter;stroke-opacity:1"
       id="path3407"
       d="m 310.45981,406.89047 c 4.62015,-2.8551 8.29795,-6.49271 11.8459,-10.11792 5.6473,-5.89876 10.30818,-12.29779 14.44602,-18.88797 2.74216,-4.78178 5.32531,-9.69451 6.71189,-14.83641 0.89042,-3.30196 0.85829,-4.51505 1.17786,-7.88663 0.41174,-8.9476 -2.82325,-17.56475 -6.23319,-26.01189 -3.92843,-9.60138 -8.09728,-19.14267 -12.16028,-28.71036 -4.45248,-10.0709 -8.42761,-20.26064 -12.32644,-30.46588 -2.98838,-7.85144 -5.24954,-15.84787 -7.89391,-23.76817 -0.94389,-2.86983 -1.95399,-5.73497 -2.53884,-8.66511 -0.0988,-0.40728 -0.0801,-0.83043 -0.19148,-1.23658 -0.0353,-0.12859 -0.27003,-0.3228 -0.11915,-0.38343 10.0678,-4.04578 7.88617,-5.89926 10.63647,-3.12987 1.27321,1.37203 2.05403,2.96165 2.90484,4.50464 1.09447,2.06459 2.16054,4.13268 3.38395,6.15477 1.87444,3.17487 4.7974,5.83106 7.65963,8.488 4.33202,4.10944 8.44915,8.34574 12.58442,12.57316 3.96262,4.06365 8.11284,8.02671 11.9048,12.18893 2.75214,3.02087 3.659,4.24335 6.21324,7.4053 6.75129,8.50204 11.73454,17.70155 16.19427,27.03107 3.98566,8.88851 7.08691,18.03124 8.62832,27.37451 0.33845,2.05151 0.5411,4.11504 0.81164,6.17256 1.22824,11.22039 -0.0919,22.45574 -1.15771,33.64644 -0.50147,5.72461 -1.11405,11.45577 -0.86842,17.19668 -0.0189,1.80383 0.54649,3.59774 0.3773,5.40042 0,0 -9.78328,3.71217 -9.78328,3.71217 l 0,0 c 0.54652,-1.75373 -0.19736,-3.60602 -0.008,-5.3862 -0.0585,-5.84564 0.7061,-11.6619 1.3606,-17.48085 1.338,-11.17928 2.80362,-22.41752 1.56089,-33.64867 -0.27088,-2.04249 -0.47034,-4.0914 -0.81264,-6.12748 -1.56011,-9.27987 -4.74594,-18.34125 -8.71988,-27.16499 -4.45167,-9.27262 -9.39378,-18.43094 -16.21293,-26.83985 -2.71566,-3.30287 -3.34421,-4.16932 -6.257,-7.31776 -3.83281,-4.1429 -8.00418,-8.09211 -12.07011,-12.09698 -4.21312,-4.17535 -8.37477,-8.38072 -12.77182,-12.44289 -2.97443,-2.68313 -5.94781,-5.38915 -7.92891,-8.6073 -1.28402,-2.01328 -2.3944,-4.07697 -3.49579,-6.15236 -0.79395,-1.47056 -1.56811,-2.98074 -2.82439,-4.25847 -2.78954,-2.33138 -0.22142,0.0147 8.82477,-4.44935 0.1217,-0.06 -0.14658,-0.22859 -0.28832,-0.24994 -0.062,-0.009 0.0553,1.18941 0.0514,1.23099 0.37081,2.9585 1.21188,5.86384 2.05503,8.75954 2.3538,7.99838 4.42761,16.04924 7.41165,23.92941 3.82462,10.21439 7.88146,20.37634 12.29966,30.44759 4.09952,9.55584 8.32619,19.07948 12.27852,28.67263 3.47996,8.50832 6.82938,17.18952 6.54089,26.2119 -0.26647,3.34877 -0.22769,4.71693 -1.07016,8.00465 -1.33007,5.19059 -3.93032,10.14305 -6.63183,14.97817 -4.05728,6.60365 -8.65689,13.00962 -14.1741,18.9605 -3.40751,3.60543 -6.9833,7.15099 -11.24973,10.18192 0,0 -10.07562,3.09736 -10.07562,3.09736 z"
       inkscape:connector-curvature="0"
       inkscape:export-xdpi="27.359392"
       inkscape:export-ydpi="27.359392" />
    <path
       style="fill:#000000;fill-opacity:1;fill-rule:nonzero;stroke:none;stroke-width:1px;stroke-linecap:butt;stroke-linejoin:miter;stroke-opacity:1"
       id="path3409"
       d="m 375.18139,331.82687 c 0.15732,-4.82226 0.28391,-9.64106 0.60617,-14.45932 0.66946,-9.47612 2.31997,-18.88324 4.01708,-28.27482 1.85519,-9.86927 3.10111,-19.79857 4.33206,-29.72343 0.80488,-5.80106 1.55072,-11.60745 1.9417,-17.43487 0.0843,-1.58508 0.15725,-3.17261 0.11224,-4.75922 -0.26926,-3.28153 8.24572,-6.71772 10.49221,-3.72232 0.80227,1.06972 1.06937,2.3185 1.40582,3.50526 1.26889,5.51525 1.54975,11.13035 2.17671,16.7027 1.16868,8.6264 4.09312,17.01977 7.09142,25.3517 3.36245,9.302 6.83445,18.57893 10.12858,27.89554 2.56588,7.65421 4.9315,15.35215 6.75952,23.13304 1.55855,6.46618 3.05789,12.94087 4.37811,19.4389 0.84107,4.15137 1.29795,8.34077 1.55747,12.53564 0.12385,1.90446 0.13695,3.81096 0.14203,5.71726 0.0784,1.88855 -0.15003,3.7626 -0.36952,5.6403 -0.20106,2.11173 -0.64702,4.20192 -0.89761,6.31036 -0.0549,1.98413 -0.71316,3.90562 -1.16788,5.84714 -0.15723,0.8992 -0.42265,1.80241 -0.40507,2.71483 0.0153,0.0337 0.0307,0.0675 0.046,0.10117 0,0 -9.97419,3.56605 -9.97419,3.56605 l 0,0 c 0.0231,0.0186 0.0463,0.0373 0.0694,0.0559 0.452,-0.86143 0.132,-1.90941 0.55999,-2.78401 0.45218,-1.92376 1.16952,-3.82234 1.23612,-5.78637 0.22083,-2.11559 0.68958,-4.2053 0.9225,-6.31882 0.19056,-1.84946 0.43204,-3.69201 0.33059,-5.55034 0.0282,-1.91575 0.0568,-3.83182 0.0281,-5.74764 -0.11945,-4.20185 -0.44454,-8.4008 -1.2237,-12.56409 -1.23633,-6.51656 -2.66127,-13.01152 -4.19626,-19.48984 -1.77243,-7.77651 -4.12914,-15.46435 -6.59703,-23.12483 -3.19426,-9.3417 -6.54383,-18.65034 -10.00776,-27.93461 -3.10666,-8.33068 -6.15505,-16.72566 -7.45387,-25.36168 -0.73334,-5.48704 -1.05904,-11.03283 -2.50887,-16.44454 -0.37184,-1.16184 -0.3945,-1.4615 -0.9582,-2.48736 -0.11537,-0.20997 -0.24783,-0.41588 -0.40899,-0.60699 -0.0725,-0.086 -0.39508,-0.15862 -0.28456,-0.2155 3.10787,-1.59943 12.1942,-5.72098 8.85081,-4.20396 -0.0532,1.64198 -0.16688,3.28132 -0.35721,4.91762 -0.66391,5.90067 -1.56231,11.78222 -2.46328,17.66361 -1.36195,9.94467 -2.67959,19.89665 -4.45699,29.80324 -1.66613,9.32876 -3.27776,18.67677 -3.76517,28.09644 -0.21953,4.72515 -0.27536,9.45183 0.0134,14.17663 0,0 -9.70187,3.82119 -9.70187,3.82119 z"
       inkscape:connector-curvature="0"
       inkscape:export-xdpi="27.359392"
       inkscape:export-ydpi="27.359392" />
    <path
       style="fill:#000000;fill-opacity:1;fill-rule:nonzero;stroke:none;stroke-width:1px;stroke-linecap:butt;stroke-linejoin:miter;stroke-opacity:1"
       id="path3411"
       d="m 429.00218,328.5193 c 2.94933,-5.66382 5.72184,-11.3792 8.34339,-17.13815 3.30641,-7.27743 6.1468,-14.67107 8.93081,-22.07534 2.64783,-6.20654 4.59898,-12.54312 6.16774,-18.95777 0.8627,-4.02587 1.58099,-8.08905 1.68172,-12.17546 0.0462,-1.874 -0.0776,-3.77684 -0.16657,-5.64863 -0.5976,-5.61002 -1.04483,-11.2245 -1.34425,-16.84855 -0.155,-3.50525 -0.31755,-7.0105 -0.42474,-10.51688 -0.16717,-4.15888 -0.19479,-2.56805 9.917,-5.42128 0.34754,-0.0981 0.36462,0.49855 0.51758,0.75894 0.20785,0.35386 0.37564,0.72098 0.56346,1.08147 1.62657,3.51667 2.55163,7.20841 3.59442,10.84919 1.94518,6.18963 3.03559,12.51398 4.15566,18.81685 1.35103,8.40935 2.56909,16.82854 4.30105,25.19811 1.88015,7.66872 4.19524,15.26629 6.09144,22.93235 1.93559,8.09667 3.39052,16.25517 4.90819,24.40301 1.15666,6.38424 2.47217,12.80023 2.38847,19.26739 -0.0154,1.18835 -0.13131,2.37466 -0.19697,3.56198 -0.49413,5.8264 -1.95094,11.57572 -4.2349,17.1351 -1.18091,2.38394 -2.28386,4.85598 -4.35777,6.87844 -0.86452,0.61849 -1.51387,1.20128 -1.755,2.09949 -0.17849,1.08889 -0.15524,2.19174 -0.13282,3.28731 0,0 -9.69997,3.82605 -9.69997,3.82605 l 0,0 c 0.006,-1.13421 -0.003,-2.26878 0.062,-3.40226 0.13595,-1.11769 0.32866,-1.83954 1.51679,-2.58307 2.53568,-1.7123 3.51785,-4.37843 4.88676,-6.66507 2.49369,-5.49378 3.99467,-11.22519 4.60365,-17.02988 0.0811,-1.17421 0.21272,-2.34698 0.24336,-3.52262 0.16811,-6.44878 -1.08051,-12.85382 -2.23172,-19.22042 -1.48867,-8.136 -2.97228,-16.27633 -4.91788,-24.35631 -1.92357,-7.67348 -4.24894,-15.28119 -6.07111,-22.97003 -1.69529,-8.37101 -2.89645,-16.79112 -4.36296,-25.1862 -1.19693,-6.2441 -2.37764,-12.51162 -4.43408,-18.62855 -1.07508,-3.56807 -2.00932,-7.201 -3.72531,-10.62371 -0.1911,-0.32329 -0.36186,-0.65425 -0.5733,-0.96988 -0.13094,-0.19545 -0.6824,-0.43127 -0.45181,-0.56039 11.40902,-6.3889 9.06702,-6.62877 8.98809,-2.73852 -0.0631,3.54393 -0.0795,7.08877 0.0596,10.63195 0.23822,5.62768 0.73856,11.24096 1.33501,16.85239 0.092,1.93372 0.21312,3.78315 0.17033,5.71997 -0.0911,4.12532 -0.8012,8.22664 -1.66127,12.29242 -1.54366,6.45323 -3.46581,12.83087 -6.19466,19.05517 -2.82331,7.42392 -5.74304,14.82577 -8.99979,22.14437 -2.51652,5.6478 -5.15638,11.26009 -7.7113,16.89721 0,0 -9.77828,3.54981 -9.77828,3.54981 z"
       inkscape:connector-curvature="0"
       inkscape:export-xdpi="27.359392"
       inkscape:export-ydpi="27.359392" />
    <path
       style="fill:#000000;fill-opacity:1;fill-rule:nonzero;stroke:none;stroke-width:1px;stroke-linecap:butt;stroke-linejoin:miter;stroke-opacity:1"
       id="path3413"
       d="m 485.16372,322.40909 c 0.47249,-5.78954 1.66374,-11.52251 2.89674,-17.23843 2.12319,-9.81715 5.55621,-19.42308 9.10252,-28.97878 3.34508,-8.98905 7.13879,-17.87228 10.73351,-26.80223 1.86612,-4.54498 3.55259,-9.13121 5.22219,-13.721 0.61146,-1.65789 1.09079,-3.34345 1.30019,-5.06066 0.55248,-3.47147 2.85412,-2.53523 9.73592,-5.32689 0.26457,-0.10733 1.77046,1.33457 1.84272,1.39928 3.8507,4.93732 5.07986,10.82917 6.46597,16.40801 2.23487,9.80868 3.46308,19.73081 4.89997,29.62248 1.14994,7.68522 2.4496,15.36107 3.06129,23.08732 0.48403,6.11392 0.3906,6.84542 0.4645,12.96196 -0.19585,8.60967 -1.13277,17.21337 -2.87363,25.71975 -1.10485,5.39864 -1.56113,6.70266 -3.0266,11.99067 -2.70915,9.30293 -6.03798,18.48586 -9.36966,27.66371 -1.25992,3.20078 -2.33999,6.44402 -3.73837,9.61141 -0.36406,0.71733 -0.60555,1.45537 -0.66064,2.22413 -0.0174,0.42154 -0.0136,0.21588 -0.0128,0.61694 0,0 -9.73562,3.83651 -9.73562,3.83651 l 0,0 c -0.001,-0.42133 -3.4e-4,-0.20452 -0.004,-0.65042 0.029,-0.85944 0.12721,-1.70178 0.59152,-2.49962 1.71559,-3.17873 2.89465,-6.50781 4.34331,-9.76099 3.62382,-9.19386 7.09098,-18.42928 9.89134,-27.79746 0.5621,-1.94878 1.1737,-3.88943 1.68631,-5.84635 2.73705,-10.44885 4.13223,-21.09746 4.40406,-31.75198 -0.0192,-2.14916 0.024,-4.2992 -0.0578,-6.44748 -0.37513,-9.8647 -2.10128,-19.6548 -3.66082,-29.43675 -1.44961,-9.85126 -2.73918,-19.73232 -5.0382,-29.49211 -1.44611,-5.3592 -2.77427,-11.11751 -6.8716,-15.70878 -0.22586,-0.16548 -0.43251,-0.3482 -0.67759,-0.49643 -0.12065,-0.073 -0.25661,-0.16734 -0.40959,-0.16113 -0.0819,0.003 -0.14685,0.21301 -0.0761,0.18088 3.03763,-1.38047 6.01942,-2.83309 9.02913,-4.24963 -0.10556,0.0489 -0.24854,0.0675 -0.31665,0.14674 -0.10077,0.11722 -0.10476,0.26959 -0.15714,0.40438 -0.17952,1.80333 -0.75346,3.56365 -1.42482,5.29222 -1.82959,4.64516 -3.63366,9.29635 -5.64586,13.89707 -3.78406,8.94575 -7.7014,17.86043 -11.082,26.90468 -3.52395,9.47947 -6.85366,19.02952 -8.85298,28.78347 -1.12344,5.59005 -2.29339,11.20998 -2.34483,16.88094 0,0 -9.63426,3.79457 -9.63426,3.79457 z"
       inkscape:connector-curvature="0"
       inkscape:export-xdpi="27.359392"
       inkscape:export-ydpi="27.359392" />
    <path
       style="fill:#000000;fill-opacity:1;fill-rule:nonzero;stroke:none;stroke-width:1px;stroke-linecap:butt;stroke-linejoin:miter;stroke-opacity:1"
       id="path3415"
       d="m 461.1579,274.84487 c 1.77275,-4.11562 3.68263,-8.19016 5.73894,-12.22614 3.14727,-5.76854 6.18288,-11.57081 8.96913,-17.44942 3.00602,-6.47769 5.71916,-13.03245 8.49824,-19.56934 1.35276,-3.04921 2.20455,-6.20496 3.38365,-9.29282 0.2567,-1.05429 0.97102,-2.12874 0.91097,-3.22374 3.27898,-1.1813 6.46054,-2.53986 9.83692,-3.54389 0.24908,-0.0741 0.003,0.4126 -6.5e-4,0.61888 -0.006,0.32464 -0.0204,0.64917 -0.0284,0.97379 -0.0353,1.43714 -0.0501,2.87455 -0.0701,4.31185 -0.13502,3.66119 0.57847,7.29234 0.8961,10.93774 0.52009,5.26459 0.81806,10.53923 1.2269,15.80924 0.42251,5.00499 0.82646,10.01195 1.28563,15.01513 0.2231,3.82662 0.84542,7.61197 1.64847,11.38742 0.26846,1.73086 0.96291,3.47772 0.63328,5.22626 -0.25446,0.84713 -1.0145,1.39118 -1.84169,1.92686 0,0 -10.08795,3.10383 -10.08795,3.10383 l 0,0 c 0.77719,-0.40619 1.5998,-0.77594 2.13246,-1.39397 0.74929,-1.59312 -0.17015,-3.38089 -0.26058,-5.01135 -0.69353,-3.8254 -1.34414,-7.64873 -1.51606,-11.51522 -0.45626,-5.0147 -0.79892,-10.03666 -1.2139,-15.05342 -0.40824,-5.25095 -0.68907,-10.50972 -1.35231,-15.74655 -0.37951,-3.65003 -1.0999,-7.28735 -1.02347,-10.95623 -0.0145,-1.41809 -0.0168,-2.83684 -0.0609,-4.25463 -0.01,-0.31108 -0.025,-0.62204 -0.0396,-0.933 -0.008,-0.17736 -0.22638,-0.44061 -0.0295,-0.53195 3.16084,-1.46654 6.51985,-2.66127 9.77977,-3.99191 -0.40053,0.30329 -0.59698,2.84421 -1.09858,3.29163 -1.29179,3.13731 -2.31317,6.33343 -3.72201,9.44246 -2.95421,6.53016 -5.7073,13.11327 -8.65845,19.64432 -2.69891,5.86534 -5.60938,11.67036 -8.7612,17.39988 -2.01094,3.94733 -3.91385,7.92858 -5.38047,12.02053 0,0 -9.79462,3.58376 -9.79462,3.58376 z"
       inkscape:connector-curvature="0"
       inkscape:export-xdpi="27.359392"
       inkscape:export-ydpi="27.359392" />
    <path
       style="fill:#000000;fill-opacity:1;fill-rule:nonzero;stroke:none;stroke-width:1px;stroke-linecap:butt;stroke-linejoin:miter;stroke-opacity:1"
       id="path3417"
       d="m 406.18364,291.84285 c 1.82364,-4.31998 3.85246,-8.59028 5.89271,-12.8521 3.09468,-6.19256 6.29083,-12.35431 9.67028,-18.45733 2.83148,-4.80645 5.38064,-9.68041 7.35779,-14.73632 2.00238,-5.14137 3.3498,-10.39519 4.17304,-15.72085 0.48515,-3.59049 0.65197,-7.20139 0.63721,-10.80977 -0.0299,-1.25369 -0.0197,-2.50943 -0.0908,-3.76236 -0.38858,-2.92521 -1.30165,-0.24792 9.71193,-3.66163 0.18229,-0.0565 -0.0139,0.30362 -0.009,0.4554 0.0207,0.68845 0.0456,0.62432 0.20865,1.36314 0.74554,3.15889 1.61242,6.30079 2.57538,9.42409 1.63245,5.30394 3.3664,10.58785 5.07135,15.87797 1.936,5.58701 3.15435,11.28761 4.26227,16.99982 0.67431,4.71418 1.8076,9.37275 2.853,14.04238 0.55139,2.67248 0.89834,5.36758 1.08362,8.06926 0.0474,0.60255 0.0645,1.20608 0.0872,1.80936 0,0 -9.69768,3.82435 -9.69768,3.82435 l 0,0 c 0.0147,-0.60627 0.0197,-1.21255 0.0125,-1.81893 -0.072,-2.69688 -0.299,-5.3919 -0.81481,-8.06192 -0.92671,-4.70432 -2.06843,-9.3837 -2.69109,-14.12212 -1.06837,-5.69323 -2.26266,-11.37386 -4.19645,-16.9377 -1.71118,-5.2793 -3.46652,-10.54987 -5.1986,-15.82498 -1.045,-3.09583 -1.9991,-6.2112 -2.88182,-9.33705 -1.32894,-4.3641 0.67192,-2.45892 9.35905,-6.18123 0.0907,-0.0388 -0.24275,0.47195 -0.0134,0.24027 -0.0338,1.28172 -0.001,2.56463 -0.0628,3.84616 -0.143,3.67242 -0.35272,7.34521 -0.87621,10.99917 -0.83805,5.35813 -2.09611,10.66317 -4.09574,15.84296 -1.93476,5.1298 -4.43163,10.02948 -7.40011,14.8574 -3.43565,6.07137 -6.67518,12.20744 -9.68889,18.41177 -1.72917,3.73881 -3.61544,7.56702 -5.06038,11.37614 -0.15715,0.41429 -0.25537,0.8406 -0.38305,1.26089 0,0 -9.79462,3.58376 -9.79462,3.58376 z"
       inkscape:connector-curvature="0"
       inkscape:export-xdpi="27.359392"
       inkscape:export-ydpi="27.359392" />
    <path
       style="fill:#000000;fill-opacity:1;fill-rule:nonzero;stroke:none;stroke-width:1px;stroke-linecap:butt;stroke-linejoin:miter;stroke-opacity:1"
       id="path3419"
       d="m 347.41177,281.71736 c 0.79592,-4.53855 1.59287,-9.07854 2.36104,-13.62046 0.84185,-5.20993 1.86376,-10.39836 2.95725,-15.57941 0.61927,-2.89394 0.99729,-5.81279 1.17328,-8.7417 0.21946,-5.08953 -1.50265,-1.99126 9.85201,-6.40482 2.0189,2.70833 4.00274,5.42975 6.11614,8.09516 3.48332,4.26442 6.59108,8.69982 9.84722,13.06749 2.58661,3.56369 5.56543,6.93634 8.60923,10.27172 1.4583,1.70088 3.10559,3.31212 4.3984,5.09667 0.5004,0.69075 1.29112,2.02537 1.72298,2.73586 0.84221,1.3704 1.5058,2.79873 2.18383,4.2204 0,0 -9.35577,3.99942 -9.35577,3.99942 l 0,0 c -0.61513,-1.41125 -1.23611,-2.82384 -2.09625,-4.16081 -0.28547,-0.46224 -1.33425,-2.18064 -1.6739,-2.65313 -1.2752,-1.77396 -2.91971,-3.36809 -4.32556,-5.07708 -2.99966,-3.38535 -5.9285,-6.80967 -8.51367,-10.39746 -3.21428,-4.37407 -6.30839,-8.8054 -9.85239,-13.02887 -2.12877,-2.5837 -4.08467,-5.25694 -6.3919,-7.74879 3.14446,-1.38137 6.30035,-2.74731 9.43338,-4.1441 0.0574,-0.0256 -0.17064,-0.0215 -0.19601,0.0258 -0.0617,0.11501 -0.0134,0.24878 -0.0179,0.37322 -0.0239,0.66235 -0.0462,1.32465 -0.0996,1.98618 -0.26405,2.99038 -0.74064,5.96892 -1.38926,8.92391 -1.15131,5.18593 -2.30378,10.37239 -3.10403,15.59993 -0.71628,4.47085 -1.52363,8.93399 -1.92929,13.43052 0,0 -9.70921,3.73034 -9.70921,3.73034 z"
       inkscape:connector-curvature="0"
       inkscape:export-xdpi="27.359392"
       inkscape:export-ydpi="27.359392" />
    <path
       style="fill:#000000;fill-opacity:1;fill-rule:nonzero;stroke:none;stroke-width:1px;stroke-linecap:butt;stroke-linejoin:miter;stroke-opacity:1"
       id="path3450"
       d="m 531.31128,303.631 c 5.62935,-8.65295 10.25395,-17.92252 14.88116,-27.13687 4.07551,-8.29747 7.64054,-16.83905 9.89055,-25.81609 0.78274,-2.45602 0.6797,-5.06435 1.17157,-7.56356 0.48782,-5.59711 10.96768,-11.73284 14.43638,-6.91871 1.01098,1.40312 1.46316,3.22489 1.9885,4.83401 2.42598,8.61163 2.47472,17.59 2.56691,26.4622 0.13283,14.2116 -0.38079,28.41166 -1.0755,42.6027 -0.50838,9.76818 -0.80992,19.54511 -0.90999,29.32564 -0.16933,4.00276 0.23225,8.02471 0.008,12.02321 -0.27383,2.11797 -1.60726,3.7915 -2.88786,5.42024 -1.1976,1.42412 -1.70839,3.12713 -2.18749,4.88433 -0.77583,2.68554 -1.28743,5.4324 -1.63371,8.20323 -0.0368,0.83097 -0.17267,1.64349 -0.36971,2.44881 0,0 -13.63638,6.36172 -13.63638,6.36172 l 0,0 c 0.3617,-0.70731 0.63871,-1.35721 0.60622,-2.18339 0.32452,-2.81406 0.85035,-5.60964 1.56061,-8.35174 0.37866,-1.91106 0.79806,-3.80521 1.90424,-5.44725 1.12421,-1.5221 2.52032,-2.93108 3.24833,-4.68722 0.63998,-3.97732 0.0288,-8.10348 0.43835,-12.10613 0.28856,-9.87576 0.73898,-19.74519 1.36013,-29.60597 0.80799,-14.14603 1.42144,-28.30847 1.0566,-42.48188 -0.21784,-8.64549 -0.43191,-17.3819 -2.99117,-25.72205 -0.43419,-1.1863 -0.74447,-2.18051 -1.3171,-3.28475 -0.12866,-0.24811 -0.25692,-0.50723 -0.45537,-0.70403 -0.091,-0.0903 -0.47803,-0.0469 -0.36778,-0.11228 12.52101,-7.42385 17.40285,-5.72135 12.27724,-7.37609 -1.12534,2.3481 -0.46347,5.26593 -1.57314,7.66276 -2.46433,9.13988 -6.17839,17.84288 -10.31948,26.34397 -4.47807,9.05986 -8.99859,18.12366 -14.04039,26.88429 0,0 -13.62973,6.0409 -13.62973,6.0409 z"
       inkscape:connector-curvature="0"
       inkscape:export-xdpi="27.359392"
       inkscape:export-ydpi="27.359392" />
    <path
       style="fill:#000000;fill-opacity:1;fill-rule:nonzero;stroke:none;stroke-width:1px;stroke-linecap:butt;stroke-linejoin:miter;stroke-opacity:1"
       id="path3454"
       d="m 575.19993,356.40494 c 0.41397,-9.01724 1.97615,-17.9074 3.6493,-26.7597 3.71758,-16.55404 7.70628,-33.03812 11.037,-49.67672 2.65908,-14.53372 5.24558,-29.09161 7.20292,-43.73884 0.67949,-5.40112 1.20002,-10.82416 1.35041,-16.26704 -0.0125,-0.26742 0.0376,-3.13257 0.10319,-3.16836 13.63599,-7.43418 10.25956,-10.7576 14.26317,-6.29788 1.59066,2.42088 2.05346,5.33745 2.56896,8.13224 0.69385,3.76178 0.7306,4.31278 1.29321,8.23526 1.39325,11.10935 2.01684,22.28225 2.40611,33.4646 0.32862,12.36388 0.3531,24.73368 0.41356,37.10114 -0.13099,9.34156 0.51659,18.65772 1.29929,27.95821 0.52621,4.73585 1.25203,9.44395 1.79062,14.17846 0.21058,1.89812 0.30269,3.80466 0.31677,5.71333 -0.0107,2.18072 -0.0358,4.3614 -0.044,6.54218 -0.0252,3.29754 -0.0514,6.59509 -0.0439,9.89274 0.0113,3.01865 0.0148,6.03716 0.0402,9.05572 0.20316,2.02425 -0.41636,3.83796 -1.26291,5.63377 -0.12067,0.21548 -0.24135,0.43097 -0.36202,0.64645 0,0 -13.75088,6.0601 -13.75088,6.0601 l 0,0 c 0.13626,-0.19306 0.27252,-0.38612 0.40877,-0.57918 0.98156,-1.48895 1.77384,-3.16288 1.65966,-4.98067 0.0252,-3.03231 0.0287,-6.06457 0.0404,-9.09697 0.008,-3.28495 -0.0177,-6.56979 -0.0353,-9.85468 -0.002,-2.1656 -0.0127,-4.33118 -0.023,-6.49675 -0.006,-1.8855 -0.0123,-3.77236 -0.14928,-5.65405 -0.33947,-4.80984 -1.00042,-9.58674 -1.44111,-14.38748 -0.6282,-9.39004 -1.30018,-18.78603 -1.04916,-28.20611 0.0286,-12.3619 0.0359,-24.72607 -0.3403,-37.08375 -0.4103,-11.09275 -1.07043,-22.17723 -2.59819,-33.18103 -0.6553,-4.11615 -0.5972,-4.14284 -1.44626,-8.04938 -0.53269,-2.4509 -0.98301,-5.10136 -2.49543,-7.17319 -4.31477,-3.28792 -0.54873,-0.21951 12.28329,-7.80579 0.0884,-0.0522 -0.21027,0.0668 -0.26803,0.15171 -0.10509,0.1544 -0.165,0.34131 -0.19317,0.52593 -0.101,0.66183 0.0785,1.34824 -0.059,2.0076 -0.33504,5.60754 -1.1335,11.17463 -1.95285,16.72815 -2.27763,14.73644 -5.00698,29.3988 -7.69658,44.06447 -3.32301,16.53393 -7.16014,32.95147 -10.63199,49.45338 -1.52236,8.63766 -3.02036,17.33708 -2.98749,26.13755 0,0 -13.29587,6.77458 -13.29587,6.77458 z"
       inkscape:connector-curvature="0"
       inkscape:export-xdpi="27.359392"
       inkscape:export-ydpi="27.359392" />
    <path
       style="fill:#000000;fill-opacity:1;fill-rule:nonzero;stroke:none;stroke-width:1px;stroke-linecap:butt;stroke-linejoin:miter;stroke-opacity:1"
       id="path3456"
       d="m 563.33942,275.5209 c 2.43452,-7.75399 4.65163,-15.57288 6.43918,-23.5014 1.1835,-5.75589 2.00793,-11.58573 2.33117,-17.45382 0.0359,-0.36357 0.0539,-3.82457 0.24628,-3.93512 13.60721,-7.81809 10.28271,-11.01807 14.47185,-6.10554 3.70479,5.79642 6.25951,12.27575 9.02171,18.55835 3.19355,7.4356 6.16741,14.96113 8.32739,22.76518 0.87539,3.27882 1.83985,6.53853 2.36329,9.89687 0.0346,0.26058 0.0692,0.52115 0.1038,0.78172 0,0 -13.312,6.95266 -13.312,6.95266 l 0,0 c -0.0173,-0.25308 -0.0347,-0.50616 -0.052,-0.75924 -0.35146,-3.35458 -1.16087,-6.63119 -1.97103,-9.89981 -1.87973,-7.81864 -4.74071,-15.32929 -7.96065,-22.69113 -2.74795,-6.05231 -5.2675,-12.41144 -9.27771,-17.75429 -4.71281,-2.88096 -0.53913,-0.11313 12.12849,-7.70095 0.13307,-0.0797 -0.35794,-0.0536 -0.46116,0.0622 -0.67984,0.76248 0.0385,2.32331 -0.33183,3.17673 -0.54873,6.01133 -1.48006,11.97681 -2.72465,17.88454 -1.72808,7.8346 -3.94993,15.5396 -5.84389,23.3338 0,0 -13.49822,6.38925 -13.49822,6.38925 z"
       inkscape:connector-curvature="0"
       inkscape:export-xdpi="27.359392"
       inkscape:export-ydpi="27.359392" />
    <path
       style="fill:#000000;fill-opacity:1;fill-rule:nonzero;stroke:none;stroke-width:1px;stroke-linecap:butt;stroke-linejoin:miter;stroke-opacity:1"
       id="path3458"
       d="m 613.38744,287.18286 c 5.56318,-7.77572 10.86954,-15.73702 15.88621,-23.87581 3.65652,-5.73652 6.75851,-11.78934 9.68785,-17.92001 0.95403,-1.86159 1.52245,-3.82797 1.89288,-5.87019 0.4144,-5.99653 11.42411,-11.81197 14.63303,-6.1049 1.17879,2.09649 1.59912,4.39659 2.12936,6.71698 1.8489,10.05719 1.21255,20.32532 0.62656,30.46689 -0.87563,13.83716 -1.19793,27.69924 -1.39195,41.55996 -0.27237,13.49074 0.28356,26.99111 -0.54742,40.46447 -0.62742,8.66504 -2.31612,17.20762 -5.05916,25.4444 -3.44462,9.57916 -5.26748,7.75361 -16.93866,14.26859 -1.60938,-1.37899 -1.56416,-3.44702 -1.4743,-5.4012 0.18109,-1.27375 0.55853,-2.50613 0.88552,-3.747 0,0 13.48681,-6.42523 13.48681,-6.42523 l 0,0 c -0.32882,1.1646 -0.61702,2.34022 -0.98662,3.49286 -0.11767,0.90777 -0.021,4.06208 0.0547,2.91839 -4.16724,2.41766 -8.3394,4.82688 -12.50173,7.25299 -0.21874,0.1275 0.46454,-0.20963 0.67049,-0.35689 0.29319,-0.20963 0.57873,-0.43761 0.81785,-0.70729 1.29431,-1.4597 1.95135,-3.34687 2.72236,-5.099 3.08372,-8.12895 4.95237,-16.65477 5.70508,-25.3196 1.00987,-13.47671 0.54171,-26.99878 0.79551,-40.50275 0.1594,-13.84045 0.38577,-27.6824 1.15828,-41.50504 0.48095,-9.93997 1.18413,-20.03074 -0.89629,-29.84863 -0.39628,-1.49238 -0.80657,-3.33231 -1.43806,-4.79047 -0.19163,-0.44246 -0.44381,-0.85807 -0.70804,-1.26141 -0.13266,-0.20251 -0.68329,-0.42081 -0.47707,-0.54762 12.34275,-7.58985 17.21732,-4.70329 12.3409,-7.38899 -0.36422,0.73373 -0.34556,1.47856 -0.53722,2.27365 -0.21748,0.90223 -0.43954,1.43808 -0.80301,2.31342 -0.22172,0.53397 -0.45809,1.06173 -0.68713,1.5926 -3.10488,6.23398 -6.38355,12.38808 -10.12019,18.27148 -4.94967,7.99646 -10.14777,15.83018 -15.32111,23.68251 0,0 -13.60545,5.95284 -13.60545,5.95284 z"
       inkscape:connector-curvature="0"
       inkscape:export-xdpi="27.359392"
       inkscape:export-ydpi="27.359392" />
  </g>
</svg>
