<?xml version="1.0" encoding="UTF-8" standalone="no"?>
<!-- Created with Inkscape (http://www.inkscape.org/) -->

<svg
   xmlns:dc="http://purl.org/dc/elements/1.1/"
   xmlns:cc="http://creativecommons.org/ns#"
   xmlns:rdf="http://www.w3.org/1999/02/22-rdf-syntax-ns#"
   xmlns:svg="http://www.w3.org/2000/svg"
   xmlns="http://www.w3.org/2000/svg"
   xmlns:sodipodi="http://sodipodi.sourceforge.net/DTD/sodipodi-0.dtd"
   xmlns:inkscape="http://www.inkscape.org/namespaces/inkscape"
   width="210mm"
   height="297mm"
   viewBox="0 0 744.09448819 1052.3622047"
   id="svg2"
   version="1.1"
   inkscape:version="0.91 r13725"
   sodipodi:docname="induction.svg">
  <defs
     id="defs4" />
  <sodipodi:namedview
     id="base"
     pagecolor="#ffffff"
     bordercolor="#666666"
     borderopacity="1.0"
     inkscape:pageopacity="0.0"
     inkscape:pageshadow="2"
     inkscape:zoom="1.4"
     inkscape:cx="372.90527"
     inkscape:cy="411.53757"
     inkscape:document-units="px"
     inkscape:current-layer="layer1"
     showgrid="false"
     inkscape:window-width="1855"
     inkscape:window-height="1056"
     inkscape:window-x="65"
     inkscape:window-y="24"
     inkscape:window-maximized="1" />
  <metadata
     id="metadata7">
    <rdf:RDF>
      <cc:Work
         rdf:about="">
        <dc:format>image/svg+xml</dc:format>
        <dc:type
           rdf:resource="http://purl.org/dc/dcmitype/StillImage" />
      </cc:Work>
    </rdf:RDF>
  </metadata>
  <g
     inkscape:label="Layer 1"
     inkscape:groupmode="layer"
     id="layer1">
    <path
       style="fill:#000000;stroke-width:20;stroke-miterlimit:4;stroke-dasharray:none"
       id="path4138"
       d="m 372.99782,495.78824 c -6.03103,10.06548 -12.23438,19.95188 -18.26497,30.01717 -11.20397,19.3147 -22.27739,38.75547 -33.52497,58.02767 -11.49787,19.07324 -22.96398,38.171 -34.14274,57.56224 -7.09083,12.14772 -13.97826,24.499 -20.4618,37.20783 -2.25771,4.53345 -4.34823,9.20457 -6.36721,13.92305 -0.12968,0.8375 -0.77256,1.54311 -0.82727,2.37726 -10.57582,6.72911 -21.15164,13.45823 -31.72746,20.18734 0,0 31.67866,-20.68011 31.67866,-20.68011 l 0,0 c -10.59247,7.11854 -21.18493,14.23708 -31.7774,21.35563 0.11147,-1.57707 -0.0304,-3.07529 0.68682,-4.49856 0.70671,-1.92071 1.5701,-3.5444 2.50895,-5.29209 1.79927,-3.34938 3.52924,-6.7598 5.30454,-10.13048 7.36701,-13.05312 14.90908,-25.93836 22.65036,-38.62132 3.58068,-6.0154 7.1276,-12.06473 10.7244,-18.06389 8.01306,-13.36512 16.3245,-26.42553 24.2085,-39.92204 10.9327,-18.91127 21.73727,-37.94254 32.22326,-57.27795 5.02659,-9.13528 10.42268,-17.99003 14.71487,-27.76114 0,0 32.39346,-18.41061 32.39346,-18.41061 z"
       inkscape:connector-curvature="0" />
    <path
       style="fill:#000000;stroke-width:20;stroke-miterlimit:4;stroke-dasharray:none"
       id="path4142"
       d="m 364.46879,498.06956 c 2.85953,1.65093 5.94837,2.33017 9.02983,2.84072 2.47539,0.66755 3.7754,0.87063 5.15945,3.75868 0.91928,2.0023 0.69236,4.19477 0.56567,6.41182 -0.69566,10.39131 -4.53539,19.88445 -7.85758,29.1997 -5.77839,16.13425 -13.18251,31.11884 -20.34719,46.24067 -7.17939,15.25535 -13.52243,31.14101 -19.99833,46.91 -5.07611,12.5606 -10.40489,24.94311 -15.62759,37.40052 -2.51155,5.96153 -4.73478,12.11583 -7.13648,18.14999 -6.68855,17.37697 -6.86753,8.56886 -32.73328,27.96997 -0.39053,0.17 -0.7508,-0.28488 -1.12832,-0.22363 -0.21638,0.0351 -1.85321,1.65926 -2.12033,1.87054 -11.55006,8.78478 37.94766,-28.86548 28.59733,-21.39123 -10.11723,8.08728 -20.56333,15.45891 -30.85496,23.16595 -0.79613,0.5962 -1.25274,0.73139 -2.14714,0.52294 -0.86316,-0.16421 -1.34128,-1.12928 -1.86886,-1.92606 0,0 30.06432,-24.66482 30.06432,-24.66482 l 0,0 c -0.11583,-0.45498 -0.41087,-0.92365 -0.0284,-1.28646 0.40074,-0.74083 2.11074,-1.97031 1.36871,-1.41289 -59.81248,44.93098 -17.77293,13.25679 2.3093,-1.61025 0.81424,-0.47174 1.56247,-0.83411 2.45852,-0.93761 0.19113,-0.0221 0.392,0.0678 0.57564,-0.005 0.1265,-0.0498 0.45574,-0.60492 0.52853,-0.71936 -9.9636,7.52041 -19.97174,14.94212 -29.8908,22.56121 -0.15888,0.1221 0.37912,0.0529 0.55335,-0.0264 1.19553,-0.54306 1.66105,-2.47156 2.52461,-3.48787 3.00869,-6.23731 5.90185,-12.56771 8.66125,-19.00155 5.69443,-12.64259 11.56506,-25.15598 16.92693,-38.04639 6.51939,-15.83246 12.85914,-31.81711 20.00556,-47.19153 7.03233,-14.81516 14.37176,-29.4654 19.89191,-45.37493 2.16232,-6.52764 2.19683,-6.2912 3.90956,-12.68916 1.15336,-4.30839 2.2699,-8.75761 2.16579,-13.37594 -0.069,-1.27611 -0.26097,-2.63387 -0.0104,-3.88645 -0.10688,0.14234 -2.67196,-0.90988 -3.09743,-0.92264 -3.20485,-0.96586 -6.38088,-2.11033 -9.61915,-2.87327 0,0 29.16998,-25.9498 29.16998,-25.9498 z"
       inkscape:connector-curvature="0" />
    <path
       style="fill:#000000;stroke-width:20;stroke-miterlimit:4;stroke-dasharray:none"
       id="path4144"
       d="m 248.37309,700.86222 c 5.99996,-0.3341 11.9585,-1.45438 17.94295,-2.10019 8.50151,-0.74291 17.02314,-0.93934 25.53767,-1.28541 3.97736,-0.12886 7.95023,-0.41648 11.92564,-0.61179 0.79254,0.11028 0.97437,-0.17994 1.27233,-1.00954 0,0 -28.00864,28.3613 -28.00864,28.3613 l 0,0 c -0.56978,-0.23224 -1.11985,-0.55809 -1.7328,-0.50445 -3.54404,-0.23457 -7.08869,-0.50124 -10.63886,-0.50937 -8.37726,-0.0601 -16.76525,0.19391 -25.10298,1.33167 -6.4535,0.9661 -12.96251,1.93709 -19.2607,4.05256 0,0 28.06539,-27.72478 28.06539,-27.72478 z"
       inkscape:connector-curvature="0" />
    <path
       style="fill:#000000;stroke-width:20;stroke-miterlimit:4;stroke-dasharray:none"
       id="path4146"
       d="m 308.04022,605.69863 c 4.22596,2.38013 8.64628,4.23167 13.07483,5.8802 3.48602,1.32027 6.92065,2.84211 10.51001,3.61913 0.79686,0.17832 1.57972,-0.0527 2.31116,0.49947 0.58521,0.44184 0.98414,1.16347 1.54551,1.64066 0.0913,0.072 0.18255,0.14389 0.27382,0.21584 0,0 -29.98098,24.74699 -29.98098,24.74699 l 0,0 c -0.0891,-0.0961 -0.17818,-0.19236 -0.26728,-0.28854 -0.10967,-0.11574 -0.20782,-0.25294 -0.32901,-0.34738 -0.11969,-0.0933 -0.63631,0.0851 -0.83335,0.0348 -0.40088,-0.1021 -1.25044,-0.47003 -1.62163,-0.6233 -3.29095,-1.48788 -6.52741,-3.17849 -9.86978,-4.4707 -4.58508,-1.97548 -9.2003,-3.96013 -13.98328,-4.95743 0,0 29.16998,-25.94979 29.16998,-25.94979 z"
       inkscape:connector-curvature="0" />
    <path
       style="fill:#000000;stroke-width:20;stroke-miterlimit:4;stroke-dasharray:none"
       id="path4156"
       d="m 420.7971,502.67579 c -1.41601,4.5547 -2.32655,9.33356 -3.31757,14.06311 -1.02794,4.97148 -1.93077,9.98566 -2.96093,14.95582 -1.35629,5.96361 -1.95045,12.15022 -2.50497,18.30759 -0.79833,7.92808 -1.41749,15.88307 -2.13902,23.8235 -0.76524,7.88834 -0.89626,15.84307 -1.27935,23.77014 -0.3233,8.40404 -0.64628,16.80912 -0.93873,25.21546 -0.29711,8.85631 -0.68161,17.70905 -1.13303,26.55446 -0.52719,9.01067 -1.4667,17.97493 -2.43211,26.92165 -0.68505,6.60273 -1.326,13.21989 -2.47429,19.71883 -0.66526,3.65646 -1.42417,7.28368 -1.95237,10.97949 -0.10585,1.30527 -0.36011,2.5676 -0.40446,3.88182 0,0 -32.43632,19.00401 -32.43632,19.00401 l 0,0 c 0.83618,-0.52701 0.88465,-1.9727 1.28203,-2.92737 0.55146,-3.94066 1.55632,-7.71774 2.34058,-11.58453 1.44504,-6.47751 2.6696,-13.05256 3.33141,-19.75054 1.11017,-8.82042 1.99044,-17.69795 2.57585,-26.60355 0.45674,-8.80862 0.89489,-17.61971 1.12198,-26.44469 0.30058,-8.38932 0.55156,-16.77831 0.7754,-25.17143 0.33601,-8.0139 0.61911,-16.03664 1.21912,-24.02643 0.72885,-7.88377 1.3708,-15.77444 2.00109,-23.6727 0.45916,-6.24509 0.73826,-12.53745 1.7863,-18.67991 1.10964,-4.97549 2.08826,-9.99577 3.08398,-15.01167 0.96133,-4.49561 1.89816,-9.02597 2.51944,-13.6202 0,0 31.93597,-19.70286 31.93597,-19.70286 z"
       inkscape:connector-curvature="0" />
    <path
       style="fill:#000000;stroke-width:20;stroke-miterlimit:4;stroke-dasharray:none"
       id="path4158"
       d="m 459.21842,508.29306 c -0.94208,10.49998 -1.00029,21.11813 -1.0729,31.67962 0.041,12.82008 0.0382,25.63441 -0.1484,38.45262 -0.36791,13.78254 -0.6143,27.56833 -0.66143,41.35898 -0.002,11.64898 0.25075,23.29491 0.5257,34.93743 0.16295,7.67003 0.12487,15.34297 0.20676,23.0147 0.0754,4.77952 0.21058,9.55706 0.36653,14.33319 0.29119,1.39371 -0.19212,3.12905 0.30536,4.45887 0.008,5.7e-4 0.0165,0.001 0.0247,0.001 0,0 -31.81522,21.05568 -31.81522,21.05568 l 0,0 c 0.008,-0.0117 0.0165,-0.0221 0.0247,-0.0331 0.38866,-1.55194 0.0886,-3.27435 0.3054,-4.86282 0.15444,-4.93744 0.2895,-9.87617 0.36514,-14.81682 0.08,-7.76123 0.0402,-15.52356 0.19885,-23.28322 0.27007,-11.89416 0.52464,-23.7905 0.58213,-35.69014 0.0373,-13.69242 -0.10639,-27.38544 0.073,-41.07679 0.33017,-12.84943 0.66422,-25.69857 0.49853,-38.55825 -0.07,-10.08513 -0.089,-20.24486 -1.0729,-30.25939 0,0 31.29398,-20.71222 31.29398,-20.71222 z"
       inkscape:connector-curvature="0" />
    <path
       style="fill:#000000;stroke-width:20;stroke-miterlimit:4;stroke-dasharray:none"
       id="path4160"
       d="m 507.12668,497.253 c 0.91166,9.77518 1.9111,19.52832 2.65619,29.32907 1.35025,19.97883 1.55687,40.04419 1.18833,60.08149 -0.35533,18.66374 -1.51779,37.27704 -2.38868,55.90666 -0.59738,12.04637 -0.7776,24.11302 -0.75513,36.18106 0.0107,6.9953 0.22648,13.98622 0.40926,20.97648 0.0824,2.98744 0.23312,5.97093 0.34017,8.95651 1.17743,17.72948 7.00558,-1.81618 -31.60425,22.96458 0,0 30.72182,-23.06795 30.72182,-23.06795 l 0,0 c -10.47777,7.10705 -21.00101,14.10214 -31.43333,21.32116 -0.17175,0.11886 1.31878,0.32304 0.87279,-0.39813 0.0994,-3.12828 0.23482,-6.25507 0.30792,-9.38503 0.16264,-7.231 0.3704,-14.46007 0.53165,-21.69107 0.34141,-12.41057 0.81263,-24.82172 1.80379,-37.17783 1.49447,-18.79177 3.06336,-37.59248 3.68554,-56.47546 0.12355,-8.60062 0.26652,-12.96115 0.0736,-21.53262 -0.27855,-12.3741 -1.13997,-24.74182 -2.50291,-36.99078 -1.23089,-9.11162 -2.39903,-18.31489 -4.7903,-27.06215 0,0 30.88357,-21.93599 30.88357,-21.93599 z"
       inkscape:connector-curvature="0" />
  </g>
</svg>
