<?xml version="1.0" encoding="UTF-8" standalone="no"?>
<!-- Created with Inkscape (http://www.inkscape.org/) -->

<svg
   xmlns:dc="http://purl.org/dc/elements/1.1/"
   xmlns:cc="http://creativecommons.org/ns#"
   xmlns:rdf="http://www.w3.org/1999/02/22-rdf-syntax-ns#"
   xmlns:svg="http://www.w3.org/2000/svg"
   xmlns="http://www.w3.org/2000/svg"
   xmlns:sodipodi="http://sodipodi.sourceforge.net/DTD/sodipodi-0.dtd"
   xmlns:inkscape="http://www.inkscape.org/namespaces/inkscape"
   width="210mm"
   height="297mm"
   viewBox="0 0 744.09448819 1052.3622047"
   id="svg2"
   version="1.1"
   inkscape:version="0.91 r13725"
   sodipodi:docname="synthesis.svg">
  <defs
     id="defs4" />
  <sodipodi:namedview
     id="base"
     pagecolor="#ffffff"
     bordercolor="#666666"
     borderopacity="1.0"
     inkscape:pageopacity="0.0"
     inkscape:pageshadow="2"
     inkscape:zoom="1.4"
     inkscape:cx="384.21738"
     inkscape:cy="731.49727"
     inkscape:document-units="px"
     inkscape:current-layer="layer1"
     showgrid="false"
     inkscape:window-width="1855"
     inkscape:window-height="1056"
     inkscape:window-x="65"
     inkscape:window-y="24"
     inkscape:window-maximized="1" />
  <metadata
     id="metadata7">
    <rdf:RDF>
      <cc:Work
         rdf:about="">
        <dc:format>image/svg+xml</dc:format>
        <dc:type
           rdf:resource="http://purl.org/dc/dcmitype/StillImage" />
        <dc:title></dc:title>
      </cc:Work>
    </rdf:RDF>
  </metadata>
  <g
     inkscape:label="Layer 1"
     inkscape:groupmode="layer"
     id="layer1">
    <path
       style="fill:#ff0000;stroke-width:20;stroke-miterlimit:4;stroke-dasharray:none"
       id="path4182"
       d="m 306.47509,93.796746 c -4.78014,5.74169 -9.67127,11.417514 -13.80756,17.656004 -1.27021,1.91578 -2.42479,3.90575 -3.63719,5.85863 -6.20544,10.70607 -10.64163,22.37967 -13.04443,34.52493 -0.48995,2.47651 -0.80209,4.9849 -1.20314,7.47735 -0.84369,10.68464 -1.50751,21.90376 1.74371,32.29851 0.51181,1.63636 1.24824,3.19381 1.87237,4.79071 0.83481,1.41628 1.54187,2.91608 2.50443,4.24882 4.32833,5.99294 11.05151,9.43216 18.08552,11.21638 2.07397,0.52607 4.20854,0.77495 6.31281,1.16242 12.36187,1.35239 24.47964,-1.56868 35.64109,-6.83328 2.44159,-1.15165 4.77824,-2.51375 7.16736,-3.77062 -6.46837,3.65352 -12.76749,7.6244 -19.40511,10.96058 -2.41083,1.21172 4.50976,-2.96812 6.68358,-4.56652 6.24238,-4.59 12.08853,-9.80251 17.03583,-15.78403 1.50452,-1.81904 2.82411,-3.78343 4.23617,-5.67514 4.61689,-7.05285 7.92451,-14.86229 8.7333,-23.31328 0.46428,-4.85119 0.0898,-6.04902 -0.43759,-10.79911 -1.58934,-8.31805 -5.30524,-16.11495 -10.97019,-22.44173 -1.12757,-1.25929 -2.38241,-2.39856 -3.57361,-3.59784 -4.95451,-4.37921 -10.54435,-8.0351 -16.74378,-10.39634 -3.71691,-1.4157 -5.17079,-1.6002 -9.03706,-2.47393 -5.94997,-1.0845 -12.00155,-1.56441 -18.02927,-0.8765 -4.00752,0.45736 -5.23418,0.88802 -9.15887,1.84459 -3.1478,1.0552 -5.48339,1.7333 -8.48296,3.1414 -1.23867,0.58148 -4.80059,2.62842 -3.61454,1.94598 64.25611,-36.634154 28.96874,-17.33323 22.49536,-12.52906 -0.90246,0.66975 -1.73605,1.42763 -2.60408,2.14145 -2.91142,2.71165 -5.44491,5.8413 -7.16958,9.44511 -0.91897,1.92025 -1.03812,2.57148 -1.64861,4.57195 -0.96097,3.83358 -0.76802,7.437 0.33169,11.18803 0.56597,1.49375 0.85478,3.09003 1.55405,4.53057 0,0 -30.85144,17.22392 -30.85144,17.22392 l 0,0 c -0.57602,-1.69073 -0.87742,-3.43254 -1.29539,-5.1678 -1.02015,-4.35907 -1.51331,-8.57597 -0.67322,-13.03849 0.55671,-2.26944 0.66583,-3.04602 1.5475,-5.25251 1.60695,-4.02158 4.07056,-7.58989 6.99056,-10.76871 0.85269,-0.83013 1.66233,-1.70693 2.55808,-2.49041 0.93041,-0.81379 1.84977,-1.66423 2.9129,-2.29482 10.56379,-6.26583 21.2248,-12.36852 31.93741,-18.376374 3.76793,-2.11313 8.15098,-3.00857 12.24545,-4.2047 4.13673,-0.80136 5.36573,-1.17224 9.57435,-1.45888 6.22263,-0.42381 12.43341,0.32097 18.49388,1.71974 4.13872,1.12222 5.41226,1.30775 9.36421,3.02007 6.37913,2.763964 12.01936,6.892174 17.18408,11.496604 3.254,3.32027 4.43417,4.25275 7.11299,8.06327 4.19131,5.96196 6.93286,12.82337 8.36709,19.94353 0.60117,5.28275 0.97244,6.30832 0.53452,11.70139 -0.73046,8.99591 -3.95743,17.36222 -8.70912,24.98393 -4.12081,5.79557 -4.40153,6.61686 -9.37508,11.85134 -14.6414,15.40953 -33.98466,24.87146 -52.30738,35.10592 -6.37803,3.10889 -8.24935,4.29358 -14.98809,6.50169 -9.64286,3.15972 -19.68116,4.34867 -29.76208,2.95998 -2.25544,-0.46168 -4.54669,-0.77402 -6.76634,-1.38505 -7.73,-2.12796 -15.17968,-6.1649 -19.83077,-12.87398 -1.03658,-1.49523 -1.78068,-3.17334 -2.67102,-4.76001 -0.63977,-1.75971 -1.41036,-3.47723 -1.9193,-5.27913 -1.14232,-4.04437 -1.56026,-7.96442 -1.82063,-12.14869 -0.4503,-7.23663 -0.173,-14.5028 0.53368,-21.71253 0.35861,-2.55394 0.6288,-5.12187 1.07584,-7.66182 2.16433,-12.29735 6.4475,-24.17909 12.22204,-35.22674 3.0269,-5.45031 3.19915,-5.98045 6.47576,-11.06434 3.51041,-5.44667 1.98114,-2.83928 5.26061,-7.5633 1.20366,-1.73384 1.43909,-2.17565 2.3732,-3.74776 0,0 32.37601,-14.041374 32.37601,-14.041374 z"
       inkscape:connector-curvature="0"
       inkscape:export-xdpi="8.8785505"
       inkscape:export-ydpi="8.8785505" />
    <path
       style="fill:#ffff00;stroke-width:20;stroke-miterlimit:4;stroke-dasharray:none"
       id="path4184"
       d="m 500.71764,254.36809 c -2.82799,0.38918 -5.64472,1.49193 -8.14931,2.84861 -1.14201,0.61859 -4.46347,2.6573 -3.33117,2.02111 8.14302,-4.57526 16.24331,-9.22614 24.36497,-13.83921 -8.71484,6.00179 -16.02468,13.79501 -22.48343,22.12664 -1.62972,2.1023 -3.16708,4.27461 -4.75063,6.41192 -7.65111,11.25239 -14.3134,23.33283 -18.39834,36.36749 -0.72611,2.31695 -1.25977,4.68987 -1.88965,7.03481 -1.85323,8.36783 -2.64143,17.06499 -0.37961,25.44875 1.33117,4.93417 2.23577,5.98861 4.64139,10.42292 1.16185,1.53024 2.20466,3.15864 3.48555,4.59071 5.8211,6.50816 13.74976,10.92806 21.87726,13.87252 2.30629,0.83553 4.69045,1.43805 7.03568,2.15707 12.66578,3.10917 25.84337,3.18089 38.64,0.76685 2.55018,-0.48108 5.05584,-1.17384 7.58376,-1.76077 6.33388,-2.04413 7.9018,-2.33128 13.88263,-5.10722 2.09777,-0.97366 8.15845,-4.35496 6.16687,-3.17927 -47.30926,27.92799 -22.66667,13.2952 -16.49729,8.90425 1.63054,-1.16052 3.17888,-2.43242 4.76832,-3.64863 6.1278,-5.15049 11.43515,-11.27699 15.16319,-18.39514 2.38561,-4.55498 2.54757,-5.79038 4.09685,-10.65222 1.60231,-6.84753 1.25552,-13.82571 -1.05044,-20.47679 -1.45571,-4.19868 -2.37814,-5.37992 -4.59015,-9.22881 -5.77875,-8.43397 -13.97947,-14.71708 -22.65048,-19.96146 -1.92312,-1.16313 -3.91557,-2.20756 -5.87336,-3.31134 -7.51141,-3.88556 -15.32785,-7.22351 -23.57226,-9.19966 -4.75807,-1.14048 -6.71493,-1.30398 -11.50978,-1.98191 -6.85638,-0.57944 -13.76905,-0.40639 -20.56684,0.67876 -3.67048,0.58593 -4.55049,0.8719 -8.04357,1.72633 -2.84421,0.75495 -5.71982,1.63455 -8.30842,3.07296 -0.63482,0.35275 -2.44971,1.55908 -1.81825,1.20034 27.06279,-15.37485 36.8462,-22.21949 26.63859,-15.13588 -1.73382,1.48618 -3.17507,3.27723 -3.96342,5.43118 0,0 -31.84089,15.0318 -31.84089,15.0318 l 0,0 c 0.72843,-2.6895 1.77927,-5.20976 3.67395,-7.31527 9.07015,-10.4882 1.22016,-1.72066 32.37248,-19.63636 0.59168,-0.34028 1.25119,-0.54783 1.89127,-0.78484 2.62244,-0.97106 5.35355,-1.61004 8.09551,-2.1343 9.39,-1.55298 18.93657,-2.19074 28.39731,-0.75843 4.78845,0.8908 6.75494,1.15389 11.50977,2.4675 8.30446,2.29428 16.1404,5.8711 23.67543,10.01396 4.43418,2.52813 7.60161,4.216 11.82308,7.09294 6.94693,4.73436 13.35487,10.34925 18.27685,17.20159 0.95568,1.61609 2.01587,3.17477 2.86703,4.84826 3.36553,6.61704 5.10964,14.04047 4.59724,21.46988 -0.13527,1.96122 -0.53656,3.89498 -0.80484,5.84248 -0.52962,1.92817 -0.93981,3.8932 -1.58886,5.78453 -3.34354,9.74314 -9.5121,18.18362 -17.00892,25.14038 -1.5997,1.29793 -3.15629,2.65086 -4.7991,3.89378 -11.11396,8.40865 -29.8388,17.98622 -38.15895,22.6233 -6.25048,3.4836 -13.23688,5.51463 -20.09832,7.35417 -2.56411,0.50951 -5.11023,1.11991 -7.69234,1.52855 -13.18249,2.08624 -26.68871,1.60847 -39.61798,-1.74267 -5.88004,-1.88746 -8.67527,-2.55577 -14.23985,-5.24663 -6.09186,-2.94583 -11.9148,-6.91571 -16.45475,-11.97817 -1.39513,-1.5557 -2.5229,-3.33188 -3.78435,-4.99781 -2.54469,-4.77785 -3.57932,-6.06514 -4.98856,-11.36537 -2.37145,-8.91917 -1.6225,-18.16081 0.38999,-27.05591 0.6737,-2.45326 1.25696,-4.93316 2.0211,-7.35977 4.1548,-13.19412 10.67879,-25.48787 18.02596,-37.15511 2.93101,-4.25061 5.52317,-8.16115 8.7127,-12.21318 4.83148,-6.13798 10.25959,-11.87992 16.4102,-16.70724 10.75428,-6.37135 21.47185,-12.80507 32.26283,-19.11407 4.2613,-2.49138 8.92782,-4.30839 13.84082,-4.91664 0,0 -28.28447,20.98374 -28.28447,20.98374 z"
       inkscape:connector-curvature="0"
       inkscape:export-xdpi="8.8785505"
       inkscape:export-ydpi="8.8785505" />
    <path
       style="fill:#00ff00;stroke-width:20;stroke-miterlimit:4;stroke-dasharray:none"
       id="path4186"
       d="m 133.26997,269.7616 c -4.54441,-2.30222 -8.36269,-0.87013 -12.86081,0.72794 -1.30961,0.59504 -2.65725,1.11265 -3.92882,1.78514 -1.43842,0.76072 -5.61251,3.29459 -4.18825,2.50766 7.78111,-4.29918 15.29333,-9.10274 23.26092,-13.04561 1.94519,-0.96261 -3.46309,2.62325 -5.09384,4.0554 -4.49989,3.9519 -5.85691,5.78381 -9.86948,10.31916 -8.49416,10.68492 -14.76417,22.95279 -18.65741,36.02835 -0.74931,2.51655 -1.31398,5.08443 -1.97097,7.62665 -2.271125,11.33511 -3.412815,23.15144 -1.076722,34.58653 0.391852,1.9181 1.001965,3.78506 1.502952,5.67759 2.23501,6.83528 5.67094,13.09769 11.20494,17.80909 3.88165,3.30467 4.92646,3.53709 9.4211,5.90671 9.39776,4.16254 19.60364,5.58373 29.82132,4.78122 2.18216,-0.17139 4.34263,-0.55335 6.51395,-0.83002 2.17545,-0.4256 4.36793,-0.77189 6.52635,-1.2768 4.36738,-1.02163 8.38609,-2.26033 12.51645,-4.01815 1.98928,-0.84661 7.69344,-3.93473 5.83902,-2.82338 -31.82254,19.07108 -26.72513,15.78228 -16.49685,8.71457 6.71418,-5.30671 12.20748,-11.92928 15.94283,-19.6477 2.26552,-4.68128 2.43986,-6.06609 3.8596,-11.00021 2.04906,-9.2892 0.75288,-18.18418 -2.54847,-27.01056 -0.66329,-1.77334 -1.4689,-3.49014 -2.20334,-5.23522 -3.17113,-6.88255 -6.99086,-13.47943 -11.617,-19.4908 -2.90507,-3.77496 -3.7885,-4.58419 -6.98736,-8.06154 -4.3844,-4.28304 -9.1737,-8.17175 -14.59202,-11.0752 -2.70253,-1.44817 -4.12486,-1.9634 -6.91246,-3.12268 -4.30784,-1.63348 -8.83286,-2.47878 -13.42758,-2.57761 -0.9018,0.0141 -1.81022,0.0322 -2.70746,0.13707 -0.16903,0.0197 -0.34965,0.0111 -0.50364,0.0836 -0.0699,0.0329 -0.17109,0.25059 -0.10902,0.20457 9.60735,-7.12392 19.17516,-14.301 28.76274,-21.4515 0.15845,-0.0176 0.3169,-0.0353 0.47536,-0.0529 0,0 -28.22256,21.39722 -28.22256,21.39722 l 0,0 c -0.17772,0.0519 -0.35544,0.10374 -0.53316,0.15561 9.37425,-7.10345 18.7031,-14.26723 28.12276,-21.31036 0.0605,-0.0452 0.0716,0.148 0.14124,0.17725 0.13741,0.0577 0.29395,0.05 0.44193,0.0676 0.87534,0.10434 1.75367,0.18596 2.62037,0.35684 4.47328,0.88679 8.82293,2.2874 12.94551,4.25307 2.74253,1.38256 4.17994,2.0368 6.83925,3.68103 5.41111,3.34565 10.23201,7.53839 14.57056,12.17713 2.95684,3.36992 4.3627,4.83369 7.04948,8.46345 4.64375,6.2736 8.51493,13.10345 11.85868,20.14448 0.78779,1.81504 1.64842,3.60017 2.36336,5.44512 3.64726,9.41206 5.29138,18.74471 3.33035,28.75358 -0.50908,1.96462 -0.90635,3.96167 -1.52725,5.89387 -3.3589,10.45267 -9.58953,19.60498 -17.75916,26.88716 -14.63609,11.29412 -6.81348,5.63609 -38.21179,22.91947 -2.98334,1.64219 -9.0446,3.70148 -12.28089,4.60991 -5.28136,1.48249 -7.72331,1.73845 -13.14354,2.64474 -2.23914,0.20609 -4.47155,0.50739 -6.71742,0.61828 -10.73115,0.52988 -21.39365,-1.29652 -31.132354,-5.90431 -4.454218,-2.53438 -6.155738,-3.20871 -10.046472,-6.59491 -5.946506,-5.1754 -9.592924,-11.97734 -11.810909,-19.4619 -1.419602,-5.73408 -1.870661,-6.60186 -2.37386,-12.59099 -0.83243,-9.90769 0.303967,-19.87685 2.221892,-29.59105 0.663022,-2.62448 1.23773,-5.27287 1.989065,-7.87345 3.813647,-13.20007 9.752938,-25.69024 17.699127,-36.90469 3.918168,-4.87494 4.787708,-6.24551 9.158371,-10.58691 1.46766,-1.45783 2.83082,-3.08086 4.57478,-4.19347 10.63659,-6.78587 21.60311,-13.04115 32.47497,-19.44333 1.50431,-0.88586 3.05987,-1.68825 4.64644,-2.41661 1.44159,-0.6618 2.95062,-1.16553 4.42593,-1.7483 1.34599,-0.36258 2.6687,-0.8265 4.03798,-1.08774 4.00429,-0.76396 7.95307,-0.0421 11.75804,1.23365 0,0 -29.40675,19.59714 -29.40675,19.59714 z"
       inkscape:connector-curvature="0"
       inkscape:export-xdpi="8.8785505"
       inkscape:export-ydpi="8.8785505" />
    <path
       style="fill:#0000ff;stroke-width:20;stroke-miterlimit:4;stroke-dasharray:none"
       id="path4188"
       d="m 204.63665,491.59485 c -5.84074,4.09632 -10.42531,9.97946 -13.6078,16.3392 -0.78077,1.56027 -1.37589,3.20673 -2.06383,4.81009 -2.1924,6.35916 -2.64319,12.48884 -0.83336,19.0053 1.20566,4.34111 2.04846,5.54917 4.05946,9.61731 1.06057,1.61935 2.03628,3.29758 3.18172,4.85806 5.07173,6.90949 11.80951,13.24705 18.76734,18.22357 1.89868,1.35802 3.91776,2.53928 5.87664,3.80891 8.10422,4.60495 16.51368,6.84908 25.85432,5.68178 5.66064,-0.7074 7.13173,-1.57595 12.42373,-3.50098 1.87381,-0.96117 7.44025,-3.94511 5.62144,-2.88351 -46.14047,26.93117 -24.30682,14.486 -17.5683,9.32295 2.60165,-1.99338 5.3059,-4.49481 7.51432,-6.92704 1.04993,-1.15633 1.98969,-2.4081 2.98454,-3.61214 3.59597,-4.88369 6.32454,-10.41647 7.24495,-16.46249 0.62228,-4.08769 0.32167,-4.94968 0.007,-9.04026 -1.46948,-8.76331 -5.5001,-16.81103 -11.01758,-23.73387 -1.32716,-1.6652 -2.8049,-3.20462 -4.20735,-4.80693 -8.28663,-8.42176 -18.49583,-14.51125 -29.71161,-18.17226 -2.24192,-0.73179 -4.54506,-1.26069 -6.81758,-1.89103 -8.44955,-1.82609 -17.13832,-2.58093 -25.74554,-1.52209 -4.9253,0.6059 -6.264,1.12341 -10.98335,2.3653 -3.49186,1.20295 -5.61935,1.77923 -8.86114,3.47608 -1.19808,0.62711 -4.63653,2.78427 -3.45667,2.12353 57.74685,-32.33916 30.0954,-18.96519 23.28072,-12.61229 -0.72202,0.67309 -1.33752,1.45206 -2.00629,2.1781 -3.5062,4.93234 -4.21929,10.05778 -3.82559,15.94802 0.47766,2.79892 1.2244,5.71052 2.68888,8.17926 0.42253,0.61327 0.66532,1.32281 0.94446,2.00697 0,0 -30.95448,17.08501 -30.95448,17.08501 l 0,0 c -0.15599,-0.59594 -0.33367,-1.17778 -0.63096,-1.72327 -1.26842,-3.11364 -1.89857,-6.52261 -2.39889,-9.8273 -0.42731,-6.39102 0.0131,-12.52473 3.01095,-18.32556 0.62557,-0.9173 1.16499,-1.8997 1.87671,-2.7519 0.73851,-0.88429 1.47522,-1.82632 2.45415,-2.43383 10.39739,-6.45254 21.00858,-12.55536 31.59331,-18.69577 3.75724,-2.17965 8.04947,-3.26767 12.20333,-4.36949 4.75112,-0.93846 6.0984,-1.35851 11.02368,-1.68329 8.71672,-0.5748 17.41182,0.58626 25.84737,2.76018 2.31555,0.71355 4.6646,1.32629 6.94664,2.14065 9.25812,3.3038 18.13263,8.27054 25.73466,14.51477 1.78526,1.4664 3.40054,3.12829 5.10081,4.69244 1.51666,1.64653 3.1034,3.23115 4.54997,4.93958 6.10083,7.20517 10.676,15.5971 12.58425,24.88536 0.51745,4.36165 0.88704,5.48576 0.47129,9.87942 -0.61221,6.46997 -3.11713,12.54083 -6.67545,17.924 -2.8826,3.79972 -3.11933,4.38391 -6.57211,7.80195 -2.17003,2.14818 -6.31092,5.83807 -8.90473,7.39474 -29.94014,17.96848 -22.00173,14.27112 -38.62905,21.45878 -5.45973,1.54405 -7.10932,2.33721 -12.86679,2.62864 -9.56596,0.48419 -18.63284,-2.39024 -26.72957,-7.35471 -2.00948,-1.33774 -4.06631,-2.60695 -6.02844,-4.01322 -9.10439,-6.52513 -17.20443,-14.47306 -23.41043,-23.82142 -2.33918,-4.35375 -3.23335,-5.51865 -4.71643,-10.19948 -2.28885,-7.22396 -2.06432,-13.61382 0.0941,-20.83368 0.62747,-1.70766 1.16933,-3.44925 1.88241,-5.12297 2.62963,-6.17214 6.47361,-11.74886 10.81815,-16.82741 0,0 32.58156,-12.90176 32.58156,-12.90176 z"
       inkscape:connector-curvature="0"
       inkscape:export-xdpi="8.8785505"
       inkscape:export-ydpi="8.8785505" />
    <path
       style="fill:#ff00ff;stroke-width:20;stroke-miterlimit:4;stroke-dasharray:none"
       id="path4190"
       d="m 459.68091,450.46045 c -4.539,1.5501 -9.00419,3.39145 -13.23644,5.65848 -1.73213,0.92782 -3.41417,1.94628 -5.12125,2.91941 7.05271,-4.00189 13.93453,-8.32121 21.15814,-12.00568 2.44868,-1.24897 -4.58972,3.03187 -6.7913,4.67776 -7.54124,5.63781 -14.22566,12.17188 -20.17208,19.46888 -2.14758,2.63535 -4.10431,5.42064 -6.15647,8.13096 -7.55285,11.08247 -13.82768,23.1844 -17.08101,36.26896 -1.98653,7.98963 -1.70162,9.58331 -2.14754,17.65522 0.23906,2.71719 0.26269,5.46202 0.71717,8.15158 1.32689,7.85227 4.6385,15.21793 10.05306,21.11293 5.09569,5.54784 7.57857,6.45817 13.97136,10.40509 2.90748,1.15201 5.73383,2.53473 8.72244,3.45604 12.3969,3.82165 25.81785,3.59552 38.46971,1.2727 2.9312,-0.53815 5.80133,-1.36776 8.70199,-2.05164 6.83134,-2.3627 8.6268,-2.70199 14.97062,-5.96982 2.20351,-1.13507 8.62056,-4.89567 6.43589,-3.72476 -7.01856,3.76173 -13.66457,8.26127 -20.93996,11.4985 -2.19107,0.97493 3.77008,-2.97631 5.50592,-4.63104 1.68289,-1.60424 3.15323,-3.4176 4.72984,-5.1264 5.28504,-6.70244 9.29165,-14.46165 10.25645,-23.05178 0.56719,-5.05006 0.0404,-6.37879 -0.69892,-11.34416 -2.01989,-8.10991 -6.34856,-15.07688 -12.39126,-20.81503 -4.29503,-4.07856 -6.25306,-5.12756 -11.13675,-8.46539 -8.14388,-4.86793 -16.80867,-8.93061 -25.97937,-11.44635 -5.5725,-1.52867 -7.77729,-1.74328 -13.41743,-2.67116 -6.84057,-0.9746 -13.77946,-1.26107 -20.66924,-0.68138 -1.98389,0.16692 -4.24395,0.52974 -6.22844,0.82399 -1.74604,0.47293 -3.6232,0.51618 -5.36352,1.01439 -0.59339,0.16987 -1.09598,0.49143 -1.62228,0.79285 9.9663,-5.67205 19.9326,-11.34411 29.8989,-17.01616 -0.61247,-0.36869 -0.32639,-0.32256 -0.80816,-0.32035 0,0 -31.78283,15.67368 -31.78283,15.67368 l 0,0 c -0.21482,-1.37006 -0.1226,-0.62995 -0.25345,-2.2231 27.07938,-15.5836 20.67568,-17.28147 37.33763,-18.25744 8.58255,-0.43087 17.16624,0.29393 25.60118,1.94917 5.30514,1.10624 8.18393,1.59003 13.43339,3.17438 9.34053,2.8191 18.15526,7.12587 26.45483,12.21932 2.00766,1.4049 4.07888,2.72307 6.02297,4.21469 5.58727,4.28686 10.84232,9.25603 14.54622,15.30702 2.75561,4.5018 3.18895,6.67164 4.86777,11.6123 0.98458,5.54862 1.56654,6.71499 1.07114,12.39633 -0.57626,6.60859 -2.85499,13.16718 -6.10868,18.92066 -1.16225,2.05519 -2.60013,3.94181 -3.90019,5.91271 -2.59093,3.07066 -6.58625,8.26539 -10.03753,10.49926 -10.73841,6.95051 -21.85484,13.30064 -32.87975,19.78711 -6.63032,3.90092 -13.84523,6.62087 -21.30093,8.45423 -2.85956,0.53477 -5.69748,1.20221 -8.57869,1.6043 -13.03421,1.819 -26.64331,1.55559 -39.24178,-2.56617 -3.1534,-1.03168 -6.14501,-2.5044 -9.21752,-3.7566 -6.53788,-4.07249 -9.70693,-5.43974 -15.00261,-11.10714 -5.89033,-6.3038 -9.52257,-14.16728 -10.85916,-22.65031 -0.45044,-2.85879 -0.43425,-5.77181 -0.65138,-8.65771 0.17218,-3.0491 0.14272,-6.1163 0.51654,-9.14729 1.6166,-13.10762 6.8675,-26.30054 13.23818,-37.78335 1.67696,-3.02261 3.58191,-5.91299 5.37286,-8.86948 1.9493,-2.7454 3.80227,-5.5618 5.84791,-8.23618 3.55541,-4.64817 8.30562,-10.09706 12.54326,-14.16928 13.26657,-12.7487 30.27768,-20.80763 45.97269,-29.90452 6.87505,-3.80604 13.87614,-7.50297 21.37131,-9.95224 0,0 -28.01345,21.56901 -28.01345,21.56901 z"
       inkscape:connector-curvature="0"
       inkscape:export-xdpi="8.8785505"
       inkscape:export-ydpi="8.8785505" />
    <path
       style="fill:#ff0000;stroke-width:20;stroke-miterlimit:4;stroke-dasharray:none"
       id="path4192"
       d="m 335.69485,224.35196 c -0.14973,6.59643 -0.22433,13.19492 -0.41023,19.79074 -0.50342,11.29464 -1.88836,22.51949 -2.67988,33.79472 -0.3016,6.43401 -0.70069,12.89078 -0.41089,19.33427 0.11177,2.48524 0.30591,3.96327 0.56709,6.38203 0.46287,2.81905 0.71959,5.69736 1.3973,8.47833 0.31548,1.16886 0.11508,0.4638 0.63126,2.10641 0,0 -33.05071,13.18783 -33.05071,13.18783 l 0,0 c 0.85585,1.22031 0.35543,1.27504 1.0774,1.0583 0.0834,-3.07423 -0.18595,-6.14918 -0.20959,-9.22252 -0.20991,-8.96158 0.36251,-17.89359 1.03292,-26.8288 0.82692,-11.09349 2.1685,-22.16594 2.17283,-33.3031 -0.0813,-6.16768 -0.21888,-12.39583 -1.33632,-18.47748 0,0 31.21882,-16.30073 31.21882,-16.30073 z"
       inkscape:connector-curvature="0"
       inkscape:export-xdpi="8.8785505"
       inkscape:export-ydpi="8.8785505" />
    <path
       style="fill:#ff0000;stroke-width:20;stroke-miterlimit:4;stroke-dasharray:none"
       id="path4194"
       d="m 294.99333,271.92807 c 1.35327,6.0796 3.70222,11.83848 6.27474,17.48623 2.97272,6.35986 7.05846,12.07725 11.13035,17.76127 2.22026,3.13628 4.54281,6.22225 7.15914,9.0422 0.10342,0.0659 1.08976,1.69269 1.62046,1.21795 1.21956,-1.09096 -0.95072,-0.24047 1.18506,-1.22292 0.537,-0.24702 1.12086,-0.37578 1.68128,-0.56367 0.74988,-0.30104 1.51058,-0.57639 2.24963,-0.90311 3.23461,-1.42995 6.43861,-3.05503 9.54903,-4.73332 1.3303,-0.7178 5.26576,-2.97158 3.95368,-2.22099 -8.01477,4.58497 -16.04125,9.14946 -24.06188,13.72419 7.82094,-4.95623 14.56642,-11.2519 20.80277,-18.04071 2.90739,-3.26326 5.64657,-6.67311 8.02866,-10.33861 0.3554,-0.48866 0.60566,-1.03141 0.83774,-1.58454 0,0 31.99578,-15.15986 31.99578,-15.15986 l 0,0 c -0.19894,0.87917 -0.44489,1.74261 -0.81921,2.56708 -2.46182,4.31942 -6.08716,7.87152 -9.2961,11.62196 -6.37075,6.97438 -13.07009,13.63936 -20.87865,19.02573 -10.7673,6.30455 -21.51303,12.6461 -32.30191,18.91365 -5.54353,3.22038 -11.35511,6.11583 -17.4045,8.24647 -1.30338,0.35916 -2.47188,0.9124 -3.85102,0.54704 -1.54831,-0.41016 -2.49428,-1.90698 -3.29839,-3.1464 -2.24408,-3.20882 -4.54578,-6.38498 -6.51422,-9.77574 -3.79684,-6.05936 -7.69991,-12.06789 -10.85642,-18.49893 -2.74573,-5.59924 -5.0991,-11.37466 -7.91772,-16.93129 0,0 30.7317,-17.03368 30.7317,-17.03368 z"
       inkscape:connector-curvature="0"
       inkscape:export-xdpi="8.8785505"
       inkscape:export-ydpi="8.8785505" />
    <path
       style="fill:#00ff00;stroke-width:20;stroke-miterlimit:4;stroke-dasharray:none"
       id="path4196"
       d="m 229.58475,338.89656 c 5.77437,1.20675 11.67713,1.58298 17.556,1.88296 7.68816,0.1743 15.36951,0.70189 23.00177,1.64075 4.41031,0.5366 8.83899,0.96936 13.28267,1.06945 0.85327,0.11635 1.2182,-0.0246 1.69775,-0.66285 0,0 -28.20503,21.52382 -28.20503,21.52382 l 0,0 c -0.66075,-0.21199 -1.31113,-0.46707 -2.01114,-0.51959 -4.09765,-0.66158 -8.19164,-1.3524 -12.30495,-1.91067 -7.4575,-0.91291 -14.95138,-1.48074 -22.46151,-1.72219 -6.48504,-0.29548 -12.98553,-0.49787 -19.44481,-1.17148 0,0 28.88925,-20.1302 28.88925,-20.1302 z"
       inkscape:connector-curvature="0"
       inkscape:export-xdpi="8.8785505"
       inkscape:export-ydpi="8.8785505" />
    <path
       style="fill:#00ff00;stroke-width:20;stroke-miterlimit:4;stroke-dasharray:none"
       id="path4198"
       d="m 272.09653,300.03352 c 1.65296,4.00049 4.38178,7.44722 6.97188,10.87398 4.33298,5.55976 8.33287,11.3657 12.48263,17.0605 2.95575,4.03247 6.35195,7.69586 9.83713,11.26739 1.7213,1.9928 3.86111,3.5808 5.3053,5.79789 0.6516,1.19952 1.13863,2.87804 0.35503,4.14886 -0.18324,0.29718 -0.44875,0.53498 -0.67313,0.80247 -3.56201,3.48736 -6.33455,7.72157 -9.35954,11.6708 -5.47778,7.20794 -11.38672,14.07161 -17.09134,21.09854 -3.09829,3.83037 -6.10454,7.74447 -9.5373,11.28562 -8.739,9.83328 -11.16849,7.84631 -32.0919,19.46395 -0.62688,0.34807 -2.17784,-1.6605 -2.3845,-1.93336 -0.1427,-0.2378 -0.2854,-0.47561 -0.42811,-0.71341 0,0 30.76697,-17.78816 30.76697,-17.78816 l 0,0 c -0.0405,-0.0633 -0.081,-0.12655 -0.12157,-0.18983 -0.24603,-0.47786 -0.34706,-0.50855 -0.35073,-0.99021 -0.001,-0.17033 0.19094,-0.59349 0.0429,-0.50921 -56.88107,32.38478 -36.94531,22.99058 -27.63037,16.01808 1.39727,-1.38919 2.92079,-2.63526 4.3109,-4.03165 2.38673,-2.39753 4.58296,-4.98702 6.74792,-7.58211 5.82816,-6.79486 11.70266,-13.58861 16.98723,-20.8169 2.62043,-3.7866 5.1958,-7.59414 7.65022,-11.48946 0.45109,-0.37509 0.57064,-0.61039 1.13722,-0.67591 0.1437,-0.0166 0.28761,0.0643 0.43133,0.0479 0.0941,-0.0108 0.15992,-0.13111 0.25455,-0.12646 0.12712,0.006 0.22716,0.19465 0.34846,0.1561 0.0854,-0.0271 0.004,-0.17924 0.006,-0.26886 -0.23496,-0.73341 -0.76406,-1.27297 -1.25173,-1.85918 -0.98689,-1.18632 -1.96508,-2.37903 -2.9433,-3.57264 -3.38646,-3.81595 -6.56931,-7.81221 -9.44304,-12.03091 -3.97087,-5.7536 -7.74829,-11.66498 -12.49409,-16.83412 -2.94686,-3.51727 -5.89853,-7.03157 -8.48786,-10.82669 0,0 30.65239,-17.45299 30.65239,-17.45299 z"
       inkscape:connector-curvature="0"
       inkscape:export-xdpi="8.8785505"
       inkscape:export-ydpi="8.8785505" />
    <path
       style="fill:#ffff00;stroke-width:20;stroke-miterlimit:4;stroke-dasharray:none"
       id="path4200"
       d="m 366.36203,334.45089 c 8.08489,3.27678 16.94259,3.64074 25.54893,3.90148 12.39612,0.17264 24.78015,-0.51512 37.17286,-0.72686 6.2998,-0.27431 12.66283,0.57503 18.93442,-0.23043 0.92257,-0.7884 0.58333,-0.33759 1.07599,-1.30655 0,0 -27.53341,22.17593 -27.53341,22.17593 l 0,0 c -1.09288,-0.12873 -0.50185,-0.0476 -1.77132,-0.25573 -5.66601,-0.54521 -11.32692,-1.21839 -17.03008,-1.23436 -12.32518,-0.0753 -24.6367,0.52105 -36.96128,0.42133 -9.56822,-0.32861 -19.18581,-0.86453 -28.51014,-3.21063 0,0 29.07403,-19.53418 29.07403,-19.53418 z"
       inkscape:connector-curvature="0"
       inkscape:export-xdpi="8.8785505"
       inkscape:export-ydpi="8.8785505" />
    <path
       style="fill:#ffff00;stroke-width:20;stroke-miterlimit:4;stroke-dasharray:none"
       id="path4202"
       d="m 411.86729,305.70344 c -4.33586,4.05736 -8.50117,8.2948 -12.73993,12.45393 -6.00997,5.82271 -12.5245,11.06935 -18.52492,16.90377 -3.7977,3.9161 -7.44738,7.99048 -10.79912,12.297 -0.78132,1.28671 -2.10198,2.19852 -2.92864,3.43338 -1.258,0.33325 1.85301,3.98766 2.04818,4.24839 4.53576,5.26155 9.59608,10.08252 14.77451,14.70811 5.14685,4.49079 10.58582,8.62063 16.06843,12.68769 2.60416,1.84437 5.02203,3.9438 7.64214,5.76195 0.20271,0.16195 0.40901,0.3195 0.60814,0.48584 0.1434,0.11979 0.24617,0.3015 0.41911,0.37225 0.23681,0.0969 0.0449,-0.87066 -0.1788,-0.74647 -30.18021,16.75594 -35.29856,28.43046 -30.44997,17.47105 0,0 31.70541,-16.00271 31.70541,-16.00271 l 0,0 c 1.5417,12.28617 0.30691,1.23412 -30.56453,18.83287 -0.18808,0.10721 -1.02001,-1.80896 -1.34428,-1.73918 -2.22829,-2.11715 -4.45093,-4.24173 -6.75919,-6.27246 -5.14284,-4.45842 -10.46245,-8.71056 -15.56896,-13.21257 -5.36132,-4.78927 -10.53132,-9.78938 -15.93932,-14.52801 -1.96862,-2.04588 -4.0412,-4.09501 -4.52493,-7.0145 0.0512,-0.28858 0.20962,-1.22382 0.28706,-1.45801 0.46376,-1.40264 1.74932,-2.44294 2.70046,-3.49931 4.08201,-4.3024 7.89004,-8.87178 12.0507,-13.10561 2.82235,-2.84131 3.20074,-3.28611 6.16691,-6.01284 3.95173,-3.63274 8.21569,-6.9155 11.99521,-10.73597 3.88397,-3.89857 7.8533,-7.72422 11.44096,-11.9017 0,0 32.41537,-13.42689 32.41537,-13.42689 z"
       inkscape:connector-curvature="0"
       inkscape:export-xdpi="8.8785505"
       inkscape:export-ydpi="8.8785505" />
    <path
       style="fill:#0000ff;stroke-width:20;stroke-miterlimit:4;stroke-dasharray:none"
       id="path4204"
       d="m 244.91542,479.14194 c 3.78305,-6.64437 7.42494,-13.36527 10.95265,-20.14826 4.60943,-9.27918 8.92164,-18.70057 13.49376,-27.99816 2.51391,-4.89347 4.82091,-9.88906 7.12033,-14.8857 0.65615,-0.91293 0.56793,-2.23462 1.16995,-3.16077 0.18635,-0.28669 0.35531,-0.23637 0.63997,-0.25863 0.53088,-0.16869 0.71688,-0.27899 0.81581,-0.85595 0,0 31.78109,-15.87181 31.78109,-15.87181 l 0,0 c -0.0195,0.87196 0.14691,1.75524 -0.0381,2.60916 -0.31141,1.69146 -1.15097,0.53734 -2.07705,2.03214 -0.22707,0.36652 -0.39285,0.76762 -0.58928,1.15144 -1.015,1.92238 -2.17921,3.73942 -3.24691,5.63123 -1.87242,3.31767 -3.5303,6.75726 -5.48463,10.03025 -4.90017,9.19981 -9.4056,18.5919 -13.74673,28.06828 -2.9643,6.25986 -6.25564,12.4088 -8.68049,18.90114 0,0 -32.11037,14.75564 -32.11037,14.75564 z"
       inkscape:connector-curvature="0"
       inkscape:export-xdpi="8.8785505"
       inkscape:export-ydpi="8.8785505" />
    <path
       style="fill:#0000ff;stroke-width:20;stroke-miterlimit:4;stroke-dasharray:none"
       id="path4206"
       d="m 249.60481,421.40682 c 5.24007,-1.19532 10.28894,-3.09787 15.36892,-4.83326 8.69777,-3.0522 16.77328,-7.51993 25.01147,-11.58919 3.01775,-1.64819 6.18262,-3.01251 9.22835,-4.60425 1.74749,-0.91325 3.41528,-1.91858 5.20065,-2.76011 2.7224,-1.42737 4.24446,0.48071 5.67411,2.61353 2.55816,4.49626 4.05137,9.51191 5.75546,14.37212 1.8662,5.57719 3.97039,11.06889 6.19472,16.51184 0.89875,2.65557 2.37613,5.04259 3.48218,7.60272 0.17987,0.18475 0.72924,2.5323 1.03144,2.271 0.0679,0.002 0.13587,0.005 0.20381,0.007 0,0 -29.94408,19.02802 -29.94408,19.02802 l 0,0 c -0.15331,-0.15645 -0.30662,-0.3129 -0.45992,-0.46936 -0.88939,-1.13634 -1.41801,-2.32614 -1.60185,-3.76429 -0.79709,-2.70366 -2.11126,-5.23368 -2.77544,-7.98499 -1.88342,-5.60878 -3.6236,-11.26538 -5.63922,-16.82951 -1.70671,-4.41062 -3.35274,-9.00366 -6.39926,-12.69897 -0.15454,-0.12336 -0.2825,-0.29073 -0.46362,-0.37009 -0.10442,-0.0457 -0.24228,-0.0387 -0.34157,0.0173 -0.097,0.0548 -0.11197,0.194 -0.18381,0.27916 -0.47769,0.56622 -1.12079,0.90302 -1.797,1.18095 -4.3522,2.21218 -8.81803,4.18902 -13.17935,6.38381 -8.26053,4.06747 -16.50764,8.20246 -25.21859,11.24654 -5.69502,2.06498 -11.38168,4.13951 -17.16085,5.95915 0,0 28.01345,-21.56901 28.01345,-21.56901 z"
       inkscape:connector-curvature="0"
       inkscape:export-xdpi="8.8785505"
       inkscape:export-ydpi="8.8785505" />
    <path
       style="fill:#ff00ff;stroke-width:20;stroke-miterlimit:4;stroke-dasharray:none"
       id="path4208"
       d="m 365.57165,410.925 c 3.49852,5.91124 7.88241,11.24404 11.8982,16.80608 6.32082,9.17448 13.09057,18.00431 20.00679,26.73308 4.85321,6.04133 9.56553,12.19401 14.3326,18.30326 1.0407,1.14139 1.8906,2.41552 2.73366,3.70023 0.17954,0.2736 0.62412,0.99943 0.70569,0.68251 -10.30617,5.80543 -20.61234,11.61087 -30.91851,17.4163 0,0 31.1114,-17.12787 31.1114,-17.12787 l 0,0 c -10.23362,6.02425 -20.46725,12.04849 -30.70087,18.07274 -0.88613,-1.7606 -1.30075,-3.76021 -2.52199,-5.36763 -3.86492,-6.57984 -8.03587,-12.98005 -12.71466,-19.0164 -6.74306,-8.86901 -13.52043,-17.71091 -20.21977,-26.61309 -4.41808,-5.33719 -8.90277,-10.70123 -14.00143,-15.4038 0,0 30.28889,-18.18541 30.28889,-18.18541 z"
       inkscape:connector-curvature="0"
       inkscape:export-xdpi="8.8785505"
       inkscape:export-ydpi="8.8785505" />
    <path
       style="fill:#ff00ff;stroke-width:20;stroke-miterlimit:4;stroke-dasharray:none"
       id="path4210"
       d="m 367.12388,417.89554 c 0.54606,7.71661 0.64657,15.45702 0.88215,23.18738 0.15009,7.66906 -0.20709,15.33377 -0.29779,23.00135 0.12964,2.61141 -0.2051,5.31297 0.34923,7.89085 5.46668,11.6185 -27.61251,27.73105 -31.93229,15.64978 0,0 31.15784,-16.99164 31.15784,-16.99164 l 0,0 c -11.97788,5.90633 -39.22038,6.24647 -31.21971,16.66948 0.1163,-0.0353 0.29358,0.002 0.34889,-0.10599 0.11999,-0.23483 0.0722,-0.52246 0.10589,-0.78401 0.048,-0.37273 0.0952,-0.74557 0.13899,-1.11881 0.2303,-1.9626 0.40158,-3.93107 0.60107,-5.89691 0.71294,-7.72746 1.51135,-15.47296 1.3965,-23.24299 -0.23135,-7.20325 -0.33912,-14.60479 -2.40875,-21.5603 0,0 30.87798,-16.69819 30.87798,-16.69819 z"
       inkscape:connector-curvature="0"
       inkscape:export-xdpi="8.8785505"
       inkscape:export-ydpi="8.8785505" />
    <path
       style="fill:#ff00ff;stroke-width:20;stroke-miterlimit:4;stroke-dasharray:none"
       id="path4212"
       d="m 376.63154,420.09689 c 5.71817,1.06857 11.2768,2.89917 16.91097,4.34627 9.25074,2.50935 18.656,4.36855 28.08607,6.05135 4.98644,0.92835 9.97811,1.91594 15.04336,2.29248 0.88103,0.15737 1.32364,0.0108 1.93034,-0.56023 0,0 -28.32016,21.31616 -28.32016,21.31616 l 0,0 c -0.73504,-0.22176 -1.45622,-0.49237 -2.21627,-0.62195 -4.56858,-1.07475 -9.06619,-2.43505 -13.64634,-3.46468 -9.38899,-2.07843 -18.83009,-3.91237 -28.18942,-6.12311 -6.0253,-1.30957 -12.08917,-2.85091 -18.29566,-2.82049 0,0 28.69711,-20.4158 28.69711,-20.4158 z"
       inkscape:connector-curvature="0"
       inkscape:export-xdpi="8.8785505"
       inkscape:export-ydpi="8.8785505" />
  </g>
</svg>
