<?xml version="1.0" encoding="UTF-8" standalone="no"?>
<!-- Created with Inkscape (http://www.inkscape.org/) -->

<svg
   xmlns:dc="http://purl.org/dc/elements/1.1/"
   xmlns:cc="http://creativecommons.org/ns#"
   xmlns:rdf="http://www.w3.org/1999/02/22-rdf-syntax-ns#"
   xmlns:svg="http://www.w3.org/2000/svg"
   xmlns="http://www.w3.org/2000/svg"
   xmlns:sodipodi="http://sodipodi.sourceforge.net/DTD/sodipodi-0.dtd"
   xmlns:inkscape="http://www.inkscape.org/namespaces/inkscape"
   width="210mm"
   height="297mm"
   viewBox="0 0 744.09448819 1052.3622047"
   id="svg2"
   version="1.1"
   inkscape:version="0.91 r13725"
   sodipodi:docname="tower.svg">
  <defs
     id="defs4" />
  <sodipodi:namedview
     id="base"
     pagecolor="#ffffff"
     bordercolor="#666666"
     borderopacity="1.0"
     inkscape:pageopacity="0.0"
     inkscape:pageshadow="2"
     inkscape:zoom="1.4"
     inkscape:cx="335.05888"
     inkscape:cy="764.72943"
     inkscape:document-units="px"
     inkscape:current-layer="layer1"
     showgrid="false"
     inkscape:window-width="1855"
     inkscape:window-height="1056"
     inkscape:window-x="65"
     inkscape:window-y="24"
     inkscape:window-maximized="1" />
  <metadata
     id="metadata7">
    <rdf:RDF>
      <cc:Work
         rdf:about="">
        <dc:format>image/svg+xml</dc:format>
        <dc:type
           rdf:resource="http://purl.org/dc/dcmitype/StillImage" />
        <dc:title></dc:title>
      </cc:Work>
    </rdf:RDF>
  </metadata>
  <g
     inkscape:label="Layer 1"
     inkscape:groupmode="layer"
     id="layer1">
    <path
       style="fill:#000000;fill-opacity:1;fill-rule:nonzero;stroke:none;stroke-width:1px;stroke-linecap:butt;stroke-linejoin:miter;stroke-opacity:1"
       id="path3336"
       d="m 215.22782,552.61838 c -0.15999,-10.22831 -0.0624,-20.45978 -0.006,-30.68875 -0.0992,-23.07958 1.92496,-46.07135 4.17865,-69.01634 1.56914,-15.20758 3.15916,-30.41766 4.18693,-45.67343 0.2051,-1.80191 0.10577,-3.62355 0.3231,-5.4238 0.0218,-0.18075 -0.0656,-0.45307 0.0956,-0.53776 9.85623,-5.18001 7.63742,-7.50332 10.46783,-3.77145 1.55462,2.41036 3.60093,4.23257 6.26022,5.3687 0.79975,0.34168 1.64261,0.57202 2.46391,0.85803 1.06138,0.19808 2.11275,0.46048 3.18414,0.59426 5.16659,0.6451 10.47107,0.44564 15.65604,0.27572 1.40094,-0.0459 14.33991,-0.62477 15.31437,-0.66803 20.35614,-0.97945 40.64538,-2.90739 60.91317,-4.98615 24.31918,-2.58768 48.63169,-5.23878 72.99907,-7.33618 14.52144,-1.0696 29.07228,-2.01848 43.64126,-1.96404 7.38502,0.0276 10.40405,0.24797 17.65237,0.59437 11.11327,0.60402 22.15064,2.10476 33.11151,3.9871 2.23032,0.38687 4.45923,0.78395 6.69952,1.10991 0.80886,0.11768 1.56975,0.0695 2.22736,0.65774 0.33469,0.29937 0.52922,0.72559 0.79383,1.08839 0.20292,0.55533 0.46274,1.09307 0.60876,1.666 0.5188,2.03563 0.575,3.73385 0.57135,5.86984 -0.01,5.75396 -0.83358,11.41134 -1.59564,17.10095 -2.01939,12.14626 -4.34104,24.24007 -6.28894,36.39869 -1.54364,9.63524 -1.67866,11.06978 -2.99292,20.75975 -2.59491,18.70639 -3.60995,37.56655 -4.12456,56.42809 -0.22633,11.34981 -0.92479,4.13225 -0.71435,15.48205 0.16071,3.13747 -1.1041,-31.10678 -1.1255,-1.28423 -1.01735,-28.00148 2.15716,-0.59599 2.16426,-0.53684 l -2.36622,-5.13511 -0.71429,4.28571 c 0.005,-0.068 -1.41847,4.86403 -1.41347,4.79604 0.18212,-3.22893 -2.05806,2.10015 -1.93227,-1.13063 0.17741,-11.47508 -2.59464,-0.80965 -2.20086,-12.28029 0.70746,-18.9495 1.88459,-37.8931 4.45085,-56.69415 2.54074,-19.01503 5.71208,-37.92649 8.72462,-56.8705 0.60884,-5.55939 1.27167,-11.06694 1.11984,-16.6702 -0.0572,-2.11091 -0.13168,-3.48583 -0.68231,-5.44869 -0.13082,-0.46636 -0.35511,-0.90129 -0.53266,-1.35193 -0.17913,-0.21186 -0.31095,-0.47528 -0.5374,-0.63558 -0.41839,-0.29616 -1.5936,-0.44218 -1.97351,-0.51475 -2.15289,-0.41129 -4.2978,-0.86165 -6.44468,-1.30294 -10.68233,-2.11347 -21.48339,-3.65436 -32.35469,-4.36811 -7.2351,-0.40117 -10.02371,-0.63565 -17.40672,-0.70322 -14.44988,-0.13225 -28.88873,0.73798 -43.29251,1.7907 -24.40497,2.06321 -48.74926,4.74411 -73.09294,7.42542 -20.42991,2.1412 -40.87758,4.14487 -61.39288,5.27951 -5.19287,0.27978 -10.38343,0.60701 -15.57878,0.83613 -5.35539,0.23618 -10.86009,0.52279 -16.20274,-0.14804 -1.13351,-0.14233 -2.24215,-0.43947 -3.36323,-0.6592 -0.87018,-0.31453 -1.76324,-0.57179 -2.61054,-0.94358 -2.76319,-1.21246 -4.92725,-3.15004 -6.65726,-5.58652 -3.01674,-3.10123 -0.77608,-0.39827 8.33966,-5.87821 0.11987,-0.0721 -0.32975,0.007 -0.39967,0.12773 -0.17124,0.29663 -0.19309,0.65894 -0.24948,0.99677 -0.10022,0.60041 -0.14858,1.20834 -0.21951,1.81291 -0.10783,0.91899 -0.21118,1.83851 -0.31677,2.75777 -1.87239,15.44889 -3.85728,30.88455 -5.54813,46.35498 -1.2462,12.48263 -2.46015,24.95467 -3.07285,37.48877 -0.39911,8.16457 -0.47287,13.74332 -0.49805,21.83062 -0.01,3.08916 0.0248,6.17831 0.0372,9.26746 0.17693,10.00378 0.19397,20.04029 1.09069,30.01111 l -9.37348,4.90743 z"
       inkscape:connector-curvature="0"
       inkscape:export-xdpi="22.267284"
       inkscape:export-ydpi="22.267284"
       sodipodi:nodetypes="cccccccscsscccsccsccsccsccccccccccccsccccccscccsscscccscccsccccc" />
    <path
       style="fill:#000000;fill-opacity:1;fill-rule:nonzero;stroke:none;stroke-width:1px;stroke-linecap:butt;stroke-linejoin:miter;stroke-opacity:1"
       id="path3338"
       d="m 236.51155,448.6714 c 7.26006,1.19729 14.36117,3.21412 21.52683,4.87038 7.24837,1.57428 14.61546,2.6348 22.04978,2.42202 4.46631,-0.12784 5.56614,-0.40797 9.89513,-1.03179 6.28649,-0.92849 12.27998,-2.95052 18.22138,-5.11434 -0.7937,0.98275 4.18348,-2.08561 2.95793,-1.38611 -15.4457,8.81584 -10.11324,6.97866 -7.85596,4.1388 1.33175,-2.5374 1.67414,-5.48616 2.18558,-8.27211 1.11912,-6.21977 2.55215,-12.37694 3.8799,-18.55444 0.91528,-4.35276 1.73207,-8.73332 2.19264,-13.1598 0.096,-0.90718 0.14229,-1.81763 0.15037,-2.7294 0,0 9.48746,-4.80421 9.48746,-4.80421 l 0,0 c -0.0386,0.9615 -0.0893,1.92376 -0.21655,2.8784 -0.64362,4.51198 -1.56883,8.97665 -2.53423,13.4295 -1.32734,6.10976 -2.6413,12.22855 -3.65401,18.39938 -0.47458,2.86652 -0.83128,5.78409 -1.78878,8.54015 -2.33868,4.6351 -8.3696,6.08538 -12.99757,7.91153 -5.85146,2.03084 -11.79182,3.79687 -17.94988,4.64069 -4.33108,0.53476 -5.42339,0.78537 -9.88555,0.84386 -7.48139,0.0981 -14.8895,-1.02305 -22.1896,-2.57202 -7.31914,-1.62792 -14.61926,-3.63974 -22.10289,-4.32658 0,0 8.62802,-6.12391 8.62802,-6.12391 z"
       inkscape:connector-curvature="0"
       inkscape:export-xdpi="22.267284"
       inkscape:export-ydpi="22.267284" />
    <path
       style="fill:#000000;fill-opacity:1;fill-rule:nonzero;stroke:none;stroke-width:1px;stroke-linecap:butt;stroke-linejoin:miter;stroke-opacity:1"
       id="path3340"
       d="m 314.41434,454.2568 c 4.65127,0.0253 9.29274,-0.63687 13.90975,-1.15653 8.6436,-0.97839 17.25472,-2.21931 25.80721,-3.80682 4.61346,-0.97394 9.31217,-1.78985 13.78585,-3.32674 1.87545,-0.6443 2.43297,-0.98657 4.13679,-1.8368 -14.1901,8.01492 -7.03429,4.73624 -4.83903,1.76056 1.38918,-1.88303 2.20498,-4.09795 3.03314,-6.25803 1.81079,-4.90853 2.77779,-10.02229 3.33153,-15.20581 0.20468,-3.18942 0.54427,-6.41008 0.15066,-9.59631 -0.12195,-0.83623 -0.28074,-1.66637 -0.42621,-2.49874 0,0 9.39817,-4.97003 9.39817,-4.97003 l 0,0 c 0.11317,0.85852 0.25288,1.71293 0.36925,2.57101 0.36816,3.30364 -0.0687,6.62073 -0.28371,9.92305 -0.54265,5.25183 -1.46232,10.44082 -3.23017,15.43608 -0.94977,2.74664 -1.91826,5.81616 -3.89582,8.03268 -2.6861,3.01068 -11.45228,7.10556 -11.71293,7.25719 -5.63963,2.49258 -11.74482,3.54554 -17.76802,4.70869 -8.62416,1.52129 -17.29016,2.78411 -25.98113,3.86048 -4.75895,0.59185 -9.53145,1.25582 -14.33376,1.31687 0,0 8.54843,-6.2108 8.54843,-6.2108 z"
       inkscape:connector-curvature="0"
       inkscape:export-xdpi="22.267284"
       inkscape:export-ydpi="22.267284" />
    <path
       style="fill:#000000;fill-opacity:1;fill-rule:nonzero;stroke:none;stroke-width:1px;stroke-linecap:butt;stroke-linejoin:miter;stroke-opacity:1"
       id="path3342"
       d="m 386.00183,452.83692 c 7.48532,0.65714 15.00158,0.6451 22.50817,0.59366 9.48022,-0.29186 18.99723,-0.3832 28.42497,-1.53658 1.75197,-0.21434 3.4933,-0.50821 5.23994,-0.76232 6.86427,-1.10389 13.71757,-2.58904 20.11136,-5.37573 3.40723,-1.69944 10.01153,-5.07782 -5.53514,3.26854 -0.23935,0.12851 0.42077,-0.34993 0.58929,-0.56302 0.43076,-0.54468 0.52748,-1.04318 0.75237,-1.70032 1.04649,-4.7042 0.75968,-9.59326 0.55764,-14.37127 -0.31303,-6.00904 -1.35315,-11.93663 -2.38474,-17.85284 -0.46184,-2.37895 -0.78788,-4.78331 -0.95599,-7.20068 -0.0237,-1.12761 -0.1623,-2.27071 0.0615,-3.38487 0,0 9.64013,-4.52354 9.64013,-4.52354 l 0,0 c -0.49916,0.94483 -0.27031,2.01678 -0.29416,3.05606 0.0716,2.41798 0.30916,4.82477 0.67984,7.21577 0.88131,5.99884 1.82273,11.99513 2.24967,18.04892 0.28298,4.81442 0.66578,9.70201 -0.0474,14.49539 -0.10795,0.46704 -0.34011,1.59215 -0.54994,2.06029 -2.07865,4.63762 -8.54884,5.65147 -12.90006,7.86411 -6.36528,2.47205 -13.08233,3.83472 -19.8221,4.83304 -11.19053,1.49768 -22.45815,1.97714 -33.74144,2.19806 -7.70519,0.0952 -15.40578,0.0613 -23.10836,-0.16925 0,0 8.52451,-6.19342 8.52451,-6.19342 z"
       inkscape:connector-curvature="0"
       inkscape:export-xdpi="22.267284"
       inkscape:export-ydpi="22.267284" />
    <path
       style="fill:#000000;fill-opacity:1;fill-rule:nonzero;stroke:none;stroke-width:1px;stroke-linecap:butt;stroke-linejoin:miter;stroke-opacity:1"
       id="path3344"
       d="m 469.22978,453.86226 c 5.46416,-1.18731 10.93025,-2.3664 16.35807,-3.72876 5.10682,-1.30011 10.0022,-3.27831 15.02923,-4.84122 1.92939,-0.59692 3.90411,-0.97892 5.91811,-1.08998 0,0 -8.54226,6.29811 -8.54226,6.29811 l 0,0 c -1.90565,0.16405 -3.77179,0.60529 -5.60125,1.15513 -4.94169,1.53414 -9.78357,3.40132 -14.82253,4.60979 -5.55703,1.38627 -11.18737,2.50577 -16.68957,4.08417 0,0 8.3502,-6.48724 8.3502,-6.48724 z"
       inkscape:connector-curvature="0"
       inkscape:export-xdpi="22.267284"
       inkscape:export-ydpi="22.267284" />
    <path
       style="fill:#000000;fill-opacity:1;fill-rule:nonzero;stroke:none;stroke-width:1px;stroke-linecap:butt;stroke-linejoin:miter;stroke-opacity:1"
       id="path3346"
       d="m 222.0331,489.95806 c 6.21406,0.23161 12.42741,-0.37191 18.62938,-0.7174 7.69756,-0.48088 15.41185,-0.39497 23.11742,-0.60543 6.27902,-0.3384 12.72015,-0.66264 18.74684,-2.6423 0.87034,-0.28588 1.70525,-0.67005 2.55788,-1.00507 0.71779,-0.41057 2.8893,-1.60882 2.15338,-1.2317 -2.31417,1.18588 -4.44643,2.76888 -6.88974,3.65881 -0.80847,0.29447 1.26923,-1.1674 1.83333,-1.8171 2.52817,-2.91179 4.02493,-6.26409 5.59891,-9.74212 3.83996,-9.42729 6.39938,-19.33278 7.88772,-29.39061 0.34858,-3.62527 0.7903,-7.3088 0.47471,-10.9563 -0.0126,-0.0889 -0.0253,-0.17776 -0.0379,-0.26664 0,0 9.4537,-4.92834 9.4537,-4.92834 l 0,0 c 0.006,0.11481 0.0128,0.22962 0.0192,0.34443 -0.0331,3.81573 -0.36573,7.62064 -0.91015,11.39724 -1.68714,10.09805 -4.29218,20.05446 -7.86284,29.65408 -1.43018,3.5175 -2.80082,6.90949 -5.14977,9.93583 -3.64737,4.69919 -9.42715,7.01553 -14.63914,9.65116 -0.85407,0.29334 -1.69466,0.62933 -2.56221,0.88002 -6.07472,1.75539 -12.4657,2.0348 -18.73803,2.351 -7.71654,0.20718 -15.43935,0.2302 -23.14885,0.66368 -6.37196,0.35228 -12.73575,0.89797 -19.11809,1.00362 0,0 8.58431,-6.23686 8.58431,-6.23686 z"
       inkscape:connector-curvature="0"
       inkscape:export-xdpi="22.267284"
       inkscape:export-ydpi="22.267284" />
    <path
       style="fill:#000000;fill-opacity:1;fill-rule:nonzero;stroke:none;stroke-width:1px;stroke-linecap:butt;stroke-linejoin:miter;stroke-opacity:1"
       id="path3348"
       d="m 292.7413,486.77567 c 4.45134,-3.23433 9.06305,-7.14105 14.59643,-7.9819 1.96794,-0.29905 2.87591,-0.10391 4.87656,0.0554 4.91035,0.68747 9.56246,2.47148 14.22839,4.06368 4.60678,1.57202 3.66707,1.24708 8.27989,2.7233 5.96561,1.79861 12.22949,3.0293 18.45737,1.97595 0.99364,-0.16806 1.96202,-0.46129 2.94303,-0.69193 0.86039,-0.31639 1.75592,-0.54998 2.58116,-0.94917 0.75971,-0.36749 2.9067,-1.71003 2.14881,-1.33882 -2.36073,1.15628 -4.5181,2.73813 -6.96531,3.69793 -0.67497,0.26472 1.04172,-1.01143 1.51528,-1.56043 1.15254,-1.33615 1.35103,-1.81406 2.22954,-3.29577 0.89165,-1.87459 1.64515,-3.89556 1.72444,-5.99573 0.0328,-0.87027 -0.10787,-1.89186 -0.19799,-2.74847 -0.54855,-3.98527 -0.74217,-7.99176 -0.5243,-12.00623 0.4106,-4.18133 1.86141,-8.1028 3.99546,-11.69318 0.89532,-1.46521 2.06074,-2.67632 3.39406,-3.73773 0,0 9.81328,-3.8756 9.81328,-3.8756 l 0,0 c -1.43831,0.91796 -2.72321,1.96985 -3.6744,3.41736 -2.29182,3.37579 -3.78562,7.19612 -4.30213,11.25781 -0.26151,3.94304 -0.0492,7.87253 0.56199,11.77984 0.10536,0.81228 0.30054,2.1098 0.30223,2.93676 0.005,2.23568 -0.76493,4.40454 -1.61825,6.43657 -3.74892,6.94842 -5.7178,6.68851 -14.24438,11.85015 -2.14714,1.2998 -2.42043,1.21968 -4.85698,1.98612 -2.77346,0.52717 -3.39156,0.76142 -6.30017,0.81142 -5.19963,0.0894 -10.28874,-1.12739 -15.22268,-2.65383 -7.43929,-2.4104 -14.80834,-5.4245 -22.6119,-6.39166 -2.06555,-0.0411 -2.75177,-0.19419 -4.73883,0.28455 -0.64422,0.15521 -2.42449,1.02933 -1.87618,0.65722 12.9968,-8.82027 8.24902,-4.89049 5.31398,-2.9807 0,0 -9.8284,3.96705 -9.8284,3.96705 z"
       inkscape:connector-curvature="0"
       inkscape:export-xdpi="22.267284"
       inkscape:export-ydpi="22.267284" />
    <path
       style="fill:#000000;fill-opacity:1;fill-rule:nonzero;stroke:none;stroke-width:1px;stroke-linecap:butt;stroke-linejoin:miter;stroke-opacity:1"
       id="path3350"
       d="m 374.45593,496.92223 c 4.58709,1.93547 9.48565,3.30186 14.46871,3.64711 1.44975,0.10045 2.90571,0.0652 4.35857,0.0978 8.74472,-0.19139 17.25186,-2.46684 25.31448,-5.75817 1.82162,-0.74363 3.60035,-1.58827 5.40052,-2.3824 5.63853,-2.75762 4.55693,-2.14877 9.93716,-5.08568 1.34935,-0.73657 -3.46716,3.59014 -4.06699,2.17469 -0.61141,-1.44279 2.57876,-1.78193 3.83849,-2.71389 3.12824,-2.31429 3.64802,-2.84429 6.52835,-5.31072 3.6788,-3.50086 7.64206,-7.20754 9.53558,-12.05329 0.25062,-0.64137 0.39349,-1.31978 0.59024,-1.97967 0.54057,-3.06244 -0.66294,-5.60429 -2.48198,-7.96207 -0.73881,-0.88504 -1.56414,-1.69067 -2.40417,-2.47793 0,0 9.0156,-5.54409 9.0156,-5.54409 l 0,0 c 0.84744,0.84909 1.70633,1.69249 2.42587,2.65688 1.94105,2.64025 3.23175,5.52399 2.78584,8.88615 -0.19075,0.71662 -0.32143,1.45199 -0.57226,2.14985 -1.81519,5.0504 -5.85082,8.92927 -9.61571,12.56112 -3.23969,2.8081 -6.83669,5.97929 -10.4745,8.2376 -7.33378,4.55271 -14.77722,8.90683 -22.64083,12.47472 -1.81395,0.78193 -3.60682,1.61471 -5.44186,2.34577 -8.21269,3.27185 -16.85937,5.50524 -25.73941,5.6082 -1.48957,-0.0462 -2.98286,-0.0236 -4.4687,-0.13855 -5.1786,-0.40079 -10.22204,-1.85751 -15.09549,-3.58423 0,0 8.80249,-5.84919 8.80249,-5.84919 z"
       inkscape:connector-curvature="0"
       inkscape:export-xdpi="22.267284"
       inkscape:export-ydpi="22.267284" />
    <path
       style="fill:#000000;fill-opacity:1;fill-rule:nonzero;stroke:none;stroke-width:1px;stroke-linecap:butt;stroke-linejoin:miter;stroke-opacity:1"
       id="path3352"
       d="m 449.60554,486.47191 c -1.19554,4.62353 -0.3265,9.4163 0.58167,14.00591 1.19086,5.31349 3.90391,10.16228 8.30587,13.49508 1.02107,0.77307 2.17222,1.35732 3.25833,2.03598 7.14898,3.36368 15.12335,4.03067 22.90367,3.12166 1.62854,-0.19028 3.23941,-0.50963 4.85911,-0.76444 6.75281,-1.39853 13.36667,-3.44991 19.73092,-6.10018 3.60362,-1.56324 9.39229,-5.36904 -6.47653,3.89199 -0.0517,0.0302 0.1414,-0.0618 0.17908,-0.0152 0.31958,0.39502 0.25081,0.40362 0.10409,0.69371 -0.10286,0.006 -0.20573,0.0117 -0.30859,0.0176 0,0 8.68466,-6.16928 8.68466,-6.16928 l 0,0 c 0.13245,0.0311 0.2649,0.0621 0.39735,0.0932 0.26067,0.1858 1.32351,1.14325 0.82203,1.45514 -4.11931,2.56198 -7.35976,4.81176 -11.55581,6.44486 -6.31204,2.41947 -12.82104,4.34687 -19.46758,5.60195 -1.63336,0.23198 -3.25856,0.53144 -4.90009,0.69592 -7.97664,0.79928 -16.13397,-0.0185 -23.40886,-3.53566 -1.13113,-0.72178 -2.32748,-1.35032 -3.39339,-2.16534 -4.55856,-3.4856 -7.4469,-8.45859 -8.70623,-13.99423 -0.99089,-4.66031 -1.90783,-9.46271 -1.16254,-14.2324 0,0 9.55284,-4.57621 9.55284,-4.57621 z"
       inkscape:connector-curvature="0"
       inkscape:export-xdpi="22.267284"
       inkscape:export-ydpi="22.267284" />
    <path
       style="fill:#000000;fill-opacity:1;fill-rule:nonzero;stroke:none;stroke-width:1px;stroke-linecap:butt;stroke-linejoin:miter;stroke-opacity:1"
       id="path3354"
       d="m 237.15058,528.67308 c 3.76244,0.606 7.42027,1.67752 11.03919,2.8564 4.92056,1.63506 10.03709,2.4205 15.22441,2.25975 1.2409,-0.0385 2.47681,-0.17513 3.71521,-0.26269 7.44486,-0.96173 14.88663,-1.96713 22.32528,-2.98352 1.3617,-0.23316 3.71518,-0.55512 5.05552,-1.07977 0.70774,-0.27704 2.68106,-1.43292 2.00447,-1.08669 -2.3301,1.19236 -4.47427,2.82197 -6.96541,3.62529 -0.82777,0.26694 1.22382,-1.24382 1.7434,-1.94132 0.58235,-0.78178 1.03336,-1.6533 1.55005,-2.47996 3.39657,-6.71586 5.40866,-13.9916 6.88755,-21.33703 0.9753,-5.11818 1.40966,-10.3111 0.5642,-15.46857 -0.37684,-1.70552 -0.17804,-0.90813 -0.58212,-2.39567 0,0 9.25581,-5.00615 9.25581,-5.00615 l 0,0 c 0.36406,1.57627 0.18223,0.73359 0.53515,2.53024 0.77688,5.32008 0.29899,10.68106 -0.70841,15.94566 -1.4834,7.39735 -3.49045,14.70188 -6.62815,21.58703 -0.55654,1.01548 -1.98661,3.9499 -3.06246,4.71699 -0.0548,0.0391 -8.90746,6.32868 -12.77831,7.55814 -1.37111,0.43549 -3.64731,0.71275 -5.02583,0.91875 -7.43162,0.91259 -14.84113,1.97768 -22.27475,2.86367 -1.26248,0.0718 -2.52313,0.19236 -3.78744,0.21555 -5.29485,0.0971 -10.52124,-0.75478 -15.55154,-2.38882 -3.66198,-1.10914 -7.36024,-2.16303 -11.18421,-2.52672 0,0 8.64839,-6.12056 8.64839,-6.12056 z"
       inkscape:connector-curvature="0"
       inkscape:export-xdpi="22.267284"
       inkscape:export-ydpi="22.267284" />
    <path
       style="fill:#000000;fill-opacity:1;fill-rule:nonzero;stroke:none;stroke-width:1px;stroke-linecap:butt;stroke-linejoin:miter;stroke-opacity:1"
       id="path3356"
       d="m 317.38179,521.19515 c 4.77372,2.04179 9.57636,4.08909 14.6218,5.3804 1.46345,0.37454 2.95484,0.62993 4.43227,0.9449 9.44264,1.75327 17.53428,0.40156 26.62575,-2.05582 2.15062,-0.74894 3.66554,-1.19989 5.68947,-2.17759 0.71568,-0.34573 2.77969,-1.54301 2.08388,-1.15886 -12.57485,6.94228 -8.0866,5.23738 -5.86103,2.74756 0.38777,-0.43381 0.69336,-0.9346 1.04004,-1.4019 2.02548,-3.36463 1.96583,-7.23888 1.55521,-11.01356 -0.33376,-2.94709 -1.13779,-5.8185 -2.49189,-8.45701 -0.76231,-1.17305 -1.39299,-2.40969 -1.77302,-3.75669 0,0 9.35674,-5.05722 9.35674,-5.05722 l 0,0 c 0.27208,1.3014 0.88082,2.46699 1.55632,3.60523 1.37701,2.77199 2.16952,5.78425 2.52914,8.85621 0.47836,3.93892 0.65552,8.02159 -1.19842,11.65963 -3.30588,5.33933 -5.28542,4.93895 -12.74827,9.27191 -2.40341,1.39542 -5.10497,2.18385 -7.73573,3.00962 -2.9765,0.74313 -4.48855,1.18119 -7.57433,1.68856 -6.37765,1.04862 -12.83123,1.05369 -19.20123,-0.0991 -1.5113,-0.3244 -3.03573,-0.59277 -4.53392,-0.9732 -5.17694,-1.31454 -10.10705,-3.39516 -15.14183,-5.13831 0,0 8.76905,-5.87477 8.76905,-5.87477 z"
       inkscape:connector-curvature="0"
       inkscape:export-xdpi="22.267284"
       inkscape:export-ydpi="22.267284" />
    <path
       style="fill:#000000;fill-opacity:1;fill-rule:nonzero;stroke:none;stroke-width:1px;stroke-linecap:butt;stroke-linejoin:miter;stroke-opacity:1"
       id="path3358"
       d="m 386.87,517.69455 c -0.0465,2.78854 -0.20743,5.59259 0.0757,8.37091 0.88376,3.847 4.79662,5.26251 8.1415,6.45634 3.66586,1.05706 7.51234,1.34433 11.29919,0.87116 2.45782,-0.3071 3.66916,-0.69742 6.07693,-1.31039 1.00042,-0.33323 2.0119,-0.63493 3.00127,-0.99969 1.45787,-0.53749 4.25395,-1.73575 5.64951,-2.42867 0.90466,-0.44919 3.53392,-1.95683 2.66555,-1.44096 -10.68552,6.34791 -6.70934,3.86667 -3.81061,2.01841 3.21138,-2.18147 6.33192,-4.51118 9.06748,-7.27452 1.19196,-1.20652 1.75679,-2.63534 1.95806,-4.28416 0.34364,-2.3004 0.99367,-4.54297 1.45967,-6.82136 0.19988,-1.00726 0.3378,-2.02462 0.46968,-3.04239 0,0 9.48702,-4.66301 9.48702,-4.66301 l 0,0 c -0.16723,1.04561 -0.33723,2.0908 -0.52473,3.13302 -0.44135,2.23191 -0.99206,4.44067 -1.41162,6.67419 -0.12385,1.8324 -0.51734,3.53501 -1.75735,4.96622 -2.70622,2.94716 -5.97073,5.28925 -9.21953,7.59817 -7.8446,5.16157 -16.03483,10.10616 -25.11017,12.73219 -2.55903,0.59562 -3.60253,0.92994 -6.20786,1.18049 -3.91212,0.37622 -7.86659,-0.0144 -11.62471,-1.15716 -3.72477,-1.40441 -7.82588,-3.10778 -8.87314,-7.35098 -0.36548,-2.78908 -0.10535,-5.60418 -0.2661,-8.41061 0,0 9.45429,-4.8172 9.45429,-4.8172 z"
       inkscape:connector-curvature="0"
       inkscape:export-xdpi="22.267284"
       inkscape:export-ydpi="22.267284" />
    <path
       style="fill:#000000;fill-opacity:1;fill-rule:nonzero;stroke:none;stroke-width:1px;stroke-linecap:butt;stroke-linejoin:miter;stroke-opacity:1"
       id="path3360"
       d="m 456.71389,511.70668 c -1.3414,5.87725 -2.69766,11.74016 -3.67368,17.6914 -0.69643,4.55102 -1.11869,9.24615 -0.0347,13.76554 0.77252,2.91651 2.82908,4.831 5.1138,6.6398 3.75311,2.65588 8.14591,4.25088 12.70534,4.80187 1.02761,0.12418 2.06493,0.14728 3.09739,0.22092 5.4472,-0.0243 10.78246,-1.00617 15.9538,-2.65765 1.09434,-0.39122 2.11492,-0.71169 3.14999,-1.23778 0.37373,-0.18995 1.44195,-0.85586 1.07718,-0.64923 -15.75905,8.92704 -9.54662,6.25391 -7.21763,3.83196 0.40802,-0.59631 0.75997,-1.40685 0.47924,-2.12489 -0.16175,-0.33899 -0.26715,-0.70031 -0.37839,-1.05782 0,0 9.35012,-5.10449 9.35012,-5.10449 l 0,0 c 0.0883,0.32422 0.16938,0.65234 0.32643,0.9523 0.43529,1.01097 0.37076,2.0882 -0.0565,3.10428 -1.94663,3.74314 -8.21893,5.56853 -10.68175,6.98279 -1.31313,0.75406 -2.80825,1.13806 -4.22821,1.6222 -5.22179,1.50362 -10.60032,2.37701 -16.05231,2.24835 -1.05269,-0.0997 -2.11135,-0.1493 -3.15807,-0.29925 -4.7122,-0.67508 -9.23311,-2.39898 -13.14886,-5.10676 -2.49826,-1.95068 -4.71844,-4.03077 -5.53714,-7.21033 -1.04537,-4.70943 -0.59578,-9.55422 0.16222,-14.28018 0.95653,-5.86614 2.27073,-11.65872 3.26787,-17.51371 0,0 9.48383,-4.61932 9.48383,-4.61932 z"
       inkscape:connector-curvature="0"
       inkscape:export-xdpi="22.267284"
       inkscape:export-ydpi="22.267284" />
    <path
       style="fill:#000000;fill-opacity:1;fill-rule:nonzero;stroke:none;stroke-width:1px;stroke-linecap:butt;stroke-linejoin:miter;stroke-opacity:1"
       id="path3362"
       d="m 269.51353,396.18981 c -0.30345,-7.5018 0.52721,-14.99341 1.32678,-22.44023 1.85605,-14.57179 3.77806,-29.13504 5.71411,-43.6964 2.45459,-17.56167 4.66464,-35.15629 6.768,-52.76311 1.99243,-15.86831 3.72669,-31.77206 4.89998,-47.72274 0.72436,-10.64554 0.88895,-21.31659 0.91005,-31.98312 -0.004,-5.91191 -0.0712,-11.82356 -0.14522,-17.73494 -0.0385,-2.41095 -0.0819,-4.82189 -0.13513,-7.23255 -0.008,-0.67496 -0.0107,-1.34986 -0.0244,-2.02475 0,0 9.48691,-4.83401 9.48691,-4.83401 l 0,0 c -0.0134,0.68225 -0.0159,1.3645 -0.022,2.04684 -0.046,2.45022 -0.0755,4.90082 -0.10077,7.35135 -0.0418,5.96715 -0.0699,11.93446 -0.15411,17.90123 -0.18234,10.76403 -0.51157,21.52818 -1.32471,32.2658 -1.29338,16.01743 -3.15405,31.98098 -5.2045,47.91814 -2.1136,17.57256 -4.23061,35.14557 -6.59146,52.68698 -1.86366,14.48926 -3.73805,28.97883 -5.37616,43.49557 -0.65415,7.24939 -1.39422,14.58713 -0.65389,21.85851 0,0 -9.37349,4.90743 -9.37349,4.90743 z"
       inkscape:connector-curvature="0"
       inkscape:export-xdpi="22.267284"
       inkscape:export-ydpi="22.267284" />
    <path
       style="fill:#000000;fill-opacity:1;fill-rule:nonzero;stroke:none;stroke-width:1px;stroke-linecap:butt;stroke-linejoin:miter;stroke-opacity:1"
       id="path3364"
       d="m 434.58492,375.2461 c 0.25259,-7.67546 0.29931,-15.35665 0.36278,-23.03557 -0.007,-15.88104 0.84105,-31.74431 1.92434,-47.58287 1.68843,-20.76518 4.03377,-41.46947 6.05401,-62.20373 1.69573,-17.89648 2.73429,-35.84096 3.23737,-53.80792 0.17521,-10.60373 0.3426,-21.21691 0.0404,-31.8198 -0.23229,-4.58305 -0.34987,-9.32552 -1.9376,-13.68396 -0.49608,-1.56176 -1.64515,-2.71219 -2.52467,-4.04922 -0.28136,-0.40774 -0.59318,-0.60146 -1.0507,-0.73552 0,0 8.89003,-5.87926 8.89003,-5.87926 l 0,0 c 0.53979,0.32941 0.98482,0.73098 1.33247,1.26707 0.87706,1.43187 2.0774,2.66248 2.52341,4.33249 1.50096,4.54996 1.57757,9.43133 1.69191,14.17751 0.14249,10.71712 -0.26561,21.4349 -0.56456,32.14635 -0.72608,18.06571 -1.95427,36.10035 -3.688,54.09904 -2.04735,20.68647 -4.32094,41.355 -5.8855,62.08554 -0.93912,15.725 -1.64481,31.47574 -1.36689,47.23362 0.063,7.55567 0.1074,15.11381 0.36278,22.66588 0,0 -9.40159,4.79035 -9.40159,4.79035 z"
       inkscape:connector-curvature="0"
       inkscape:export-xdpi="22.267284"
       inkscape:export-ydpi="22.267284" />
    <path
       style="fill:#000000;fill-opacity:1;fill-rule:nonzero;stroke:none;stroke-width:1px;stroke-linecap:butt;stroke-linejoin:miter;stroke-opacity:1"
       id="path3366"
       d="m 242.55794,70.906877 c -0.32353,6.427593 -0.64605,12.850452 -0.68257,19.287439 -0.007,9.175422 0.66288,18.330834 1.13863,27.488804 0.41789,7.94612 0.59842,15.90165 0.78263,23.85578 0.06,3.07397 0.16888,6.1469 0.20633,9.22128 0.002,1.06781 0.51026,1.33389 1.46755,1.38111 1.21772,0.42265 2.18463,1.19606 3.01373,2.1636 1.01188,1.29204 1.49435,2.84281 1.79504,4.43096 0.19487,0.99404 -0.21182,1.60347 0.85662,1.90667 1.81772,0.20001 3.62638,0.5931 5.43362,0.9126 7.6768,1.21006 15.41497,1.60762 23.17544,1.57661 12.40542,-0.1832 24.41361,-3.38781 36.35555,-6.41341 13.28525,-3.47213 26.7345,-6.32944 40.35107,-8.14652 2.91677,-0.38923 5.84531,-0.68453 8.76796,-1.02679 14.56876,-1.46076 29.187,-2.31867 43.78697,-3.39509 9.09375,-0.78994 18.16437,-1.75322 27.28039,-2.25716 6.38486,-0.29971 12.77486,-0.27042 19.15559,-0.65075 3.19419,-0.20838 6.38714,-0.43034 9.58755,-0.51183 3.38047,-0.0455 6.76063,0.0831 10.13745,-0.0982 2.66722,-0.009 5.25306,-0.57398 7.84995,-1.09567 0.54417,-0.22568 1.24922,-0.0502 1.79158,-0.26941 0.10811,-0.0437 0.36508,-0.28736 0.26354,-0.23005 -8.09826,4.57109 -11.75286,6.99001 -8.68164,4.96232 0.55154,-0.90723 0.35079,-2.23168 0.36012,-3.26082 0.005,-1.84821 -0.0105,-3.69634 -0.0236,-5.54449 0.005,-1.22443 -0.0767,-2.45236 0.004,-3.67498 0.99658,-3.145 1.10637,-6.45238 1.30248,-9.72318 0.31124,-9.3155 0.90009,-18.6155 1.50697,-27.915153 0.77429,-12.256209 1.11533,-24.534073 0.80261,-36.810631 -0.30596,-7.372501 -1.07762,-14.711305 -1.8212,-22.048707 -0.31374,-1.685012 -0.15791,-3.443928 -0.44854,-5.127377 -0.39584,-0.356205 -1.16813,-0.178532 -1.6747,-0.173337 -2.9396,0.189611 -5.8501,0.967467 -8.72806,1.587509 -7.40866,1.449077 -14.95563,1.835493 -22.47694,2.221795 -4.95908,0.226006 -9.92032,0.416744 -14.88378,0.512714 -4.71557,-0.02662 -6.59582,1.893683 6.11559,-4.558075 0.28661,-0.145467 -0.5215,0.407373 -0.67224,0.691243 -0.28372,0.534339 -0.40244,1.141102 -0.60367,1.711654 -1.69697,9.096594 -2.54873,18.329866 -3.80844,27.495485 -1.25198,7.583892 -2.48494,15.21568 -4.61227,22.613864 -0.33332,1.020457 -0.5773,1.911483 -1.04299,2.868308 -0.0595,0.122171 -0.62223,1.132659 -0.87892,1.276416 -9.66166,5.410906 -6.43901,6.832618 -10.32317,4.854835 -1.14483,-0.850931 -2.14898,-1.897345 -3.169,-2.897718 -0.78057,-0.736098 -1.67617,-1.060275 -2.72177,-1.171183 -1.53796,-0.216849 -3.03324,-0.708309 -4.57245,-0.982887 -4.57812,-0.549546 -9.20808,-0.522858 -13.81256,-0.585067 -7.31602,0.106963 -14.61163,-0.282646 -21.90559,-0.790557 -3.06897,-0.212082 -6.13862,-0.430956 -9.21431,-0.514719 -2.46373,-0.49845 -2.21131,-1.886026 -1.75992,-4.017432 1.99468,-6.625186 3.41498,-13.381892 4.19301,-20.253351 0.55796,-4.803074 0.36735,-9.610318 -0.94482,-14.26634 -0.55256,-1.774385 -1.71054,-3.167174 -2.77986,-4.634231 -0.71568,-0.971704 -1.68118,-1.039358 -2.79607,-1.10797 -2.73124,-0.451094 -5.50217,-0.571865 -8.26404,-0.676465 -2.80961,-0.08258 -5.62095,-0.100831 -8.43161,-0.08566 -1.56314,0.190778 -3.27715,-0.275083 -4.79578,0.191015 -2.80769,2.641318 -0.44479,0.367626 8.43438,-4.706299 0.1088,-0.06217 -0.24449,0.09756 -0.31971,0.197782 -0.1203,0.160278 -0.18626,0.357879 -0.24187,0.550414 -0.26467,0.916482 -0.40597,1.864195 -0.61599,2.794722 -1.37877,7.078094 -2.67009,14.172119 -3.89776,21.27784 -1.2719,7.631795 -3.04359,15.154327 -5.17366,22.58777 -0.88871,2.467627 -1.50173,5.225524 -3.12082,7.353564 -4.39814,4.698781 -7.22568,5.831111 -12.0003,5.594915 -1.10247,-0.05379 -2.20621,-0.07251 -3.30977,-0.08609 -2.2454,-0.06859 -4.44462,-0.630536 -6.66508,-0.948166 -3.89935,-0.443848 -7.82968,-0.49159 -11.74967,-0.5373 -2.63067,-0.02138 -5.26125,0.0073 -7.89168,0.03737 -1.59667,0.170189 -2.16036,-1.086308 -2.66267,-2.368629 -1.3157,-3.734533 -2.69876,-7.434483 -3.82584,-11.234766 -2.07801,-8.548028 -2.82928,-17.335601 -3.48082,-26.084981 -0.4292,-6.558585 -1.28913,-13.076978 -1.99862,-19.608467 -0.10651,-2.190619 -0.44313,-4.303116 -1.17144,-6.369322 -0.59872,-1.665267 -1.64238,-3.080599 -2.73949,-4.442121 -0.57019,-0.95542 -1.25899,-1.729346 -2.3739,-1.949466 -1.45842,-0.01279 -3.29157,0.697346 -4.62533,1.27464 -1.08813,0.311728 -2.07961,0.841304 -3.0836,1.345881 -0.31229,0.15695 -1.24638,0.631555 -0.9444,0.455563 12.71282,-7.409134 10.53418,-6.09805 7.43562,-4.219771 -2.56053,1.792202 -4.55238,4.257225 -6.6843,6.514107 -2.27941,2.551236 -4.94926,4.645418 -7.68928,6.663731 -1.70732,1.21778 -3.06039,2.825924 -4.42877,4.394746 -1.19099,1.25822 -1.92854,2.010351 -2.32644,3.72346 -0.28119,3.161409 0.32509,6.313116 0.85446,9.415152 0.77292,4.529299 0.62945,3.63475 1.56204,8.295528 1.4161,7.07525 2.80736,14.154719 3.88206,21.290946 0.37854,2.06821 0.45314,4.171997 0.69292,6.255062 0.007,0.04051 0.0142,0.08102 0.0213,0.121536 0,0 -9.52936,4.853703 -9.52936,4.853703 l 0,0 c 0.007,-0.03663 0.0145,-0.07327 0.0217,-0.109904 0.12208,-2.10924 -0.18286,-4.226509 -0.32356,-6.325582 -0.7888,-7.189946 -2.05266,-14.308601 -3.53858,-21.386318 -1.29266,-5.983359 -0.56345,-2.521411 -1.72742,-8.232748 -0.64087,-3.144607 -1.38257,-6.305684 -1.36627,-9.535369 0.15376,-2.066273 0.57247,-2.810498 2.04571,-4.26037 1.40937,-1.595049 2.73977,-3.297227 4.41414,-4.624603 1.19526,-0.910093 2.4913,-1.694443 3.66252,-2.63358 1.49039,-1.195057 2.84342,-2.571177 4.19646,-3.914101 2.15246,-2.219568 4.08893,-4.650403 6.42591,-6.686317 4.65621,-3.049606 9.46646,-5.981514 14.70662,-7.898433 1.62437,-0.563815 3.42955,-1.284771 5.14322,-0.742019 1.16366,0.521687 2.0145,1.389322 2.66134,2.488513 1.14957,1.466153 2.20186,3.008321 2.88425,4.756667 0.7963,2.17367 1.1834,4.364529 1.14121,6.691221 0.44955,6.624487 1.14663,13.229082 1.5544,19.856713 0.61365,8.646379 1.45745,17.31562 3.68055,25.72156 1.19045,3.730527 2.63744,7.348899 4.10469,10.975419 0.54506,1.281239 0.57729,1.365538 1.9828,1.315872 2.57661,0.02175 5.15313,0.05822 7.72946,0.101879 3.9739,0.07334 7.95913,0.126656 11.91126,0.586943 2.21879,0.326227 4.43228,0.811411 6.68721,0.759269 1.11743,0.0093 2.23388,0.03473 3.35051,0.0778 0.47293,0.0013 0.96511,0.02378 1.42962,-0.08745 0.14096,-0.03375 0.53496,-0.218273 0.41003,-0.144776 -8.43644,4.963151 -11.91204,6.19787 -8.27495,4.874396 1.93696,-1.153835 2.849,-5.070162 3.69279,-6.991565 2.36345,-7.3949 4.24629,-14.917766 5.47469,-22.591149 1.17278,-7.033493 2.44122,-14.053595 3.46639,-21.110065 1.12655,-5.938536 -0.28707,-8.163245 10.61313,-9.748162 1.59886,-0.04263 3.19863,0.01752 4.79778,0.01377 2.80845,0.028 5.61805,0.02181 8.42466,0.143413 2.80982,0.135318 5.61658,0.325252 8.41076,0.658007 1.36254,0.20959 2.47339,0.675444 3.28684,1.848671 1.11906,1.589379 2.28981,3.126203 2.83029,5.037486 1.26364,4.839418 1.39824,9.816811 0.79815,14.779287 -0.77752,6.816748 -2.12177,13.530095 -3.80576,20.18077 -0.37568,1.655668 -1.01065,2.241501 0.92458,2.385857 2.98436,0.182664 5.95827,0.505328 8.93728,0.755503 7.25708,0.614847 14.51953,0.971367 21.80654,0.776419 4.74088,0.01924 9.52236,-0.106077 14.23185,0.509194 1.55687,0.302437 3.0924,0.711473 4.66604,0.921717 1.16446,0.30726 2.17301,0.85201 3.03417,1.709627 0.89497,0.869325 1.75487,1.918075 2.89974,2.437727 3.73557,-0.392741 0.0852,-0.06156 -8.33069,4.995465 -0.17354,0.104278 0.41667,-0.04467 0.58784,-0.152783 1.13245,-0.71526 1.39102,-2.33771 1.90205,-3.433213 2.49162,-7.362993 3.86995,-15.060827 5.1833,-22.704505 0.565,-4.052239 0.99024,-6.895117 1.44183,-10.963255 0.60513,-5.451361 0.96054,-10.931708 1.74825,-16.362825 0.0895,-0.50376 0.38597,-2.787594 0.77518,-3.038243 7.22426,-4.652396 6.94307,-5.612562 12.24876,-5.463404 4.81382,0.03231 9.62838,-0.03293 14.43818,-0.243401 7.58531,-0.385658 15.18675,-0.910868 22.62525,-2.540676 3.00916,-0.66894 6.05169,-1.573292 9.15361,-1.574951 1.05335,0.08187 1.92755,0.333227 2.42909,1.354459 0.42977,1.730215 -0.0309,3.623615 0.28201,5.379639 0.4032,7.474119 0.92732,14.941925 1.21597,22.421963 0.2544,12.284402 -0.0265,24.568334 -0.67652,36.838453 -0.52816,9.231569 -1.0804,18.463306 -1.14311,27.713316 -0.0913,3.19636 0.0821,6.56461 -0.82996,9.65447 -0.40328,1.09304 0.004,2.38554 -0.15707,3.5266 -0.002,1.8472 1.1e-4,3.69438 0.0289,5.54141 0.0196,1.24712 0.0661,2.50021 -0.0272,3.74469 -1.31102,4.70022 -7.35554,5.56073 -11.55613,6.23394 -2.57273,0.48633 -5.16305,0.80245 -7.78532,0.85324 -3.41727,0.11697 -6.8372,0.057 -10.25515,0.16212 -3.1316,0.0874 -6.26049,0.24048 -9.38927,0.39808 -6.31881,0.26889 -12.64526,0.19448 -18.96294,0.51292 -9.01004,0.47632 -17.98132,1.4002 -26.97882,2.05338 -14.4615,0.92745 -28.93828,1.70169 -43.36095,3.13775 -2.92156,0.35372 -5.84907,0.66135 -8.76468,1.06116 -13.67742,1.87554 -27.16641,4.84371 -40.50449,8.37874 -12.08192,3.09953 -24.25382,6.292 -36.8128,6.45877 -7.92288,0.0365 -15.82024,-0.37148 -23.68074,-1.41375 -1.93962,-0.2664 -3.98183,-0.38608 -5.84244,-1.01267 -1.07545,-0.68439 -1.34325,-1.56153 -1.33443,-2.79992 -0.19901,-1.40736 -0.54771,-2.79297 -1.47769,-3.91126 -0.74921,-0.76188 -1.61203,-1.38305 -2.68875,-1.57551 -1.26786,-0.40878 -2.09161,-1.27439 -2.15949,-2.66237 0.0506,-3.12795 0.14178,-6.25528 0.14218,-9.38395 0.01,-7.98666 -0.11307,-15.97391 -0.50425,-23.95207 -0.48212,-9.15987 -1.18469,-18.31439 -1.24976,-27.490691 -0.0301,-6.345857 0.26431,-12.688481 0.1818,-19.031769 0,0 9.4016,-4.790353 9.4016,-4.790353 z"
       inkscape:connector-curvature="0"
       inkscape:export-xdpi="22.267284"
       inkscape:export-ydpi="22.267284" />
    <path
       style="fill:#000000;fill-opacity:1;fill-rule:nonzero;stroke:none;stroke-width:1px;stroke-linecap:butt;stroke-linejoin:miter;stroke-opacity:1"
       id="path3368"
       d="m 448.82954,366.52734 c -0.87965,2.55311 -1.77753,5.09791 -2.81704,7.59112 -0.47083,1.28599 -1.02698,2.52989 -1.58454,3.77825 -0.21036,0.4888 -0.29654,0.94527 -0.22136,1.46765 0,0 -9.38585,5.00969 -9.38585,5.00969 l 0,0 c -0.15597,-0.68047 -0.29767,-1.30643 -0.0238,-1.98252 0.39251,-1.35606 1.29307,-2.5108 1.65587,-3.89018 1.11774,-2.4247 2.10558,-4.92042 2.77639,-7.50866 0,0 9.6003,-4.46535 9.6003,-4.46535 z"
       inkscape:connector-curvature="0"
       inkscape:export-xdpi="22.267284"
       inkscape:export-ydpi="22.267284" />
    <path
       style="fill:#000000;fill-opacity:1;fill-rule:nonzero;stroke:none;stroke-width:1px;stroke-linecap:butt;stroke-linejoin:miter;stroke-opacity:1"
       id="path3370"
       d="m 440.43484,374.21192 c -0.10226,2.99963 -0.0815,6.00222 -0.0573,9.00306 0.007,2.15768 0.0306,4.31525 0.0443,6.47289 0.01,1.17192 -0.002,2.34437 0.0438,3.51559 0,0 -9.50275,4.84189 -9.50275,4.84189 l 0,0 c 0.0448,-1.18615 0.0347,-2.37341 0.0438,-3.56023 0.0136,-2.17267 0.0374,-4.34528 0.0443,-6.518 0.0239,-2.98136 0.0463,-5.9646 -0.0572,-8.94472 0,0 9.44111,-4.81048 9.44111,-4.81048 z"
       inkscape:connector-curvature="0"
       inkscape:export-xdpi="22.267284"
       inkscape:export-ydpi="22.267284" />
    <path
       style="fill:#b3b3b3;fill-opacity:1;fill-rule:nonzero;stroke:none;stroke-width:1px;stroke-linecap:butt;stroke-linejoin:miter;stroke-opacity:1"
       id="path3372"
       d="m 276.91817,375.58219 c 0.5024,3.55172 0.82058,7.12249 1.05377,10.70073 0.24547,3.01609 0.24796,6.02016 -0.0116,9.03157 -0.14428,1.5054 -0.26557,3.01237 -0.33444,4.52308 -0.004,0.15099 -0.007,0.30198 -0.0111,0.45298 0,0 -9.49126,4.79649 -9.49126,4.79649 l 0,0 c 0.007,-0.15664 0.013,-0.31327 0.0195,-0.46991 0.0651,-1.54665 0.22994,-3.0848 0.40791,-4.62204 0.31948,-2.97879 0.45137,-5.94904 0.20028,-8.94369 -0.1966,-3.53147 -0.43476,-7.08251 -1.21287,-10.54212 0,0 9.37975,-4.92709 9.37975,-4.92709 z"
       inkscape:connector-curvature="0"
       inkscape:export-xdpi="22.267284"
       inkscape:export-ydpi="22.267284" />
    <path
       style="fill:#b3b3b3"
       d="m 274.80888,402.08582 c 2.77844,-1.44631 3.39534,-2.11937 3.40656,-3.71674 0.0604,-8.59853 1.78843,-30.34061 3.52291,-44.3261 1.15347,-9.30061 4.35604,-34.91021 7.11682,-56.91021 8.00826,-63.81582 9.28096,-78.28901 9.42156,-107.14285 0.044,-9.03572 0.28624,-18.33833 0.53825,-20.67248 l 0.45819,-4.2439 7.85714,-1.99522 c 24.63837,-6.2566 42.32703,-9.18947 65.71428,-10.89576 34.23286,-2.49758 55.49938,-3.9307 63.64945,-4.28925 l 8.64943,-0.38052 0.45771,4.37906 c 0.68667,6.56973 0.54931,32.56555 -0.26169,49.52664 -0.99498,20.80886 -1.78027,30.76711 -4.98499,63.21428 -2.54857,25.8039 -3.33124,34.63645 -4.71543,53.21429 -0.26343,3.53571 -0.67853,17.93467 -0.92243,31.99769 l -0.44347,25.5691 1.60714,-0.40415 c 2.60843,-0.65594 1.85125,0.1896 -1.84885,2.06458 l -3.456,1.75129 0.32692,5.64733 0.32692,5.64733 -9.19236,0.48942 c -11.02459,0.58697 -28.831,2.24837 -69.90663,6.52254 -31.92558,3.32205 -48.9398,4.85706 -67.14286,6.05758 -14.3376,0.94558 -14.15405,0.96549 -10.17857,-1.10395 z"
       id="path3374"
       inkscape:connector-curvature="0"
       inkscape:export-xdpi="22.267284"
       inkscape:export-ydpi="22.267284" />
    <path
       style="fill:#b3b3b3"
       d="m 257.99614,161.37475 c -3.45237,-0.53723 -6.5863,-1.16793 -6.96429,-1.40154 -0.37799,-0.23361 -0.68726,-1.23407 -0.68726,-2.22325 0,-1.78685 -2.96789,-5.41601 -4.97678,-6.08564 -0.84198,-0.28066 -1.13224,-3.39255 -1.55991,-16.7239 -0.65916,-20.54712 -1.24294,-53.601039 -0.84121,-47.629074 0.17558,2.609946 0.62912,4.464285 1.0919,4.464285 0.43537,0 2.8333,-1.141797 5.32874,-2.537329 3.78522,-2.116815 4.48374,-2.797495 4.21479,-4.107143 -0.17731,-0.863397 -0.5284,-3.176956 -0.7802,-5.141242 -0.2518,-1.964286 -1.71577,-10.286881 -3.25328,-18.494656 -1.53751,-8.207774 -2.79628,-16.404202 -2.79728,-18.214285 -0.002,-3.174316 0.17971,-3.455754 5.11514,-7.933916 2.81432,-2.553571 7.1316,-6.651786 9.59397,-9.107143 5.28525,-5.270214 7.07377,-5.652781 9.78838,-2.093742 2.89358,3.79367 3.01834,4.562101 6.22526,38.343742 0.99239,10.453812 2.39212,17.230012 5.1116,24.745644 1.67097,4.617964 2.51193,6.049399 3.70063,6.298978 0.84604,0.177642 6.68111,0.501092 12.96683,0.718785 6.28571,0.217693 13.17016,0.587507 15.29878,0.821815 2.19329,0.241428 5.06123,0.06921 6.61899,-0.397543 3.61523,-1.08315 7.6552,-4.701762 9.2208,-8.259107 1.94868,-4.427793 4.83113,-16.478699 7.68822,-32.142858 l 2.60566,-14.285714 7.5676,0 c 8.1909,0 9.15262,0.356227 11.09327,4.109031 2.8834,5.575893 2.6118,15.260208 -0.83289,29.698146 -2.10907,8.839854 -2.12321,9.162695 -0.44078,10.063105 0.72581,0.388442 11.09188,1.051635 23.03572,1.473762 11.94383,0.422127 23.27565,1.083549 25.18183,1.469826 1.99072,0.403414 4.568,1.610879 6.0556,2.837084 1.4244,1.174118 3.15667,2.13476 3.84947,2.13476 0.69281,0 2.73348,-1.125 4.53483,-2.5 1.80135,-1.375 3.53708,-2.5 3.8572,-2.5 1.93122,0 5.6589,-16.686447 8.26269,-36.986935 0.99358,-7.746471 1.92693,-14.434723 2.07409,-14.862782 0.16771,-0.487793 4.35812,-0.952253 11.22682,-1.244365 6.02758,-0.256341 14.17352,-1.002715 18.1021,-1.658608 3.92857,-0.655893 8.58475,-1.22093 10.34705,-1.255636 l 3.2042,-0.0631 0.95796,8.928571 c 1.82755,17.033599 1.13097,56.626193 -1.47033,83.571426 -0.43616,4.51786 -0.81618,10.22322 -0.84452,12.67857 l -0.0515,4.46429 -7.57888,0 c -4.16837,0 -8.9898,0.18731 -10.71428,0.41626 l -3.13541,0.41625 -1.78571,-3.77802 c -2.59457,-5.48928 -3.26592,-5.65739 -8.47275,-2.1215 -4.03903,2.74285 -4.31685,3.09373 -3.27472,4.13587 1.69717,1.69717 0.15321,2.33252 -5.75253,2.3672 -2.75,0.0162 -8.20082,0.34056 -12.11292,0.72091 -3.9121,0.38035 -15.96567,1.34204 -26.78571,2.13708 -39.38066,2.89365 -51.22374,4.59686 -79.20067,11.39026 -9.68824,2.35252 -20.46959,4.76808 -23.95855,5.36793 -7.88323,1.35532 -26.8645,1.34226 -35.64775,-0.0246 l 0,3e-5 z"
       id="path3376"
       inkscape:connector-curvature="0"
       inkscape:export-xdpi="22.267284"
       inkscape:export-ydpi="22.267284" />
    <path
       style="fill:#b3b3b3"
       d="m 224.40087,484.54589 c 0.61167,-10.49286 3.13538,-37.12573 4.90367,-51.74874 0.99432,-8.22255 2.0045,-16.975 2.24484,-19.44989 0.36369,-3.74491 0.62881,-4.42325 1.58039,-4.04354 3.66875,1.46397 11.41687,1.78703 25.42911,1.06028 17.02831,-0.88319 40.63263,-2.59973 49.64286,-3.61011 9.5057,-1.06593 10.24507,-0.93976 6.3583,1.08508 l -3.28455,1.7111 -0.48116,5.21992 c -0.26464,2.87096 -1.59609,10.20207 -2.95877,16.29136 -2.46219,11.00251 -2.47512,11.03474 -2.07806,5.17857 0.2898,-4.27409 0.16827,-5.89286 -0.44241,-5.89286 -0.46307,0 -2.73516,1.00907 -5.04908,2.24238 -3.91973,2.08919 -4.20713,2.41525 -4.20713,4.77305 0,3.54168 -1.49037,14.78597 -2.08796,15.75289 -0.97614,1.57943 -8.86341,2.39707 -19.34061,2.00496 -8.59426,-0.32163 -12.18082,-0.82973 -21.07143,-2.98511 -18.02378,-4.36958 -16.40127,-4.33076 -21.74124,-0.52023 l -4.61143,3.29064 5.67634,0.95476 c 3.12198,0.52511 8.38975,1.59732 11.70616,2.3827 16.08918,3.81015 29.72689,4.53321 41.11303,2.1798 3.53571,-0.7308 6.56181,-1.20823 6.72467,-1.06095 1.04803,0.94782 -5.28753,18.08431 -8.59818,23.25642 -1.89338,2.95797 -2.56645,3.43748 -5.84737,4.1658 -2.03923,0.45268 -10.77912,1.10183 -19.42198,1.44255 -8.64286,0.34071 -19.93325,0.83772 -25.08976,1.10445 l -9.37547,0.48497 0.30722,-5.27025 z"
       id="path3378"
       inkscape:connector-curvature="0"
       inkscape:export-xdpi="22.267284"
       inkscape:export-ydpi="22.267284" />
    <path
       style="fill:#000000"
       id="path3380"
       d="m 225.0432,526.66881 c 4.1633,0.69554 8.28908,1.64841 12.47237,2.23352 3.35726,0.2952 6.71452,0.59414 10.07259,0.88824 0,0 -8.57491,6.09839 -8.57491,6.09839 l 0,0 c -3.31068,-0.38413 -6.63383,-0.63325 -9.94009,-1.0484 -4.2506,-0.7192 -8.4791,-1.56651 -12.74931,-2.15749 0,0 8.71935,-6.01426 8.71935,-6.01426 z"
       inkscape:connector-curvature="0"
       inkscape:export-xdpi="22.267284"
       inkscape:export-ydpi="22.267284" />
    <path
       style="fill:#000000"
       id="path3382"
       d="m 302.07314,523.3956 c 4.17642,-0.17175 8.35636,0.28335 12.52287,0.55113 2.71475,0.18162 5.4339,0.27913 8.15424,0.31209 0,0 -8.53596,6.17578 -8.53596,6.17578 l 0,0 c -2.68536,-0.0746 -5.36588,-0.24182 -8.04364,-0.45758 -4.17949,-0.32747 -8.41274,-0.80454 -12.59102,-0.24767 0,0 8.49351,-6.33375 8.49351,-6.33375 z"
       inkscape:connector-curvature="0"
       inkscape:export-xdpi="22.267284"
       inkscape:export-ydpi="22.267284" />
    <path
       style="fill:#000000"
       id="path3384"
       d="m 371.13203,517.84191 c 3.91901,1.93422 7.71657,4.08813 11.49743,6.27691 1.80659,1.00723 0.9375,0.55177 2.60039,1.37946 0,0 -8.77331,5.74324 -8.77331,5.74324 l 0,0 c -1.62407,-0.9125 -0.77819,-0.41978 -2.53269,-1.48666 -3.72225,-2.28724 -7.56995,-4.38472 -11.57673,-6.13279 0,0 8.78491,-5.78016 8.78491,-5.78016 z"
       inkscape:connector-curvature="0"
       inkscape:export-xdpi="22.267284"
       inkscape:export-ydpi="22.267284" />
    <path
       style="fill:#b3b3b3"
       id="path3386"
       d="m 412.07314,533.3956 c 4.04691,0.11568 8.08035,0.60557 12.00736,1.58525 5.02935,1.52986 9.84333,3.65563 14.81507,5.36581 3.7327,1.09003 7.23621,2.76152 10.82887,4.21877 0,0 -8.63002,5.76778 -8.63002,5.76778 l 0,0 c -3.5501,-1.49187 -7.09114,-3.00094 -10.75357,-4.20358 -4.91411,-1.77364 -9.67215,-4.01481 -14.75761,-5.26853 -3.92663,-0.85629 -7.97628,-1.49932 -12.00361,-1.13175 0,0 8.49351,-6.33375 8.49351,-6.33375 z"
       inkscape:connector-curvature="0"
       inkscape:export-xdpi="22.267284"
       inkscape:export-ydpi="22.267284" />
    <path
       style="fill:#b3b3b3"
       d="m 250.88503,531.98604 c -2.25634,-0.59201 -3.94745,-1.32713 -3.75804,-1.63362 0.42889,-0.69395 -2.13056,-1.41126 -5.08169,-1.42418 -1.22532,-0.006 -5.02345,-0.49726 -8.44028,-1.09311 -3.41682,-0.59584 -6.99464,-1.14809 -7.9507,-1.22721 l -1.7383,-0.14387 0,-15.12701 0,-15.12701 5.53572,-0.41362 c 3.04464,-0.22749 11.96428,-0.61217 19.82143,-0.85483 17.85394,-0.55141 23.82386,-1.53785 31.44852,-5.19642 10.57484,-5.07416 14.1105,-9.87814 18.93698,-25.73016 l 2.47164,-8.11777 3.92136,-1.74014 c 5.36488,-2.3807 6.9554,-4.07451 7.86054,-8.37104 2.6201,-12.43698 7.14841,-35.96911 7.15761,-37.19576 0.006,-0.80163 0.25092,-1.83481 0.54424,-2.29596 0.77828,-1.22358 71.70233,-8.73226 93.01625,-9.84755 4.51786,-0.23641 9.90178,-0.60369 11.96428,-0.81617 3.44153,-0.35456 3.75,-0.2646 3.75,1.09362 0,1.86898 0.70423,1.85917 3.94859,-0.055 2.51291,-1.48266 3.12959,-1.52048 18.07654,-1.10883 16.80161,0.46273 27.89237,1.6237 43.17352,4.51935 8.17451,1.549 9.98935,2.1228 10.71429,3.38755 1.39712,2.43744 0.8331,15.95887 -1.20799,28.95945 -1.01223,6.44738 -1.92244,11.76548 -2.02268,11.818 -1.69295,0.88702 -20.67729,6.37667 -26.25369,7.59171 -6.52348,1.4214 -8.04046,2.04516 -11.65083,4.79063 -2.28296,1.73605 -4.01032,3.29697 -3.83859,3.4687 0.49934,0.49934 17.99275,-3.85099 26.36907,-6.55755 4.21595,-1.36226 8.27082,-2.47684 9.01081,-2.47684 0.74,0 2.2093,-0.67951 3.26511,-1.51001 1.05581,-0.8305 2.06683,-1.36283 2.2467,-1.18295 0.17988,0.17988 -0.4657,5.43973 -1.43461,11.68857 -2.95396,19.05104 -4.6423,32.23432 -5.69624,44.47886 -0.55335,6.42883 -1.27472,11.94746 -1.60305,12.26364 -1.06671,1.02726 -8.92707,2.11923 -15.19242,2.11055 -9.9319,-0.0138 -16.86706,-2.43661 -21.9681,-7.67471 -4.13235,-4.24339 -6.02553,-9.54522 -6.47426,-18.13113 l -0.35988,-6.88574 -4.9592,2.24289 -4.95919,2.24288 0.3528,6.64059 0.3528,6.64058 -3.6973,1.63513 -3.69729,1.63511 -1.25459,6.01001 c -1.46752,7.02998 -2.37339,8.45715 -8.17598,12.88085 -10.37563,7.91005 -26.7263,9.28134 -33.92918,2.84557 -2.12004,-1.89426 -2.25785,-2.31469 -2.21602,-6.76099 0.0245,-2.60763 -0.0865,-4.74113 -0.24672,-4.74113 -0.16024,0 -1.92664,0.82867 -3.92533,1.84148 -2.40869,1.22057 -4.22419,1.69336 -5.38436,1.40217 -1.57378,-0.39499 -1.69117,-0.67083 -1.16368,-2.73434 0.32267,-1.26226 0.5793,-4.38431 0.57029,-6.93788 l -0.0164,-4.64286 8.58782,-0.0421 c 6.96523,-0.0342 9.88406,-0.3969 15.4485,-1.91978 16.78085,-4.59259 39.40001,-17.23531 50.25306,-28.08836 8.87339,-8.87339 10.72622,-15.04724 6.36137,-21.19684 l -2.15676,-3.0386 5.05508,-2.5 c 6.69587,-3.31144 7.55793,-4.98592 7.5385,-14.64285 -0.008,-3.92857 -0.49255,-10.51786 -1.077,-14.64286 -0.58445,-4.125 -1.26523,-10.60034 -1.51285,-14.38965 l -0.4502,-6.88966 -4.70632,2.11158 c -2.58847,1.16137 -4.9537,2.49386 -5.25607,2.96108 -0.59917,0.92585 -0.38851,2.93806 1.65929,15.84951 1.36938,8.6339 1.8504,24.9077 0.78575,26.58318 -0.63586,1.00067 -6.59625,2.62629 -15.2203,4.15114 -8.52785,1.50784 -32.63044,2.71994 -45.6076,2.29357 l -11.04475,-0.36288 -4.13382,2.91525 c -2.2736,1.60339 -4.13382,3.22143 -4.13382,3.59565 0,0.86236 38.99293,0.10375 48.92857,-0.9519 6.69222,-0.71105 16.29985,-2.28701 20.35715,-3.33924 l 1.78571,-0.46311 -1.73366,1.4339 -1.73365,1.43391 1.93038,2.06955 c 5.33325,5.71774 3.74616,11.20331 -5.94398,20.54464 -3.44224,3.31832 -7.3458,6.59057 -8.67457,7.27164 -1.32877,0.68108 -2.57666,1.47274 -2.77309,1.75926 -0.55203,0.80522 -7.20868,4.03929 -12.99328,6.31266 -13.332,5.23954 -26.58859,6.28734 -37.53886,2.96706 -3.44701,-1.04518 -5.89077,-2.17213 -5.89286,-2.71752 -0.002,-0.60567 -1.75358,-0.0122 -5.00357,1.69562 -2.75,1.44509 -5,2.8702 -5,3.16692 0,0.29672 0.8286,2.3494 1.84133,4.5615 1.20343,2.62863 1.97866,5.83778 2.23774,9.26331 l 0.39639,5.24131 -2.55236,1.94678 c -1.43016,1.09084 -2.39222,2.36415 -2.18811,2.89603 0.39484,1.02895 -3.13416,1.98101 -12.19574,3.29022 -8.1303,1.17467 -16.67792,-0.20765 -27.82238,-4.49942 -5.38537,-2.07392 -5.72931,-2.1195 -7.61021,-1.00842 -1.34763,0.79607 -3.65765,1.16367 -7.31241,1.16367 l -5.34248,0 1.69485,-4.19602 c 2.94476,-7.2905 5.44917,-19.13701 5.54828,-26.24486 0.0554,-3.969 0.36977,-6.4278 0.8051,-6.2959 0.39285,0.11902 5.375,1.72677 11.07143,3.57277 8.48476,2.7496 11.59698,3.41988 17.21538,3.70772 7.91742,0.40562 10.1447,-0.14469 17.42747,-4.30599 6.08066,-3.47441 8.58122,-5.7052 10.5951,-9.452 1.38745,-2.58137 1.53627,-3.96027 1.54172,-14.28572 0.006,-10.984 0.0797,-11.56749 1.89962,-15 1.04147,-1.96428 2.76079,-4.375 3.82071,-5.35714 4.83211,-4.47755 8.12574,-15.32882 8.72632,-28.75 0.30066,-6.71899 0.18797,-9.10714 -0.42977,-9.10714 -0.46051,0 -2.73708,0.95901 -5.05905,2.13113 l -4.22175,2.13114 -0.0264,6.97601 c -0.0366,9.67508 -1.73315,17.95339 -4.98579,24.3291 -1.74076,3.41217 -2.22081,3.59567 -16.14638,6.17188 -10.08858,1.86637 -23.01472,3.62711 -32.33255,4.40418 -5.38129,0.44879 -6.23071,0.73756 -9.64146,3.27778 -6.22667,4.63742 -6.76187,4.52687 11.25973,2.32567 12.14845,-1.48384 29.40768,-4.31889 34.80178,-5.71665 2.35665,-0.61067 4.39699,-0.99814 4.53408,-0.86104 0.13709,0.13709 -0.41049,2.32475 -1.21686,4.86146 -1.28142,4.0311 -1.40882,5.7072 -1.01127,13.3034 0.41712,7.97017 0.32634,8.96463 -1.09433,11.98696 -2.09598,4.45902 -3.24147,4.9294 -10.95772,4.49961 -5.38573,-0.29998 -8.60193,-1.05993 -18.98425,-4.48573 -18.29986,-6.03832 -21.83413,-5.87501 -31.78572,1.46872 -2.5482,1.88043 -3.05981,2.50166 -1.78571,2.16831 0.98214,-0.25696 3.71428,-0.60954 6.07143,-0.7835 l 4.28571,-0.3163 -2.26828,1.16835 -2.26828,1.16836 0.39978,6.17069 c 0.58147,8.97511 -2.94683,24.67377 -7.40706,32.95663 l -1.75802,3.26474 -12.27764,1.57159 c -13.95646,1.78648 -21.8817,1.87871 -27.80864,0.32363 l -1e-5,0 z"
       id="path3388"
       inkscape:connector-curvature="0"
       inkscape:export-xdpi="22.267284"
       inkscape:export-ydpi="22.267284" />
    <path
       style="fill:#b3b3b3"
       d="m 434.27317,538.32939 c -4.71429,-1.7138 -10.4778,-3.51136 -12.8078,-3.99459 l -4.23637,-0.8786 6.18587,-3.73644 c 7.07083,-4.27098 12.9943,-8.68599 15.30383,-11.40658 0.87361,-1.02911 1.79463,-3.24643 2.0467,-4.92739 0.25208,-1.68096 0.74266,-3.23203 1.09019,-3.44681 0.34752,-0.21478 0.63186,-0.10522 0.63186,0.24347 0,0.34868 0.9584,2.08089 2.12976,3.84933 l 2.12977,3.21536 -1.48527,7.79996 c -0.8169,4.28998 -1.69493,9.73458 -1.95119,12.09912 l -0.46593,4.29915 -8.57142,-3.11598 z"
       id="path3390"
       inkscape:connector-curvature="0"
       inkscape:export-xdpi="22.267284"
       inkscape:export-ydpi="22.267284" />
    <path
       style="fill:#b3b3b3"
       d="m 467.84459,553.67192 c -5.1427,-1.33994 -9.01833,-3.53188 -11.91613,-6.73939 -3.72694,-4.12528 -4.18614,-8.96536 -1.95032,-20.55704 l 0.69716,-3.61442 4.79893,1.25182 c 8.34558,2.17698 21.69671,1.40115 32.74299,-1.90267 1.49547,-0.44728 1.51168,-0.34163 1.22788,7.99893 -0.15818,4.64871 -0.46324,10.45454 -0.67791,12.90185 -0.3743,4.26717 -0.50287,4.51292 -3.13483,5.99216 -1.50948,0.84838 -2.88819,2.09193 -3.0638,2.76345 -0.57962,2.21646 -12.76914,3.45684 -18.72397,1.90531 z"
       id="path3392"
       inkscape:connector-curvature="0"
       inkscape:export-xdpi="22.267284"
       inkscape:export-ydpi="22.267284" />
  </g>
</svg>
