<?xml version="1.0" encoding="UTF-8" standalone="no"?>
<!-- Created with Inkscape (http://www.inkscape.org/) -->

<svg
   xmlns:dc="http://purl.org/dc/elements/1.1/"
   xmlns:cc="http://creativecommons.org/ns#"
   xmlns:rdf="http://www.w3.org/1999/02/22-rdf-syntax-ns#"
   xmlns:svg="http://www.w3.org/2000/svg"
   xmlns="http://www.w3.org/2000/svg"
   xmlns:sodipodi="http://sodipodi.sourceforge.net/DTD/sodipodi-0.dtd"
   xmlns:inkscape="http://www.inkscape.org/namespaces/inkscape"
   width="210mm"
   height="297mm"
   viewBox="0 0 744.09448819 1052.3622047"
   id="svg2"
   version="1.1"
   inkscape:version="0.91 r13725"
   sodipodi:docname="water.svg">
  <defs
     id="defs4" />
  <sodipodi:namedview
     id="base"
     pagecolor="#ffffff"
     bordercolor="#666666"
     borderopacity="1.0"
     inkscape:pageopacity="0.0"
     inkscape:pageshadow="2"
     inkscape:zoom="1.4"
     inkscape:cx="307.84405"
     inkscape:cy="755.75835"
     inkscape:document-units="px"
     inkscape:current-layer="layer1"
     showgrid="false"
     inkscape:window-width="1855"
     inkscape:window-height="1056"
     inkscape:window-x="65"
     inkscape:window-y="24"
     inkscape:window-maximized="1" />
  <metadata
     id="metadata7">
    <rdf:RDF>
      <cc:Work
         rdf:about="">
        <dc:format>image/svg+xml</dc:format>
        <dc:type
           rdf:resource="http://purl.org/dc/dcmitype/StillImage" />
        <dc:title></dc:title>
      </cc:Work>
    </rdf:RDF>
  </metadata>
  <g
     inkscape:label="Layer 1"
     inkscape:groupmode="layer"
     id="layer1">
    <path
       style="fill:#000000;fill-opacity:1;fill-rule:nonzero;stroke:none;stroke-width:1px;stroke-linecap:butt;stroke-linejoin:miter;stroke-opacity:1"
       id="path3336"
       d="m 246.91139,266.1297 c 3.68177,0.4979 7.39224,0.64451 11.0927,0.55992 4.72742,0.084 9.33901,-1.06181 13.7891,-2.98391 2.83759,-1.52984 10.28209,-6.28272 -2.33623,2.11377 -0.57207,0.38067 1.09016,-0.8791 1.61259,-1.35917 1.23127,-1.13147 1.75268,-1.78224 2.87152,-3.04629 2.20997,-2.48402 4.07333,-5.37025 5.95094,-8.23515 1.29177,-2.03031 2.42098,-4.20966 3.60339,-6.33914 0.64456,-1.02046 0.87506,-2.25401 1.2149,-3.44601 3.50111,-9.99713 7.25269,-8.69209 10.3557,-4.70074 1.99937,3.5008 3.78904,7.16759 5.86633,10.60174 3.56871,5.78955 7.93713,9.72849 12.96525,13.27665 4.39088,2.91971 9.20203,4.46543 14.08754,5.3645 3.03926,0.52731 6.10908,0.63677 9.08252,-0.38533 1.89999,-0.61028 3.53072,-2.01825 5.26004,-3.12641 -14.17892,9.49896 -6.97411,5.78757 -4.41751,2.68033 0.45892,-0.86618 0.84114,-1.7406 1.40043,-2.51273 0.29574,-0.73475 0.63686,-1.38004 1.03248,-2.04038 0.55721,-1.01288 1.21544,-1.86746 1.93026,-2.69937 1.32251,-1.67121 2.87943,-3.012 4.3734,-4.42721 1.543,-1.49834 3.0483,-3.05961 4.37304,-4.86118 2.10174,-3.94253 5.9959,-10.38708 10.01237,-7.9183 1.6338,1.50538 2.49352,3.89003 3.28226,6.15575 1.05261,3.90028 2.89895,7.12494 5.19513,10.00899 3.06451,3.48746 6.56577,6.30563 10.18024,8.80188 3.62435,2.52302 7.59407,3.88808 11.64789,4.78418 2.56654,0.29988 5.19527,0.53216 7.74793,-0.089 1.23461,-0.3004 2.05828,-0.73182 3.23199,-1.2587 2.91883,-1.49522 9.37853,-5.47074 -3.38942,2.83838 -0.52361,0.34075 0.97083,-0.84194 1.43924,-1.29177 1.27299,-1.22247 1.50583,-1.56065 2.66757,-2.92078 1.80648,-2.16502 3.51756,-4.46524 5.0875,-6.90447 0.62321,-1.11685 1.21808,-2.25375 1.51396,-3.57435 0.94158,-6.12677 0.16835,-2.47355 8.88767,-8.48064 1.92893,1.97226 3.59597,4.31491 5.41903,6.44326 2.90519,3.28306 5.52921,6.92136 8.45571,10.17539 2.70241,2.94517 5.77965,5.23669 9.04109,7.0532 3.42009,1.66447 7.01655,2.36768 10.66465,2.49859 3.53588,0.14423 7.01862,-0.70272 10.37916,-2.01671 1.11561,-0.55458 2.26933,-0.96919 3.31767,-1.71745 0.26713,-0.19067 1.04278,-0.81608 0.77563,-0.62545 -5.61378,4.00547 -9.87908,7.22088 -6.74696,4.86382 0.42629,-0.29502 0.79304,-0.69679 1.17639,-1.06805 0,0 8.79166,-4.38663 8.79166,-4.38663 l 0,0 c -0.41057,0.37531 -0.83803,0.72616 -1.18384,1.20011 -4.36222,3.31291 -8.57255,7.02305 -13.48556,8.84277 -3.4246,1.13921 -6.92668,1.89104 -10.48538,1.64899 -3.73351,-0.26175 -7.42827,-1.00215 -10.89628,-2.84157 -3.29851,-1.95275 -6.44264,-4.28855 -9.1635,-7.36793 -2.90272,-3.29583 -5.5494,-6.91867 -8.48601,-10.1689 -2.13029,-2.42383 -0.53185,-0.58171 -2.49006,-2.89598 -0.72238,-0.85374 -1.67194,-2.42592 -2.71976,-2.5785 2.63999,-1.93079 5.30364,-3.81152 7.91997,-5.79237 0.0803,-0.0608 -0.20652,-0.062 -0.28131,0.009 -0.35162,0.33402 -0.28192,1.60361 -0.36714,2.0748 -0.25416,1.50684 -0.71237,2.78209 -1.41016,4.05501 -1.51545,2.5935 -3.38651,4.86149 -5.18159,7.14304 -4.63985,5.78184 -10.39656,10.11695 -16.55174,12.8984 -1.38271,0.5253 -1.87818,0.78414 -3.32889,1.04279 -2.60893,0.46515 -5.26263,0.19926 -7.86064,-0.22077 -4.12167,-1.00118 -8.15468,-2.45693 -11.82666,-5.08571 -3.66106,-2.59971 -7.2106,-5.50555 -10.3402,-9.05198 -2.37499,-2.97698 -4.32221,-6.30239 -5.44799,-10.3159 -0.55374,-1.52855 -1.46208,-4.54092 -2.91513,-5.01474 -2.49118,2.60377 -0.13978,0.12639 7.58839,-5.60072 0.1084,-0.0804 -0.2246,0.15218 -0.31402,0.2634 -0.38716,0.48155 -0.62864,1.18288 -0.88806,1.76609 -1.21358,2.01738 -2.85168,3.52504 -4.3678,5.15987 -1.46804,1.35146 -2.96652,2.70086 -4.31372,4.22921 -0.67059,0.85924 -1.45693,1.48655 -1.95534,2.53249 -0.41339,0.64991 -0.84523,1.16733 -1.07051,1.93796 -0.35581,0.99412 -1.20064,1.50348 -1.38138,2.66008 -2.41807,4.57343 -10.50696,5.08652 -11.57069,9.31384 -1.72967,1.14237 -3.41765,2.42344 -5.37345,2.86367 -3.04035,0.72367 -6.11887,0.54301 -9.16608,-0.0924 -4.92246,-1.06964 -9.7616,-2.76005 -14.16867,-5.79261 -5.03222,-3.66086 -9.56947,-7.83449 -13.21069,-13.61413 -2.0959,-3.35076 -3.9365,-6.92939 -6.04769,-10.25959 -0.1597,-0.17766 -0.6379,-0.75135 -0.88921,-0.90993 -0.0738,-0.0465 -0.16439,-0.0881 -0.24359,-0.0584 -0.0675,0.0254 -0.1983,0.24617 -0.13765,0.20121 3.71874,-2.75635 10.51535,-7.95893 7.52974,-5.67399 -0.50015,1.18552 -0.56205,2.56432 -1.20464,3.68443 -1.17971,2.19651 -2.44179,4.32428 -3.65604,6.49351 -1.95371,2.85055 -3.7325,5.90196 -5.98536,8.41477 -0.90876,1.06889 -1.86363,2.23659 -2.84364,3.20271 -4.5192,4.45519 -9.73527,7.86351 -15.06828,10.51402 -4.52395,1.76471 -9.17925,2.76829 -13.93335,2.68574 -3.80542,0.0462 -7.61302,-0.10863 -11.40806,-0.47396 0,0 7.69491,-6.83304 7.69491,-6.83304 z"
       inkscape:connector-curvature="0" />
    <path
       style="fill:#000000;fill-opacity:1;fill-rule:nonzero;stroke:none;stroke-width:1px;stroke-linecap:butt;stroke-linejoin:miter;stroke-opacity:1"
       id="path3338"
       d="m 242.07051,361.68272 c 2.81821,-3.52919 5.29027,-7.31325 8.03524,-10.90016 3.4379,-4.33506 6.46932,-8.95999 9.37389,-13.66211 1.76337,-3.00047 3.46895,-6.06998 4.808,-9.28786 0.56247,-1.45584 0.82973,-2.99559 1.26063,-4.49082 1.14882,-4.83368 5.48399,-4.77384 10.58776,-7.62756 1.01812,-0.13878 1.97826,0.57582 2.65512,1.26954 1.31921,1.57137 2.43059,3.3157 3.59828,5.00278 1.76589,3.13351 3.94966,5.97442 6.2782,8.70309 2.35697,2.87502 5.30946,5.14196 8.05044,7.6194 2.19804,2.26414 4.99555,3.55728 7.81886,4.83982 2.85768,1.27016 5.94456,1.59197 9.02768,1.78284 3.32965,0.10766 6.66816,0.19771 9.99549,0.009 4.386,-0.38257 8.60408,-1.70476 12.75134,-3.11257 2.04869,-0.65194 3.98247,-1.58439 5.86857,-2.60411 0.54469,-0.29449 2.15797,-1.21559 1.62137,-0.9066 -8.33559,4.79986 -9.81023,5.77633 -6.21567,3.46931 1.64968,-1.00044 3.15913,-2.19437 4.49661,-3.58224 0.34434,-0.11536 0.79147,-1.59493 0.87833,-1.64628 9.5174,-5.62706 7.18651,-8.06067 9.96935,-4.65452 0.84975,1.47231 1.19454,3.14338 1.48564,4.7977 0.12302,1.55548 0.94792,2.69872 1.70892,3.98357 1.0774,1.71165 1.87721,3.57461 2.99715,5.25839 1.45926,2.19975 3.55905,3.6525 5.88918,4.80278 2.95082,1.44589 6.02273,2.44133 9.25404,2.99516 4.52524,0.41481 8.98366,-0.81153 13.14139,-2.49337 0.68593,-0.35182 1.3833,-0.68218 2.0578,-1.05545 0.62339,-0.34499 2.45884,-1.44012 1.83379,-1.09814 -2.40403,1.31529 -4.72504,2.78465 -7.17179,4.01865 -0.55836,0.28161 1.00093,-0.75071 1.48271,-1.1494 0.57879,-0.47895 1.91594,-1.72119 2.48217,-2.24182 2.22041,-2.05038 3.92872,-4.57864 5.38258,-7.21029 0.96124,-1.94457 2.05904,-3.82839 2.79951,-5.87288 0.3819,-0.97086 0.31524,-2.02789 0.58691,-3.01889 4.53222,-7.66549 8.38458,-7.62346 11.83279,-3.81067 1.46999,1.97503 3.05248,3.85607 4.6917,5.69151 1.76714,1.9159 3.41881,3.93273 5.16107,5.87175 1.74247,1.85077 3.59164,3.65685 5.75506,5.00718 2.92515,1.85742 6.2768,2.29521 9.64921,2.62866 6.56108,0.68986 12.96833,-0.93057 19.191,-2.82154 2.88074,-1.10149 3.7669,-1.36957 6.52654,-2.70081 0.97217,-0.46898 3.79288,-2.05901 2.87131,-1.49707 -12.50547,7.62536 -4.66072,2.57273 -2.03726,0.66938 2.27176,-1.72196 4.24392,-3.77048 5.87065,-6.10494 0.64386,-0.8948 0.9387,-1.88497 1.04479,-2.96495 0.006,-0.14584 0.011,-0.29169 0.0165,-0.43753 0,0 9.48949,-4.80249 9.48949,-4.80249 l 0,0 c -0.003,0.15753 -0.006,0.31505 -0.008,0.47257 -0.0324,1.22349 -0.19339,2.4365 -0.87358,3.48905 -1.54849,2.5411 -3.68203,4.66004 -5.96292,6.55002 -7.58741,5.65875 -15.97359,10.38172 -24.92432,13.48909 -6.37701,1.84325 -12.91991,3.34785 -19.60682,2.63559 -3.54536,-0.36801 -7.03892,-0.93341 -10.079,-2.93676 -2.18066,-1.47925 -4.10576,-3.30737 -5.89025,-5.24152 -1.75516,-1.92813 -3.38806,-3.96173 -5.15396,-5.87949 -1.64669,-1.81837 -3.19762,-3.71561 -4.75595,-5.60898 -0.23609,-0.22752 -0.63555,-0.65768 -0.9582,-0.83523 -0.12745,-0.0701 -0.26555,-0.1375 -0.41066,-0.14769 -0.0909,-0.006 -0.33263,0.14727 -0.25408,0.10103 8.71855,-5.132 12.07214,-6.40485 8.58327,-5.06237 -0.90562,0.40202 -0.3422,1.97262 -0.77846,2.76147 -0.64133,2.1629 -1.8635,4.07026 -2.8449,6.08781 -1.37323,2.74282 -3.09657,5.36405 -5.25953,7.54885 -1.20965,1.10682 -2.59739,2.70116 -3.96814,3.56042 -4.66201,2.92241 -9.43526,5.96068 -14.47726,8.2715 -4.33338,1.5701 -8.91113,2.7202 -13.5497,2.09291 -3.30578,-0.63607 -6.47073,-1.70574 -9.49076,-3.2079 -2.43395,-1.30751 -4.65664,-2.88995 -6.20988,-5.22735 -1.13805,-1.69349 -1.96635,-3.55686 -3.07183,-5.27169 -0.85354,-1.38656 -1.73359,-2.65805 -1.89612,-4.34166 -0.21102,-1.42949 -0.46925,-2.88536 -1.21379,-4.14897 -0.77488,3.49084 -0.0849,0.24127 8.90667,-5.11397 0.0787,-0.0469 -0.20728,0.002 -0.26474,0.0731 -0.33666,0.41755 -0.24524,1.2293 -0.67671,1.60769 -1.18561,1.60669 -2.837,2.85747 -4.5111,3.91655 -5.95719,4.04295 -12.33783,7.7554 -19.15127,10.17056 -4.22455,1.38248 -8.53008,2.65291 -12.99094,2.93867 -3.36741,0.13479 -6.74097,0.0911 -10.10667,-0.0833 -3.17311,-0.26076 -6.32343,-0.71328 -9.23334,-2.09377 -2.90817,-1.33981 -5.73389,-2.76909 -7.98628,-5.11386 -2.7598,-2.51395 -5.68449,-4.86771 -8.07397,-7.75996 -2.35243,-2.75259 -4.56124,-5.61543 -6.41079,-8.73665 -1.1531,-1.60585 -2.26666,-3.2712 -3.6024,-4.72849 -0.66454,-0.49838 -1.24855,-0.72426 -2.01536,-0.3151 2.91299,-1.68387 5.84594,-3.33365 8.73895,-5.0516 0.11504,-0.0683 -0.26805,0.0394 -0.39021,0.0939 -0.62007,0.27689 -0.90301,0.82822 -0.96459,1.47829 -0.42041,1.55684 -0.86411,3.10505 -1.32286,4.65187 -1.31522,3.32807 -3.14976,6.44013 -4.92887,9.53526 -2.92838,4.72027 -5.94584,9.38984 -9.367,13.7732 -2.71495,3.50285 -5.19856,7.16425 -7.70423,10.8183 0,0 -9.74141,4.12292 -9.74141,4.12292 z"
       inkscape:connector-curvature="0" />
    <path
       style="fill:#000000;fill-opacity:1;fill-rule:nonzero;stroke:none;stroke-width:1px;stroke-linecap:butt;stroke-linejoin:miter;stroke-opacity:1"
       id="path3340"
       d="m 247.12238,435.07215 c 2.90926,-4.38719 5.59416,-8.89902 8.29489,-13.39957 2.73511,-4.26708 5.05088,-8.73515 7.29125,-13.23963 1.04323,-2.19703 2.02186,-4.44291 3.43501,-6.46072 0.77471,-0.91797 1.39941,-1.87973 1.79346,-2.98619 1.80209,-3.79405 3.4071,-2.6229 10.46231,-6.16223 0.15204,-0.0763 0.34654,0.0631 0.4926,0.14899 0.56727,0.33356 0.77353,0.73621 1.15305,1.24452 1.67352,2.8722 2.98627,5.92794 4.4642,8.8959 1.34183,2.88315 2.99606,5.5839 4.99997,8.10195 1.91843,2.09823 3.95835,4.07209 6.30508,5.75142 2.24255,1.45639 4.60907,2.82654 7.07994,3.92614 3.15942,1.1379 6.4949,1.71523 9.83731,2.13636 4.66459,0.65195 9.28254,0.39204 13.84713,-0.6392 0.79942,-0.27685 1.61433,-0.51747 2.39826,-0.83057 0.85716,-0.34236 1.69124,-0.73422 2.51961,-1.13365 0.86798,-0.41853 3.42042,-1.76419 2.56757,-1.31933 -2.22936,1.16286 -4.372,2.48757 -6.69713,3.47336 -0.99524,0.42196 1.79433,-1.16635 2.67665,-1.76879 0.88087,-0.60144 1.74153,-1.22828 2.61229,-1.84241 3.99058,-2.8538 7.73716,-6.02088 10.88761,-9.68551 1.28599,-1.74839 2.8571,-3.30834 4.09395,-5.08717 1.97459,-4.00803 7.49922,-9.33881 11.94573,-6.18509 1.69476,1.74232 3.00507,3.78155 4.39452,5.73792 1.20341,2.11354 2.74684,3.90154 4.62914,5.50796 2.39572,1.99626 5.02148,3.76032 7.7441,5.34604 2.63802,1.54097 5.32119,3.03785 8.17792,4.19976 3.31919,1.49262 6.36913,2.05286 10.03732,2.00593 2.96084,-0.20709 5.9053,-0.74631 8.61022,-1.92794 0.72485,-0.31665 2.80867,-1.43363 2.11221,-1.06557 -2.42111,1.27952 -4.85766,2.53339 -7.28649,3.80009 4.47782,-2.8717 8.06213,-6.66909 11.2099,-10.76028 1.68124,-2.14585 2.96525,-4.50496 4.12732,-6.9201 0.5453,-0.8987 0.52599,-1.99312 1.17354,-2.83344 8.08441,-4.97414 8.59236,-7.74061 13.2722,-3.24612 2.12359,2.20604 3.74987,4.76029 5.52901,7.20331 1.52561,2.33621 3.07726,4.63204 4.91129,6.76947 2.75059,2.94429 6.50347,4.76802 10.30929,6.245 3.12894,1.03268 6.71375,1.72555 9.93784,0.58358 0.52537,-0.18608 1.0042,-0.47106 1.50629,-0.7066 -15.13016,8.22736 -8.01078,4.79365 -5.30115,1.89148 1.46385,-1.56786 2.58817,-3.32474 3.71701,-5.10697 1.68648,-2.73036 3.23104,-5.5207 4.21296,-8.54275 0.38915,-1.22029 0.53459,-2.48373 0.55124,-3.7518 8.9e-4,-0.94202 -0.0121,-1.88415 -0.0302,-2.82603 -0.003,-1.01305 -0.01,-2.0261 -0.006,-3.03917 0.004,-1.0003 -0.0419,-2.00154 0.047,-2.99896 0.19975,-0.7384 0.0686,-0.39776 0.37451,-1.02805 0,0 10.41975,-4.29449 10.41975,-4.29449 l 0,0 c -0.39192,0.42546 -0.20141,0.20621 -0.57098,0.65816 -0.28313,0.91512 -0.0647,1.89667 -0.1357,2.84013 0.004,1.00811 -6.7e-4,2.0162 0.0145,3.02428 0.002,0.94998 0.0269,1.89979 0.0356,2.84972 -0.0174,1.36983 -0.0968,2.73948 -0.50611,4.06572 -1.02287,3.11637 -2.51079,6.02494 -4.28073,8.83476 -5.02052,8.2662 -6.66534,8.61126 -17.3128,13.89549 -0.54125,0.18007 -1.06704,0.40751 -1.62376,0.5402 -3.43354,0.81835 -7.03408,-0.009 -10.25047,-1.16083 -3.94416,-1.6163 -7.8468,-3.53077 -10.73048,-6.59846 -1.86273,-2.15364 -3.43295,-4.47264 -4.93272,-6.85808 -1.7256,-2.39383 -3.33511,-4.88663 -5.4963,-6.97081 -0.53231,-0.4545 -1.15065,-1.11787 -1.89458,-1.29535 -0.20374,-0.0486 -0.7751,0.29886 -0.59348,0.19986 3.14096,-1.71213 6.27595,-3.43378 9.41394,-5.15067 -0.0923,0.0338 -0.60384,0.21312 -0.67315,0.27221 -0.59691,0.50903 -0.26623,1.57049 -0.77926,2.14701 -1.27644,2.48243 -2.53302,4.97633 -4.3055,7.19936 -3.10871,4.18463 -6.67511,8.0642 -11.06199,11.13487 -8.27235,4.54781 -13.40389,8.68092 -22.71375,9.02375 -3.63782,-0.1003 -7.10771,-0.79268 -10.39281,-2.30598 -2.84916,-1.25494 -5.55101,-2.76575 -8.20013,-4.35412 -2.77793,-1.6385 -5.47285,-3.42683 -7.93757,-5.46007 -1.93196,-1.6775 -3.50794,-3.54848 -4.72833,-5.74567 -1.28568,-1.80579 -2.5128,-3.76748 -4.25846,-5.21613 -0.11282,-0.0216 -0.22741,-0.0932 -0.33847,-0.0647 -0.0877,0.0225 -0.25276,0.23881 -0.17417,0.19608 20.90342,-11.36541 9.8267,-7.18544 8.45752,-4.07405 -1.05249,1.98236 -2.91006,3.46435 -4.21035,5.3019 -3.09313,3.83554 -6.96895,7.05479 -10.99622,10.01641 -0.62287,0.44657 -4.56373,3.29552 -5.23651,3.68376 -3.96241,2.28659 -7.99703,4.46274 -12.02765,6.64289 -2.43596,1.31761 -5.03004,2.40769 -7.74381,3.11508 -4.67592,0.8881 -9.38042,1.04064 -14.11426,0.36515 -3.45674,-0.45733 -6.93919,-1.02757 -10.16005,-2.33837 -2.49241,-1.19706 -4.92282,-2.55803 -7.17074,-4.12073 -2.40049,-1.7621 -4.51678,-3.8013 -6.46832,-5.9938 -2.03892,-2.58371 -3.6763,-5.37345 -5.04519,-8.32126 -1.43581,-2.88951 -2.7192,-5.8917 -4.5177,-8.59728 -0.21422,-0.21874 -0.28867,-0.51251 -0.6169,-0.36423 -0.0871,0.0394 -0.30587,0.21983 -0.22228,0.17434 3.14197,-1.70993 6.26728,-3.44639 9.40092,-5.16958 -0.43948,0.0932 -0.25473,-0.0103 -0.5508,0.31564 -0.33618,0.44454 -0.36999,0.90428 -0.58833,1.40551 -0.2272,0.52156 -0.36312,0.65103 -0.70977,1.11839 -0.16335,0.22024 -0.32726,0.44011 -0.4909,0.66017 -1.6194,1.89564 -2.62339,4.16294 -3.69304,6.35619 -2.32716,4.5365 -4.6808,9.06036 -7.4485,13.38261 -2.63658,4.43478 -5.30255,8.85446 -7.9405,13.28813 0,0 -10.3201,4.27156 -10.3201,4.27156 z"
       inkscape:connector-curvature="0" />
  </g>
</svg>
